<svg xmlns="http://www.w3.org/2000/svg" viewBox="0 0 676 442"{% if include.width %} width="{{include.width}}" {% endif %} {% if include.height %} height="{{include.height}}" {% endif %}>
  <defs>
    <style>
      .liveflow-1 {
        fill: #cedff1;
      }
      .liveflow-2 {
        fill: #6ba0d4;
      }
      .liveflow-3 {
        fill: #41cdfc;
      }
      .liveflow-4 {
        fill: #9cbfe3;
      }
      .liveflow-5 {
        fill: #ff902c;
      }
      .liveflow-6 {
        fill: #ffe9d5;
      }
    </style>
  </defs>
  <title>liveflow</title>
  <g id="Layer_2" data-name="Layer 2">
    <g id="Layer_1-2" data-name="Layer 1"><rect class="liveflow-1" x="5" y="59" width="666" height="378"/><rect class="liveflow-2" x="5" y="5" width="666" height="54"/><path class="liveflow-3" d="M0,0V442H676V0ZM666,432H10V64H666ZM10,54V10H666V54Z"/><path class="liveflow-4" d="M167,361A113,113,0,1,1,280,248,113.13,113.13,0,0,1,167,361Zm0-216A103,103,0,1,0,270,248,103.12,103.12,0,0,0,167,145Z"/><path class="liveflow-3" d="M167,364a116,116,0,0,1,0-232v16A100,100,0,1,0,267,248h16A116.13,116.13,0,0,1,167,364Z"/><rect class="liveflow-3" x="410" y="167" width="27" height="54"/><rect class="liveflow-3" x="446" y="149" width="27" height="72"/><rect class="liveflow-3" x="482" y="176" width="27" height="45"/><rect class="liveflow-3" x="518" y="131" width="27" height="90"/><rect class="liveflow-3" x="554" y="158" width="27" height="63"/><rect class="liveflow-3" x="590" y="140" width="27" height="81"/><path
      class="liveflow-3"
      d="M401,361a5,5,0,0,1-3.54-8.54l45-45a5,5,0,0,1,7.07,0l19,19L483,312a5,5,0,0,1,7.07,0l28,28,50.46-50.46a5,5,0,0,1,7.07,0l19,19,28-28a5,5,0,0,1,7.07,7.07L598,319a5,5,0,0,1-7.07,0l-19-19-50.46,50.46a5,5,0,0,1-7.07,0l-28-28L472,337a5,5,0,0,1-7.07,0l-19-19-41.46,41.46A5,5,0,0,1,401,361Z"/><rect class="liveflow-5" x="617" y="5" width="54" height="54"/><path class="liveflow-5" d="M676,64H612V0h64ZM622,54h44V10H622Z"/><polygon class="liveflow-6" points="661.71 21.37 654.63 14.29 644 24.93 633.37 14.29 626.29 21.37 636.93 32 626.29 42.63 633.37 49.71 644 39.07 654.63 49.71 661.71 42.63 651.07 32 661.71 21.37"/></g>
  </g>
</svg>
