<svg xmlns="http://www.w3.org/2000/svg" viewBox="0 0 579 370"{% if include.width %} width="{{include.width}}" {% endif %} {% if include.height %} height="{{include.height}}" {% endif %}>
  <defs>
    <style>
      .mpa-1 {
        fill: #6ba0d4;
      }
      .mpa-2 {
        fill: #9cbfe3;
      }
      .mpa-3 {
        fill: #cedff1;
      }
      .mpa-4 {
        fill: #41cdfc;
      }
      .mpa-5 {
        fill: #3980c6;
      }
      .mpa-6 {
        fill: #ff902c;
      }
    </style>
  </defs>
  <title>memory-pipeline-architecture</title>
  <g id="Layer_2" data-name="Layer 2">
    <g id="Layer_1-2" data-name="Layer 1"><path
      class="mpa-1"
      d="M579,308.9V75.5H297V97.1H252V265.7h45v43.2h77l-13.65,54.6H332.7v3h144v-3H449.07l-13.65-54.6ZM255,262.7V100.1h42V262.7Zm45-162.6H554.4V262.7H300Zm0,205.8V265.7H557.4V97.1H300V78.5H576V305.9H300Zm146,57.6H363.42l13.65-54.6h55.26Z"/><path class="mpa-2" d="M300,317V116H0V317H123.28l-11.55,46.5H88.1v3H211.9v-3H188.27L176.72,317ZM3,314V119H297V314H3Zm182.18,49.5H114.82L126.37,317h47.25Z"/><path class="mpa-2" d="M281.5,134.6H18.6V279.9H281.5Zm-3,142.3H21.6V137.6H278.5Z"/><rect class="mpa-3" x="73.5" y="5" width="432" height="288"/><path class="mpa-4" d="M510.5,298H68.5V0h442Zm-432-10h422V10H78.5Z"/><rect class="mpa-5" x="100.5" y="32" width="378" height="207"/><path class="mpa-4" d="M483.5,244H95.5V27h388Zm-378-10h368V37h-368Z"/><polygon class="mpa-1" points="343.5 365 235.5 365 253.5 293 325.5 293 343.5 365"/><path class="mpa-4" d="M349.9,370H229.1l20.5-82H329.4Zm-108-10H337.1l-15.5-62H257.4Z"/><rect class="mpa-4" x="199.5" y="360" width="180" height="10"/><path class="mpa-3" d="M375.5,172h-172V61h48.6v8.4H375.5Z"/><path
      class="mpa-4"
      d="M243.3,101.8c4.4,0,7.1,1.4,8.7,3a10.4,10.4,0,0,1,3,7.7,9.26,9.26,0,0,1-2.7,7,10.3,10.3,0,0,1-4.8,2.6l10.5,14h-9.7L239,122.6v13.5h-7.9V101.8Zm-4.1,15.6H241a6.65,6.65,0,0,0,4.7-1.5,4.6,4.6,0,0,0,1.3-3.3,3.93,3.93,0,0,0-1.6-3.5A7.61,7.61,0,0,0,241,108h-1.9l.1,9.4Z"/><path class="mpa-4" d="M288.3,129.7h-13l-2.6,6.5h-8.2l13.8-34.3h7.2L299,136.2h-8.2Zm-2.1-6.1L282,112.1l-4.3,11.5Z"/><path class="mpa-4" d="M306.5,136.1l5.5-34.3h6.6l8.5,20.5,8.5-20.5h6.6l5.5,34.3h-7.9l-2.7-20.5-8.6,20.5h-2.8l-8.6-20.5-2.7,20.5Z"/><polygon class="mpa-6" points="354.54 181.46 347.46 188.53 356.93 198 199.5 198 199.5 208 356.93 208 347.46 217.47 354.54 224.53 376.07 203 354.54 181.46"/></g>
  </g>
</svg>
