<svg xmlns="http://www.w3.org/2000/svg" viewBox="0 0 640 640"{% if include.width %} width="{{include.width}}" {% endif %} {% if include.height %} height="{{include.height}}" {% endif %}>
  <defs>
    <style>
      .p2ppxe-1 {
        fill: #9cbfe3;
      }
      .p2ppxe-2 {
        fill: #41cdfc;
      }
      .p2ppxe-3 {
        fill: #cedff1;
      }
      .p2ppxe-4 {
        fill: #ffe9d5;
      }
      .p2ppxe-5 {
        fill: #ff902c;
      }
    </style>
  </defs>
  <title>p2p-pxe</title>
  <g id="Layer_2" data-name="Layer 2">
    <g id="Layer_1-2" data-name="Layer 1"><polygon class="p2ppxe-1" points="539.53 107.54 532.47 100.46 320 312.93 107.54 100.46 100.46 107.54 312.93 320 100.46 532.47 107.54 539.53 320 327.07 532.47 539.53 539.53 532.47 327.07 320 539.53 107.54"/><path
      class="p2ppxe-2"
      d="M541,394.06,615.07,320,541,245.92V99H394.08L320,24.92,245.92,99H99V245.92L24.93,320,99,394.06V541H245.94L320,615.06,394.06,541H541ZM600.93,320,541,379.92V260.06ZM531,389.92,389.92,531H250.08L109,389.92V250.06L250.06,109H389.94L531,250.06ZM531,109V235.92L404.08,109ZM320,39.06,379.94,99H260.06ZM109,109H235.92L109,235.92ZM39.07,320,99,260.06V379.92ZM109,531V404.06L235.94,531Zm211,69.92L260.08,541H379.92ZM404.06,531,531,404.06V531Z"/><circle class="p2ppxe-3" cx="320" cy="608" r="27"/><path class="p2ppxe-2" d="M320,640a32,32,0,1,1,32-32A32,32,0,0,1,320,640Zm0-54a22,22,0,1,0,22,22A22,22,0,0,0,320,586Z"/><circle class="p2ppxe-3" cx="320" cy="32" r="27"/><path class="p2ppxe-2" d="M320,64a32,32,0,1,1,32-32A32,32,0,0,1,320,64Zm0-54a22,22,0,1,0,22,22A22,22,0,0,0,320,10Z"/><circle class="p2ppxe-3" cx="32" cy="320" r="27"/><path class="p2ppxe-2" d="M32,352a32,32,0,1,1,32-32A32,32,0,0,1,32,352Zm0-54a22,22,0,1,0,22,22A22,22,0,0,0,32,298Z"/><circle class="p2ppxe-3" cx="608" cy="320" r="27"/><path class="p2ppxe-2" d="M608,352a32,32,0,1,1,32-32A32,32,0,0,1,608,352Zm0-54a22,22,0,1,0,22,22A22,22,0,0,0,608,298Z"/><circle class="p2ppxe-3" cx="536" cy="104" r="27"/><path class="p2ppxe-2" d="M536,136a32,32,0,1,1,32-32A32,32,0,0,1,536,136Zm0-54a22,22,0,1,0,22,22A22,22,0,0,0,536,82Z"/><circle class="p2ppxe-3" cx="104" cy="104" r="27"/><path class="p2ppxe-2" d="M104,136a32,32,0,1,1,32-32A32,32,0,0,1,104,136Zm0-54a22,22,0,1,0,22,22A22,22,0,0,0,104,82Z"/><circle class="p2ppxe-3" cx="536" cy="536" r="27"/><path class="p2ppxe-2" d="M536,568a32,32,0,1,1,32-32A32,32,0,0,1,536,568Zm0-54a22,22,0,1,0,22,22A22,22,0,0,0,536,514Z"/><circle class="p2ppxe-3" cx="104" cy="536" r="27"/><path class="p2ppxe-2" d="M104,568a32,32,0,1,1,32-32A32,32,0,0,1,104,568Zm0-54a22,22,0,1,0,22,22A22,22,0,0,0,104,514Z"/><rect class="p2ppxe-4" x="140" y="176" width="360" height="288"/><path class="p2ppxe-5" d="M135,171V469H505V171ZM495,459H145V244H495Z"/><rect class="p2ppxe-5" x="176" y="275" width="288" height="9"/><rect class="p2ppxe-5" x="176" y="302" width="288" height="9"/><rect class="p2ppxe-5" x="176" y="329" width="288" height="9"/><rect class="p2ppxe-5" x="176" y="356" width="153" height="9"/><polygon class="p2ppxe-4" points="476.54 197.54 469.46 190.46 459.5 200.43 449.54 190.46 442.46 197.54 452.43 207.5 442.46 217.46 449.54 224.54 459.5 214.57 469.46 224.54 476.54 217.46 466.57 207.5 476.54 197.54"/><path
      class="p2ppxe-4"
      d="M186.37,194c2.61,0,5.49.36,7.88,2.48a9.23,9.23,0,0,1,2.93,7.29,9.66,9.66,0,0,1-2.57,7.07c-2.39,2.43-5.54,2.66-7.65,2.66h-4.23V224H175.8V194h10.57Zm-3.65,13.82h2.48a5.31,5.31,0,0,0,3.74-1.13,4.18,4.18,0,0,0,1.13-3,4,4,0,0,0-1.13-2.93,5.41,5.41,0,0,0-3.87-1.13h-2.34v8.19Z"/><path class="p2ppxe-4" d="M212.84,208.09,203.52,194h8.33l5,8.55,5-8.55h8.33l-9.32,14.09,11,15.94h-8.33l-6.66-10.4L210.14,224h-8.33Z"/><path class="p2ppxe-4" d="M257,199.85H247v5.81h9.54v5.85H247v6.66h10V224H240V194h17Z"/></g>
  </g>
</svg>
