<svg xmlns="http://www.w3.org/2000/svg" viewBox="0 0 352 352"{% if include.width %} width="{{include.width}}" {% endif %} {% if include.height %} height="{{include.height}}" {% endif %}>
  <defs>
    <style>
      .pbh-1 {
        fill: #cedff1;
      }
      .pbh-2 {
        fill: #41cdfc;
      }
      .pbh-3 {
        fill: #ffe9d5;
      }
      .pbh-4 {
        fill: #ff902c;
      }
    </style>
  </defs>
  <title>predictive-bandwidth-harvesting</title>
  <g id="Layer_2" data-name="Layer 2">
    <g id="Layer_1-2" data-name="Layer 1"><path class="pbh-1" d="M103.47,137.4,64.08,106.6a142,142,0,0,1,223.85,0l-39.39,30.8a92,92,0,0,0-145.07,0Z"/><path
      class="pbh-2"
      d="M248.54,142.4a5,5,0,0,1-3.94-1.92,87,87,0,0,0-137.19,0,5,5,0,0,1-7,.86L61,110.54a5,5,0,0,1-.86-7,147,147,0,0,1,231.73,0,5,5,0,0,1-.86,7l-39.39,30.8A5,5,0,0,1,248.54,142.4ZM71.17,105.79l31.54,24.66a97,97,0,0,1,146.59,0l31.54-24.66a137,137,0,0,0-209.68,0Z"/><path class="pbh-2" d="M176,352C79,352,0,273,0,176S79,0,176,0a5,5,0,0,1,0,10C84.47,10,10,84.47,10,176S84.47,342,176,342s166-74.47,166-166a5,5,0,0,1,10,0C352,273,273,352,176,352Z"/><path class="pbh-2" d="M176,316C98.8,316,36,253.2,36,176a5,5,0,0,1,10,0,130,130,0,0,0,260,0,5,5,0,0,1,10,0C316,253.2,253.2,316,176,316Z"/><path class="pbh-2" d="M176,280a5,5,0,0,1,0-10,94.11,94.11,0,0,0,94-94,5,5,0,0,1,10,0A104.12,104.12,0,0,1,176,280Z"/><path class="pbh-3" d="M172.08,197.64a5,5,0,0,1-3.54-1.46l-12.73-12.73a5,5,0,0,1,0-7.07l.18-.17L289.65,55.29a5,5,0,0,1,7.06,7.06L175.79,196a5,5,0,0,1-3.58,1.64h-.13Z"/><path
      class="pbh-4"
      d="M299.81,51.68A10,10,0,0,0,293,49h-.31a10,10,0,0,0-3.3.68l-9.31-9.31-9.55-9.55a4.5,4.5,0,0,0-6.36.06l-.24.26a4.63,4.63,0,0,0,.43,6.17l9.41,9.41,3,3a4.63,4.63,0,0,1,.43,6.17,4.5,4.5,0,0,1-6.33.63l-.33-.3L267.36,53,251.59,37.27a4.63,4.63,0,0,0-6.17-.43,4.5,4.5,0,0,0-.63,6.33q.14.17.3.33l12.73,12.73a4.5,4.5,0,1,1-6.36,6.36l-6.23-6.23a4.63,4.63,0,0,0-6.17-.43,4.5,4.5,0,0,0-.63,6.33q.14.17.3.33L226.18,50a4.63,4.63,0,0,0-6.17-.43,4.5,4.5,0,0,0-.63,6.33q.14.17.3.33L242,78.54l3,3a4.63,4.63,0,0,1,.43,6.17,4.5,4.5,0,0,1-6.33.63l-.33-.3-3.18-3.18L219.82,69.09a4.63,4.63,0,0,0-6.17-.43A4.5,4.5,0,0,0,213,75q.14.17.3.33l15.91,15.91,6.29,6.29-82.87,75a10,10,0,0,0-.71,14.12l.35.37L165,199.71a10,10,0,0,0,7.07,2.93h.25a10,10,0,0,0,7.17-3.29L300.32,65.81A10,10,0,0,0,299.81,51.68Zm-127.73,141-12.73-12.73L293,59Z"/><circle class="pbh-3" cx="176" cy="176" r="27"/><path class="pbh-4" d="M176,208a32,32,0,1,1,32-32A32,32,0,0,1,176,208Zm0-54a22,22,0,1,0,22,22A22,22,0,0,0,176,154Z"/><circle class="pbh-4" cx="234.5" cy="27.5" r="4.5"/><circle class="pbh-4" cx="198.5" cy="36.5" r="4.5"/></g>
  </g>
</svg>
