<svg xmlns="http://www.w3.org/2000/svg" viewBox="0 0 152 190.13"{% if include.width %} width="{{include.width}}" {% endif %} {% if include.height %} height="{{include.height}}" {% endif %}>
  <defs>
    <style>
      .sec-config-1 {
        fill: #cedff1;
        stroke: #41cdfc;
        stroke-miterlimit: 10;
        stroke-width: 8px;
      }
      .sec-config-2 {
        fill: #ff902c;
      }

    </style>
  </defs>
  <title>Security Configuration Management</title>
  <g id="Layer_2" data-name="Layer 2">
    <g id="Layer_1-2" data-name="Layer 1"><path class="sec-config-1" d="M4,40.47l72-36,72,36h0A173.82,173.82,0,0,1,97.09,163.38L76,184.47,54.91,163.38A173.82,173.82,0,0,1,4,40.47Z"/><path
      class="sec-config-2"
      d="M110.25,91.45h0a8.05,8.05,0,0,1,0-12A8.23,8.23,0,0,0,112,77.28l-4.75-11.47a8.23,8.23,0,0,0-2.8-.33A8.05,8.05,0,0,1,96,57h0a8.23,8.23,0,0,0-.33-2.8L84.19,49.47A8.23,8.23,0,0,0,82,51.22h0a8.05,8.05,0,0,1-12,0h0a8.23,8.23,0,0,0-2.21-1.75L56.34,54.23A8.23,8.23,0,0,0,56,57h0a8.05,8.05,0,0,1-8.45,8.45,8.23,8.23,0,0,0-2.8.33L40,77.28a8.23,8.23,0,0,0,1.75,2.21,8.05,8.05,0,0,1,0,12h0A8.23,8.23,0,0,0,40,93.66l4.75,11.47a8.23,8.23,0,0,0,2.8.33A8.05,8.05,0,0,1,56,113.92h0a8.23,8.23,0,0,0,.33,2.8l11.47,4.75A8.23,8.23,0,0,0,70,119.73h0a8.05,8.05,0,0,1,12,0h0a8.23,8.23,0,0,0,2.21,1.75l11.47-4.75a8.23,8.23,0,0,0,.33-2.8h0a8.05,8.05,0,0,1,8.45-8.45,8.23,8.23,0,0,0,2.8-.33L112,93.66A8.23,8.23,0,0,0,110.25,91.45ZM76,102.71A17.23,17.23,0,1,1,93.23,85.47,17.23,17.23,0,0,1,76,102.71Z"/></g>
  </g>
</svg>
