<svg xmlns="http://www.w3.org/2000/svg" viewBox="0 0 514 469"{% if include.width %} width="{{include.width}}" {% endif %} {% if include.height %} height="{{include.height}}" {% endif %}>
  <defs>
    <style>
      .virtual-san-1 {
        fill: #cedff1;
      }
      .virtual-san-2 {
        fill: #41cdfc;
      }
      .virtual-san-3 {
        fill: #ffe9d5;
      }
      .virtual-san-4 {
        fill: #ff902c;
      }
    </style>
  </defs>
  <title>virtual-san</title>
  <g id="Layer_2" data-name="Layer 2">
    <g id="Layer_1-2" data-name="Layer 1"><circle class="virtual-san-1" cx="77" cy="185" r="72"/><path class="virtual-san-2" d="M77,262a77,77,0,1,1,77-77A77.09,77.09,0,0,1,77,262Zm0-144a67,67,0,1,0,67,67A67.08,67.08,0,0,0,77,118Z"/><circle class="virtual-san-1" cx="194" cy="284" r="63"/><path class="virtual-san-2" d="M194,352a68,68,0,1,1,68-68A68.08,68.08,0,0,1,194,352Zm0-126a58,58,0,1,0,58,58A58.07,58.07,0,0,0,194,226Z"/><circle class="virtual-san-3" cx="131" cy="68" r="36"/><path class="virtual-san-4" d="M131,109a41,41,0,1,1,41-41A41,41,0,0,1,131,109Zm0-72a31,31,0,1,0,31,31A31,31,0,0,0,131,37Z"/><circle class="virtual-san-1" cx="311" cy="41" r="36"/><path class="virtual-san-2" d="M311,82a41,41,0,1,1,41-41A41,41,0,0,1,311,82Zm0-72a31,31,0,1,0,31,31A31,31,0,0,0,311,10Z"/><circle class="virtual-san-1" cx="257" cy="167" r="45"/><path class="virtual-san-2" d="M257,217a50,50,0,1,1,50-50A50.06,50.06,0,0,1,257,217Zm0-90a40,40,0,1,0,40,40A40,40,0,0,0,257,127Z"/><circle class="virtual-san-1" cx="455" cy="185" r="54"/><path class="virtual-san-2" d="M455,244a59,59,0,1,1,59-59A59.07,59.07,0,0,1,455,244Zm0-108a49,49,0,1,0,49,49A49.06,49.06,0,0,0,455,136Z"/><circle class="virtual-san-1" cx="212" cy="41" r="27"/><path class="virtual-san-2" d="M212,73a32,32,0,1,1,32-32A32,32,0,0,1,212,73Zm0-54a22,22,0,1,0,22,22A22,22,0,0,0,212,19Z"/><circle class="virtual-san-1" cx="383" cy="95" r="27"/><path class="virtual-san-2" d="M383,127a32,32,0,1,1,32-32A32,32,0,0,1,383,127Zm0-54a22,22,0,1,0,22,22A22,22,0,0,0,383,73Z"/><circle class="virtual-san-1" cx="437" cy="284" r="27"/><path class="virtual-san-2" d="M437,316a32,32,0,1,1,32-32A32,32,0,0,1,437,316Zm0-54a22,22,0,1,0,22,22A22,22,0,0,0,437,262Z"/><circle class="virtual-san-1" cx="338" cy="239" r="18"/><path class="virtual-san-2" d="M338,262a23,23,0,1,1,23-23A23,23,0,0,1,338,262Zm0-36a13,13,0,1,0,13,13A13,13,0,0,0,338,226Z"/><circle class="virtual-san-1" cx="374" cy="293" r="18"/><path class="virtual-san-2" d="M374,316a23,23,0,1,1,23-23A23,23,0,0,1,374,316Zm0-36a13,13,0,1,0,13,13A13,13,0,0,0,374,280Z"/><circle class="virtual-san-1" cx="428" cy="446" r="18"/><path class="virtual-san-2" d="M428,469a23,23,0,1,1,23-23A23,23,0,0,1,428,469Zm0-36a13,13,0,1,0,13,13A13,13,0,0,0,428,433Z"/><circle class="virtual-san-1" cx="302" cy="302" r="27"/><path class="virtual-san-2" d="M302,334a32,32,0,1,1,32-32A32,32,0,0,1,302,334Zm0-54a22,22,0,1,0,22,22A22,22,0,0,0,302,280Z"/><circle class="virtual-san-3" cx="356" cy="176" r="27"/><path class="virtual-san-4" d="M356,208a32,32,0,1,1,32-32A32,32,0,0,1,356,208Zm0-54a22,22,0,1,0,22,22A22,22,0,0,0,356,154Z"/><circle class="virtual-san-1" cx="261.5" cy="90.5" r="13.5"/><path class="virtual-san-2" d="M261.5,109A18.5,18.5,0,1,1,280,90.5,18.52,18.52,0,0,1,261.5,109Zm0-27a8.5,8.5,0,1,0,8.5,8.5A8.51,8.51,0,0,0,261.5,82Z"/><circle class="virtual-san-1" cx="189.5" cy="117.5" r="13.5"/><path class="virtual-san-2" d="M189.5,136A18.5,18.5,0,1,1,208,117.5,18.52,18.52,0,0,1,189.5,136Zm0-27a8.5,8.5,0,1,0,8.5,8.5A8.51,8.51,0,0,0,189.5,109Z"/><circle class="virtual-san-1" cx="54.5" cy="81.5" r="13.5"/><path class="virtual-san-2" d="M54.5,100A18.5,18.5,0,1,1,73,81.5,18.52,18.52,0,0,1,54.5,100Zm0-27A8.5,8.5,0,1,0,63,81.5,8.51,8.51,0,0,0,54.5,73Z"/><circle class="virtual-san-1" cx="441.5" cy="90.5" r="13.5"/><path class="virtual-san-2" d="M441.5,109A18.5,18.5,0,1,1,460,90.5,18.52,18.52,0,0,1,441.5,109Zm0-27a8.5,8.5,0,1,0,8.5,8.5A8.51,8.51,0,0,0,441.5,82Z"/><circle class="virtual-san-1" cx="279.5" cy="234.5" r="13.5"/><path class="virtual-san-2" d="M279.5,253A18.5,18.5,0,1,1,298,234.5,18.52,18.52,0,0,1,279.5,253Zm0-27a8.5,8.5,0,1,0,8.5,8.5A8.51,8.51,0,0,0,279.5,226Z"/><circle class="virtual-san-3" cx="486.5" cy="324.5" r="13.5"/><path class="virtual-san-4" d="M486.5,343A18.5,18.5,0,1,1,505,324.5,18.52,18.52,0,0,1,486.5,343Zm0-27a8.5,8.5,0,1,0,8.5,8.5A8.51,8.51,0,0,0,486.5,316Z"/><circle class="virtual-san-1" cx="396.5" cy="333.5" r="13.5"/><path class="virtual-san-2" d="M396.5,352A18.5,18.5,0,1,1,415,333.5,18.52,18.52,0,0,1,396.5,352Zm0-27a8.5,8.5,0,1,0,8.5,8.5A8.51,8.51,0,0,0,396.5,325Z"/><circle class="virtual-san-1" cx="387.5" cy="396.5" r="13.5"/><path class="virtual-san-2" d="M387.5,415A18.5,18.5,0,1,1,406,396.5,18.52,18.52,0,0,1,387.5,415Zm0-27a8.5,8.5,0,1,0,8.5,8.5A8.51,8.51,0,0,0,387.5,388Z"/><circle class="virtual-san-1" cx="180.5" cy="171.5" r="13.5"/><path class="virtual-san-2" d="M180.5,190A18.5,18.5,0,1,1,199,171.5,18.52,18.52,0,0,1,180.5,190Zm0-27a8.5,8.5,0,1,0,8.5,8.5A8.51,8.51,0,0,0,180.5,163Z"/><circle class="virtual-san-1" cx="387.5" cy="243.5" r="13.5"/><path class="virtual-san-2" d="M387.5,262A18.5,18.5,0,1,1,406,243.5,18.52,18.52,0,0,1,387.5,262Zm0-27a8.5,8.5,0,1,0,8.5,8.5A8.51,8.51,0,0,0,387.5,235Z"/><circle class="virtual-san-3" cx="351.5" cy="351.5" r="13.5"/><path class="virtual-san-4" d="M351.5,370A18.5,18.5,0,1,1,370,351.5,18.52,18.52,0,0,1,351.5,370Zm0-27a8.5,8.5,0,1,0,8.5,8.5A8.51,8.51,0,0,0,351.5,343Z"/><circle class="virtual-san-1" cx="315.5" cy="117.5" r="13.5"/><path class="virtual-san-2" d="M315.5,136A18.5,18.5,0,1,1,334,117.5,18.52,18.52,0,0,1,315.5,136Zm0-27a8.5,8.5,0,1,0,8.5,8.5A8.51,8.51,0,0,0,315.5,109Z"/><circle class="virtual-san-1" cx="495.5" cy="261.5" r="13.5"/><path class="virtual-san-2" d="M495.5,280A18.5,18.5,0,1,1,514,261.5,18.52,18.52,0,0,1,495.5,280Zm0-27a8.5,8.5,0,1,0,8.5,8.5A8.51,8.51,0,0,0,495.5,253Z"/></g>
  </g>
</svg>
