<svg xmlns="http://www.w3.org/2000/svg" viewBox="0 0 391.97 397"{% if include.width %} width="{{include.width}}" {% endif %} {% if include.height %} height="{{include.height}}" {% endif %}>
  <defs>
    <style>
      .wfde-1 {
        fill: #ff902c;
      }
      .wfde-2 {
        fill: #cedff1;
      }
      .wfde-3 {
        fill: #41cdfc;
      }
      .wfde-4 {
        fill: #ffe9d5;
      }
    </style>
  </defs>
  <title>workflow-designer</title>
  <g id="Layer_2" data-name="Layer 2">
    <g id="Layer_1-2" data-name="Layer 1"><rect class="wfde-1" x="239" y="261" width="81" height="10"/><circle class="wfde-2" cx="194" cy="50" r="45"/><path class="wfde-3" d="M194,100a50,50,0,1,1,50-50A50.06,50.06,0,0,1,194,100Zm0-90a40,40,0,1,0,40,40A40,40,0,0,0,194,10Z"/><rect class="wfde-2" x="5" y="221" width="90" height="90"/><path class="wfde-3" d="M100,316H0V216H100ZM10,306H90V226H10Z"/><rect class="wfde-2" x="149" y="221" width="90" height="90"/><path class="wfde-3" d="M244,316H144V216H244Zm-90-10h80V226H154Z"/><polygon class="wfde-4" points="383 311 293 311 338 221 383 311"/><path class="wfde-1" d="M391.09,316H284.91L338,209.82Zm-90-10h73.82L338,232.18Z"/><polygon class="wfde-3" points="189 95 189 171 45 171 45 221 55 221 55 181 189 181 189 221 199 221 199 95 189 95"/><path
      class="wfde-3"
      d="M381.62,327.67a10.17,10.17,0,0,0-5.1,1.39,10.36,10.36,0,0,0-8.76-4.85,10.11,10.11,0,0,0-5.1,1.39,10.36,10.36,0,0,0-8.76-4.85,10.19,10.19,0,0,0-3.47.64v-18a10.4,10.4,0,0,0-20.8,0v31.84a10.1,10.1,0,0,0-3.47-.64,10.4,10.4,0,0,0-10.4,10.4v20.8h.06a3.26,3.26,0,0,0,.6,1.71L331,387.24c4.06,5.47,12.56,9.76,19.39,9.76h17.33c7.11,0,14.87-5.12,17.68-11.65l2.2-5.16c2.45-5.74,4.37-14.33,4.37-19.59V338a10.36,10.36,0,0,0-10.34-10.38Zm3.47,32.93c0,4.31-1.75,12-3.83,16.85l-2.2,5.16c-1.71,4-7,7.47-11.32,7.47H350.42c-4.62,0-11.07-3.24-13.79-7L322.69,364.3V345a3.48,3.48,0,0,1,7,0h0v6.93a3.48,3.48,0,0,0,7,0V303.4a3.47,3.47,0,0,1,3.47-3.47h0a3.43,3.43,0,0,1,3.43,3.43v48.57a3.47,3.47,0,0,0,6.95,0v-20.8a3.48,3.48,0,1,1,7,0h0v20.8a3.48,3.48,0,0,0,7,0V334.6a3.48,3.48,0,1,1,7,0v17.33a3.48,3.48,0,0,0,7,0V338a3.48,3.48,0,1,1,7,0V360.6h-.1Z"/><path
      class="wfde-2"
      d="M381.7,334.58a3.47,3.47,0,0,0-3.47,3.47v13.87a3.48,3.48,0,1,1-7,0V334.6a3.48,3.48,0,1,0-7,0v17.33a3.48,3.48,0,0,1-7,0v-20.8a3.48,3.48,0,1,0-7,0h0v20.8a3.48,3.48,0,0,1-7,0V303.4a3.43,3.43,0,0,0-3.39-3.47h0a3.47,3.47,0,0,0-3.47,3.47h0v48.53a3.48,3.48,0,0,1-7,0V345a3.48,3.48,0,0,0-7,0h0v19.3l13.94,18.82c2.72,3.7,9.17,7,13.79,7h17.33c4.33,0,9.61-3.49,11.32-7.47l2.2-5.16c2.08-4.8,3.83-12.54,3.83-16.85h.08V338A3.48,3.48,0,0,0,381.7,334.58Z"/></g>
  </g>
</svg>
