<svg xmlns="http://www.w3.org/2000/svg" viewBox="0 0 181.2 39.19">
  <defs>
    <style>
      .fidelity-1 {
        fill: #fff;
      }
      .fidelity-2 {
        fill: #231f20;
      }
    </style>
  </defs>
  <title>Fidelity Investments</title>
  <g id="Layer_2" data-name="Layer 2">
    <g id="svg39011">
      <g id="layer1"><path id="path38495" class="fidelity-1" d="M18.79,37.34A18.24,18.24,0,1,0,.55,19.1,18.24,18.24,0,0,0,18.79,37.34"/><path
        id="path38499"
        class="fidelity-2"
        d="M16,22.14H22.7l2,1.27h-9l-4,12.45A18.59,18.59,0,0,1,1.42,11.45,18.67,18.67,0,0,1,24,.76,18.7,18.7,0,0,1,36.53,24.25a18.26,18.26,0,0,1-6,8.87l-5-8.26,6.9,3.85s.06,0,0-.08l-9-7.8,11.69,1.78s.06,0,.06,0l-.08-.06-11-3.86,11.45-2.77s0,0,0-.06l-11.75.77,9.2-7s-.06-.06-.08,0L22.63,14.84l5.7-10.06s0-.06,0,0l-7.45,8.74L22.28,2s0,0-.08,0L18.77,13.14l-3-11.49s-.06,0-.08,0l.83,11.92L9.44,4.35s0,0-.06,0l5.35,10.19L4.61,9s-.06,0-.06,0l9,7.39L2.06,15.25s0,.06,0,.08L13.2,18.59,2.12,21.84a.05.05,0,0,0,0,.08l11.43-1.33-9,7.63s0,0,0,.06l.12,0,7.19-3.77,1.69-2.68h1.92l-1.33-.94,4.45-7.14L16,22.14h0"/><path id="path38503" class="fidelity-2" d="M49.13,31.54h-9L47.34,5.91H65.72L64,12H54.59l-1.2,4.36h9.38L61.18,22H51.81Z"/><path id="path38507" class="fidelity-2" d="M69.87,31.54H61l5.26-18.72h8.86ZM75.61,11H66.75l1.44-5.12h8.86Z"/><path
        id="path38511"
        class="fidelity-2"
        d="M92.86,31.54H84.17l.62-2.09A9.17,9.17,0,0,1,78.4,32c-2.89,0-4.7-1.37-4.7-4.29a26.47,26.47,0,0,1,3.16-11.4,7.38,7.38,0,0,1,6.77-3.81c2.51,0,4.36,1.1,5.08,2.47l2.47-9H100L92.86,31.54ZM86.2,18.38a2,2,0,0,0-2,1.34,12.6,12.6,0,0,0-1.24,4.67,1.31,1.31,0,0,0,1.37,1.34,2.64,2.64,0,0,0,1.51-.45l1.79-6.15a1.78,1.78,0,0,0-1.41-.76"/><path
        id="path38515"
        class="fidelity-2"
        d="M117.89,23.36H105.66a10.63,10.63,0,0,0-.48,2.47,1.19,1.19,0,0,0,1.3,1.34c1.24,0,1.79-.48,2.3-2.3h8.69c-1.1,5.33-7.42,7.14-11.3,7.14-5.26,0-9.34-.76-9.34-5.8a19.44,19.44,0,0,1,3.26-9.82c2.23-2.92,6.11-4,9.69-4,5.49,0,9.07,1.13,9.07,5.8a23.26,23.26,0,0,1-1,5.19M109,17.08c-1.1,0-1.85.76-2.33,2.64h3.64a6.13,6.13,0,0,0,.24-1.3c0-1-.62-1.34-1.55-1.34"/><path id="path38519" class="fidelity-2" d="M126.79,31.54h-8.86l7.18-25.63H134Z"/><path id="path38523" class="fidelity-2" d="M138.5,31.54h-8.86l5.26-18.72h8.86ZM144.24,11h-8.86l1.44-5.12h8.86Z"/><path id="path38527" class="fidelity-2" d="M160.17,12.82l.77,4.22h-6.78l-2,7.11a6.51,6.51,0,0,0-.31,1.68c0,.82.34,1.1,1.55,1.1h1.89L154,31.54h-7.9c-2.61,0-3.61-1.27-3.61-3.2a9.39,9.39,0,0,1,.38-2.61l4.81-17.07h8.86l-1.17,4.16h4.81"/><path id="path38531" class="fidelity-2" d="M40,34.42h2.21L40.78,39h-2.2L40,34.42Z"/><path id="path38535" class="fidelity-2" d="M47.69,34.42h3.23l.83,3.07h0l.93-3.08h1.92L53.21,39H50.12l-.9-3.28h0l-1,3.28H46.31l1.38-4.6Z"/><path id="path38539" class="fidelity-2" d="M58.81,34.42h2.43l.42,2.9,2.23-2.9h2.25L62.44,39h-2.7l-.92-4.6Z"/><path id="path38543" class="fidelity-2" d="M70.38,34.42h5l-.28.93H72.24L72,36.3h2.71l-.27.89H71.69l-.28.91h2.92L74,39H69Z"/><path id="path38547" class="fidelity-2" d="M92,35.55H90.24l.34-1.12h5.65l-.34,1.12H94.17L93.12,39H90.91L92,35.55Z"/><path id="path38551" class="fidelity-2" d="M100.8,34.42h3.35l.16,3.08h0l2-3.08h3.36L108.29,39h-2l1-3.47h0L104.79,39h-2.13l-.3-3.47h0l-1,3.46H99.41l1.4-4.6Z"/><path id="path38555" class="fidelity-2" d="M123.74,34.42H127l.83,3.07h0l.93-3.08h1.92L129.27,39h-3.13l-.87-3.28h0l-1,3.28h-1.92Z"/><path id="path38559" class="fidelity-2" d="M136,35.54h-1.72l.34-1.12h5.65l-.34,1.12h-1.72L137.13,39h-2.21L136,35.54Z"/><path
        id="path38565"
        class="fidelity-2"
        d="M82.18,35.82a.22.22,0,0,1,0-.21c.07-.23.36-.39.83-.39a1.91,1.91,0,0,1,.82.13.32.32,0,0,1,.13.37h2c.23-.82-.29-1.35-2.5-1.35s-3.29.45-3.6,1.46a.79.79,0,0,0,.13.8c.54.54,3,.75,3.19,1a.23.23,0,0,1,0,.21c-.11.37-.64.47-1.09.47a1.35,1.35,0,0,1-.78-.18.41.41,0,0,1,0-.42h-2c-.21.71-.29,1.46,2.55,1.46,2.39,0,3.48-.59,3.76-1.5a.78.78,0,0,0-.15-.85c-.53-.55-2.89-.75-3.15-1"/><path id="path38569" class="fidelity-2" d="M114.18,34.42h5l-.28.93H116l-.28.95h2.71l-.27.89h-2.71l-.28.91h2.92l-.29.93h-5.05l1.4-4.61Z"/><path id="path38573" class="fidelity-2" d="M172.13,12.82l-4.81,10.37.14-10.37h-9l1.72,18.72c-.22,1.1-.58,1.71-1.27,2a8.84,8.84,0,0,1-3.05.24h-.11l-1.41,5.09h6c3.57,0,5.33-1.8,7.87-5.78l12.92-20.3h-9.07"/><path
        id="path38577"
        class="fidelity-2"
        d="M146,35.81a.23.23,0,0,1,0-.21c.07-.23.36-.39.83-.39a1.92,1.92,0,0,1,.82.13.32.32,0,0,1,.13.37h2c.23-.82-.29-1.35-2.5-1.35s-3.29.45-3.59,1.46a.79.79,0,0,0,.13.8c.54.54,3,.75,3.19,1a.23.23,0,0,1,0,.21c-.11.37-.64.46-1.09.47a1.34,1.34,0,0,1-.78-.18.41.41,0,0,1,0-.42h-2c-.21.72-.29,1.46,2.55,1.46,2.39,0,3.48-.59,3.76-1.5a.77.77,0,0,0-.16-.85c-.53-.55-2.89-.75-3.15-1"/><path id="path38645" class="fidelity-2" d="M173.53,31.19a1.6,1.6,0,1,1,1.6-1.6,1.6,1.6,0,0,1-1.6,1.6m0-3.56a2,2,0,1,0,2,2,2,2,0,0,0-2-2"/><path id="path38649" class="fidelity-2" d="M173.2,29.45v-.56h.27c.23,0,.48,0,.48.28s-.25.28-.48.28h-.27Zm1.12-.27c0-.39-.23-.61-.71-.61h-.76v2h.35v-.82h.27l.5.82h.39l-.53-.85a.51.51,0,0,0,.48-.55"/><path id="path38653" class="fidelity-2" d="M172.12,12.86,167.33,23.2l.14-10.34h-8.93l1.71,18.66c-.22,1.09-.58,1.71-1.27,2a8.84,8.84,0,0,1-3,.24h-.11l-1.41,5.07h6c3.56,0,5.31-1.79,7.84-5.76l12.87-20.23h-9Z"/></g>
    </g>
  </g>
</svg>
