<svg xmlns="http://www.w3.org/2000/svg" viewBox="0 0 365 332.48">
  <defs>
    <style>
      .cibc-1 {
        fill: #b00b1c;
      }
      .cibc-2 {
        fill: #ffd401;
      }
      .cibc-3 {
        fill: #fff;
      }
    </style>
  </defs>
  <title>cibc</title>
  <g id="Layer_2" data-name="Layer 2">
    <g id="Layer_1-2" data-name="Layer 1">
      <g id="_Group_" data-name="&lt;Group&gt;"><rect id="_Path_" data-name="&lt;Path&gt;" class="cibc-1" width="365" height="332.48"/><path id="_Path_2" data-name="&lt;Path&gt;" class="cibc-2" d="M17,232.65v36C74.66,236.14,184,187.47,349.13,173.93v-7.78c-121.4,6.65-236.07,29.32-332.09,66.5"/><path id="_Path_3" data-name="&lt;Path&gt;" class="cibc-3" d="M17,281.95v24.74c82.22-61,202.62-103,332.09-116.83v-7.51C221.2,193.92,108.76,228.48,17,281.95"/><path
        id="_Compound_Path_"
        data-name="&lt;Compound Path&gt;"
        class="cibc-2"
        d="M200.76,83.89a35.79,35.79,0,0,1-6.64-.48V59.31a87.12,87.12,0,0,1,.58-11.45,32.84,32.84,0,0,1,7.76-1c13.16,0,19,5.57,19,17.7,0,16.85-12.73,19.24-20.66,19.36M224.65,116c0,16.56-9.24,23.33-23.16,23.33a28.85,28.85,0,0,1-7.37-.84V91.85h6.13c17.56,0,24.4,8.92,24.4,24.12M219.07,86.4c12.51-3.51,23-12.45,23-26,0-13-8.46-21.76-25.79-21.76-8.28,0-18.67.84-26.16.84S175,39.39,166,38.92l-.57-.08v6l.53,0c7.51.57,8.07,2,8.07,14.16v71.79c0,6.42-.84,9.56-6.71,10l-1.73.14V147c5.7-.35,16.26-.61,20.85-.61s8.14.26,13.93.49c34.63,1.53,45.9-18.15,45.9-34,0-18.9-13.89-23.65-27.15-26.35Z"/><path
        id="_Path_4"
        data-name="&lt;Path&gt;"
        class="cibc-2"
        d="M110.79,132.4c-6.86,4.27-14.86,6.06-23.9,6.06-24.44,0-36.59-18.83-36.59-48.68,0-26.3,11.64-43.67,33.94-43.67,7.6,0,13.74,2.7,17.8,6.53.67,2.45,1.57,15.28,1.57,15.28l6.23,0v-.47c.06-5.55,1.61-18.46,2.78-25l0-.5-.46,0c-8.75-2.33-17.68-4.3-29.55-4.3C55.77,37.68,28.33,54,28.33,91.62c0,39.5,24.09,56.64,53.15,56.64,8,0,18.53-1.21,27.06-5.89l.13-.06,4.14-7.86-1.68-2.27-.34.21"/><path
        id="_Path_5"
        data-name="&lt;Path&gt;"
        class="cibc-2"
        d="M335.57,132.4c-6.85,4.27-14.83,6.06-23.9,6.06-24.42,0-36.57-18.83-36.57-48.68,0-26.3,11.64-43.67,33.93-43.67,7.61,0,13.75,2.7,17.8,6.53.66,2.45,1.56,15.28,1.56,15.28l6.26,0,0-.47a211.54,211.54,0,0,1,2.78-25l.06-.5L337,42c-8.78-2.33-17.7-4.3-29.58-4.3-26.87,0-54.31,16.27-54.31,53.94,0,39.5,24.09,56.64,53.17,56.64,7.94,0,18.53-1.21,27.06-5.89l.12-.06,4.14-7.86-1.68-2.27-.36.21"/><path
        id="_Path_6"
        data-name="&lt;Path&gt;"
        class="cibc-2"
        d="M138.92,39.48c-6.29,0-13.36-.08-19.36-.59l-.48,0v6l.42,0c7.86.5,8.89,1.78,8.89,15.39v68.17c0,10.42-.51,12-8.51,12.54l-.43,0v6l.48-.05c6-.53,12.44-.62,18.7-.62s12.05.1,18.57.62l.48.05v-6l-.41,0c-8-.51-8.44-2.12-8.44-12.54V60.24c0-13.83.5-14.89,8.41-15.39l.41,0v-6l-.48,0c-6.49.5-12.08.59-18.26.59"/></g>
    </g>
  </g>
</svg>
