<svg xmlns="http://www.w3.org/2000/svg" xmlns:xlink="http://www.w3.org/1999/xlink" viewBox="0 0 390 94.51">
  <defs>
    <style>
      .aus-dod-1 {
        fill: none;
      }
      .aus-dod-2 {
        fill: #231f20;
      }
      .aus-dod-3 {
        fill: #fff;
      }
      .aus-dod-4 {
        clip-path: url("#clip-path");
      }
    </style>
    <clipPath id="clip-path"><rect class="aus-dod-1" x="31" y="69.51" width="63" height="24.94"/></clipPath>
  </defs>
  <title>Australian Department of Defence</title>
  <g id="Layer_2" data-name="Layer 2">
    <g id="Layer_1-2" data-name="Layer 1">
      <g id="surface1"><path
        class="aus-dod-2"
        d="M151.15,41.54l-2.6-6-2.68,6Zm.44,1h-6.17l-.73,1.7a3.8,3.8,0,0,0-.36,1.41,1.17,1.17,0,0,0,.59,1.08,4.93,4.93,0,0,0,1.71.31v.48h-5.82V47a2.62,2.62,0,0,0,1.55-.77,10.57,10.57,0,0,0,1.5-2.64l6.25-13.95h.24L156.66,44a8.81,8.81,0,0,0,1.48,2.57,2,2,0,0,0,1.24.46v.48h-8.46V47h.35a2.62,2.62,0,0,0,1.43-.29.7.7,0,0,0,.29-.59,1.58,1.58,0,0,0-.08-.48c0-.08-.15-.4-.39-1l-.93-2.18"/><path
        class="aus-dod-2"
        d="M170.09,35.42v9.44a3.48,3.48,0,0,0,.26,1.72,1.48,1.48,0,0,0,1,.43v.47h-4.91V45.86a6.35,6.35,0,0,1-1.73,1.51,4,4,0,0,1-1.93.46,2.88,2.88,0,0,1-1.82-.62,3.14,3.14,0,0,1-1.06-1.47,10.82,10.82,0,0,1-.27-2.93V38a3.39,3.39,0,0,0-.26-1.7,1.5,1.5,0,0,0-1-.44v-.48h4.91v8.23a7.16,7.16,0,0,0,.12,1.67,1.15,1.15,0,0,0,.39.56,1,1,0,0,0,.62.2,1.5,1.5,0,0,0,.84-.25,5.33,5.33,0,0,0,1.23-1.35V38a3.39,3.39,0,0,0-.26-1.7,1.49,1.49,0,0,0-1-.44v-.48h4.91"/><path
        class="aus-dod-2"
        d="M179.83,35.08,180,39.2h-.44a6.41,6.41,0,0,0-1.64-2.5,2.67,2.67,0,0,0-1.68-.67,1.26,1.26,0,0,0-.9.36,1.08,1.08,0,0,0-.37.81,1.05,1.05,0,0,0,.26.67,12.48,12.48,0,0,0,2.3,1.82A9.27,9.27,0,0,1,180,41.86a3.47,3.47,0,0,1,.61,2,4.2,4.2,0,0,1-.5,2,3.47,3.47,0,0,1-1.42,1.48,4.09,4.09,0,0,1-2,.52,7,7,0,0,1-2.3-.54,1.92,1.92,0,0,0-.53-.14c-.28,0-.52.21-.71.64h-.43l-.21-4.33H173A5.67,5.67,0,0,0,174.55,46a3.11,3.11,0,0,0,1.92.85,1.39,1.39,0,0,0,1-.37,1.24,1.24,0,0,0,.4-.93,1.6,1.6,0,0,0-.39-1.07,10.36,10.36,0,0,0-1.73-1.37A13.36,13.36,0,0,1,173.21,41a3.62,3.62,0,0,1-.85-2.33,3.8,3.8,0,0,1,1-2.51,3.47,3.47,0,0,1,2.79-1.13,4.05,4.05,0,0,1,1.89.47,1.28,1.28,0,0,0,.57.2.7.7,0,0,0,.38-.09,2.64,2.64,0,0,0,.45-.55h.44"/><path
        class="aus-dod-2"
        d="M186.21,31v4.41h2.86V36.7h-2.86v7.44a6.08,6.08,0,0,0,.09,1.36,1,1,0,0,0,.35.49.77.77,0,0,0,.45.18c.55,0,1.09-.43,1.58-1.28l.39.28a3.52,3.52,0,0,1-3.39,2.48,3.05,3.05,0,0,1-1.95-.64,2.84,2.84,0,0,1-1-1.43,12.15,12.15,0,0,1-.13-2.37V36.7H181v-.45a16.13,16.13,0,0,0,2.76-2.41,14.43,14.43,0,0,0,2-2.82h.43"/><path
        class="aus-dod-2"
        d="M195,35.42v2.73a8.66,8.66,0,0,1,2.1-2.48,3.1,3.1,0,0,1,1.74-.62,1.51,1.51,0,0,1,1.15.45,1.69,1.69,0,0,1,.44,1.25A2,2,0,0,1,200,38.1a1.28,1.28,0,0,1-1,.47,1.74,1.74,0,0,1-1.19-.44c-.33-.29-.53-.45-.59-.49a.58.58,0,0,0-.3-.08,1.07,1.07,0,0,0-.71.29,2.7,2.7,0,0,0-.8,1.25,8.81,8.81,0,0,0-.41,2.76v3.5a3,3,0,0,0,.09.94,1.07,1.07,0,0,0,.45.52,2.82,2.82,0,0,0,1,.19v.47H190V47a1.4,1.4,0,0,0,1.06-.43,4,4,0,0,0,.28-1.95V38a5,5,0,0,0-.1-1.32,1,1,0,0,0-.37-.53,2,2,0,0,0-.86-.23v-.48H195"/><path
        class="aus-dod-2"
        d="M207,44.75v-4a7.55,7.55,0,0,0-2.32,2,2.4,2.4,0,0,0-.5,1.4,1.48,1.48,0,0,0,.42,1,1.16,1.16,0,0,0,.91.35A2.46,2.46,0,0,0,207,44.75Zm0,.94a6.39,6.39,0,0,1-4,1.95,2.35,2.35,0,0,1-1.71-.68,2.31,2.31,0,0,1-.68-1.7,3.32,3.32,0,0,1,1.19-2.48A22.15,22.15,0,0,1,207,39.85V38.64a5.64,5.64,0,0,0-.15-1.71,1.34,1.34,0,0,0-.55-.62,1.64,1.64,0,0,0-.93-.27,2.37,2.37,0,0,0-1.38.38.66.66,0,0,0-.34.54,1.11,1.11,0,0,0,.36.67,1.66,1.66,0,0,1,.49,1.07,1.45,1.45,0,0,1-.48,1.09,1.72,1.72,0,0,1-1.22.43,2,2,0,0,1-1.37-.49,1.49,1.49,0,0,1-.54-1.15,2.64,2.64,0,0,1,.73-1.76,4.6,4.6,0,0,1,2.05-1.3,8.34,8.34,0,0,1,2.73-.45,4.46,4.46,0,0,1,2.71.73,3.4,3.4,0,0,1,1.3,1.57,10.44,10.44,0,0,1,.18,2.49v4.68a5,5,0,0,0,.06,1,.61.61,0,0,0,.2.31.45.45,0,0,0,.3.11c.22,0,.45-.16.68-.48l.39.31a4.78,4.78,0,0,1-1.34,1.39,2.89,2.89,0,0,1-1.56.43,2.45,2.45,0,0,1-1.61-.48,2.21,2.21,0,0,1-.71-1.47"/><path class="aus-dod-2" d="M217.48,30V45a3,3,0,0,0,.29,1.64,1.65,1.65,0,0,0,1.16.39v.47h-6.51V47a1.58,1.58,0,0,0,1.19-.46,3,3,0,0,0,.26-1.57V32.49a2.83,2.83,0,0,0-.3-1.61,1.59,1.59,0,0,0-1.15-.41V30h5.05"/><path
        class="aus-dod-2"
        d="M224.8,35.42V45a2.91,2.91,0,0,0,.3,1.64,1.65,1.65,0,0,0,1.16.39v.47h-6.51V47a1.58,1.58,0,0,0,1.19-.46,2.88,2.88,0,0,0,.26-1.57v-7a2.81,2.81,0,0,0-.3-1.62,1.57,1.57,0,0,0-1.15-.41v-.48ZM223,29.58a2,2,0,1,1-1.41.59,1.91,1.91,0,0,1,1.41-.59"/><path
        class="aus-dod-2"
        d="M233.29,44.75v-4a7.55,7.55,0,0,0-2.32,2,2.4,2.4,0,0,0-.5,1.4,1.47,1.47,0,0,0,.43,1,1.15,1.15,0,0,0,.9.35A2.45,2.45,0,0,0,233.29,44.75Zm0,.94a6.39,6.39,0,0,1-4,1.95,2.35,2.35,0,0,1-1.71-.68,2.31,2.31,0,0,1-.68-1.7,3.3,3.3,0,0,1,1.18-2.48,22.23,22.23,0,0,1,5.17-2.94V38.64a5.64,5.64,0,0,0-.15-1.71,1.34,1.34,0,0,0-.55-.62,1.64,1.64,0,0,0-.93-.27,2.37,2.37,0,0,0-1.38.38.66.66,0,0,0-.34.54,1.11,1.11,0,0,0,.36.67,1.66,1.66,0,0,1,.49,1.07,1.45,1.45,0,0,1-.48,1.09,1.72,1.72,0,0,1-1.22.43,2,2,0,0,1-1.37-.49,1.49,1.49,0,0,1-.54-1.15,2.64,2.64,0,0,1,.73-1.76,4.6,4.6,0,0,1,2.05-1.3,8.36,8.36,0,0,1,2.73-.45,4.46,4.46,0,0,1,2.71.73,3.4,3.4,0,0,1,1.3,1.57,10.44,10.44,0,0,1,.18,2.49v4.68a5,5,0,0,0,.06,1,.61.61,0,0,0,.2.31.45.45,0,0,0,.3.11c.22,0,.45-.16.68-.48l.39.31a4.73,4.73,0,0,1-1.34,1.39,2.89,2.89,0,0,1-1.56.43,2.45,2.45,0,0,1-1.61-.48,2.21,2.21,0,0,1-.71-1.47"/><path
        class="aus-dod-2"
        d="M243.71,35.42V37a6.82,6.82,0,0,1,1.78-1.46,3.75,3.75,0,0,1,1.83-.46,2.9,2.9,0,0,1,1.95.66,3.1,3.1,0,0,1,1,1.61,12.29,12.29,0,0,1,.21,2.82v4.69a3.67,3.67,0,0,0,.25,1.74,1.5,1.5,0,0,0,1.06.43v.47h-6.1V47a1.27,1.27,0,0,0,1-.56,3.72,3.72,0,0,0,.21-1.6V39.48a8.68,8.68,0,0,0-.12-1.87,1.1,1.1,0,0,0-.4-.59,1,1,0,0,0-.61-.22q-1.11,0-2.06,1.59v6.46a3.66,3.66,0,0,0,.25,1.71,1.29,1.29,0,0,0,.94.45v.47h-6.1V47a1.5,1.5,0,0,0,1.08-.49,3.63,3.63,0,0,0,.22-1.68V38a3.39,3.39,0,0,0-.26-1.7,1.5,1.5,0,0,0-1-.44v-.48h4.91"/><path
        class="aus-dod-2"
        d="M275.54,29.59v6.16h-.48a7.9,7.9,0,0,0-2.59-3.84,6.11,6.11,0,0,0-3.78-1.31,4.85,4.85,0,0,0-3.26,1.11,5.92,5.92,0,0,0-1.84,3.07,15.11,15.11,0,0,0-.54,4,14.84,14.84,0,0,0,.59,4.41A5,5,0,0,0,265.55,46a5.51,5.51,0,0,0,3.14.89,6.38,6.38,0,0,0,1.29-.13,9.58,9.58,0,0,0,1.37-.4V42.74a3.86,3.86,0,0,0-.14-1.33,1.29,1.29,0,0,0-.59-.55,2.16,2.16,0,0,0-1.07-.25h-.45v-.48h8.5v.48a3.67,3.67,0,0,0-1.36.27,1.33,1.33,0,0,0-.58.66,3.8,3.8,0,0,0-.11,1.2v3.63a17.1,17.1,0,0,1-3.49,1.12,17.89,17.89,0,0,1-3.75.39,11,11,0,0,1-4.14-.67,10.58,10.58,0,0,1-2.9-1.78,8.51,8.51,0,0,1-2-2.49,8.68,8.68,0,0,1-.9-4,9,9,0,0,1,2.77-6.66,9.55,9.55,0,0,1,7-2.72,12.19,12.19,0,0,1,2.34.21,11.65,11.65,0,0,1,1.83.59,7.9,7.9,0,0,0,1.51.48,1,1,0,0,0,.67-.26,2.42,2.42,0,0,0,.57-1h.48"/><path
        class="aus-dod-2"
        d="M284,36a1.52,1.52,0,0,0-1.14.5,3.52,3.52,0,0,0-.62,2q-.14,1.46-.14,4.06a17.2,17.2,0,0,0,.18,2.58,2.48,2.48,0,0,0,.61,1.39,1.44,1.44,0,0,0,1.06.48,1.46,1.46,0,0,0,1-.32,2.16,2.16,0,0,0,.67-1.22,29.75,29.75,0,0,0,.26-4.95,12.11,12.11,0,0,0-.25-3,2.34,2.34,0,0,0-.72-1.2A1.35,1.35,0,0,0,284,36Zm-.05-.91a5.61,5.61,0,0,1,2.93.81,5.18,5.18,0,0,1,2.05,2.31,7.6,7.6,0,0,1,.71,3.27,6.93,6.93,0,0,1-1.3,4.29,5.15,5.15,0,0,1-4.35,2.09,5,5,0,0,1-4.19-1.91,7,7,0,0,1-1.47-4.42,7.13,7.13,0,0,1,1.5-4.51,4.94,4.94,0,0,1,4.13-1.93"/><path
        class="aus-dod-2"
        d="M295.28,47.83l-4.06-9.34a9,9,0,0,0-1.15-2.14,1.51,1.51,0,0,0-.87-.45v-.48h6.41v.48a1.18,1.18,0,0,0-.82.22.88.88,0,0,0-.31.67,5.71,5.71,0,0,0,.57,1.79l2,4.53,1.59-3.91a7.51,7.51,0,0,0,.68-2.37.8.8,0,0,0-.3-.64,1.6,1.6,0,0,0-1-.28v-.48h3.95v.48a1.6,1.6,0,0,0-.93.43,8.11,8.11,0,0,0-1.08,2l-4,9.46h-.61"/><path
        class="aus-dod-2"
        d="M308.23,40.15A11.76,11.76,0,0,0,308,37.3a2.33,2.33,0,0,0-.7-1.17,1.09,1.09,0,0,0-.72-.23,1.27,1.27,0,0,0-1.1.66,5.63,5.63,0,0,0-.76,3.14v.45Zm3.17.86h-6.61a6.21,6.21,0,0,0,1.28,3.79,2.68,2.68,0,0,0,2.14,1.07,2.45,2.45,0,0,0,1.41-.43A5.62,5.62,0,0,0,311,43.89l.44.28A7.36,7.36,0,0,1,309.23,47a4.68,4.68,0,0,1-2.75.83,4.57,4.57,0,0,1-4.06-2.06,7.29,7.29,0,0,1-1.11-4.12,6.83,6.83,0,0,1,1.63-4.79,5,5,0,0,1,3.83-1.79,4.11,4.11,0,0,1,3.17,1.51A6.8,6.8,0,0,1,311.4,41"/><path
        class="aus-dod-2"
        d="M317.12,35.42v2.73a8.54,8.54,0,0,1,2.1-2.48,3.09,3.09,0,0,1,1.74-.62,1.51,1.51,0,0,1,1.15.45,1.7,1.7,0,0,1,.44,1.25,2,2,0,0,1-.43,1.34,1.28,1.28,0,0,1-1,.47,1.74,1.74,0,0,1-1.19-.44c-.34-.29-.54-.45-.59-.49a.57.57,0,0,0-.3-.08,1.07,1.07,0,0,0-.71.29,2.7,2.7,0,0,0-.8,1.25,8.81,8.81,0,0,0-.41,2.76v3.5a2.88,2.88,0,0,0,.09.94,1.05,1.05,0,0,0,.45.52,2.78,2.78,0,0,0,1,.19v.47H312.2V47a1.42,1.42,0,0,0,1.06-.43,4,4,0,0,0,.28-1.95V38a5.18,5.18,0,0,0-.1-1.32,1,1,0,0,0-.37-.53,2,2,0,0,0-.86-.23v-.48h4.93"/><path
        class="aus-dod-2"
        d="M328.23,35.42V37A6.83,6.83,0,0,1,330,35.52a3.72,3.72,0,0,1,1.83-.46,2.92,2.92,0,0,1,1.95.66,3.1,3.1,0,0,1,1,1.61,12.59,12.59,0,0,1,.2,2.82v4.69a3.67,3.67,0,0,0,.25,1.74,1.5,1.5,0,0,0,1.06.43v.47h-6.1V47a1.27,1.27,0,0,0,1-.56,3.75,3.75,0,0,0,.2-1.6V39.48a8.79,8.79,0,0,0-.11-1.87,1.09,1.09,0,0,0-.4-.59.94.94,0,0,0-.6-.22q-1.11,0-2.07,1.59v6.46a3.66,3.66,0,0,0,.25,1.71,1.29,1.29,0,0,0,.94.45v.47h-6.1V47a1.5,1.5,0,0,0,1.08-.49,3.57,3.57,0,0,0,.22-1.68V38a3.39,3.39,0,0,0-.26-1.7,1.49,1.49,0,0,0-1-.44v-.48h4.91"/><path
        class="aus-dod-2"
        d="M342.2,35.42V37A6.86,6.86,0,0,1,344,35.49a4,4,0,0,1,1.86-.43,3.36,3.36,0,0,1,1.95.54A3.42,3.42,0,0,1,349,37.25a7.77,7.77,0,0,1,2-1.68,4.16,4.16,0,0,1,2-.51,3.12,3.12,0,0,1,2,.58,2.92,2.92,0,0,1,1,1.46,9.77,9.77,0,0,1,.3,2.81v4.94a3.63,3.63,0,0,0,.24,1.73,1.58,1.58,0,0,0,1.06.43v.47h-6.23V47a1.37,1.37,0,0,0,1.08-.56,3.42,3.42,0,0,0,.23-1.6V39.66a9.59,9.59,0,0,0-.13-2,1.18,1.18,0,0,0-.41-.64,1,1,0,0,0-.64-.22,1.91,1.91,0,0,0-1.12.41,5.08,5.08,0,0,0-1.15,1.21v6.47a3.74,3.74,0,0,0,.22,1.64,1.33,1.33,0,0,0,1.14.52v.47h-6.24V47a1.39,1.39,0,0,0,.79-.24,1.09,1.09,0,0,0,.39-.54,5.9,5.9,0,0,0,.1-1.38V39.66a9.39,9.39,0,0,0-.13-2,1.22,1.22,0,0,0-.44-.64,1,1,0,0,0-.64-.23,1.7,1.7,0,0,0-.94.27,5.34,5.34,0,0,0-1.29,1.36v6.47a3.8,3.8,0,0,0,.25,1.69,1.34,1.34,0,0,0,1.06.47v.47h-6.21V47a1.5,1.5,0,0,0,1.08-.49,3.63,3.63,0,0,0,.22-1.68V38a3.39,3.39,0,0,0-.26-1.7,1.5,1.5,0,0,0-1-.44v-.48h4.91"/><path
        class="aus-dod-2"
        d="M365.17,40.15a11.76,11.76,0,0,0-.23-2.85,2.31,2.31,0,0,0-.7-1.17,1.08,1.08,0,0,0-.72-.23,1.27,1.27,0,0,0-1.1.66,5.63,5.63,0,0,0-.76,3.14v.45Zm3.17.86h-6.61A6.23,6.23,0,0,0,363,44.8a2.69,2.69,0,0,0,2.14,1.07,2.45,2.45,0,0,0,1.41-.43,5.56,5.56,0,0,0,1.36-1.56l.44.28A7.4,7.4,0,0,1,366.18,47a4.69,4.69,0,0,1-2.75.83,4.57,4.57,0,0,1-4.06-2.06,7.29,7.29,0,0,1-1.11-4.12,6.83,6.83,0,0,1,1.63-4.79,5,5,0,0,1,3.83-1.79,4.11,4.11,0,0,1,3.17,1.51A6.8,6.8,0,0,1,368.34,41"/><path
        class="aus-dod-2"
        d="M373.72,35.42V37a6.9,6.9,0,0,1,1.78-1.46,3.72,3.72,0,0,1,1.83-.46,2.9,2.9,0,0,1,1.95.66,3.1,3.1,0,0,1,1,1.61,12.76,12.76,0,0,1,.21,2.82v4.69a3.69,3.69,0,0,0,.24,1.74,1.5,1.5,0,0,0,1.06.43v.47h-6.1V47a1.26,1.26,0,0,0,1-.56,3.66,3.66,0,0,0,.21-1.6V39.48a9.07,9.07,0,0,0-.11-1.87,1.1,1.1,0,0,0-.4-.59,1,1,0,0,0-.61-.22q-1.11,0-2.06,1.59v6.46a3.66,3.66,0,0,0,.25,1.71,1.29,1.29,0,0,0,.94.45v.47h-6.1V47a1.5,1.5,0,0,0,1.08-.49,3.63,3.63,0,0,0,.22-1.68V38a3.39,3.39,0,0,0-.26-1.7,1.5,1.5,0,0,0-1-.44v-.48h4.91"/><path
        class="aus-dod-2"
        d="M386.94,31v4.41h2.86V36.7h-2.86v7.44a6.34,6.34,0,0,0,.09,1.36,1.06,1.06,0,0,0,.35.49.77.77,0,0,0,.45.18q.84,0,1.59-1.28l.39.28a3.53,3.53,0,0,1-3.39,2.48,3,3,0,0,1-1.95-.64,2.84,2.84,0,0,1-1-1.43,12.15,12.15,0,0,1-.13-2.37V36.7h-1.57v-.45a16.16,16.16,0,0,0,2.76-2.41,14.74,14.74,0,0,0,2-2.82h.43"/><path class="aus-dod-2" d="M43.46,75.74a.81.81,0,0,1-.34.33"/><path class="aus-dod-2" d="M46.48,52.14a.64.64,0,1,0-.63-.64.63.63,0,0,0,.63.64"/><path
        class="aus-dod-2"
        d="M68.16,26.09h6.92v12.2H68.16Zm6.92,18a3.9,3.9,0,0,1-1.48,3l-5.44,3.25V38.91h6.92Zm-13.93-18h6.39v12.2H61.16Zm6.39,24.64L65,52.23h0a1.09,1.09,0,0,1-.66.23,1.07,1.07,0,0,1-.67-.24l-2.5-1.49V38.91h6.39Zm-9-16.91h2v4.46h-2Zm2,16.54L55.1,47.11a3.9,3.9,0,0,1-1.48-3V38.91h6.92ZM53.62,26.09H56v4.7H53.62Zm3,1.77.28-.29-.17-.32.37,0,.22-.39.21.38.38,0-.18.32.28.29-.36.07v.39l-.34-.25-.34.25v-.39Zm1.69,4.92c0-.12-.18-.15-.24-.15s-.3.35-.48.36-.22,0-.22-.14.27-.21.38-.31c-1.48,0-1.5.67-1.73.67-.39,0,.32-.71.53-.91-.3-.05-.47-.42-.8-.6.15-.22.24-.12.43,0,0-.15.11-.34.46-.34.66,0,.48.64.58.64s0-.64.43-.64c.65,0,1.47,1.68.73,1.68C58,33.05,58.3,32.82,58.3,32.77Zm-1.59,3.59.37,0L57.3,36l.21.38.38,0-.18.32L58,37l-.36.07v.4l-.34-.25-.34.25V37L56.61,37l.28-.29ZM54,31.82l.37,0,.22-.39.21.38.37,0-.17.32.28.29-.36.07v.4l-.34-.25-.34.25v-.4l-.36-.07.28-.29Zm-.39,2H56v4.46H53.62Zm5.49-1.39.28-.29-.18-.32.37,0,.22-.39.21.38.38,0-.18.32.28.29-.36.07v.4l-.34-.25-.34.25v-.4Zm-.54-6.34h2v4.7h-2Zm17.15-.61v0H53v0h0l0,18.36c0,1.77.75,3.32,1.79,3.8l8.75,5.22a1.07,1.07,0,0,0,.8.36,1,1,0,0,0,.71-.28l8.89-5.3c1-.48,1.79-2,1.79-3.8l0-18.36h0"/><path
        class="aus-dod-2"
        d="M60.17,43.12c0-.07-.87.28-.63.25a2.52,2.52,0,0,1,.7-.93c0-.29-.41,0-.8.18,1.3-1.86.46-1.09-.26-1,1.16-1.25.85-1.23,0-.84.67-.53.81-1.16.71-1.35-.62.84-1.2.71-1.2,1.48a3.11,3.11,0,0,1-.45,1.63c-.34.37-.08-1.37-1-1.37-.29,0-1,0-1.16.32.18,0,.45.46.45.64s.17.69-.13.69-.66-.64-.66-.95,0-.23,0-.67a2.47,2.47,0,0,0-1.68-1.77c0,.51.67.63.67,1.29-.29,0-.69-.53-.69-.2s.43.39.43.67-.49-.1-.49.2.27.22.33.49c-.2-.05-.37,0-.41.07s.06.2.21.29c-.07.07-.13.22-.13.65,0,1.45.91,2.13,1.58,2.13.47,0,.4-.33.46-.49,0,.25.25-.12.25.31s-.46.25-.46.64.73,0,.73.56a6.93,6.93,0,0,1-.09.95c0,.18.76-.25.71-.34.18.07.18.61.52.59s.27-.55.44-.6c-.11,0,.69.52.69.27,0-.68-.28-.39-.28-.86s.94-.34.79-.56-.21-.07-.31-.39c0,.06-.74-1.07.16-.49s1-1.43,1-1.53"/><path class="aus-dod-2" d="M84.43,47.92a.66.66,0,1,0-.75-.66.71.71,0,0,0,.75.66"/><path class="aus-dod-2" d="M81.41,49.71a.66.66,0,1,0-.75-.66.71.71,0,0,0,.75.66"/><path class="aus-dod-2" d="M45.46,53.86a.67.67,0,1,0-.75-.66.71.71,0,0,0,.75.66"/><path class="aus-dod-2" d="M47.79,54.06A.67.67,0,1,0,47,53.4a.71.71,0,0,0,.75.66"/><path class="aus-dod-2" d="M112.5,22.7a4.68,4.68,0,0,1,.56,5c-.44,0-.36-.6-.44-.92-.79-1.48-1.43-3.36-.71-5,.52.08.32.72.59,1"/><path class="aus-dod-2" d="M17.55,24.49a7.05,7.05,0,0,0,0,3.16c-.2.2-.16-.2-.36-.16-1.55-1.12-.83-3.31-1.23-4.87a.3.3,0,0,1,.39-.08,2.86,2.86,0,0,1,1.19,2"/><path class="aus-dod-2" d="M115.92,24.61c.23.44-.2.88-.52,1.08a1,1,0,0,1-1-.44.91.91,0,0,1,.48-1,1,1,0,0,1,1,.4"/><path class="aus-dod-2" d="M15.13,26.37a1.2,1.2,0,0,1-.52.88c-.24,0-.6,0-.75-.2a.73.73,0,0,1-.16-.84.93.93,0,0,1,.75-.36c.28.12.55.2.68.52"/><path class="aus-dod-2" d="M117.46,27.05a.77.77,0,0,1-1.07,1,1.07,1.07,0,0,1-.43-.68,1.19,1.19,0,0,1,.67-.72,1.28,1.28,0,0,1,.84.4"/><path class="aus-dod-2" d="M115.2,27.09c.32.16.08.56,0,.8-.2.2-.48.52-.83.4-.2-.2-.44-.2-.52-.48a.88.88,0,0,1,.55-.92,1,1,0,0,1,.75.2"/><path class="aus-dod-2" d="M112.31,27.69c0,.44,0,1-.48,1.08a.75.75,0,0,1-.91-.56,1,1,0,0,1,.6-1,1.07,1.07,0,0,1,.79.44"/><path class="aus-dod-2" d="M19.45,27.89c.12.4-.28.64-.51.84a.81.81,0,0,1-.8-.44c-.28-.28.08-.52.16-.76a.73.73,0,0,1,1.15.36"/><path class="aus-dod-2" d="M17.07,28a.82.82,0,0,1-.43.76.72.72,0,0,1-.8-.36.68.68,0,0,1,.36-.92c.44-.16.71.24.88.52"/><path class="aus-dod-2" d="M102.71,28.17A8.28,8.28,0,0,1,103.5,31c-.16.76.12,1.75-.44,2.28-.55-.2-.59-.88-.95-1.24-.71-1.4-.08-3,.16-4.39.32-.12.32.28.44.48"/><path class="aus-dod-2" d="M15.21,28.65c.12.48-.24.72-.52,1a.93.93,0,0,1-1-.56,1,1,0,0,1,.52-1,1,1,0,0,1,1,.52"/><path class="aus-dod-2" d="M109,29.81a5.76,5.76,0,0,1,.2,3.83l-.24.2a15.39,15.39,0,0,1-1.62-3.23,5.33,5.33,0,0,1,.48-2.28c.28-.2.44,0,.55.28a1.58,1.58,0,0,0,.64,1.2"/><path class="aus-dod-2" d="M114,29.09a1,1,0,0,1-.59,1,.71.71,0,0,1-.91-.48.86.86,0,0,1,.44-1c.44-.24.87.16,1.07.48"/><path class="aus-dod-2" d="M17.11,30.33a.86.86,0,0,1-.59.76c-.32.24-.55-.16-.84-.28a1,1,0,0,1,0-.92c.12-.24.4-.24.64-.32.36.2.71.36.79.76"/><path class="aus-dod-2" d="M18.86,30.13c.16.4-.28.6-.44.8-.48.16-.71-.2-.91-.48s.16-.64.43-.88c.48-.12.71.2.91.56"/><path class="aus-dod-2" d="M115.08,30c0,.52-.83,1-.91,1.56a4,4,0,0,1-2.46,2.23,1.89,1.89,0,0,1-.91.52c-.08-.8.63-1.52,1.07-2.23A5.87,5.87,0,0,1,115.08,30"/><path class="aus-dod-2" d="M16.32,31.68a14.48,14.48,0,0,0,1.63,1.88.33.33,0,0,1-.28.4c-1.94-.12-3.25-2.12-4.2-3.52.12-.44.63-.08.91-.12.67.52,1.43.68,1.94,1.36"/><path class="aus-dod-2" d="M115.64,32.24a5.14,5.14,0,0,1-2.46,4.32c-.44.16-.91.6-1.35.32a20,20,0,0,1,3.49-4.64h.32"/><path class="aus-dod-2" d="M108,33.4a1,1,0,0,1-.68,1.16c-.44,0-.71-.32-.91-.64A.83.83,0,0,1,107,33a.65.65,0,0,1,.48-.12c.24.08.36.28.55.48"/><path class="aus-dod-2" d="M14.13,33.76a22.71,22.71,0,0,1,2.14,1.88c-.52.36-1.15,0-1.75,0-1.35-.48-2.26-1.64-3.65-2,0-.44.55-.28.83-.4a7.33,7.33,0,0,1,2.42.52"/><path
        class="aus-dod-2"
        d="M56.62,21.94c-2.22-.88-3.69,1.44-6,1.16-.27.16-.2.44-.36.64s-.32,0-.44,0c-.12-1-.43-1.84-.55-2.76-.24-.4-.12-1-.32-1.36-1.27-3.47,3.09-.84,4-2.87.75-1.76-1.47-2-2.14-3.2V13c-.63-.64-1.31-.84-1.71-1.68a5.76,5.76,0,0,0,.12-3.07c0-.24-.2-.56-.55-.44-.75,1-1.31,1.88-2,2.88a21.51,21.51,0,0,0-2.34-1.76c-.59-.08-1.15-.68-1.82-.44a.55.55,0,0,0,.12.6A5.72,5.72,0,0,0,44.56,13l.12.6c-.71,1.64-.52,3.52-.71,5.28A29.28,29.28,0,0,1,35.36,31c-2.26,2.56-5,5-5.32,8.55-.12.56.08,1.24-.36,1.64a13.62,13.62,0,0,1-3.69-2c-1.82-1.28-4.45-1.12-5.63-3.44-.48-.92.12-1.84.55-2.52,1.35-1.28,1.15-3.55.44-5.11-.16,0-.2.16-.32.2-.12,2.36-2,4-1.27,6.59.16.76.56,1.24.75,2a6.78,6.78,0,0,1-.91-.2,9.84,9.84,0,0,0-2.66-.36c-1.82.84-4.32-.2-5.79,1.48-.24,0-.55.08-.48.44.87,0,1.71.24,2.58.2,1.39.24,2.3-.92,3.25-1.44h.24c.39-.4,1.07-.16,1.59-.24,2.5.28,4.44,1.48,6.5,2.72v.16c-.79.36-1.7.6-2.5,1a5.39,5.39,0,0,0-2.22,2.68c-.64,1,.2,1.88.59,2.71,0,.4.08.88.44,1,1.27-1.36.08-3,.28-4.59A3.25,3.25,0,0,1,24,40.43c2.26-1,3.89.88,5.71,1.92a27,27,0,0,1-.2,5.39,4.86,4.86,0,0,1-1.86.29c-3.13.24-5.59,2-8.41,2.91-1.27.44-2.78.4-4,.88a9.84,9.84,0,0,0,3.05-.12c3.89-.56,6.86-3.55,11.07-3l.08.12a9.36,9.36,0,0,1-1.86,2.6c-.12-.44-.16-.8-.56-1a.74.74,0,0,0-.91.32.55.55,0,0,0,0,.6,1.31,1.31,0,0,0,.87.56c-.08.36-.52.52-.75.84-1.11,1.88-3.37,1.12-4.68,2.44-.2.28-.91.44-.59.88a6,6,0,0,0,4.09-1c1.47-1.64,3-3.2,4.48-4.75a4.75,4.75,0,0,1-.87,3.63,4.74,4.74,0,0,0-1.07-.6,1,1,0,0,0-.71.8,2.32,2.32,0,0,0,.59.8c-1.35,1-3.05,1-4.6,1.48a76.84,76.84,0,0,1-8.64.64c-1.39-.08-3,.4-4.29,0-1.51.28-3.13-.2-4.36.64-.16.2,0,.4,0,.6,1.82,1.2,4.32.24,6.39.6H27.58a7,7,0,0,0,3.21-.6c2-1.16,3.14-3.23,4.17-5.27a8.28,8.28,0,0,0,.83-2.4,3.44,3.44,0,0,1,3-2.43,18.17,18.17,0,0,1-.67,6.07c-.24,1.28-1.07,2.52-.56,3.88.12.64.8.64,1.31.72,4.8-.08,9.6-.29,14.68.08a11.9,11.9,0,0,0,2.7.4c.08-.12.36-.16.24-.4a1.51,1.51,0,0,0-1-1.12c-.08-.24-.43-.16-.55-.32-2.54-1.43-5.59-.68-8.57-.64-1.55.16-3.09.44-4.4-.44-.59-.72-.16-3-.16-3a57.41,57.41,0,0,1,2.46-7.71,6.93,6.93,0,0,0,.24-1.84A7.76,7.76,0,0,0,44.76,41,18.51,18.51,0,0,1,46,37.32c.24-.6.44-1.24.68-1.84a6,6,0,0,1,.79-2.08c1.29.82,2.56.8,3.18,2.27L51.18,39c0,.2.16.6.43.36,1-.68.71-2.2.71-3.23.24-1.24-.63-1.84-1-2.92a4.78,4.78,0,0,1-.73-1.15c-.16-.88-2.08-1.48-1.64-2.56a3.26,3.26,0,0,1,1.35-2.28.42.42,0,0,1,.2.28l.48-.33L51,23.82c1.28,0,3.2.16,4.51.16.36.12.63.4,1,.44l.32-.44,3.21-.63c-1.37.15-2.2-1.41-3.49-1.41"/><path class="aus-dod-3" d="M60.11,23.35l.3-.05-.3.05"/><path class="aus-dod-2" d="M25.56,34.48a.88.88,0,0,1-.6.92c-.32-.12-.55-.16-.75-.48s.24-.76.55-.92c.32.08.71.12.79.48"/><path class="aus-dod-2" d="M23,34.48a.88.88,0,0,1,.16.92c-.28.24-.71.44-1,.12s-.48-.52-.28-.84.75-.52,1.07-.2"/><path class="aus-dod-3" d="M78.2,34.92l0,.06"/><path class="aus-dod-2" d="M108.42,35.6c.16.44-.2.76-.52.92-.39-.12-.91-.2-.91-.72a.76.76,0,0,1,1.43-.2"/><path class="aus-dod-2" d="M110.52,35.52c.12.2.39.52.08.72a1.6,1.6,0,0,0-.4.32.77.77,0,0,1-.95-.48c-.08-.44.28-.64.59-.84s.48.12.68.28"/><path class="aus-dod-2" d="M13,36a.78.78,0,0,1-1.07.52,1.68,1.68,0,0,1-.32-.52.73.73,0,0,1,.44-.68A1,1,0,0,1,13,36"/><path class="aus-dod-2" d="M26.39,36.68c0,.32-.39.6-.67.76a1,1,0,0,1-.87-.56.81.81,0,0,1,.48-.8.88.88,0,0,1,1.07.6"/><path class="aus-dod-2" d="M24.05,36.4a.62.62,0,0,1,.12.64c-.24.2-.6.56-1,.32-.24-.2-.52-.36-.44-.76a1.71,1.71,0,0,1,.6-.48c.31-.08.47.12.71.28"/><path class="aus-dod-2" d="M116.59,36.88a1.05,1.05,0,0,1-.52.76.78.78,0,0,1-.87-.2c-.24-.08-.16-.4-.16-.6a1.36,1.36,0,0,1,.75-.52,1.44,1.44,0,0,1,.79.56"/><path class="aus-dod-2" d="M119.13,37.24a1,1,0,0,1-.75.72c-.24,0-.68-.12-.59-.48a.71.71,0,0,1,.36-.64.7.7,0,0,1,1,.4"/><path class="aus-dod-2" d="M17.55,37.8a.77.77,0,0,1-.48,1c-.28.16-.55,0-.75-.2a.69.69,0,0,1-.2-.8c.08-.36.44-.28.68-.44a1,1,0,0,1,.75.48"/><path class="aus-dod-2" d="M19.49,38.16c.12.32-.23.44-.32.68a.66.66,0,0,1-.71.08c-.28-.24-.59-.6-.32-1,.32-.6,1.15-.28,1.35.2"/><path class="aus-dod-2" d="M114.25,38c0,.4-.32.68-.55.92a.68.68,0,0,1-.79-.48.83.83,0,0,1,.44-.76.87.87,0,0,1,.91.32"/><path class="aus-dod-2" d="M117.5,38.6c-.08.36,0,.76-.44,1a1.14,1.14,0,0,1-1-.16.73.73,0,0,1-.16-.84.92.92,0,0,1,.95-.48c.28.16.36.36.6.48"/><path class="aus-dod-2" d="M16,39.44c.16.32-.2.4-.32.56a.8.8,0,0,1-.79-.08c-.28-.16-.16-.56-.12-.76.36-.68,1.07-.2,1.23.28"/><path class="aus-dod-2" d="M115,40.2c.16,0,.08.28,0,.36a3,3,0,0,1-3.21-.16,12.35,12.35,0,0,0-1.59-.88c.2-.52.91-.48,1.43-.6,1.15.16,2.06,1.24,3.33,1.28"/><path class="aus-dod-2" d="M17.94,39.84c.08.32-.16.44-.24.68s-.47.16-.67.08a.66.66,0,1,1,.91-.76"/><path class="aus-dod-2" d="M21.43,40.07c.16.36-.08.68-.4.88s-.52-.08-.75-.12c-.2-.28-.55-.6-.2-.92.36-.6,1.07-.28,1.35.16"/><path
        class="aus-dod-2"
        d="M67.29,41.77c-.07.8-1.39-.11-1.21.95A6.06,6.06,0,0,0,66.88,45c.38.53.19,1.37.15,2a3.58,3.58,0,0,1-1.51,1.29c-1.13-.11-2.79.57-3.32-.84a5.72,5.72,0,0,1-.64-1.89c.12-.08.27-.08.38-.19,0-.27-.3-.42-.26-.68,1.28-.23-.53-1.37.56-1.44.91.95,2.38.64,3.16,1.67a3.61,3.61,0,0,0,.57.5c-.15-.95-.6-1.9-.75-2.93a1.33,1.33,0,0,1,.45-1.33c.68-.53,1.24.23,1.62.65"/><path class="aus-dod-2" d="M24.93,41.51c.12.4-.2.64-.44.84s-.55-.24-.71-.44c-.12-.4.16-.6.4-.8a.86.86,0,0,1,.75.4"/><path class="aus-dod-2" d="M49.4,41.91a5.5,5.5,0,0,1-.48,4.48c0,.32.08.84-.36.8-1.07-1.48-.28-3.56.16-5.12.08-.4.55-.56.68-.16"/><path class="aus-dod-2" d="M83.35,42.67a4.5,4.5,0,0,1,.08,3.71l-.32.32a9.2,9.2,0,0,1-.91-2.84,9.56,9.56,0,0,0,.48-2.12c.56-.12.52.6.68.92"/><path class="aus-dod-2" d="M28,43.11c-.24.48-.91.6-1.35.92a4.7,4.7,0,0,1-3.53.68,4.31,4.31,0,0,1,4.52-1.87c.08.16.28.08.36.28"/><path class="aus-dod-2" d="M11.71,44.55c1.47,1,1.86,2.48,2.74,3.91.12.16.52.2.36.52-.32.24-.63-.24-1.07-.16a4.39,4.39,0,0,1-2.42-4.11c0-.16.24-.16.4-.16"/><path class="aus-dod-2" d="M81.8,45.79c0,.4,0,.8-.36.92a.73.73,0,0,1-.91-.48c-.12-.28.12-.44.2-.64a.7.7,0,0,1,1.07.2"/><path
        class="aus-dod-2"
        d="M98.54,47.9a19.82,19.82,0,0,1,.28-2.2,1.47,1.47,0,0,0,.16-.84c1-1.28,2.89-.88,4.4-.76a8.36,8.36,0,0,0,2,.44,1.45,1.45,0,0,1,1-.2c1.27-.68.44-2.16.52-3.31l-.48-1.2a4.88,4.88,0,0,1-.32-.8c-.23-.28-.39-.8-.63-1.08-.68-1.76-2-2.76-3.09-4.16-2-2.64-5.2-4.11-8.37-5.15S87.68,29,84.86,30a2.27,2.27,0,0,1-1.54-1.68,7.9,7.9,0,0,1,.75-4.23,15.18,15.18,0,0,1,1.07-2.68,28.53,28.53,0,0,0,1.63-6.87,3.6,3.6,0,0,0-2.14-3.16,2.17,2.17,0,0,0-2.18.44,5.79,5.79,0,0,1-2.58,2.32c-.08.68.75.24,1,.48.88.16,1.87-.12,2.58.44a6.77,6.77,0,0,1-1.66,4.11,31.56,31.56,0,0,0-3.61,6.23L78,25.21l.2,9.77c1.26,2.1,2.84,4.5,5.2,5.29,1.27,1,2.86,2.28,4.56,1.36.91-.28,1,1,1.43,1.52.48,1.48-.59,2.52-.67,3.88l-1,2.2C86.52,51.54,85.45,54,83.63,56c-.6,0-1,.64-1.55.68-.32.44-1,.12-1.35.28-1.23.52-3,.2-3.81,1.36a.55.55,0,0,0,.32.2c2.42,0,5.12.2,7.7.08a1,1,0,0,0,.63-.76c-.36-.68.12-1.28.44-1.8a27.14,27.14,0,0,1,1.11-2.48c.83-1.63,1.78-3.23,2.7-4.87l1.23-2a14.25,14.25,0,0,1,1.23-2.24A4.88,4.88,0,0,0,93,43.35c0-.4-.16-.56-.39-.84.28-.28.71-.2,1.07-.28a4.51,4.51,0,0,1,2.22,2.64l.36,1,.16.48-.08,1.32.16,1.24a28.59,28.59,0,0,1-.36,5.79c-.68,2.31-3.33,2.08-5.24,2.59-.48.32-1.39.16-1.39,1,2.3.48,5,.2,7.46.16.39-.16.48-.52.67-.87.08-.52.6-1,.44-1.52-.44-.56,0-1.44-.16-2.2a1.26,1.26,0,0,0,0-.76c.32-1.16.24-2.56.47-3.68l.16-1.52"/><path class="aus-dod-2" d="M118.06,46.35c-1.27,1.8-2.62,3.84-4.84,4.47-.16,0-.32.08-.4-.12,1.35-1.44,2.07-3.67,4.17-4.19a1.29,1.29,0,0,1,1.07-.16"/><path class="aus-dod-2" d="M9.77,48.3c-.2.16,0,.52-.39.56a.64.64,0,0,1-.83-.36.71.71,0,0,1,.52-.88c.32.16.63.28.71.68"/><path class="aus-dod-2" d="M21.2,48.86c.12.36-.28.36-.48.44a4.32,4.32,0,0,1-4.56-1.16c0-.16,0-.32.16-.36,1.63.4,3.53.08,4.88,1.08"/><path class="aus-dod-2" d="M12,48.34a1,1,0,0,1,.08.6.88.88,0,0,1-1,.36,1.28,1.28,0,0,1-.52-.52A1,1,0,0,1,11.2,48a1.19,1.19,0,0,1,.75.32"/><path class="aus-dod-2" d="M49.12,48.54c.08.36-.23.6-.47.76a.78.78,0,0,1-.83-.32.57.57,0,0,1,.28-.76c.36-.08.91,0,1,.32"/><path class="aus-dod-2" d="M119.57,48.7c.12.4-.24.6-.52.84a.87.87,0,0,1-.75-.12c0-.2-.28-.36-.2-.64a.85.85,0,0,1,.91-.48,4.77,4.77,0,0,1,.55.4"/><path class="aus-dod-2" d="M122.18,48.54c.24.36,0,.64-.16.92a.54.54,0,0,1-.71.24c-.24-.24-.56-.36-.6-.72s.36-.56.6-.68c.39-.16.55.24.87.24"/><path class="aus-dod-2" d="M8.11,49.7c0,.28-.2.44-.28.68-.2.08-.4.24-.64.16a1.16,1.16,0,0,1-.59-.64,1,1,0,0,1,.71-.8,1,1,0,0,1,.79.6"/><path class="aus-dod-2" d="M91.64,49.7a1.18,1.18,0,0,1,0,.52c-.24.32-.55.6-1,.4-.23-.24-.52-.48-.39-.84a.78.78,0,0,1,1.31-.08"/><path class="aus-dod-2" d="M14.49,50.3c-.08.28-.2.56-.55.6s-.48-.28-.68-.44c0-.36,0-.72.32-.92a.72.72,0,0,1,.91.76"/><path class="aus-dod-2" d="M10.68,50.38a.83.83,0,0,1-.4.88.93.93,0,0,1-1.07-.56,1.13,1.13,0,0,1,.71-.92c.36,0,.55.4.75.6"/><path class="aus-dod-2" d="M94.26,50.3a.79.79,0,0,1-.43,1c-.48.16-.87-.24-1.07-.56.2-.32.23-.76.71-.84a.91.91,0,0,1,.79.44"/><path class="aus-dod-2" d="M12.55,50.46c.12.28-.12.4-.2.6-.2,0-.32.24-.55.16s-.48-.28-.52-.56.24-.6.52-.76a.73.73,0,0,1,.75.56"/><path class="aus-dod-2" d="M117.38,50.78a1.17,1.17,0,0,1-.67.64c-.32.08-.52-.2-.75-.32s-.12-.52,0-.72a.8.8,0,0,1,1.46.4"/><path class="aus-dod-2" d="M120.4,50.94a1,1,0,0,1-1,.68c-.36-.16-.75-.43-.48-.92.16-.16.24-.32.48-.36a.76.76,0,0,1,1,.6"/><path class="aus-dod-2" d="M101.55,51.22c.2.52-.27.68-.59.92a1.8,1.8,0,0,1-.76-.32.92.92,0,0,1,.56-1,1,1,0,0,1,.79.44"/><path class="aus-dod-2" d="M90.65,51.7c.2.08.12.36.08.48-.23.16-.55.56-.91.32a.67.67,0,0,1-.4-.76.74.74,0,0,1,1.23,0"/><path class="aus-dod-2" d="M92.87,52a.54.54,0,0,1-.32.64c-.28.28-.6,0-.87-.12a.63.63,0,0,1,0-.59.86.86,0,0,1,.52-.32c.28.08.6.08.71.4"/><path class="aus-dod-2" d="M25.56,52c.24.24,0,.52-.08.76a.78.78,0,0,1-1,.2c-.4-.16-.36-.68-.28-1,.24-.08.24-.36.55-.36a1.41,1.41,0,0,1,.79.4"/><path class="aus-dod-2" d="M105.8,52.18c.08.4-.32.56-.59.64-.48.16-.71-.2-.91-.52,0-.24.23-.39.32-.6.55-.24.91.16,1.19.48"/><path class="aus-dod-2" d="M103.66,52.18c.16.4-.28.6-.44.8a.8.8,0,0,1-.87-.16c-.2-.12-.2-.36-.2-.6.24-.2.36-.44.64-.52a1,1,0,0,1,.87.48"/><path class="aus-dod-2" d="M121.55,52.66c.08.56-.64.28-.91.44-1.67,1-3.81.24-5.39-.36.12-.52.71-.32,1-.52,1.71-1.08,3.45.24,5.16.32l.12.12"/><path class="aus-dod-2" d="M13,52.18l-.16.28a6.42,6.42,0,0,1-5.11.92l-.16-.24a7.16,7.16,0,0,1,5.32-1.08l.12.12"/><path class="aus-dod-2" d="M109.85,52.46a.9.9,0,0,1-.4.76.79.79,0,0,1-1-.44c-.12-.32.2-.64.52-.76s.75,0,.91.44"/><path class="aus-dod-2" d="M20.09,52.62c-.16.32-.08.64-.48.8a.86.86,0,0,1-1-.52c-.12-.44.2-.56.4-.76.47-.24.83.12,1.07.48"/><path class="aus-dod-2" d="M17.27,52.82c.12.28-.12.44-.2.64a.73.73,0,0,1-.79.12c-.28-.24-.55-.52-.44-1a2.18,2.18,0,0,1,.64-.44.9.9,0,0,1,.79.64"/><path class="aus-dod-2" d="M112.62,53.74a.85.85,0,0,1-.64.72.92.92,0,0,1-.75-.4.63.63,0,0,1,.16-.76c.08-.12.36-.12.52-.2a.86.86,0,0,1,.71.64"/><path class="aus-dod-2" d="M14.33,53.3c.12.32-.16.44-.2.68a5.8,5.8,0,0,1-.87,1.72c-.75.92-1.82.92-2.89,1.2l-.16-.32a10.5,10.5,0,0,1,4-3.36l.12.08"/><path class="aus-dod-2" d="M110.64,54.18c.08.48-.32.56-.59.76a.89.89,0,0,1-.79-.48c-.12-.44.28-.6.52-.8a.8.8,0,0,1,.87.52"/><path class="aus-dod-2" d="M18.89,54.18c0,.08,0,.16.12.2,0,.44-.36.56-.6.76a1.07,1.07,0,0,1-.87-.39.67.67,0,0,1,.39-.92c.36,0,.84,0,1,.36"/><path class="aus-dod-2" d="M117.94,55.38c.39,0,.47-.52.91-.6a1,1,0,0,1,1,.44c.16.48-.2.72-.52.92s-.87-.24-.84.28a1.27,1.27,0,0,1,.56.8c-.08.16-.36.12-.48,0a5,5,0,0,1-2.86-2.48c-.16-.36-.91-.64-.48-1a3.68,3.68,0,0,1,2.74,1.56"/><path class="aus-dod-2" d="M121.75,54.14a.61.61,0,0,1,0,.76c-.2.39-.79.23-1.15.2-.2-.2-.4-.4-.32-.72a1.27,1.27,0,0,1,.6-.52,1.09,1.09,0,0,1,.91.28"/><path class="aus-dod-2" d="M107.35,56.29a5.71,5.71,0,0,1,.88,1.6c-.08.12-.28.08-.36.08-1.35-.76-3.09-1.6-3.61-3.2-.12-.16-.44-.36-.39-.64a3.69,3.69,0,0,1,2.73,1.12c.28.4.6.6.75,1"/><path class="aus-dod-2" d="M16.68,54.78c.16.36-.16.64-.36.8a.91.91,0,0,1-.91-.32c-.27-.44.24-.8.56-1s.52.28.71.48"/><path class="aus-dod-2" d="M112.31,55.7c0,.24-.28.4-.4.56-.32,0-.64.16-.91-.12-.08-.2-.28-.52,0-.72.44-.56,1.07-.12,1.35.28"/><path class="aus-dod-2" d="M122.18,56.25a.94.94,0,0,1-.55,1,1,1,0,0,1-1-.36c-.2-.24,0-.48,0-.76a1,1,0,0,1,1-.28,2.15,2.15,0,0,1,.48.4"/><path class="aus-dod-2" d="M94.73,61.77c0,.48-.87.36-1.23.72a8.52,8.52,0,0,1-4.16.6v-.24a5.88,5.88,0,0,1,5.39-1.08"/><path class="aus-dod-2" d="M36.86,63.48a.76.76,0,0,1-.59.68.77.77,0,0,1-.68-.4c-.16-.48.24-.68.52-.88a.92.92,0,0,1,.75.6"/><path class="aus-dod-2" d="M94.06,63.92a1.14,1.14,0,0,1-.6.92,1.16,1.16,0,0,1-.87-.28c-.2-.16-.08-.44-.12-.64a.85.85,0,0,1,1.59,0"/><path class="aus-dod-2" d="M102,64.08a6.45,6.45,0,0,1-3.41,1.4l-2.14,0-.2-.16c1.31-1.6,3.69-1.6,5.75-1.44v.23"/><path class="aus-dod-2" d="M26,65a.71.71,0,1,1-1-.52c.44-.28.88.2,1,.52"/><path class="aus-dod-2" d="M28,65.45c.12.2-.08.32-.16.52a.65.65,0,0,1-.75,0,.5.5,0,0,1-.24-.68c.12-.24.36-.2.48-.36a1.12,1.12,0,0,1,.67.52"/><path class="aus-dod-2" d="M12.79,69.48c-.39.48-1-.12-1.47-.36-1.39-.8-1.35-2.36-2.73-3.28.16-.48.52,0,.79,0a5.61,5.61,0,0,0,.83.44c1.35.76,1.67,2,2.58,3.24"/><path
        class="aus-dod-2"
        d="M65.34,68.72a3.58,3.58,0,0,0-.44,1.4l-.16.08c.12-.6-.47-1-.32-1.59-.32-.48-.32-1.08-.59-1.6s.32-.92.59-1.36c.55.24.75.76,1.15,1.23C65.82,67.56,65.3,68.08,65.34,68.72ZM128.41,54a3.16,3.16,0,0,0-3-1.64A2.73,2.73,0,0,0,123.21,54a2,2,0,0,0,.75,2.2.61.61,0,0,0,.79-.2c.2-.52-.36-.52-.44-.92a1.33,1.33,0,0,1,.44-1.4c.39-.4,1.07-.2,1.55-.2a2.77,2.77,0,0,1,1.19,1.16,3.18,3.18,0,0,1,0,2.12,3.55,3.55,0,0,1-2.46,2c-3.29.48-39.43.32-39.43.32-4.24.4-9.08-.8-12.73,1.44-1.66.8-2.5,2.64-2.93,4.28a28.34,28.34,0,0,0-3.09,3.15l-.12-.12c.2-1,.64-1.8.84-2.76.59-.8.59-1.88,1-2.76,1.5-2.43,2.93-4.91,5.27-6.63,1-1.32,2.73-1.08,4.24-1.08a10.51,10.51,0,0,0,5.52.8.37.37,0,0,0,.12-.28c-.55-.52-1.47-.72-2.1-1.24-1.59-.76-3.09.24-4.76.12-.08-.08-.16-.12-.12-.24a23.31,23.31,0,0,1,4.92-2.64A33.21,33.21,0,0,1,86,49.38c.59,0,1.15-.52,1.71-.16l2.1-.56c.08,0,.16.16.32.12,1.79-.6,4,0,6.07-.08l.28.24,1.9.48c.71.08,1,.92,1.79,1,.4-.56-.43-.8-.63-1.16a4.37,4.37,0,0,1,2.66.4l-.39.44c-.24.44.12.76.47.92s.48-.12.68-.2c.52-.36,0-.72.12-1a37.9,37.9,0,0,1,8.45,2.4,6.8,6.8,0,0,0,2.3.76,10.37,10.37,0,0,0-3-1.6c-.68-.4-1.63-.44-2.14-1,.12-.2.4-.12.52-.28a5.9,5.9,0,0,0,3.45-2.24c.08-.24.52-.16.48-.48-.36-.4-1,.12-1.43.08-1.66.32-2.38,2.27-4,2.64-2-.48-4.09-1-6.11-1.48a12.22,12.22,0,0,1-3-.64l-2.22-.2h-4c0-.08-.16-.12-.12-.24,1.43-.36,2.66-1.2,4.09-1.56L106.87,41a26,26,0,0,0,3-3.28.75.75,0,0,0-.44-.76.67.67,0,0,0-.79.16c-.47.36,0,.8,0,1.24A6.66,6.66,0,0,1,106.83,40c-.16,0-10.95,4.91-10.95,4.91A27.32,27.32,0,0,1,91,46.67l-2.3.36a1.53,1.53,0,0,1-1,.92,9.44,9.44,0,0,1-1.82.52c-5.16,2-10.51,4.12-14.6,8.2a4.55,4.55,0,0,0,.4-1.68,3.33,3.33,0,0,0-.44-1.76c-.09-.22-.38-.86-.29-1.09l-.58.38a5.57,5.57,0,0,0-.32,3.4c.12.72.71,1.56.16,2.2-1.91,2.32-3,5.12-4.24,7.75-.48-.07-.71-.52-.91-1a13.36,13.36,0,0,0,2.82-5.83c.28-.2.08-.72.36-1-.08-.64.36-1.27,0-1.8.25-.87-1.16-1.68-.25-2.23l-.75.36c-1.71,2.24.89,5.59-1.06,7.75v.16c-.55.72-.83,1.44-1.59,1.92-.95-.39-1.31-1.48-1.86-2.28a3.53,3.53,0,0,1-.36-3.71c.36-1.16-.24-2.16-.36-3.2l-.39-.24a4.61,4.61,0,0,0-.56,4.67c.4.72.44,1.72,1,2.32a12.9,12.9,0,0,0,1.7,3c.16.4-.24.48-.43.68-.44-.28-.36-.92-.75-1.2a29.11,29.11,0,0,0-5.08-7.31c-.08-.36-.44-.68-.24-1.08a2.92,2.92,0,0,0,.52-3c-.08-.2-.32-.44-.28-.64L57,51.7c.08,1.4-.83,2.64-.43,4.12v.08a75.48,75.48,0,0,0-13.21-8l-.36,1a27.45,27.45,0,0,1,4.25,2.17,27,27,0,0,1,4,2.11c5.39,3,9,8,11.38,13.47,0,.44.44.92.16,1.36a21.94,21.94,0,0,0-3-3,5.81,5.81,0,0,0-3-4.43c-.59-.88-1.86-1-2.86-1.24l-14.44-.08c-11.74-.16-22.45.36-34.11.16C3.7,59.25,1.72,58.69,1.24,57a2.66,2.66,0,0,1,0-2.2,2.44,2.44,0,0,1,2-1.08,2.13,2.13,0,0,1,1.35,1.12c0,.52-.44,1-.64,1.44,0,.16.2.48.48.36a1.86,1.86,0,0,0,1-1.28c0-.28.16-.68-.12-.88A2.64,2.64,0,0,0,3.5,52.82a3.3,3.3,0,0,0-2.7.92c-1,.8-.91,2.24-.64,3.36a5.36,5.36,0,0,0,4.29,3.2l38.59.16c3.77.2,8-.44,11.82.32a4.56,4.56,0,0,1,3.21,3c0,.08-.16,0-.28,0a17.18,17.18,0,0,0-11.27-2.32,13.65,13.65,0,0,0-4.44.92,2.25,2.25,0,0,1-1.94-.64c-1.43-1.28-3.93-1.2-5.75-.72,0,.12,0,.24,0,.28,1.95-.16,3.09,1.52,4.84,1.72.4.08.71-.36,1.07,0a36.47,36.47,0,0,1-5.52,2.48c-.59-.12-.91-.68-1.39-1-.75-.84-2.14-.48-3.18-.56-.36.08-.67-.16-.91,0a3.39,3.39,0,0,0,1.71,1.32c1,.44,2.14,0,3.05.55a3.88,3.88,0,0,1-.84.56c-1.86.72-3.41,2.39-5.47,2.28a7.09,7.09,0,0,1-5.87-1.92,4,4,0,0,0-4-2.32c-.12.08-.28.08-.24.28.88.52,1.55,1.55,2.42,2.15.55.68,1.63,0,2.14.76a7,7,0,0,0,2.58,1.12,11.42,11.42,0,0,0,2.06.56l-.28.16c-3.61,1.2-7.77,1.32-11.82,1.16-1.19,0-2.34-.4-3.53-.36a2.25,2.25,0,0,0,1,.56,2.45,2.45,0,0,1-1.07.32,7.18,7.18,0,0,0-1.51.4,4,4,0,0,0-1.71.4,8,8,0,0,1-2.26,1.84c0,.16,0,.4.16.4.75-.32,1.71-.08,2.46-.4,1.31-.12,2.06-1.56,3.09-2.16,1.11-.88,2.7-.68,4-.48.79.2-.08.52.16,1,.32.28.59.6,1,.48a.7.7,0,0,1,.27-.2.91.91,0,0,0,0-1c.56-.36,1.31,0,1.91-.2,1.51,0,3-.36,4.48-.4.23,0,.52-.28.75,0-.12.32-.52.36-.36.8s.48.52.79.6c.4-.16.75-.44.59-1-.08-.28-.39-.32-.59-.44.83-.4,1.79-.52,2.62-.92a7.61,7.61,0,0,0,1.67-.56c.52,0,1-.52,1.43-.32A8.22,8.22,0,0,1,29.41,71c-.63,2.12-1.11,4.91,0,7,.12,0,.16,0,.24-.08-.83-2.12-.36-4.55.36-6.55.55-3.4,4-4.4,6.55-5.68l.12.16C36,67.52,35,69.2,35.16,71.32c.08.36-.16.72,0,1a4.23,4.23,0,0,0,1.47-1.84c.28-1.8-.75-4,1.07-5.36,3.25-1.28,6.31-3,10.07-3,.12.12.4-.08.44.16-.79.88-1.94,1.72-2.3,2.8-1.27,1.76-1.23,4.75-.68,6.91.36,1.24-.71,1.92-1.23,2.88-.25.34-.32.92-.54,1.31l.78.09a4.25,4.25,0,0,0,1.35-2.64,1.1,1.1,0,0,0,.75.8c.28-.44-.24-.76-.28-1.2.63-.36.91.44,1.43.6a10.2,10.2,0,0,0,2.42.56l.28-.28c-.87-1.36-2.62-1.59-4.12-1.68a8,8,0,0,1-.71-4.55,7,7,0,0,1,.79-2.48,5.92,5.92,0,0,1,1.11-1.52,5.49,5.49,0,0,1,2.5-1.36h.12a.19.19,0,0,0,0,.12c-1.07.84-1.19,2-1.82,3a3.34,3.34,0,0,0-.36,3.47c.24.52.12,1.32.68,1.68a8.87,8.87,0,0,0,.83-2.44c-.12-1.32-.91-2.56-.16-3.84a3.28,3.28,0,0,1,2.14-1.76c2.18-.2,4.09.92,6,1.76.4.28,1.07.52,1.15,1.08a3.41,3.41,0,0,1-1.47,2.68,3.37,3.37,0,0,1-3.61,0,2.74,2.74,0,0,1-.64-2.44,1.64,1.64,0,0,1,1.75-.64c.4.2.75.6,1.27.36a.51.51,0,0,0,.16-.64c-.44-.24-.59-.84-1.19-.92a2.58,2.58,0,0,0-2.18.44,2.81,2.81,0,0,0-.91,2.8A3.42,3.42,0,0,0,54,69.76a4.61,4.61,0,0,0,4.88-1.68,5.43,5.43,0,0,0,.87-1.71,10.36,10.36,0,0,1,4.09,5.27,8.44,8.44,0,0,1,0,2l1.39.12a1.33,1.33,0,0,1,.12-1,12,12,0,0,1,4.09-6.55c.68-.4.52.52.68.8a5.34,5.34,0,0,0,3.45,3,4.35,4.35,0,0,0,4.29-1.4c.52-1,1.15-2.36.27-3.36a2.73,2.73,0,0,0-2.18-1,2.69,2.69,0,0,0-2.18,1.48c0,.32,0,.68.23.84.16,0,.48,0,.6-.2.08-.6.59-.88,1.07-1.2a1.23,1.23,0,0,1,1.27.24A2.07,2.07,0,0,1,77.52,67a2.4,2.4,0,0,1-1.31,1.88,4,4,0,0,1-3.81-.36,8.83,8.83,0,0,1-1.11-1.76,2.93,2.93,0,0,1,0-1.84,13.41,13.41,0,0,1,5.67-2,4.05,4.05,0,0,1,2.1,1.32c1.82,1.88-.39,4.55.88,6.63.47-.08.47-.71.67-1.12.6-1.44-.16-3-.52-4.39A8.28,8.28,0,0,0,78.59,63a1,1,0,0,1,.48-.08A9.82,9.82,0,0,1,81.48,65,10.69,10.69,0,0,1,83,71.55c-.31,1.2-1.59,1.76-2.58,2.2A3.73,3.73,0,0,0,79.38,75c.48.28,1.15,0,1.63-.2.75-.28,1.19-1.24,1.71-1.68.08,0,0,.16.08.24,0,.44-.2,1,.2,1.16a14,14,0,0,0,.36-2,4,4,0,0,1,.75,2c.36.72,1,1.68,1.9,1.8.24-.36,0-.72-.12-1-.12-1-1-1.52-1.51-2.24C83,71.11,83.63,68.12,82.56,66a8.42,8.42,0,0,0-2.14-3l.16-.16a23.54,23.54,0,0,1,5.36,1c2.18,1.08,5.36.84,6.39,3.68a10.45,10.45,0,0,0,2.26,4.31l.12-.08a1.61,1.61,0,0,0,0-1.48c-.24-2-2-2.48-2.89-4.16l.12-.16a27.25,27.25,0,0,1,2.89.92,8.55,8.55,0,0,1,5.79,7.23,15.63,15.63,0,0,1-1.47,6.83c-.12.32-.67.68-.32,1,.44-.32.52-.84.75-1.2a11.14,11.14,0,0,0,1.31-8c0-.52-.63-.92-.36-1.44a1.25,1.25,0,0,0,.68.36c.24-.16.6-.16.75-.44s.2-.52,0-.71a1.08,1.08,0,0,0-1.15-.28,1.9,1.9,0,0,0-.48.88,8.22,8.22,0,0,0-1.43-2.12l.08-.12c1.79.6,3.41,1.48,5.23,2a2.59,2.59,0,0,0,1.39.44,40.29,40.29,0,0,0,4.88,1.24c1.19-.12,2.18.44,3.38.16v-.08l0,0c-.43-.56-1.39,0-1.9-.44a30,30,0,0,1-7.81-2c0-.12.2-.08.32-.08a1,1,0,0,0,.63-1,1.06,1.06,0,0,0-.91-.44,1.11,1.11,0,0,0-.6.68,1,1,0,0,0,.6.76c-.08.08-.24,0-.36,0-1.23-.56-2.42-1.08-3.61-1.64-.43-.08-.79-.44-1.23-.52-.91-.44-1.82-.88-2.74-1.23a62.08,62.08,0,0,0-8-3l-1.71-.48c-1-.28-2-.52-3-.8-3.37-.84-7.89-.92-10.83.92-.48-.16-.75.6-1,.12.83-2.2,3.25-2.92,5.43-3,15.91-.16,30.82-.28,46.49-.52a5,5,0,0,0,4.56-2.28,4,4,0,0,0,.28-3.68"/><path class="aus-dod-2" d="M108.38,66.2c0,.12.24.16.16.36a8.29,8.29,0,0,1-5.32,1.68c-.16,0-.32.16-.52.12s-.16-.2-.08-.28a6.06,6.06,0,0,1,5.75-1.87"/><path class="aus-dod-2" d="M102,66.84c.16.56-.2.88-.63,1.08a1.12,1.12,0,0,1-.87-.64c-.12-.32.16-.48.28-.68a.75.75,0,0,1,1.23.24"/><path class="aus-dod-2" d="M26.59,66.92a.81.81,0,0,1-.2.84.8.8,0,0,1-.71.2c-.28,0-.43-.36-.52-.59a.86.86,0,0,1,.52-.76c.32,0,.68,0,.91.32"/><path class="aus-dod-2" d="M19.49,69.52v.28a3.1,3.1,0,0,1-2.58-.6,5.33,5.33,0,0,0-2.1-2c0-.12-.24-.28,0-.36,2,0,3.18,1.6,4.68,2.68"/><path class="aus-dod-2" d="M114.41,66.88c-.91,1.36-1.71,3-3.33,3.64-.28,0-.52.39-.75.12a7.31,7.31,0,0,1,3.53-3.8,1.34,1.34,0,0,1,.55,0"/><path class="aus-dod-2" d="M28.89,67.36c0,.44-.28.52-.55.75-.32,0-.48-.2-.68-.44-.16-.4.2-.56.4-.76a.82.82,0,0,1,.83.44"/><path class="aus-dod-2" d="M119.41,67.6c-.36.52-.2,1.28-.55,1.84-.79.92-1.47,2-2.74,2.16-.2-.4.28-.8.48-1.16a5.72,5.72,0,0,1,2.62-3.07l.2.24"/><path class="aus-dod-2" d="M7.19,68a.79.79,0,0,1,0,.88.93.93,0,0,1-.91.16A.74.74,0,0,1,6,68c.24-.36.95-.56,1.23-.08"/><path class="aus-dod-2" d="M4.93,68.44c0,.2.16.36.12.55a.93.93,0,0,1-.55.48A.83.83,0,0,1,3.59,69,.78.78,0,0,1,4,68.12a.81.81,0,0,1,1,.32"/><path class="aus-dod-2" d="M9.61,68.68c.08.32.16.88-.32,1-.56.24-.87-.16-1.19-.48a.91.91,0,0,1,.48-.8,1.1,1.1,0,0,1,1,.32"/><path class="aus-dod-2" d="M16.12,69.2c0,.28,0,.68-.28.76s-.55.12-.75.08c-.08-.24-.52-.44-.28-.71a1.5,1.5,0,0,1,.55-.44c.24.12.6,0,.75.32"/><path class="aus-dod-2" d="M123.21,69.48c-.12.28-.28.64-.6.64a1,1,0,0,1-.91-.44c-.16-.44.2-.68.52-.8s.91.16,1,.6"/><path class="aus-dod-2" d="M116,69.68c0,.32-.32.56-.48.68a1,1,0,0,1-1.23-.6,1,1,0,0,1,.68-.72,1,1,0,0,1,1,.64"/><path class="aus-dod-2" d="M120.87,69.6a.83.83,0,0,1-.36.68.91.91,0,0,1-1-.16c-.36-.32-.08-.6.16-.84s1-.16,1.15.32"/><path class="aus-dod-2" d="M6.16,70.28a.85.85,0,0,1-.47,1,.92.92,0,0,1-.87-.56.75.75,0,0,1,.4-.84.9.9,0,0,1,.95.4"/><path class="aus-dod-2" d="M114,70.71a.88.88,0,0,1-.55,1c-.32.08-.52-.08-.75-.28s-.36-.64,0-.84a.78.78,0,0,1,1.35.08"/><path class="aus-dod-2" d="M27.5,71.16c.16.44-.32.52-.44.76-.16.08-.48.12-.59,0s-.44-.48-.32-.84c.2-.16.28-.32.52-.4.44-.12.6.28.84.52"/><path class="aus-dod-2" d="M122.5,71.44c.08.28-.16.39-.2.6a1.06,1.06,0,0,1-.91.16c-.36-.2-.36-.52-.36-.88.24-.16.28-.36.56-.44a.9.9,0,0,1,.91.56"/><path class="aus-dod-2" d="M120,71.55c.16.48-.28.72-.6.84-.16,0-.39-.08-.43.16a10.41,10.41,0,0,1,2.46,2.12V75a5.36,5.36,0,0,1-3.93-1.52c-.28-.2-.75-.2-1.07-.48.52-.52,1.47-.32,2.18-.36.52-.56-.59-1,.08-1.44.24,0,.4-.28.71-.2a1.36,1.36,0,0,1,.6.56"/><path class="aus-dod-2" d="M103.82,71.6c.08.2-.16.44-.2.64a.79.79,0,0,1-.87.16c-.2-.28-.52-.52-.39-.92a.82.82,0,0,1,1.46.12"/><path class="aus-dod-2" d="M15.13,73c-.12.36-.28.6-.68.64a.79.79,0,0,1-.71-.48c0-.28.16-.44.2-.64.44-.36,1.23-.12,1.19.48"/><path class="aus-dod-2" d="M18.34,72.48c0,.56-.59.88-.79,1.43a4,4,0,0,1-3.17,2.64c-.16-.36.52-.8.67-1.16.63-1.36,1.9-2.07,3.05-2.91h.24"/><path class="aus-dod-2" d="M102.87,73c0,.44-.36.76-.68.92s-.64-.16-.83-.32c-.32-.32-.12-.64,0-1,.48-.48,1.15-.08,1.47.36"/><path class="aus-dod-2" d="M105.32,73.32a1,1,0,0,1-.71.88c-.08-.12-.28,0-.4-.08a.88.88,0,0,1-.52-.72c.2-.2.28-.52.55-.56s1,0,1.07.48"/><path class="aus-dod-2" d="M24.49,73.27a.87.87,0,0,1-.59.84.78.78,0,0,1-.75-.48c-.08-.36.28-.6.47-.8.48-.16.6.2.88.44"/><path class="aus-dod-2" d="M27.23,73.43a1,1,0,0,1-.75.68c-.28-.08-.6-.16-.71-.48s.28-.6.55-.8a.84.84,0,0,1,.91.6"/><path class="aus-dod-2" d="M113.86,76.23c.2.16.55.36.47.64-.63.28-1.15-.44-1.74-.55a8.18,8.18,0,0,1-2.06-3.2c.36-.36.75.08,1.07.2a7.78,7.78,0,0,1,2.26,2.91"/><path class="aus-dod-2" d="M115.32,73.43a1,1,0,0,1-.08.88c-.24.4-.75.32-1.11.24-.2-.24-.56-.56-.32-.92s.48-.4.75-.52.48.2.75.32"/><path class="aus-dod-2" d="M30.87,74.47c0,.32.12.8-.27,1a.77.77,0,0,1-1-.48c-.2-.48.24-.55.48-.79.32-.08.52.08.75.28"/><path class="aus-dod-2" d="M105.21,77.07a5.84,5.84,0,0,1,1,2.84c-.12.28.2.56,0,.76H106c-1.79-1.28-2.18-3.08-2.86-4.87a.33.33,0,0,1-.16-.4c.4-.36.68.36,1.07.48l1.11,1.2"/><path class="aus-dod-2" d="M36,75.71s0,.08,0,.08c-1.59,1.12-3.81,1.8-5.63.72a.3.3,0,0,1,.2-.36,8.14,8.14,0,0,1,3.49-.76l1.9.32"/><path class="aus-dod-2" d="M27,75.91c-1.34.84-2.57,2.48-4.24,2.88-.32.12-.52.56-.91.32.71-2.16,3.05-3.32,5.15-3.52v.32"/><path class="aus-dod-2" d="M102.87,77.71a.64.64,0,0,1-.32.84.55.55,0,0,1-.75,0c-.36-.16-.36-.52-.36-.8s.4-.32.6-.44c.36.08.63.08.83.4"/><path class="aus-dod-2" d="M99.57,77.91a2.25,2.25,0,0,1-1.43,1c-1.35.48-2.58-.16-3.77-.48,0-.32.43-.2.63-.4a8.62,8.62,0,0,1,4-.2.41.41,0,0,1,.52,0"/><path class="aus-dod-2" d="M27,79.07c-.12.16-.16.52-.48.64a.83.83,0,0,1-.79-.16c-.08-.24-.36-.44-.16-.72s.4-.36.63-.44a.84.84,0,0,1,.79.68"/><path class="aus-dod-2" d="M29.33,79.43c-.12.24-.24.6-.55.76a.88.88,0,0,1-.8-.28,1,1,0,0,1-.12-.8c.08-.2.36-.24.55-.36.4,0,.75.36.91.68"/><path class="aus-dod-2" d="M102.11,79.82a1.07,1.07,0,0,1-.28.76.67.67,0,0,1-.87.16c-.28,0-.36-.36-.48-.55s.16-.52.28-.8a.86.86,0,0,1,1.35.44"/><path class="aus-dod-2" d="M103.86,79.75c0,.2.16.4.08.56-.24.2-.4.72-.87.52-.23.08-.36-.24-.47-.32-.16-.4,0-1,.47-1.08.36-.12.6.2.8.32"/><path class="aus-dod-2" d="M27.9,80.9A1.09,1.09,0,0,1,27.5,82c-.44.08-1,.08-1.15-.44a1.08,1.08,0,0,1,.48-1.16,1,1,0,0,1,1.07.52"/><path class="aus-dod-2" d="M30.16,80.74c-.08,1.12-.32,2.48-1.43,3.12-.63.12-1.27.72-1.9.32V84c.83-1.2,2.34-2.12,3.33-3.24"/><path class="aus-dod-2" d="M95.89,81.66c.16.24-.12.45-.24.64s-.68.16-1,0-.32-.52-.2-.8a.8.8,0,0,1,.52-.44c.36,0,.68.28.88.55"/><path class="aus-dod-2" d="M34.13,83.5c.55.92.23,2.16.55,3.16-.67.08-.95-.68-1.39-1.08-.87-1.2-.75-2.8-1.15-4.2a.22.22,0,0,1,.28-.08A10.29,10.29,0,0,1,33.93,83c-.08.28.23.28.2.52"/><path class="aus-dod-2" d="M97.87,82c0,.32-.36.4-.55.6a1.44,1.44,0,0,1-.75-.36c-.12-.4.2-.52.39-.72a.66.66,0,0,1,.91.48"/><path class="aus-dod-2" d="M102.59,85.54c0,.12,0,.36-.24.28h-.16c-1.15-1-2.3-2.2-2.14-3.79l.24,0c1.07.92,2.26,1.92,2.3,3.55"/><path class="aus-dod-2" d="M99.61,84.26a.93.93,0,0,1-.36.76c-.44.12-1.11.08-1.19-.52,0-.4.4-.6.59-.8a.82.82,0,0,1,1,.56"/><path class="aus-dod-2" d="M97,85.1c-.55,1.48-2.06,2.24-3.09,3.36-.2-.12-.12-.44-.08-.6a5.52,5.52,0,0,1,3.05-3.6c.63.08,0,.52.12.84"/><path class="aus-dod-2" d="M100,86.3c0,.36-.36.52-.56.72a1.15,1.15,0,0,1-.87-.44c0-.4.28-.52.52-.71a.82.82,0,0,1,.91.44"/><path
        class="aus-dod-2"
        d="M70.51,14.08h-.44c-1.15,0-.17,1.39.45,1.39C71.29,15.48,71.33,14.08,70.51,14.08ZM67,15.48c1.15,0,.06-1.39-.55-1.39H65.25c-1.15,0-.06,1.39.55,1.39Zm-4.82,0c1.15,0,.06-1.39-.56-1.39H60.43c-1.15,0-.06,1.39.55,1.39Zm8.32-1.71a1,1,0,0,1,0,2H58.69a1,1,0,0,1,0-2H70.46"/><path
        class="aus-dod-2"
        d="M70.54,32c0,.52.7.17,1.21.17S73,32.52,73,32c0-.74-.7-.48-1.21-.48S70.54,31.27,70.54,32Zm2.2,1.23c.5,0,.55-.7.55-1.3,0-1.36-1.08,0-1.63-1.28-.41,1.08-1.51.08-1.51,1.24,0,.8,0,1.34.79,1.34Zm-3.32-6,2.25.86,2.21-.86L73,30.57l1.75-.36-.6,2,.6,1.92-1.55-.42.68,3.57-2.21-.86-2.25.86.91-3.57-1.79.5.48-2-.48-1.93,1.71.28-.84-3.31"/><path class="aus-dod-2" d="M64.16,32.13v-.42l-.38-.07.3-.3L63.9,31l.39,0,.23-.41.23.4.39,0-.19.34.3.3-.37.07v.42l-.36-.27-.36.27"/><path class="aus-dod-2" d="M62.42,34.38V34L62,33.88l.3-.3-.18-.34.39,0,.23-.41.23.4.39,0-.18.34.3.3-.37.07v.42l-.36-.27-.36.27"/><path class="aus-dod-2" d="M65.38,34.09v-.42L65,33.6l.29-.31L65.12,33l.39,0,.23-.41L66,33l.39,0-.18.34.3.31-.37.07v.42l-.36-.27-.36.27"/><path class="aus-dod-2" d="M65.73,35.77v-.23l-.21,0,.17-.17-.11-.19.22,0,.13-.23.13.23.22,0-.1.19.17.17-.21,0v.23l-.2-.15-.2.15"/><path class="aus-dod-2" d="M63,37.69V37l-.64-.12.5-.53-.31-.57.66.07.4-.7.39.69.67-.06-.32.57.51.53L64.2,37v.72l-.61-.46-.61.46"/><path class="aus-dod-2" d="M64.38,0l1.4,3.44,3.54-1L67.52,5.64l3,2.14-3.63.61.22,3.7L64.38,9.6l-2.74,2.48.22-3.7-3.64-.61,3-2.14L59.45,2.39l3.54,1L64.38,0"/><path
        class="aus-dod-2"
        d="M51.58,77c-.42.16-.59.28-.48.71l.5,2.11a1.89,1.89,0,0,1-.14,1.38,2.55,2.55,0,0,1-1.44.86,2.92,2.92,0,0,1-1.7,0A1.24,1.24,0,0,1,47.5,81L47,78.79c-.13-.55-.34-.52-.79-.45l0-.17,2.66-.64,0,.16c-.52.15-.76.21-.62.79l.52,2.2c.09.38.3,1.29,1.44,1a1.28,1.28,0,0,0,1.06-1.77l-.48-2c-.09-.4-.24-.61-.93-.47l0-.16,1.73-.42,0,.16"/><path
        class="aus-dod-2"
        d="M55.52,77.49a1.7,1.7,0,0,0-1.82-.88c-.41.09-.8.39-.71.82s.26.47,1,.61l1.27.22a1.4,1.4,0,0,1,1.14,1c.13.58-.2,1.5-1.66,1.82a7,7,0,0,1-1.4.07c-.17,0-.18.16-.19.28l-.23.05-.36-1.64.23-.05a1.69,1.69,0,0,0,1.93,1.06c.95-.21.84-.88.82-1-.1-.45-.5-.52-1.06-.61l-.57-.09c-1.47-.24-1.6-.81-1.66-1.12s0-1.36,1.46-1.7A7.15,7.15,0,0,1,55,76.34c.18,0,.2-.15.21-.29l.24-.05.32,1.44-.22.05"/><path class="aus-dod-2" d="M60.76,80.11l-2.87.27,0-.17c.58-.1.77-.13.72-.7l-.34-3.57c-.56.08-1.39.2-1.45,1.29l-.23,0-.11-1.36,4.84-.46.14,1.36-.23,0c-.27-1.07-1.1-1-1.66-1l.34,3.57c.05.57.25.57.85.54l0,.17"/><path
        class="aus-dod-2"
        d="M64,77.69c1.06,0,1.48-.13,1.5-1a.85.85,0,0,0-1-1c-.45,0-.46.07-.51.27Zm3.5,2.41-1.66,0L64.2,77.91H64l0,1.33c0,.54.17.57.7.64V80L61.91,80v-.17c.55,0,.71-.06.73-.61l.06-3c0-.59-.24-.6-.7-.64V75.4l2.6.05c.57,0,2.28.1,2.26,1.24,0,.83-.85,1-1.29,1.13l1.59,2a.4.4,0,0,0,.33.14v.17"/><path
        class="aus-dod-2"
        d="M70.54,78.89l-.61-1.73-1,1.54Zm2.25,1.9-2.6-.33,0-.17c.5,0,.64,0,.67-.18a3.44,3.44,0,0,0-.26-.95l-1.8-.22a4,4,0,0,0-.46.82c0,.25.35.32.62.37l0,.17-1.63-.2,0-.17c.44,0,.58-.22.88-.69l2.24-3.46.22,0,1.35,3.77c.27.77.37,1,.76,1l0,.17"/><path class="aus-dod-2" d="M77.5,81.74l-4.6-.84,0-.16c.45,0,.7.05.77-.35l.59-3.23c.08-.45-.24-.52-.6-.61l0-.16,2.78.51,0,.16c-.56-.08-.81-.12-.91.47L75,80.68c-.05.32.11.41.64.5a2,2,0,0,0,2.25-.94l.23,0-.6,1.46"/><path class="aus-dod-2" d="M80.55,82.43l-2.77-.58,0-.17c.43.06.75.1.83-.31l.66-3.22c.09-.44-.28-.53-.64-.62l0-.16,2.77.58,0,.17c-.37-.07-.75-.14-.85.31l-.67,3.21c-.09.43.23.52.66.63l0,.17"/><path
        class="aus-dod-2"
        d="M83.89,81.3l-.64-1.73-.93,1.57Zm2.29,1.85-2.61-.27,0-.17c.5,0,.65,0,.67-.2a3.61,3.61,0,0,0-.28-.94l-1.81-.19a3.92,3.92,0,0,0-.45.84c0,.26.36.32.63.36l0,.17-1.63-.17,0-.17c.44,0,.58-.23.87-.71l2.16-3.52.23,0,1.43,3.74c.29.76.39,1,.78,1l0,.17"/><path
        class="aus-dod-2"
        d="M64.08,28.67c-.48,0-1.12.33-1.12-.23,0-.8.54-.62,1-.62s1.21-.18,1.21.62C65.2,29,64.56,28.67,64.08,28.67Zm1.41-.31c0-1.63-.91-.1-1.42-1.49-.37,1.17-1.47.18-1.47,1.45a1,1,0,0,0,.36.92v.48a.22.22,0,0,0,.22.23h1.73a.23.23,0,0,0,.23-.23v-.52a1.06,1.06,0,0,0,.35-.83"/><path class="aus-dod-2" d="M79.69,48.38a.66.66,0,1,0-.75-.66.71.71,0,0,0,.75.66"/><path class="aus-dod-2" d="M76.17,24.21a4.18,4.18,0,0,0-.35.7.36.36,0,1,0,.71,0s-.36-.7-.36-.7"/><path class="aus-dod-2" d="M52.21,24.21a4.18,4.18,0,0,0-.35.7.36.36,0,1,0,.71,0s-.36-.7-.36-.7"/><path class="aus-dod-2" d="M58.2,24.21a4.2,4.2,0,0,0-.35.7.36.36,0,1,0,.71,0s-.36-.7-.36-.7"/><path class="aus-dod-2" d="M64.19,24.21a4.2,4.2,0,0,0-.35.7.36.36,0,1,0,.71,0s-.36-.7-.36-.7"/><path class="aus-dod-2" d="M70.18,24.21a4.18,4.18,0,0,0-.35.7.36.36,0,1,0,.71,0s-.36-.7-.36-.7"/><path class="aus-dod-2" d="M52.23,32.44a4.15,4.15,0,0,1,.35.7.36.36,0,1,1-.71,0s.36-.7.36-.7"/><path class="aus-dod-2" d="M52.23,40.43a4.2,4.2,0,0,1,.35.7.36.36,0,1,1-.71,0s.36-.7.36-.7"/><path class="aus-dod-2" d="M53.18,46.75a4.18,4.18,0,0,1,.35.7.36.36,0,1,1-.71,0s.36-.7.36-.7"/><path class="aus-dod-2" d="M58.21,50.12a4,4,0,0,1,.35.7.36.36,0,1,1-.71,0s.36-.7.36-.7"/><path class="aus-dod-2" d="M76.48,32.44a4.15,4.15,0,0,0-.35.7.36.36,0,1,0,.71,0s-.36-.7-.36-.7"/><path class="aus-dod-2" d="M76.48,40.43a4.2,4.2,0,0,0-.35.7.36.36,0,1,0,.71,0s-.36-.7-.36-.7"/><path class="aus-dod-2" d="M75.52,46.75a4.18,4.18,0,0,0-.35.7.36.36,0,1,0,.71,0s-.36-.7-.36-.7"/><path class="aus-dod-2" d="M70.49,50.12a4.06,4.06,0,0,0-.35.7.36.36,0,1,0,.71,0s-.36-.7-.36-.7"/><path class="aus-dod-2" d="M64.38,53.68a4.13,4.13,0,0,0-.35.7.36.36,0,1,0,.71,0s-.36-.7-.36-.7"/><path
        class="aus-dod-2"
        d="M74.12,41.76c.07.11.27.15.5.07l.23-.64s-.26-.3-.43-.26c-.64.15-1.32.23-1.7.84a1.25,1.25,0,0,0,.61,1c.22-.08.26.15.41.27a.26.26,0,0,1-.26.34c-.45-.45-1.24.15-1.58-.42.15-.57.45-1.21,0-1.75,0-.11.23-.23.11-.34-.19-.53-.75-.11-1.09-.11a1.44,1.44,0,0,0-1.36.68,1.06,1.06,0,0,0,.3.57c.15,0,.23,0,.27.15l-.38.23a.8.8,0,0,1,.15.41c-.27.12-.53-.26-.64-.45s0-.84-.38-.91a1.57,1.57,0,0,0-.32.11,1.08,1.08,0,0,0-.16.63,2.59,2.59,0,0,0,.15.68,6.48,6.48,0,0,1,1.43,1.39c-.34.68-.34,1.63-1.13,2a.64.64,0,0,0-.23.61l.19.15c.49-.27,1.43-.34,1.36-1.18a3,3,0,0,1,.71-1,.79.79,0,0,1,.87.42,1.48,1.48,0,0,1-1,1.14c-.07.08,0,.19,0,.3.15.27.57.15.79.11.64-.42.91-1.18,1.47-1.4.08.38-.75.49-.23.87.34-.07.79,0,1-.42-.27-.64.9-.95.19-1.52,0-.57.6-.8.57-1.41-.23-.61-.94-.61-1.13-1.18a.83.83,0,0,1,.79,0"/><path class="aus-dod-2" d="M46.6,48.67a.66.66,0,1,0-.75-.66.71.71,0,0,0,.75.66"/><path class="aus-dod-2" d="M7.75,71.36A.71.71,0,1,0,7,70.66a.72.72,0,0,0,.73.71"/><path class="aus-dod-2" d="M32.37,76.8s0,0,0,0,0,0,0,0h0Zm.1.07h0l0-.06h0v0s0,0,0,0h-.08s0,0,0,0v-.09s0,0,0,0h.07s.07,0,.07,0,0,0,0,0l0,.05h0"/><path class="aus-dod-2" d="M32.58,76.78a.05.05,0,0,0,0,0,0,0,0,0,0,0,0s0,0,0,0h0a0,0,0,0,1,0,0s0,0-.06,0h-.05v0h0s0,0,.05,0,0,0,0,0,0,0,0,0h0s0,0,0,0,0,0,.05,0h.05v0h0"/><path class="aus-dod-2" d="M32.83,76.74l0,0,0,.12h0l0-.09h0l0,.09h0l-.05-.12,0,0h.06l0,.07,0-.06v0h0v0l0,.06h0l0-.07h0"/><path class="aus-dod-2" d="M32.89,76.82h0v0s0-.05,0-.05,0,0,0,0S32.87,76.82,32.89,76.82Zm-.05.05a.07.07,0,0,0,.06-.05h0a0,0,0,0,1,0,0,0,0,0,0,1,.05,0,.05.05,0,0,1,.05.06s0,.07-.11.08h0"/><path class="aus-dod-2" d="M33,76.78H33a0,0,0,0,1,0,0s0,0-.07,0l0,0h0l0,0a0,0,0,0,0,0,0s0,0,0,0H33l0-.07h.07v0H33v0"/><path
        class="aus-dod-2"
        d="M77.38,44.68a4.75,4.75,0,0,1-1.79,3.68L65.17,55h-.05a1.32,1.32,0,0,1-.8.29,1.29,1.29,0,0,1-.82-.3l-10.4-6.61a4.75,4.75,0,0,1-1.79-3.68V24H77.38Zm.78-21.41v0H50.52v0h0l0,21.13c0,2.15.91,4,2.18,4.62l10.63,6.75a1.29,1.29,0,0,0,1.84.1L76,49c1.26-.58,2.18-2.46,2.18-4.62l0-21.12h0"/><path class="aus-dod-2" d="M68.06,54.06l.34-.16a1.42,1.42,0,0,0-.34.16"/><path
        class="aus-dod-2"
        d="M44.57,81.63l-1-1.54L43,81.81Zm2.64,1.31-2.61.3,0-.17c.5-.09.64-.11.61-.34a3.43,3.43,0,0,0-.47-.86l-1.81.21a3.67,3.67,0,0,0-.25.91c0,.25.42.23.69.21l0,.17-1.63.19,0-.17c.43-.11.52-.35.7-.88l1.36-3.9.23,0,2.2,3.34c.45.68.6.89,1,.84l0,.17"/>
        <g class="aus-dod-4"><path
          class="aus-dod-2"
          d="M92,74.55a2.27,2.27,0,0,1-1.7,1.36c0-1,.91-1.64.59-2.71a2.38,2.38,0,0,0-2.5-.8c-.36.24-.2.64-.32,1l-.16,1.32c-.79,0-.83-.72-1.07-1.28A2.31,2.31,0,0,1,88,71.36a2.71,2.71,0,0,1,2.3.08,1.77,1.77,0,0,1,1.31.84C92.23,72.83,92.08,73.83,92,74.55Zm-3.21.4c.44-.44-.12-3,1.11-1.32,0,.32,0,.8-.28,1S89.06,75.15,88.75,74.95Zm.44,1c0,.64-.55.48-.87.72h-1a2.2,2.2,0,0,1-.12-1.12A7.87,7.87,0,0,1,89.18,75.95Zm1.11,4.88c-.32.4,0,1-.44,1.4,0,.72-.59,1.08-1.11,1.36-4.72,1-9.36-.55-13.92-1.36a48.48,48.48,0,0,0-20.35-.32c-3.05.56-6,1.28-9,2.12A13,13,0,0,1,40,84c-1.43-.68-.83-2.52-1.27-3.79a21.33,21.33,0,0,0-.32-2.76,2.4,2.4,0,0,1-.16-1c.59.08,1.19.52,1.82.68,3.33.64,6.31-.44,9.4-1a68.6,68.6,0,0,1,9.16-1.4A58.86,58.86,0,0,1,69.23,75c1.11,0,2.06.32,3.13.4,2.22.28,4.29.88,6.54,1a11.83,11.83,0,0,0,1.19.2c3.57.56,7.58,1.56,11,0A29.33,29.33,0,0,1,90.29,80.82ZM70.14,83.74a2.69,2.69,0,0,1,.36,1.76c-.4.76-1.19.76-1.9.92a1.24,1.24,0,0,1-.91-.28.41.41,0,0,0-.16-.4c.12-.52-.91-1-.2-1.48C68,83.66,69.47,82.3,70.14,83.74Zm.87.16c.48.12.52.64.55,1a2.36,2.36,0,0,1-2.89,2.12,2.54,2.54,0,0,0,2.38-1.36Zm1,5.31a.16.16,0,0,0-.08.16,4.52,4.52,0,0,1-2.78-1.24l0-.2A7.52,7.52,0,0,1,72,89.21Zm-1.47,3.68c0,.12-.24.12-.32,0a21.09,21.09,0,0,1-2.5-4.79l.16,0C68.87,89.65,69.63,91.37,70.58,92.89Zm-2-1-.2.08c-.2-.16-.12-.6-.08-.84C68.55,91.37,68.75,91.65,68.6,91.93Zm-1.11-2.4c0,.4.44.56.2.92A1.23,1.23,0,0,1,67.48,89.53Zm-.24-2.63h.08V87h-.08Zm-2.3,5.87c-.75,0-1.9.48-2.62-.16,0-.32-.32-.48-.28-.8.64-.24,1.19.52,1.79,0a16.52,16.52,0,0,1,2.78.08c.44.12,1.11-.72,1.19.12C67.48,93.29,65.9,92.37,64.95,92.77ZM63.2,88l.2-.32a16.88,16.88,0,0,1-1.31,2.88C61.85,89.61,62.84,88.86,63.2,88Zm1.11-.76c.52-.56,1,.32,1.19.76.59.88,2.14,1.68,1.55,2.88-.76.68-1.95,0-2.78.56-.44,0-1.19.08-1.43-.36A23.64,23.64,0,0,1,64.31,87.25Zm-.12-1.52H64l.24-.24C64.39,85.58,64.23,85.66,64.19,85.74Zm.91.08c.16-.24.36-.6.63-.6,0,0,0,.08.08.12A2,2,0,0,1,65.11,85.82Zm.55.6a.3.3,0,0,1,.36,0Zm1.07,1.24c0,.08,0,.2-.08.28l-.91-.72A1,1,0,0,1,66.73,87.66Zm-.12-2.44h0v.12h0Zm1.7-2.48c-.47.16-.83.72-1.31.84A1.61,1.61,0,0,1,68.32,82.74Zm-2-.52c-.08-.36.36-.08.52-.24l1.23.08C67.45,82,66.65,83.46,66.34,82.22Zm-2.89,1.12A4.39,4.39,0,0,1,64,81.86a2.33,2.33,0,0,1,1.07.16c.08.8,1.07,1.88,0,2.55-.36.16-.87.52-1.27.16A1.11,1.11,0,0,1,63.44,83.34Zm-.6,2.48c0-.16.08-.36.12-.56.2-.2.39.16.48.28A.59.59,0,0,1,62.84,85.82Zm-.08-2.28h0V84h0Zm-.44-.76c-.52-.12-.79-.72-1.35-.72a3.15,3.15,0,0,1,1.51,0C62.69,82.3,62.37,82.54,62.33,82.78ZM61.89,86a6.7,6.7,0,0,1,.64-1.68A3.35,3.35,0,0,1,61.89,86ZM61,86a9.62,9.62,0,0,1-1.9-.48c-.4-.4,0-.84,0-1.28.55-.88,2.14-1.32,2.89-.52A4.28,4.28,0,0,1,61,86Zm.36,1.08v.16H61.3v-.2h.16a.25.25,0,0,0-.16,0Zm-1,2.32a31.17,31.17,0,0,1-1.95,3.75c-.08.2-.4.24-.63.28,0-.56.55-1,.79-1.48.83-1.08,1.07-2.24,2-3.28C60.86,88.93,60.39,89.09,60.39,89.41ZM56.62,89c1-.4,1.94-1.24,3-.88A5.47,5.47,0,0,1,56.62,89ZM58,86.26a4.34,4.34,0,0,1,1.27-3.6,2.29,2.29,0,0,1,1.7.08c-1,.28-2.34.52-2.58,1.84,0,.52-.12.8.12,1.24.44.76,1.43.44,2,1a.51.51,0,0,1-.36.48A15.3,15.3,0,0,1,58,86.26ZM39.44,73.43c.12-.32,0-.8.44-.88.28-.08.71-.08.75.24a8.14,8.14,0,0,1-.2,1.4A.93.93,0,0,1,39.44,73.43Zm.12,1.34c.59.43,1.43.24,2.14.36a1.51,1.51,0,0,1-.2,1.36c-.68-.16-1.55-.08-1.9-.72C39.68,75.49,39.48,75.09,39.56,74.78ZM37.7,73.63a2.9,2.9,0,0,1,1-2,3.35,3.35,0,0,1,3.13.12,1.53,1.53,0,0,1,.64.76,1.78,1.78,0,0,1-.6,1.8h-.39a4.45,4.45,0,0,1,.23-1.8c0-.48-.43-.52-.75-.72a2.32,2.32,0,0,0-1.79.4A1.8,1.8,0,0,0,38.61,74c.28.44,0,1,.2,1.52l-.12.16A2.46,2.46,0,0,1,37.7,73.63Zm37.22,17a17.31,17.31,0,0,0,4.23,1c-.12.54-1.09,0-1,.8-1.23-.48-2.66-.71-3.57-1.68C74.68,90.7,74.76,90.57,74.91,90.61Zm-24.77.64-.55-.52c.27-.36.87-.16,1.3-.4a6.86,6.86,0,0,1,3.38-.48C53.09,90.81,51.54,90.93,50.15,91.25ZM93,73a4.15,4.15,0,0,0-2.7-2.48,3.47,3.47,0,0,0-3.45.88c-1.43,1.16-.43,3.07-.39,4.63,0,.32,0,.56-.28.72-5.75-.52-11.11-2-16.82-2.55-1.31-.23-2.63-.17-3.87-.43l-1.6-.17a67,67,0,0,0-14.56,1.64c-1,.32-2.1.39-3.09.75-.71-.12-1.31.4-2,.2l-1.3.3a1,1,0,0,1-.44,0c-.64-1.64,1.27-2.64.68-4.23a2.91,2.91,0,0,0-2.74-1.64,3.32,3.32,0,0,0-3.18,1.64c-.91,2,.24,4.07.6,6-.08.64.63,1.36,0,1.88a5.42,5.42,0,0,0-4.48-.92c-.48.24-1.35-.08-1.59.48,1.71.92,3.89.8,5.79.72.24-.08.39-.12.59,0,.16,1-.2,2.44.44,3.36a4.06,4.06,0,0,0,3.05,1.32c3.65-.12,6.9-1.2,10.23-2,.52,0,.91-.32,1.47-.32A29.33,29.33,0,0,1,59,82.06a10,10,0,0,0-1.67,3.59c-.47,1.08.84,1.24,1.23,1.84-1.23.36-2.1,1.2-3.25,1.68-2.54-.08-4.68.88-7.06,1.16,0,.52.83.36.91.88-.12.36-.48.4-.75.6,0,.23,0,.28.24.32.24-.28.75-.08,1-.36.79,0,1.46-.24,2.22-.28a7.36,7.36,0,0,0,2-.8c.83-.24,1.35-.8,2.18-1,1.19,0,2.26-.4,3.37-.48v.24c-.91,1.48-1.86,3-2.82,4.39a.44.44,0,0,0,.28.64,2,2,0,0,0,1.55-.24c.83-1.44,1.59-2.8,2.26-4.27.28-1.36,1.27-2.08,2.26-3,.16-.08.39-.32.55-.08a18.34,18.34,0,0,0-1.91,2.8,3.38,3.38,0,0,0,.6,3.48c.48.4,1.19.28,1.82.32,1.55-.8,3.53.48,4.72-1,.71-.12.83.72,1.23,1.12.67.2,1.39.88,2.06.4,0-.44-.52-.84-.75-1.23-.48-.84-1.07-1.52-1.51-2.28a7.91,7.91,0,0,1-.64-1.48,12.87,12.87,0,0,0,2.14.84,13,13,0,0,1,2.14.64,7.32,7.32,0,0,0,2,1.52c1,.48,2.1.56,3.13,1,.4,0,1,.36,1.27,0a1.69,1.69,0,0,0-.59-.44c-.12-.52.71-.24,1-.64a.56.56,0,0,0-.46-.3c-.57-.3-2-.41-2.36-.62A8.68,8.68,0,0,1,76,90.45c-2.38,0-3.69-2.16-5.59-3,.43-.4,1.11-.72,1.39-1.32a2.22,2.22,0,0,0,.12-2.11C71.57,82.82,70,83,69.07,82.3l.12-.12a16.6,16.6,0,0,1,4.29.56c3.8.52,7.34,2,11.3,2,2.18,0,4.91.12,6-2,.2-1.24.43-2.48.63-3.71.48-2,1.79-3.84,1.59-6"/></g>
      </g><path
        class="aus-dod-2"
        d="M139.64,85.47v-.42h.51a2,2,0,0,0,1-.21,1.28,1.28,0,0,0,.52-.57,5.37,5.37,0,0,0,.1-1.42v-10a5,5,0,0,0-.12-1.46,1.12,1.12,0,0,0-.5-.51,2,2,0,0,0-1-.22h-.51v-.42h6.82a10.91,10.91,0,0,1,4.39.74,6.49,6.49,0,0,1,3.08,2.75,8.77,8.77,0,0,1,.53,7.13,6.8,6.8,0,0,1-1.34,2.24,6.53,6.53,0,0,1-1.89,1.42,10.1,10.1,0,0,1-2.62.83,12.33,12.33,0,0,1-2.16.13Zm5.81-14.36V83a4.18,4.18,0,0,0,.09,1.16.64.64,0,0,0,.3.33,1.82,1.82,0,0,0,.88.17,3.4,3.4,0,0,0,2.86-1.28q1.35-1.73,1.35-5.37A10.11,10.11,0,0,0,150,73.3a3.93,3.93,0,0,0-1.88-1.87A7.29,7.29,0,0,0,145.44,71.1Z"/><path
        class="aus-dod-2"
        d="M165.61,79.84h-5.76a5.43,5.43,0,0,0,1.11,3.3,2.35,2.35,0,0,0,1.86.93,2.12,2.12,0,0,0,1.22-.38,4.76,4.76,0,0,0,1.18-1.35l.38.25a6.35,6.35,0,0,1-1.89,2.46,4.06,4.06,0,0,1-2.39.72A4,4,0,0,1,157.8,84a6.34,6.34,0,0,1-1-3.59,6,6,0,0,1,1.42-4.18,4.38,4.38,0,0,1,3.33-1.55A3.61,3.61,0,0,1,164.35,76,6,6,0,0,1,165.61,79.84Zm-2.76-.75a10.34,10.34,0,0,0-.2-2.48,2,2,0,0,0-.61-1,.93.93,0,0,0-.63-.2,1.1,1.1,0,0,0-1,.57,4.91,4.91,0,0,0-.66,2.74v.39Z"/><path
        class="aus-dod-2"
        d="M171,84.4v3.91a3.1,3.1,0,0,0,.13,1.1.84.84,0,0,0,.4.43,2.72,2.72,0,0,0,1.06.13v.42h-6V90a1.4,1.4,0,0,0,1-.39,2.41,2.41,0,0,0,.22-1.34V77.16a2.5,2.5,0,0,0-.26-1.42,1.39,1.39,0,0,0-1-.35V75H171v1.38a4,4,0,0,1,1.12-1.17,3.24,3.24,0,0,1,1.79-.53,3.37,3.37,0,0,1,2.11.73,4.51,4.51,0,0,1,1.44,2,7.65,7.65,0,0,1,.49,2.77,8,8,0,0,1-.51,2.91,4.28,4.28,0,0,1-1.48,2,3.65,3.65,0,0,1-2.16.69,3.52,3.52,0,0,1-1.62-.38A4.25,4.25,0,0,1,171,84.4Zm0-1.13a2.64,2.64,0,0,0,2.07,1.37,1.16,1.16,0,0,0,1-.64,7.54,7.54,0,0,0,.58-3.59,7.5,7.5,0,0,0-.64-3.72,1.31,1.31,0,0,0-1.15-.66q-1.13,0-1.86,1.64Z"/><path
        class="aus-dod-2"
        d="M185.51,83.92a5.54,5.54,0,0,1-3.45,1.7,2,2,0,0,1-1.49-.59,2,2,0,0,1-.6-1.48,2.89,2.89,0,0,1,1-2.16,19.52,19.52,0,0,1,4.5-2.55V77.77a5.1,5.1,0,0,0-.13-1.5,1.2,1.2,0,0,0-.49-.54,1.47,1.47,0,0,0-.81-.23,2.07,2.07,0,0,0-1.2.33.57.57,0,0,0-.29.47,1,1,0,0,0,.31.58,1.44,1.44,0,0,1,.43.93,1.25,1.25,0,0,1-.41.94,1.5,1.5,0,0,1-1.07.39,1.71,1.71,0,0,1-1.19-.43,1.3,1.3,0,0,1-.48-1,2.33,2.33,0,0,1,.64-1.54A4,4,0,0,1,182.62,75a7.29,7.29,0,0,1,2.38-.39,3.94,3.94,0,0,1,2.36.63,3,3,0,0,1,1.13,1.38,8.91,8.91,0,0,1,.16,2.17v4.08a4.22,4.22,0,0,0,.06.9.55.55,0,0,0,.17.28.4.4,0,0,0,.26.09q.29,0,.6-.42l.34.27a4.1,4.1,0,0,1-1.16,1.21,2.52,2.52,0,0,1-1.36.38,2.13,2.13,0,0,1-1.4-.42A1.9,1.9,0,0,1,185.51,83.92Zm0-.82V79.58a6.56,6.56,0,0,0-2,1.71,2.08,2.08,0,0,0-.44,1.22,1.29,1.29,0,0,0,.37.91,1,1,0,0,0,.79.3A2.16,2.16,0,0,0,185.51,83.1Z"/><path
        class="aus-dod-2"
        d="M195.58,75v2.38a7.66,7.66,0,0,1,1.83-2.16,2.71,2.71,0,0,1,1.52-.53,1.34,1.34,0,0,1,1,.39,1.51,1.51,0,0,1,.38,1.1,1.71,1.71,0,0,1-.37,1.17,1.13,1.13,0,0,1-.88.42,1.52,1.52,0,0,1-1-.38,6.31,6.31,0,0,0-.52-.43.49.49,0,0,0-.26-.07.94.94,0,0,0-.62.25,2.33,2.33,0,0,0-.7,1.09,7.62,7.62,0,0,0-.36,2.4v3a2.58,2.58,0,0,0,.08.82.9.9,0,0,0,.4.44,2.31,2.31,0,0,0,.89.17v.4h-5.67v-.4a1.24,1.24,0,0,0,.93-.38,3.49,3.49,0,0,0,.24-1.69V77.19a4.33,4.33,0,0,0-.09-1.14.9.9,0,0,0-.33-.46,1.72,1.72,0,0,0-.75-.2V75Z"/><path
        class="aus-dod-2"
        d="M205.59,71.13V75h2.49v1.11h-2.49v6.48a5,5,0,0,0,.08,1.17.85.85,0,0,0,.3.43.67.67,0,0,0,.39.16q.73,0,1.38-1.11l.34.25a3.07,3.07,0,0,1-3,2.16,2.61,2.61,0,0,1-1.69-.56,2.45,2.45,0,0,1-.88-1.24,10.57,10.57,0,0,1-.11-2.07V76.08h-1.37v-.39a14.56,14.56,0,0,0,2.41-2.1,12.79,12.79,0,0,0,1.73-2.46Z"/><path
        class="aus-dod-2"
        d="M213.44,75v1.38A6,6,0,0,1,215,75a3.48,3.48,0,0,1,1.61-.38,2.92,2.92,0,0,1,1.7.47,3,3,0,0,1,1.06,1.44,6.67,6.67,0,0,1,1.72-1.46,3.56,3.56,0,0,1,1.72-.45,2.76,2.76,0,0,1,1.74.5,2.59,2.59,0,0,1,.9,1.27,8.56,8.56,0,0,1,.25,2.45v4.3a3.09,3.09,0,0,0,.22,1.5,1.33,1.33,0,0,0,.92.38v.4h-5.42v-.4a1.2,1.2,0,0,0,.94-.49,3,3,0,0,0,.2-1.39V78.66a8.37,8.37,0,0,0-.11-1.79,1.07,1.07,0,0,0-.35-.57.9.9,0,0,0-.57-.19,1.68,1.68,0,0,0-1,.35,4.53,4.53,0,0,0-1,1.06v5.64a3.2,3.2,0,0,0,.19,1.43,1.16,1.16,0,0,0,1,.46v.4h-5.44v-.4a1.2,1.2,0,0,0,.69-.22,1,1,0,0,0,.34-.47,5.22,5.22,0,0,0,.08-1.2V78.66a8.17,8.17,0,0,0-.11-1.79,1.1,1.1,0,0,0-.38-.56.92.92,0,0,0-.57-.2,1.49,1.49,0,0,0-.82.24,4.57,4.57,0,0,0-1.12,1.19v5.64a3.19,3.19,0,0,0,.22,1.47,1.14,1.14,0,0,0,.92.42v.4h-5.41v-.4a1.31,1.31,0,0,0,.94-.43,3.15,3.15,0,0,0,.19-1.46V77.25a3,3,0,0,0-.22-1.48,1.33,1.33,0,0,0-.92-.38V75Z"/><path
        class="aus-dod-2"
        d="M237.14,79.84h-5.76a5.43,5.43,0,0,0,1.11,3.3,2.35,2.35,0,0,0,1.87.93,2.12,2.12,0,0,0,1.22-.38,4.74,4.74,0,0,0,1.18-1.35l.38.25a6.36,6.36,0,0,1-1.89,2.46,4.06,4.06,0,0,1-2.39.72,4,4,0,0,1-3.54-1.8,6.33,6.33,0,0,1-1-3.59,6,6,0,0,1,1.42-4.18,4.38,4.38,0,0,1,3.33-1.55A3.61,3.61,0,0,1,235.88,76,6,6,0,0,1,237.14,79.84Zm-2.76-.75a10.37,10.37,0,0,0-.2-2.48,2,2,0,0,0-.61-1,.93.93,0,0,0-.63-.2,1.1,1.1,0,0,0-1,.57,4.91,4.91,0,0,0-.66,2.74v.39Z"/><path
        class="aus-dod-2"
        d="M242.74,75v1.36a6.17,6.17,0,0,1,1.55-1.27,3.31,3.31,0,0,1,1.59-.4,2.54,2.54,0,0,1,1.7.57,2.71,2.71,0,0,1,.9,1.41,10.84,10.84,0,0,1,.18,2.46v4.09a3.13,3.13,0,0,0,.22,1.51,1.29,1.29,0,0,0,.92.38v.4h-5.31v-.4a1.11,1.11,0,0,0,.85-.49,3.22,3.22,0,0,0,.18-1.39V78.5a7.73,7.73,0,0,0-.1-1.63,1,1,0,0,0-.34-.52.85.85,0,0,0-.53-.19q-1,0-1.8,1.38v5.63a3.13,3.13,0,0,0,.22,1.49,1.12,1.12,0,0,0,.81.39v.4h-5.31v-.4a1.31,1.31,0,0,0,.94-.43,3.16,3.16,0,0,0,.19-1.46V77.25a3,3,0,0,0-.22-1.48,1.33,1.33,0,0,0-.92-.38V75Z"/><path
        class="aus-dod-2"
        d="M255.41,71.13V75h2.49v1.11h-2.49v6.48a5,5,0,0,0,.08,1.17.85.85,0,0,0,.3.43.67.67,0,0,0,.39.16q.73,0,1.38-1.11l.34.25a3.07,3.07,0,0,1-3,2.16,2.61,2.61,0,0,1-1.69-.56,2.45,2.45,0,0,1-.88-1.24,10.57,10.57,0,0,1-.11-2.07V76.08H250.9v-.39a14.56,14.56,0,0,0,2.41-2.1A12.79,12.79,0,0,0,255,71.13Z"/><path
        class="aus-dod-2"
        d="M269.61,74.65a4.87,4.87,0,0,1,2.55.71,4.53,4.53,0,0,1,1.79,2,6.63,6.63,0,0,1,.61,2.85A6,6,0,0,1,273.42,84a4.47,4.47,0,0,1-3.78,1.82A4.33,4.33,0,0,1,266,84.12a6.14,6.14,0,0,1-1.28-3.85A6.22,6.22,0,0,1,266,76.33,4.3,4.3,0,0,1,269.61,74.65Zm0,.8a1.31,1.31,0,0,0-1,.43,3,3,0,0,0-.54,1.71q-.13,1.27-.13,3.54a15,15,0,0,0,.16,2.25,2.17,2.17,0,0,0,.53,1.21,1.25,1.25,0,0,0,.92.42,1.27,1.27,0,0,0,.84-.28,1.9,1.9,0,0,0,.58-1.07,26,26,0,0,0,.22-4.31,10.64,10.64,0,0,0-.21-2.62,2,2,0,0,0-.63-1A1.17,1.17,0,0,0,269.65,75.45Z"/><path
        class="aus-dod-2"
        d="M280.76,76.07v7.29a2.42,2.42,0,0,0,.22,1.33,1.62,1.62,0,0,0,1.33.38v.4h-6.19v-.4a2.47,2.47,0,0,0,1-.16.83.83,0,0,0,.41-.42,3.52,3.52,0,0,0,.11-1.12V76.07h-1.53V75h1.53v-1.3a3.49,3.49,0,0,1,1.18-2.7A4.58,4.58,0,0,1,282,69.89a3.34,3.34,0,0,1,2,.52,1.46,1.46,0,0,1,.67,1.15,1.14,1.14,0,0,1-.42.88,1.59,1.59,0,0,1-1.1.37,1.35,1.35,0,0,1-.93-.3.89.89,0,0,1-.34-.67,2.55,2.55,0,0,1,.07-.42,1.55,1.55,0,0,0,0-.36.43.43,0,0,0-.13-.35.61.61,0,0,0-.44-.17.67.67,0,0,0-.54.27,1.37,1.37,0,0,0-.22.86l0,2V75h1.55v1.1Z"/><path
        class="aus-dod-2"
        d="M289.09,85.47v-.42h.51a2,2,0,0,0,1-.21,1.29,1.29,0,0,0,.52-.57,5.42,5.42,0,0,0,.1-1.42v-10a5,5,0,0,0-.12-1.46,1.12,1.12,0,0,0-.5-.51,2,2,0,0,0-1-.22h-.51v-.42h6.82a10.92,10.92,0,0,1,4.39.74,6.5,6.5,0,0,1,3.08,2.75,8.76,8.76,0,0,1,.53,7.13,6.78,6.78,0,0,1-1.34,2.24,6.55,6.55,0,0,1-1.89,1.42,10.1,10.1,0,0,1-2.62.83,12.33,12.33,0,0,1-2.16.13ZM294.9,71.1V83a4.2,4.2,0,0,0,.09,1.16.64.64,0,0,0,.3.33,1.83,1.83,0,0,0,.88.17A3.4,3.4,0,0,0,299,83.36q1.35-1.73,1.35-5.37a10.1,10.1,0,0,0-.92-4.68,3.93,3.93,0,0,0-1.88-1.87A7.29,7.29,0,0,0,294.9,71.1Z"/><path
        class="aus-dod-2"
        d="M315.07,79.84h-5.76a5.43,5.43,0,0,0,1.11,3.3,2.35,2.35,0,0,0,1.87.93,2.12,2.12,0,0,0,1.22-.38,4.74,4.74,0,0,0,1.18-1.35l.38.25a6.36,6.36,0,0,1-1.89,2.46,4.06,4.06,0,0,1-2.39.72,4,4,0,0,1-3.54-1.8,6.33,6.33,0,0,1-1-3.59,6,6,0,0,1,1.42-4.18A4.38,4.38,0,0,1,311,74.65,3.61,3.61,0,0,1,313.8,76,6,6,0,0,1,315.07,79.84Zm-2.76-.75a10.37,10.37,0,0,0-.2-2.48,2,2,0,0,0-.61-1,.93.93,0,0,0-.63-.2,1.1,1.1,0,0,0-1,.57,4.91,4.91,0,0,0-.66,2.74v.39Z"/><path
        class="aus-dod-2"
        d="M321,76.07v7.29a2.42,2.42,0,0,0,.22,1.33,1.62,1.62,0,0,0,1.33.38v.4h-6.19v-.4a2.47,2.47,0,0,0,1-.16.83.83,0,0,0,.41-.42,3.52,3.52,0,0,0,.11-1.12V76.07h-1.53V75h1.53v-1.3A3.49,3.49,0,0,1,319,71a4.58,4.58,0,0,1,3.21-1.08,3.34,3.34,0,0,1,2,.52,1.46,1.46,0,0,1,.67,1.15,1.14,1.14,0,0,1-.42.88,1.59,1.59,0,0,1-1.1.37,1.35,1.35,0,0,1-.93-.3.89.89,0,0,1-.34-.67,2.55,2.55,0,0,1,.07-.42,1.55,1.55,0,0,0,0-.36.43.43,0,0,0-.13-.35.61.61,0,0,0-.44-.17.67.67,0,0,0-.54.27,1.37,1.37,0,0,0-.22.86l0,2V75h1.55v1.1Z"/><path
        class="aus-dod-2"
        d="M332.94,79.84h-5.76a5.43,5.43,0,0,0,1.11,3.3,2.35,2.35,0,0,0,1.87.93,2.12,2.12,0,0,0,1.22-.38,4.74,4.74,0,0,0,1.18-1.35l.38.25A6.36,6.36,0,0,1,331,85.06a4.06,4.06,0,0,1-2.39.72,4,4,0,0,1-3.54-1.8,6.33,6.33,0,0,1-1-3.59,6,6,0,0,1,1.42-4.18,4.38,4.38,0,0,1,3.33-1.55A3.61,3.61,0,0,1,331.67,76,6,6,0,0,1,332.94,79.84Zm-2.76-.75a10.37,10.37,0,0,0-.2-2.48,2,2,0,0,0-.61-1,.93.93,0,0,0-.63-.2,1.1,1.1,0,0,0-1,.57,4.91,4.91,0,0,0-.66,2.74v.39Z"/><path
        class="aus-dod-2"
        d="M338.54,75v1.36a6.17,6.17,0,0,1,1.55-1.27,3.31,3.31,0,0,1,1.59-.4,2.54,2.54,0,0,1,1.7.57,2.71,2.71,0,0,1,.9,1.41,10.84,10.84,0,0,1,.18,2.46v4.09a3.13,3.13,0,0,0,.22,1.51,1.29,1.29,0,0,0,.92.38v.4h-5.31v-.4a1.11,1.11,0,0,0,.85-.49,3.22,3.22,0,0,0,.18-1.39V78.5a7.73,7.73,0,0,0-.1-1.63,1,1,0,0,0-.34-.52.85.85,0,0,0-.53-.19q-1,0-1.8,1.38v5.63a3.13,3.13,0,0,0,.22,1.49,1.12,1.12,0,0,0,.81.39v.4h-5.31v-.4a1.31,1.31,0,0,0,.94-.43,3.16,3.16,0,0,0,.19-1.46V77.25a3,3,0,0,0-.22-1.48,1.33,1.33,0,0,0-.92-.38V75Z"/><path
        class="aus-dod-2"
        d="M355.61,82.76,356,83a5.24,5.24,0,0,1-1.85,2.07,4.42,4.42,0,0,1-2.35.68,4.07,4.07,0,0,1-3.36-1.58,5.93,5.93,0,0,1-1.26-3.81,6.39,6.39,0,0,1,1.15-3.77,4.4,4.4,0,0,1,3.81-2,3.85,3.85,0,0,1,2.59.82,2.38,2.38,0,0,1,1,1.83,1.32,1.32,0,0,1-1.4,1.4,1.47,1.47,0,0,1-1.09-.44,2.54,2.54,0,0,1-.53-1.56,1.72,1.72,0,0,0-.33-1,.8.8,0,0,0-.61-.28,1.1,1.1,0,0,0-.92.57,4.79,4.79,0,0,0-.58,2.65,8.56,8.56,0,0,0,.47,2.84,4.35,4.35,0,0,0,1.29,2,2.3,2.3,0,0,0,1.46.48,2.23,2.23,0,0,0,1-.26A4.8,4.8,0,0,0,355.61,82.76Z"/><path
        class="aus-dod-2"
        d="M366.14,79.84h-5.76a5.43,5.43,0,0,0,1.11,3.3,2.35,2.35,0,0,0,1.87.93,2.12,2.12,0,0,0,1.22-.38,4.74,4.74,0,0,0,1.18-1.35l.38.25a6.36,6.36,0,0,1-1.89,2.46,4.06,4.06,0,0,1-2.39.72,4,4,0,0,1-3.54-1.8,6.33,6.33,0,0,1-1-3.59,6,6,0,0,1,1.42-4.18,4.38,4.38,0,0,1,3.33-1.55A3.61,3.61,0,0,1,364.88,76,6,6,0,0,1,366.14,79.84Zm-2.76-.75a10.37,10.37,0,0,0-.2-2.48,2,2,0,0,0-.61-1,.93.93,0,0,0-.63-.2,1.1,1.1,0,0,0-1,.57,4.91,4.91,0,0,0-.66,2.74v.39Z"/><rect class="aus-dod-2" x="140.81" y="59.05" width="249.19" height="1"/></g>
  </g>
</svg>
