<svg xmlns="http://www.w3.org/2000/svg" viewBox="0 0 422.33 177.17">
  <defs>
    <style>
      .baylor-scott-1 {
        fill: #00549d;
      }
      .baylor-scott-2 {
        fill: #008fbe;
      }
      .baylor-scott-3 {
        fill: #ffc843;
      }
    </style>
  </defs>
  <title>Baylor Scott &amp; White Health</title>
  <g id="Layer_2" data-name="Layer 2">
    <g id="BSWH_Logo" data-name="BSWH Logo"><path
      class="baylor-scott-1"
      d="M5.2,109.73c0-4.45-.24-5.59-2.95-5.83l-1.92-.18a1,1,0,0,1,.06-1.5c3.25-.3,7.34-.48,12.93-.48,3.79,0,7.4.3,10.1,1.69A7.89,7.89,0,0,1,28,110.93c0,4.33-2.52,6.55-6.13,8.24,0,.6.48.78,1.14.9a10,10,0,0,1,8.06,10c0,7-5.17,11.67-16,11.67-1.74,0-4.69-.18-7.22-.18s-4.69.12-6.92.18a1.17,1.17,0,0,1-.12-1.5l1.08-.18c3.19-.54,3.31-1.2,3.31-7.52Zm4.93,8c0,1.69.06,1.8,3.13,1.69,6.13-.24,9.44-2,9.44-7.7,0-5.89-4.39-8.12-9-8.12A7.41,7.41,0,0,0,11,104c-.6.18-.84.48-.84,1.56Zm0,14c0,2.17.12,5.23,1.26,6.55s2.95,1.68,4.75,1.68c5.35,0,9.44-2.4,9.44-8.42,0-4.75-2.41-10.28-12-10.28-3.25,0-3.49.36-3.49,1.56Z"/><path
      class="baylor-scott-1"
      d="M47.12,129.15c.9-.3,1-.84,1-1.74l.06-2.77c.06-2.22-.66-5.23-4.39-5.23-1.68,0-3.73.84-3.85,2.7-.06,1-.12,1.69-.6,2a6.47,6.47,0,0,1-3.43,1.14.76.76,0,0,1-.84-.84c0-3.13,6.79-7.4,11.18-7.4s6.43,2.53,6.25,7l-.36,10.46c-.12,2.77.42,5.23,2.77,5.23a3.43,3.43,0,0,0,1.5-.36c.3-.18.6-.42.78-.42s.42.36.42.78a6.31,6.31,0,0,1-5,2.65,4.8,4.8,0,0,1-3.91-1.86c-.24-.36-.6-.84-1-.84a9.22,9.22,0,0,0-2.35,1.2,8.89,8.89,0,0,1-4.33,1.5,6.22,6.22,0,0,1-4.21-1.38A5.63,5.63,0,0,1,35,136.85c0-2.34,1.14-3.73,5-5.11Zm-3.73,10.58a6.79,6.79,0,0,0,3.67-1.5c.72-.72.72-1.56.78-2.82l.12-3.55c0-.66-.24-.78-.6-.78a11.34,11.34,0,0,0-2.47.6c-3.55,1.2-5.29,2.11-5.29,4.45a3.63,3.63,0,0,0,3.79,3.61"/><path
      class="baylor-scott-1"
      d="M57.64,152.82A2.24,2.24,0,0,1,60,150.41h1.14a2.18,2.18,0,0,0,2-1.08,27,27,0,0,0,2.95-5.51,9.11,9.11,0,0,0,.6-2.58c0-1.2-.24-1.93-1-4.15L61,124.22c-1-2.83-1.44-4.27-3.55-4.69l-1.5-.3c-.36-.3-.3-1.32.18-1.5,1.93.12,3.73.18,5.71.18,1.62,0,3.31-.06,5.23-.18.48.18.54,1.2.12,1.5l-1.5.3c-.84.18-1.32.36-1.32.78A45.57,45.57,0,0,0,66.13,126L68,131.5a33.64,33.64,0,0,0,1.74,4.27A29.22,29.22,0,0,0,72,131.31l2-4.75a27.94,27.94,0,0,0,2.1-6c0-.42-.36-.84-1.44-1l-1.86-.3c-.42-.3-.36-1.32.12-1.5,1.92.12,3.73.18,5.29.18s2.89-.06,4.57-.18a1,1,0,0,1,.12,1.5l-1,.18c-2,.36-3.07,2.1-5.11,6.37l-3.37,6.92c-2,4-6.37,13.33-9.32,19.88-1,2.29-2.47,2.83-3.85,2.83a2.42,2.42,0,0,1-2.65-2.59"/><path
      class="baylor-scott-1"
      d="M89,134.86c0,4.33.12,4.93,2.29,5.23l1.44.18a1.05,1.05,0,0,1-.12,1.5c-2-.12-3.73-.18-5.83-.18s-4,.06-5.77.18a1.05,1.05,0,0,1-.12-1.5l1.38-.18c2.22-.3,2.29-.9,2.29-5.23V107.68c0-3.55-.06-3.91-1.86-5l-.6-.36a.91.91,0,0,1,0-1.2,42.67,42.67,0,0,0,6.5-2.53.66.66,0,0,1,.6.36c-.06,1.8-.18,4.81-.18,7.46Z"/><path
      class="baylor-scott-1"
      d="M119.77,129.51c0,7.52-5.17,12.93-12.69,12.93-6.92,0-12.33-4.87-12.33-12.39a12.64,12.64,0,0,1,12.81-13,12,12,0,0,1,12.21,12.45m-12.93-10.64c-4,0-6.91,3.79-6.91,10.4,0,5.47,2.46,11.37,7.76,11.37s6.92-5.53,6.92-10.16c0-5.11-2-11.61-7.76-11.61"/><path
      class="baylor-scott-1"
      d="M126.26,124.34c0-2.35,0-2.65-1.62-3.73l-.54-.36a.82.82,0,0,1,.06-1.08,46.65,46.65,0,0,0,6.07-2.94c.3.06.48.18.48.42v3.49c0,.3.06.48.18.54,2.1-1.74,4.39-3.61,6.62-3.61a2.49,2.49,0,0,1,2.71,2.41,2.67,2.67,0,0,1-2.59,2.77,2.31,2.31,0,0,1-1.32-.42,5,5,0,0,0-2.65-1,2.67,2.67,0,0,0-2.16,1.2c-.6.84-.78,2.59-.78,4.63v8.18c0,4.33.12,5,2.41,5.23l2.16.18a1.05,1.05,0,0,1-.12,1.5c-2.83-.12-4.57-.18-6.68-.18s-4,.06-5.53.18a1.05,1.05,0,0,1-.12-1.5l1.14-.18c2.23-.36,2.29-.9,2.29-5.23Z"/><path
      class="baylor-scott-1"
      d="M152.7,142.56a18.79,18.79,0,0,1-9.38-2.22c-.72-1.32-1.5-5.59-1.62-8.42.3-.42,1.2-.54,1.44-.18.9,3.07,3.37,9,10.34,9,5.05,0,7.52-3.31,7.52-6.92,0-2.65-.54-5.6-4.93-8.42l-5.71-3.73c-3-2-6.5-5.41-6.5-10.34,0-5.71,4.45-10.34,12.27-10.34a23.17,23.17,0,0,1,5.59.78,8.09,8.09,0,0,0,2.1.36,26.32,26.32,0,0,1,1.08,7.34c-.24.36-1.2.54-1.5.18-.78-2.89-2.41-6.79-8.18-6.79s-7.16,3.91-7.16,6.68c0,3.49,2.89,6,5.11,7.4l4.81,3c3.79,2.35,7.52,5.83,7.52,11.55,0,6.62-5,11.13-12.81,11.13"/><path
      class="baylor-scott-1"
      d="M189.21,118.09a3.42,3.42,0,0,1,.9,2.41c0,1.08-.6,2.23-1.32,2.23a1,1,0,0,1-.84-.42,8.2,8.2,0,0,0-6-3.19c-4.21,0-8.3,3.31-8.3,9.68,0,4.69,3.24,10.28,9.68,10.28a7.33,7.33,0,0,0,6.68-3.61,1,1,0,0,1,1.08.84,11,11,0,0,1-10,6.13,11.65,11.65,0,0,1-8.24-3.07,12,12,0,0,1-3.49-8.9c0-6.49,4.57-13.41,14.55-13.41a15,15,0,0,1,5.35,1"/><path
      class="baylor-scott-1"
      d="M216.81,129.51c0,7.52-5.17,12.93-12.69,12.93-6.92,0-12.33-4.87-12.33-12.39a12.64,12.64,0,0,1,12.81-13,12,12,0,0,1,12.21,12.45m-12.93-10.64c-4,0-6.92,3.79-6.92,10.4,0,5.47,2.47,11.37,7.76,11.37s6.92-5.53,6.92-10.16c0-5.11-2-11.61-7.76-11.61"/><path
      class="baylor-scott-1"
      d="M228.24,120.43c-1,0-1.08.18-1.08,1.44v11.25c0,3.49.42,6.68,4.39,6.68a4.58,4.58,0,0,0,1.63-.3c.54-.18,1.32-.84,1.5-.84.48,0,.72.66.6,1a8.34,8.34,0,0,1-6.32,2.76c-5.17,0-6.25-2.89-6.25-6.49V122.18c0-1.62-.06-1.74-1.26-1.74h-1.68a1,1,0,0,1-.18-1.27,11.88,11.88,0,0,0,3.85-1.86,14.86,14.86,0,0,0,2.53-3.55c.3-.12,1-.12,1.26.3v2.7c0,1.08.06,1.14,1.08,1.14H235a1.92,1.92,0,0,1,.06,2.53Z"/><path
      class="baylor-scott-1"
      d="M246.4,120.43c-1,0-1.08.18-1.08,1.44v11.25c0,3.49.42,6.68,4.39,6.68a4.57,4.57,0,0,0,1.62-.3c.54-.18,1.32-.84,1.5-.84.48,0,.72.66.6,1a8.33,8.33,0,0,1-6.31,2.76c-5.17,0-6.26-2.89-6.26-6.49V122.18c0-1.62-.06-1.74-1.26-1.74h-1.68a1,1,0,0,1-.18-1.27,11.89,11.89,0,0,0,3.85-1.86,14.8,14.8,0,0,0,2.52-3.55c.3-.12,1-.12,1.26.3v2.7c0,1.08.06,1.14,1.08,1.14h6.68a1.92,1.92,0,0,1,.06,2.53Z"/><path
      class="baylor-scott-1"
      d="M263.42,116.55a7.42,7.42,0,0,1,7.54-7.43c2.81,0,5.59,1.69,5.59,4.45a4.41,4.41,0,0,1-4.09,4.24c-.22,0-1.16,0-.49-1a2.79,2.79,0,0,0,.51-2.69,3.52,3.52,0,0,0-3.26-2.32,3.41,3.41,0,0,0-3.88,3.25c0,2,1.18,3.27,5.29,5.52,5.29,2.87,9.89,5.35,13.83,13.4a8.4,8.4,0,0,0,2-5.68,6.2,6.2,0,0,0-1.33-4.05,3.16,3.16,0,0,0-2.21-1.2,3.57,3.57,0,0,0-3,.93.73.73,0,0,1-.79.18c-.4-.14-.47-.75-.38-1.39.27-2,2.36-3.55,5.34-3.55a16.71,16.71,0,0,1,3,.39,15.62,15.62,0,0,0,2.31.34,1.44,1.44,0,0,0,1.42-.61s.15-.25.37-.25a.75.75,0,0,1,.67.44c0,2.25-1.28,3.55-4.15,4.34a7.74,7.74,0,0,1,.9,3.88,11.14,11.14,0,0,1-3.27,7.83c1.8,3.32,3.55,4.56,6.48,4.56a4.65,4.65,0,0,0,1.57-.23,4.12,4.12,0,0,1,1-.23c.28,0,.39.11.39.39,0,1.13-2.54,2-5.8,2-3.1,0-4.67-.68-7.32-3-4,2.31-6.53,3.1-10,3.1-7.26,0-12.89-4.73-12.89-10.81,0-6.36,4.79-8.68,6.93-9.58-1.75-1.92-2.37-3.36-2.37-5.22m3.66,6.42c-2.42.51-3.54,2-3.54,4.9,0,6.19,5.19,11.6,11,11.6a11.75,11.75,0,0,0,6.08-1.69,28.28,28.28,0,0,1-2.6-3.43l-1.29-1.86a31.43,31.43,0,0,0-8.33-8.56Z"/><path
      class="baylor-scott-1"
      d="M286.36,103.17a1,1,0,0,1,.18-1.44c1.62.12,4.33.18,6.2.18,1.68,0,4.75-.06,6.85-.18.54.18.48,1,.12,1.44l-1.38.12c-1.26.12-2,.48-2,1,0,.72,1.26,3.79,3.13,8.06,3.37,7.52,6.92,15,10.4,22.43,1.44-3,3.07-6.37,4.63-9.74a11,11,0,0,0,1-2.46A5.22,5.22,0,0,0,315,121c-2.11-4.81-4.33-9.62-6.62-14.43-.9-1.86-1.8-3.13-3.85-3.31l-1.44-.12a.93.93,0,0,1,.12-1.44c1.74.12,4,.18,6.43.18,3,0,5.23-.06,6.62-.18.42.18.48,1,.12,1.44l-1.56.12c-2.35.18-2.41.6-1.26,3.31,1.26,2.95,2.95,6.74,4.63,10.46,1.14-2.34,2.22-4.63,3.55-7.88,2.17-5.11,1.86-5.77-.06-5.89l-1.8-.12c-.42-.6-.3-1.27.12-1.44,1.63.12,3.43.18,5.65.18,2,0,4.39-.06,5.77-.18.42.18.48,1,.12,1.44l-1.74.12c-2.53.18-3.61,2.89-4.93,5.35-1.26,2.23-3.79,7.46-4.69,9.56a4.93,4.93,0,0,0-.54,1.44,4.5,4.5,0,0,0,.42,1.44c2,4.63,4.15,9.14,6.13,13.71,1.87-4.21,3.67-8.42,5.41-12.69,1.2-2.89,4.39-10.89,4.81-12a36.35,36.35,0,0,0,1.81-5.47c0-.84-.72-1.32-2-1.38l-1.74-.12c-.48-.54-.42-1.2.06-1.44,2.29.12,3.91.18,5.78.18,2.28,0,4-.06,5.59-.18.48.18.54,1,.12,1.44l-1.14.12c-3,.3-3.55,2.11-7.15,10.46l-4.39,10.16c-2.64,6.13-5.05,12-7.52,18.46a1.29,1.29,0,0,1-.72.18,1.93,1.93,0,0,1-.84-.18c-1.92-5.35-5.41-12.87-7.28-17.08a184.12,184.12,0,0,0-7.52,17.08,1.29,1.29,0,0,1-.72.18,2.43,2.43,0,0,1-.9-.18c-1-2.53-3.37-7.94-4.15-9.68-3.85-8.36-7.58-16.72-11.49-25.08-1.14-2.46-1.87-4.09-4.39-4.33Z"/><path
      class="baylor-scott-1"
      d="M344.46,107.68c0-3.81-.26-4.29-1.12-4L342,102.33c-.3-.18-2.27-.42-1.51-.42,4.81,0,5.9-2.06,8-3.31a.4.4,0,0,1,.6.36c-.08,1.8-.18,4.81-.18,7.45V119c0,.54.06,1,.24,1.14a13.65,13.65,0,0,1,8.12-3.13c5.71,0,7.76,3.55,7.76,7.76v10c0,4.33.12,5,2.29,5.23l1.62.18a1.05,1.05,0,0,1-.12,1.5c-2.17-.12-3.91-.18-6-.18s-4,.06-5.59.18a1.05,1.05,0,0,1-.12-1.5l1.2-.18c2.23-.36,2.29-.9,2.29-5.23v-8.6c0-3.85-1.86-6.43-5.71-6.43a7.19,7.19,0,0,0-4.69,1.62c-1.08.9-1.26,1.2-1.26,3.31v10.1c0,4.33.12,4.93,2.29,5.23l1.26.18c.42.24.3,1.32-.12,1.5-1.8-.12-3.55-.18-5.65-.18s-4,.06-5.89.18a1.05,1.05,0,0,1-.12-1.5l1.5-.18c2.23-.24,2.29-.9,2.29-5.23Z"/><path
      class="baylor-scott-1"
      d="M374.52,124.34c0-2.35,0-2.64-1.62-3.73l-.54-.36a.82.82,0,0,1,.06-1.08,41.41,41.41,0,0,0,6.2-2.95.56.56,0,0,1,.6.36c-.12,2.1-.24,5-.24,7.46v10.83c0,4.33.12,4.93,2.29,5.23l1.26.18a1.05,1.05,0,0,1-.12,1.5c-1.8-.12-3.55-.18-5.65-.18s-4,.06-5.65.18a1.05,1.05,0,0,1-.12-1.5l1.26-.18c2.22-.3,2.28-.9,2.28-5.23Zm5-15.22a3.13,3.13,0,0,1-6.26.12,3.13,3.13,0,0,1,3.25-3.25,3,3,0,0,1,3,3.13"/><path
      class="baylor-scott-1"
      d="M393.41,120.43c-1,0-1.08.18-1.08,1.44v11.25c0,3.49.42,6.68,4.39,6.68a4.59,4.59,0,0,0,1.63-.3c.54-.18,1.32-.84,1.5-.84.48,0,.72.66.6,1a8.33,8.33,0,0,1-6.31,2.76c-5.17,0-6.25-2.89-6.25-6.49V122.18c0-1.62-.06-1.74-1.26-1.74h-1.68a1,1,0,0,1-.18-1.27,11.9,11.9,0,0,0,3.85-1.86,14.85,14.85,0,0,0,2.52-3.55c.3-.12,1-.12,1.27.3v2.7c0,1.08.06,1.14,1.08,1.14h6.67a1.92,1.92,0,0,1,.06,2.53Z"/><path
      class="baylor-scott-1"
      d="M407.36,126.2c-1.56,0-1.62.12-1.62,1.63,0,6.07,3.55,11.24,10,11.24,2,0,3.67-.6,5.53-2.94a.79.79,0,0,1,1.08.72c-2,4.09-6.31,5.59-9.44,5.59a10.77,10.77,0,0,1-8.72-4,12.76,12.76,0,0,1-2.53-7.82c0-7.4,4.87-13.59,12.09-13.59,5.17,0,8.54,3.55,8.54,7.16a3.66,3.66,0,0,1-.24,1.56c-.18.36-1,.42-3.55.42Zm3.73-1.8c4.45,0,5.77-.24,6.25-.6.18-.12.36-.36.36-1.14,0-1.68-1.14-3.79-4.63-3.79s-6.62,3.25-6.68,5.23c0,.12,0,.3.42.3Z"/><path class="baylor-scott-1" d="M146.91,161.81v5.89h6.22v-5.89h3.38v15.36h-3.38v-6.63h-6.22v6.63h-3.38V161.81Z"/><path class="baylor-scott-1" d="M182.25,161.81v2.84h-8.11v3.29h7.44v2.62h-7.44v3.76h8.28v2.84H170.76V161.81Z"/><path class="baylor-scott-1" d="M203.66,161.81l5.74,15.36h-3.51l-1.16-3.42H199l-1.2,3.42h-3.4l5.81-15.36Zm.19,9.42-1.94-5.64h0l-2,5.64Z"/><path class="baylor-scott-1" d="M225.41,161.81v12.52h7.49v2.84H222V161.81Z"/><path class="baylor-scott-1" d="M244.88,164.65v-2.84h12.58v2.84h-4.6v12.52h-3.38V164.65Z"/><path class="baylor-scott-1" d="M273.9,161.81v5.89h6.22v-5.89h3.38v15.36h-3.38v-6.63H273.9v6.63h-3.38V161.81Z"/><path
      class="baylor-scott-1"
      d="M214.24,82.18a2,2,0,1,1,2,2A2,2,0,0,1,214.24,82.18Zm2,1.67a1.66,1.66,0,1,0-1.62-1.67A1.61,1.61,0,0,0,216.27,83.84Zm-.42-.51h-.35V81h.87c.54,0,.81.2.81.65a.6.6,0,0,1-.6.63l.65,1h-.39l-.61-1h-.4Zm.42-1.29c.29,0,.56,0,.56-.37s-.26-.34-.5-.34h-.47V82Z"/><polygon class="baylor-scott-2" points="181.33 47.19 212.16 47.19 196.59 62.75 181.33 62.75 181.33 47.19"/><polygon class="baylor-scott-1" points="212.16 92.36 212.16 47.19 196.59 62.76 196.59 92.36 212.16 92.36"/><polygon class="baylor-scott-1" points="259.34 47.19 214.17 47.19 229.74 62.75 259.34 62.75 259.34 47.19"/><polygon class="baylor-scott-3" points="214.18 78.02 214.18 47.19 229.74 62.76 229.74 78.02 214.18 78.02"/><polygon class="baylor-scott-1" points="166.99 45.17 212.16 45.17 196.59 29.61 166.99 29.61 166.99 45.17"/><polygon class="baylor-scott-3" points="212.16 14.34 212.16 45.17 196.59 29.6 196.59 14.34 212.16 14.34"/><polygon class="baylor-scott-2" points="245 45.17 214.17 45.17 229.74 29.61 245 29.61 245 45.17"/><polygon class="baylor-scott-1" points="214.18 0 214.18 45.17 229.74 29.6 229.74 0 214.18 0"/></g>
  </g>
</svg>
