<svg xmlns="http://www.w3.org/2000/svg" viewBox="0 0 284.82 63.22">
  <defs>
    <style>
      .walgreens-1 {
        fill: #e31837;
      }
    </style>
  </defs>
  <title>customers-walgreens</title>
  <g id="Layer_2" data-name="Layer 2">
    <g id="Layer_1-2" data-name="Layer 1"><path
      class="walgreens-1"
      d="M31.22,46.5c14.14,2.61,24.49-11.09,31.12-22.94C65,18.8,69,6.37,64.51,1.67c-4.13-4.55-7.33,1.42-9.78,3.41l1.89,2.24c3.78,4.77.49,13.83-1.75,18.68-3.36,6-9.71,15-17.12,13.72a5.42,5.42,0,0,1-3.5-3.58c4-4,8.72-10.89,11.38-15.51,2.22-3.76,6.08-11,2.52-14-3-2-8.87.9-12,3.58a32.06,32.06,0,0,0-4.73,5.19c-4.08,5.53-8,15-7.56,22.31-2,1.42-4.2,2.83-6.86,2-2.64-.59-3.11-2.83-3.48-4.59C11.81,24.55,22.41,11.19,28.36,3.52a45.94,45.94,0,0,1-8.12,1.41c-7.87.34-13.72-3.33-18,1.94A12.87,12.87,0,0,0,0,13.05c1.74-1.49,4.33-1.13,6.8-1,4.27.37,6.38.89,10.23-.15C13.6,16.75,7.88,26.3,6.83,32.25c-.56,3.95-.51,10.18,2.87,13,5.6,3.73,11.16,1.12,16.13-2.31A9.83,9.83,0,0,0,31.22,46.5Zm9.5-33.05c1.49-.73,1,1.48,1,1.48-.21,2.51-2,5.5-3.33,7.79s-6,7.87-8,9.07c.09-3.35,3.67-10.65,5.5-13.44A15.46,15.46,0,0,1,40.71,13.45Z"/><path
      class="walgreens-1"
      d="M265.95,20h0c-.78,1-3.43,3.91-4.29,4.81l-.44.42c-7.16,7.19-12.64,11.35-15.81,12-2.16.47-3.15.6-4.16-1.35l0-.11s-.11-.91-.11-.91c0-2.59,3.37-8.4,7.87-12.28,1.72-1.5,1.92-2.17,1.95-2.33A3.83,3.83,0,0,0,249,18.42c-1.25-.07-3.17,1.26-4.44,2.15-.9.61-3.44,2.95-6.13,5.41-2.25,2.06-4.57,4.19-5.86,5.25L230.39,33c0-.38.06-1.14.06-1.14,0-1.34,1.45-3.56,3.46-6.56.73-1.1,2.52-4.24,2.74-4.79l0-.05,0-.05a3.66,3.66,0,0,0-2.59-1.74c-.09,0-.8.62-.8.62-1.51,1.23-4.74,4.14-7.86,7-2.87,2.59-5.57,5-6.24,5.52a54.34,54.34,0,0,1-14.31,8c-.81.23-3.55.89-4.91-.64,0,0-.31-.34-.47-.54l.65-.28c3.93-1.67,8.88-4,12.47-7,.05,0,5.51-4.73,5.51-9.34,0-.2,0-.4,0-.6-.34-1.66-1.76-2.16-3.78-2.42-6.6,0-12.54,4.1-15.62,7.57l-.54.59c-1.43,1.55-5.78,6.28-7.54,10.48a2.11,2.11,0,0,1-.1.22.77.77,0,0,0-.16.05,34.36,34.36,0,0,1-9.81,2.85c-1.94.24-4.69.41-6.23-1l-.54-.49,7.51-4c5.94-3.61,9.92-9.1,9.92-12h0c-.13-3.32-3.23-4.07-5.82-4.11-3.85,0-7.39,1.44-11.87,4.74-2.59,1.91-8,8.12-9.48,14.49,0,0,0,.21-.07.3l-.57.14c-2.84.71-7.62,1.86-8.5-.91-1.42-4.51,3.1-8.85,6.72-12.34l2-2a2.33,2.33,0,0,0,.53-1.65.83.83,0,0,0-.43-.64c-1.94-.85-3.8-.19-5.77.51a11.54,11.54,0,0,1-4.63.94l-.51,0c0-.17,0-.52,0-.52a3.19,3.19,0,0,1,1.14-2l.16-.17a.86.86,0,0,0,.13-.53,1.52,1.52,0,0,0-.12-.62.71.71,0,0,0-.56-.5c-1.14-.14-3.09,1-4.87,2.78S146,24.71,146,26l0,.26a.44.44,0,0,1,0,.11c-.21,2.92-2.76,5.73-6.3,9.62l-1.54,1.69-.59.61A22.9,22.9,0,0,0,133.68,43l-.12.26.29-.08c1.5-.45,5.82-2.54,13.56-12.28a2.45,2.45,0,0,0,.16-.22l.29,0a3,3,0,0,0,1.27-.32,2.62,2.62,0,0,1,2.54-.1l.47.31-1.52,1.93c-2.16,2.71-4.37,5.48-4.37,8.81a7.43,7.43,0,0,0,.27,2c.41,2,2.41,2.88,4,3.08,3.21.56,7.24-1.22,10.8-2.78l1.8-.79a1.13,1.13,0,0,1,1.5.78,3.56,3.56,0,0,0,2.16,2c5.19,2.35,12.81,1.19,22.66-3.45l.48-.23c.07.17.2.52.2.52a5.82,5.82,0,0,0,4.22,3.72c8.48,1.13,15.47-3.72,22.23-8.41L220.16,35c.12.12.68.72.75.82l-3,4.19a21.34,21.34,0,0,0-2.52,4.38l-.17.65.07.34a1.36,1.36,0,0,0,1,.52c5.15-.71,10.11-4.91,13.38-7.68l1-.83A14.93,14.93,0,0,1,234,34.85l.31-.09.24.27a.12.12,0,0,1,0,.08,3.92,3.92,0,0,1-.65,1.26l-.52.83a11.07,11.07,0,0,0-1.31,4.32,2.89,2.89,0,0,0,.44,1.63c1.54,2.38,2.89,2.46,4.34,2.54l.52,0c6.07-.39,12-5.66,17.81-10.76l4.3-3.72,4.18-3.67c.09.22.24.63.24.63a7.72,7.72,0,0,1,.53,2.77l-.11,1.21c-.07.54-1,4.28-2.34,5.34l-.27.15-.84.21c-3.18.81-6.77,1.73-8.11,4.9,0,0-.12.72-.12.72a1.79,1.79,0,0,0,.88,1.52c2.24.58,4.57,0,6.61-.47l2.63-.56a54.75,54.75,0,0,1,6.26.51,37,37,0,0,0,8.27.37c3.64-1,6.54-5.08,7.43-8.49l.08-.28-.27.13a15.9,15.9,0,0,1-14,.26l-.43-.22.19-.47A41.85,41.85,0,0,0,273,21.3c0-.37,0-.75,0-1.12h0a2.18,2.18,0,0,1-.08-.56,3.68,3.68,0,0,1,.73-1.92,3.1,3.1,0,0,0,.65-1.62c0-.09,0-.17,0-.26s0,0,0,0a.9.9,0,0,1,0-.16.07.07,0,0,0,0,0c0-.2-.32-.3-.47-.34C270.26,14.32,268.26,16.94,265.95,20ZM172.92,34h0c.23-1.93,3.11-5.66,4.65-7.22a13.13,13.13,0,0,1,5-3.13,1.87,1.87,0,0,1,2.06.5,1.37,1.37,0,0,1,.24.77A2.08,2.08,0,0,1,184.5,26c-1.92,3-6.89,7.28-10.93,8.56l-.74.25Zm27.21-.73h0c.41-2.88,4.61-7.16,4.65-7.2a13.21,13.21,0,0,1,5-3.14,1.67,1.67,0,0,1,1.85.17,1.43,1.43,0,0,1,.39,1,2.93,2.93,0,0,1-.25,1.1c-.45,1.12-3.83,4.4-4.79,5.24-1.07,1-4,3.05-6.25,3.42L200,34Z"/><path
      class="walgreens-1"
      d="M117.6,6.54h0c-4.57.42-8.87,3-13.95,8.25-2.07,2-11.66,13.89-13.24,23,0,0,0,.17,0,.25l-.22.12c-1.39.75-5.57,2.54-8.22,1.87a2.67,2.67,0,0,1-1.74-1.22,5.22,5.22,0,0,1-.6-2.44c0-2,1.09-3.74,2-5.33l.54-.89s.18,0,.18,0c2.45-.7,6.29-5.38,7.27-8.24l0-.08-.07,0c-2.86-1.75-6.7-1.71-9.41-1.38a32,32,0,0,0-13.61,5.25c-4.88,3.33-9.1,10.12-10,14.37-.48,2.43-.79,4.89.89,6,3.49,2,10.35-1.66,15-6.14l1-.93c0,.5-.15,1.83-.15,1.83a19,19,0,0,0-.11,1.9,4.38,4.38,0,0,0,1,3.25C78.09,49,86,45.6,90.43,42.59l.39-.27.3.37c1.4,1.73,3,3.59,4.92,3.9,4.9.69,8.74-2.14,12.15-5.29l.67-.62c.07.36.33,1.58.33,1.58a5.06,5.06,0,0,0,1.46,3.24c2.48,1.92,8-.69,11.14-2.91l1.13-.81c-.1.44-.34,1.35-.34,1.35a30.9,30.9,0,0,1-2.48,5.95l-.86,1.75-.14.23-.25.41c-1.33,2.13-3.8,6.12-6.2,6.47l-.17,0a2,2,0,0,1-1.22-1l-.18-.89a9,9,0,0,1,1.06-3.38l.1-.21H112a10.61,10.61,0,0,0-3.21,1.2c-2.22,1.31-4.51,4.28-4.51,7a4.24,4.24,0,0,0,.28,1.56,2.15,2.15,0,0,0,2.17,1c15.22-1.42,23.76-18.68,30-31.29L138,29.43a1.68,1.68,0,0,0,.44-1v-.15s-.23-.29-.23-.29-.15-.9-.15-.9c.25-1.22,3.2-3.78,3.24-3.81l.37-.28c.3-.2.49-.4.5-.56s-.2-.41-.5-.6a12.93,12.93,0,0,0-3.72-1.35c-4.57-1.28-12.44-.32-19.57,6.59-.75.72-2.13,2.46-3.25,3.85l-1.44,1.8c-3.48,4.06-7.06,8.26-13,7.09a3.53,3.53,0,0,1-1.91-1.77,1.7,1.7,0,0,1,0-1.34l.07-.15A69.39,69.39,0,0,0,109,27.67c5.82-6.22,13-16.69,12-19.29C120.31,6.57,118.23,6.51,117.6,6.54ZM69.49,27a11.15,11.15,0,0,1,10.27.29l.52.3-2.21,3.09c-3.41,4.15-10,8.26-12.81,8h0a2.5,2.5,0,0,1-2.46-1.73l0-.83c0-2.81,3.73-7.14,5.69-8.47Zm38.18-10a18.12,18.12,0,0,1,4.9-4,.75.75,0,0,1,1,.16.92.92,0,0,1,.17.59,1.09,1.09,0,0,1-.17.61h0c-1.37,4.78-10,14.91-15,18.46l-1,.67.15-1.15h0C98.21,28.92,104.65,20.64,107.67,16.94Zm9.73,21.68-.08-.05a3.22,3.22,0,0,1-1.21-4c.5-1.87,5.7-7.62,9.82-8.42,3.74-.72,5.23.54,5.95,1.14,0,0,.39.32.58.48l-2,2.17C127.69,33.85,120.82,40.2,117.4,38.62Z"/></g>
  </g>
</svg>
