<svg xmlns="http://www.w3.org/2000/svg" viewBox="0 0 79.96 18.1">
  <defs>
    <style>
      .aecom-1 {
        fill: #fff;
      }
    </style>
  </defs>
  <title>customers-aecom</title>
  <g id="Layer_2" data-name="Layer 2">
    <g id="Layer_1-2" data-name="Layer 1"><path class="aecom-1" d="M16.91,17.71,12.9.36H8.18L0,17.76H4.38L5.8,14.37h6.26l.72,3.38h4.14v0H29.15l.61-4H17.52ZM7.4,10.53l2.52-6,1.28,6Z"/><polygon class="aecom-1" points="31.75 0.41 19.52 0.41 18.92 4.41 31.15 4.41 31.75 0.41"/><polygon class="aecom-1" points="17.92 11.08 29.28 11.08 30.01 7.03 18.65 7.03 17.92 11.08"/><polygon class="aecom-1" points="79.96 17.76 79.64 0.36 75.72 0.36 70.69 10.17 68.67 0.36 64.75 0.36 59.34 17.76 63.67 17.76 66.61 7.57 68.46 17.76 70.66 17.76 75.76 7.57 75.7 17.76 79.96 17.76"/><path
      class="aecom-1"
      d="M35,9.92a4.26,4.26,0,0,1,0-.67,5.13,5.13,0,0,1,5.19-5.06h.16a5.72,5.72,0,0,1,3.8,1.43L45,1.45A9.16,9.16,0,0,0,40,0a9.54,9.54,0,0,0-9.32,9.42c-.17,5.09,3.14,8.66,8,8.66a10.66,10.66,0,0,0,3.86-.63l.69-4.18a10.12,10.12,0,0,1-3.76.63A4.25,4.25,0,0,1,35,9.92Z"/><path
      class="aecom-1"
      d="M53.63,0c-4.75-.34-9,3.55-9.5,8.77-.52,5.06,2.36,8.85,7,9.18s9-3.55,9.5-8.77C61.15,4.14,58.27.35,53.63,0ZM56.5,9.66c-.67,3.11-2.89,5-5.34,4.48-2.22-.46-3.32-2.75-2.69-5.69.67-3.11,2.89-5,5.33-4.48C56,4.43,57.13,6.72,56.5,9.66Z"/></g>
  </g>
</svg>
