<svg xmlns="http://www.w3.org/2000/svg" viewBox="0 0 492.55 82.07">
  <defs>
    <style>
      .tmobile-1 {
        fill: #999b9e;
      }
      .tmobile-2 {
        fill: #ed008c;
      }
    </style>
  </defs>
  <title>customers-t-mobile</title>
  <g id="Layer_2" data-name="Layer 2">
    <g id="svg2008"><path id="path18" class="tmobile-1" d="M0,36.7H16.11V53.14H0Z"/><path
      id="path20"
      class="tmobile-2"
      d="M38.68,3.89h1.91c12.34,0,18.1,6.6,20.5,24.21l3.82-.17L64.41,0H1.6L1,27.94l3.68.17c.64-6.6,1.4-10.16,3.06-13.71,2.93-6.6,9-10.5,16.57-10.5H27V64.68c0,6.43-.38,8.47-1.91,10-1.28,1.18-3.82,1.69-6.76,1.69H15.36v4.06H50.28V76.36H47.33c-2.91,0-5.48-.51-6.74-1.69-1.53-1.52-1.91-3.56-1.91-10V3.89"/><path id="path22" class="tmobile-1" d="M49.27,36.7H65.38V53.14H49.27Z"/><path id="path24" class="tmobile-1" d="M96.84,36.7H113V53.14H96.84Z"/><path id="path26" class="tmobile-1" d="M145.16,36.7h16.11V53.14H145.16Z"/><path
      id="path28"
      class="tmobile-1"
      d="M204.83,80.43l20.35-71V65.14c0,6.08-.35,8.22-1.73,9.7-1,1.15-3.44,1.64-6.1,1.64h-1v3.94h28.76V76.48h-1.5c-2.65,0-5.06-.49-6.1-1.64-1.38-1.48-1.73-3.62-1.73-9.7V17.64c0-6.08.35-8.38,1.73-9.86,1.15-1,3.45-1.64,6.1-1.64h1.5V2.35H222.76L206,59.72,189.52,2.35H167.32V6.13h2.07c6.1,0,7.25,1.32,7.25,9.2v45.2c0,7.23-.35,10.19-1.38,12.33a7.09,7.09,0,0,1-6.1,3.62h-1.84v3.94H191V76.48h-1.49a7.51,7.51,0,0,1-6.8-3.45c-1.36-2.3-1.71-4.44-1.71-12.49V9.42l20.23,71h3.58"/><path
      id="path30"
      class="tmobile-1"
      d="M269.82,24.87c-14.27,0-23.59,11.18-23.59,28.76,0,16.93,9.32,28.44,23.23,28.44s23.36-11.51,23.36-28.6c0-16.93-9.32-28.6-23-28.6m-.46,3.78c4.13,0,7.69,2.63,9.65,7.07,1.84,4.11,2.65,9.7,2.65,17.75,0,16.6-4,24.82-12.2,24.82s-12.08-8.22-12.08-25c0-7.89.82-13.48,2.66-17.59,1.83-4.27,5.52-7.07,9.32-7.07"/><path
      id="path32"
      class="tmobile-1"
      d="M311.93,1.53l-16.34.82V6h.79c4.83,0,5.89,1.64,5.89,9.37V68.76c0,6.9-.23,8.71-1.15,11.67h3.8c2.86-4.77,3.57-5.59,4.72-5.59a2.59,2.59,0,0,1,1.94,1c5.65,4.6,8.07,5.59,13.25,5.59,12.41,0,21.38-12,21.38-29.09,0-16.11-8.3-27-20.71-27-6.44,0-11.14,3.12-13.56,8.71V1.53m11.93,27.94c7.38,0,11.18,7.89,11.18,23.34,0,16.27-3.91,24.65-11.39,24.65-8.28,0-12.64-8.55-12.64-24.16,0-7.89,1-13.31,3.45-17.42,2.17-3.94,5.87-6.41,9.4-6.41"/><path
      id="path34"
      class="tmobile-1"
      d="M367.48,25.69l-16.78,1v3.62H352c4.82,0,5.85,1.64,5.85,9.2V67.28c0,7.56-1,9.37-5.85,9.37h-1.83v3.78h25.05V76.65h-1.81c-4.85,0-5.9-1.64-5.9-9.37V25.69M362,1.69a6.41,6.41,0,0,0-6.44,6.58,6.46,6.46,0,0,0,6.33,6.41,6.28,6.28,0,0,0,6.33-6.41A6.4,6.4,0,0,0,362,1.69"/><path id="path36" class="tmobile-1" d="M396.59,1.53l-16.78.82V6h1.25c4.83,0,5.87,1.64,5.87,9.37V67.28c0,7.73-1,9.37-5.87,9.37h-1.83v3.78H404.3V76.65h-1.84c-4.85,0-5.87-1.64-5.87-9.37V1.53"/><path
      id="path38"
      class="tmobile-1"
      d="M450.08,53.14c-.56-17.42-8.84-28.27-21.37-28.27-12.1,0-20.83,11.83-20.83,28.27,0,17.59,8.61,28.93,22,28.93,8.63,0,14.61-4.6,19.56-14.79L446,65.47c-4,8.55-8.05,12-14.27,12-9.09,0-13-7.23-13.1-24.33h31.49M418.7,49C418.8,36.7,422.81,29,429.27,29S439.51,36.54,439.4,49H418.7"/><path id="path40" class="tmobile-1" d="M464.61,36.7h16.11V53.14H464.61Z"/><path
      class="tmobile-1"
      d="M486.76,23.53a5.93,5.93,0,0,1,2.85.75,5.32,5.32,0,0,1,2.16,2.14,5.81,5.81,0,0,1,0,5.78,5.38,5.38,0,0,1-2.14,2.14,5.82,5.82,0,0,1-5.76,0,5.39,5.39,0,0,1-2.14-2.14,5.79,5.79,0,0,1,0-5.78,5.35,5.35,0,0,1,2.17-2.14A6,6,0,0,1,486.76,23.53Zm0,1a4.92,4.92,0,0,0-2.37.63,4.49,4.49,0,0,0-1.81,1.79,4.81,4.81,0,0,0,0,4.81,4.54,4.54,0,0,0,1.79,1.79,4.82,4.82,0,0,0,4.8,0,4.5,4.5,0,0,0,1.78-1.79,4.83,4.83,0,0,0,0-4.81,4.46,4.46,0,0,0-1.8-1.79A4.92,4.92,0,0,0,486.76,24.49Zm-2.54,8V26.29h2.15a5.25,5.25,0,0,1,1.59.17,1.53,1.53,0,0,1,.78.6A1.59,1.59,0,0,1,489,28a1.66,1.66,0,0,1-.49,1.19,1.93,1.93,0,0,1-1.3.57,1.69,1.69,0,0,1,.53.33,7,7,0,0,1,.92,1.23l.76,1.22h-1.23l-.56-1a5.15,5.15,0,0,0-1-1.45,1.28,1.28,0,0,0-.81-.22h-.59v2.65h-1Zm1-3.5h1.23a2,2,0,0,0,1.2-.26.9.9,0,0,0,.16-1.19.92.92,0,0,0-.43-.33,3.18,3.18,0,0,0-1-.11h-1.15V29Z"/></g>
  </g>
</svg>
