<?xml version="1.0" encoding="utf-8"?>
<!-- Generator: Adobe Illustrator 19.1.0, SVG Export Plug-In . SVG Version: 6.00 Build 0)  -->
<!DOCTYPE svg PUBLIC "-//W3C//DTD SVG 1.1//EN" "http://www.w3.org/Graphics/SVG/1.1/DTD/svg11.dtd">
<svg version="1.1" id="svg2430" xmlns:svg="http://www.w3.org/2000/svg"
	 xmlns="http://www.w3.org/2000/svg" xmlns:xlink="http://www.w3.org/1999/xlink" x="0px" y="0px" viewBox="-922 898.5 154.5 205.5"
	 style="enable-background:new -922 898.5 154.5 205.5;" xml:space="preserve">
<path d="M-777,908L-777,908l-0.2-0.2l-0.1-0.1l-0.1-0.1l-0.1-0.1l-0.1-0.1l-0.1-0.1l-0.1-0.1l-0.1-0.1l-0.1-0.1l-0.1,0l-0.1,0
	l-0.1-0.1l-0.1,0l-0.1,0l-0.1,0l-0.1,0l-0.1,0l-0.1,0l-0.1,0l-0.1,0l-0.1,0l-0.1,0l-0.1,0l-0.1,0l-0.1,0l-0.1,0l-0.1,0l-0.1,0h-0.1
	l-0.1,0h-0.1h-128.9c-1.3,0-2.4,0.5-3.3,1.3c-0.9,0.9-1.4,2-1.4,3.3v121.2c0,1.2,0.5,2.4,1.4,3.3c0.9,0.9,2,1.3,3.3,1.3h128.9
	c1.3,0,2.3-0.4,3.3-1.3c0.9-0.9,1.3-2,1.3-3.3V911.3C-775.7,910-776.1,908.9-777,908z M-807.1,1025.6l-36.2-26.1l-35.5,25.5
	l13.6-41.8l-36.4-25.6h44.5l14-41.7l13.7,41.7h44.2l-35.3,25.2L-807.1,1025.6z"/>
<g>
	<path d="M-771.3,902.3l-0.2-0.2l-0.2-0.2l-0.2-0.2l-0.2-0.2l-0.2-0.2l-0.2-0.2l-0.3-0.2l-0.2-0.2l-0.3-0.2l-0.3-0.2l-0.3-0.2
		l-0.3-0.2l-0.3-0.1l-0.3-0.1l-0.3-0.1l-0.3-0.1l-0.3-0.1l-0.3-0.1l-0.3-0.1l-0.3-0.1l-0.3-0.1l-0.3-0.1l-0.3-0.1l-0.3-0.1l-0.3,0
		l-0.3,0l-0.3,0l-0.3,0l-0.3,0l-0.3,0l-0.3,0h-0.3h-128.9c-3.5,0-6.6,1.3-9,3.8c-2.5,2.5-3.8,5.5-3.8,9v121.2c0,3.5,1.3,6.6,3.8,9
		c2.5,2.5,5.5,3.7,9,3.7h128.9c3.5,0,6.5-1.2,9-3.7c2.5-2.5,3.7-5.5,3.7-9V911.3C-767.5,907.8-768.7,904.7-771.3,902.3z
		 M-771.6,911.3v121.2c0,2.4-0.9,4.5-2.6,6.2c-1.6,1.7-3.7,2.5-6.1,2.5h-128.9c-2.5,0-4.5-0.8-6.2-2.5c-1.7-1.7-2.5-3.8-2.5-6.2
		V911.3c0-2.4,0.8-4.4,2.5-6.2c1.7-1.7,3.7-2.5,6.2-2.5h128.9c2.4,0,4.5,0.8,6.1,2.5l0.2,0.2l0.2,0.2l0.2,0.2l0.1,0.2l0.1,0.2
		l0.1,0.2l0.1,0.2l0.1,0.2l0.1,0.2l0.1,0.2l0.1,0.2l0.1,0.2l0.1,0.2l0.1,0.2l0.1,0.2l0.1,0.2l0.1,0.2l0.1,0.2l0.1,0.2l0.1,0.2
		l0.1,0.2l0,0.2l0,0.2l0,0.2l0,0.2l0,0.2l0,0.2l0,0.2l0,0.2l0,0.2l0,0.2V911.3z"/>
</g>
<path d="M-799.7,961.7h-33.1l-10.3-31.3l-10.4,31.3H-887l27.2,19.2l-10.1,31.2l26.7-19l27,19.5l-9.9-32.1L-799.7,961.7z
	 M-822.9,1003.9l-20.4-14.7l-20,14.4l7.6-23.6l-20.5-14.5h25.2l7.9-23.6l7.8,23.6h24.9l-20,14.2L-822.9,1003.9z"/>
<path d="M-771.3,1053c-2.5-2.5-5.5-3.8-9-3.8h-128.9h-0.3l-0.3,0l-0.3,0l-0.3,0l-0.3,0l-0.3,0l-0.3,0l-0.3,0.1l-0.3,0.1l-0.3,0.1
	l-0.3,0.1l-0.3,0.1l-0.3,0.1l-0.3,0.1l-0.3,0.1l-0.3,0.1l-0.3,0.1l-0.3,0.1l-0.3,0.1l-0.3,0.2l-0.3,0.2l-0.3,0.2l-0.3,0.2l-0.2,0.2
	l-0.3,0.2l-0.2,0.2l-0.2,0.2l-0.2,0.2l-0.2,0.2l-0.2,0.2l-0.2,0.2l-0.2,0.2c-2.5,2.5-3.8,5.5-3.8,9v29.3c0,3.5,1.3,6.5,3.8,8.9
	c2.5,2.5,5.5,3.8,9,3.8h128.9c3.5,0,6.5-1.3,9-3.8c2.5-2.4,3.7-5.5,3.7-8.9V1062C-767.5,1058.4-768.7,1055.4-771.3,1053z
	 M-771.6,1091.3c0,2.4-0.9,4.4-2.6,6.1c-1.6,1.7-3.7,2.5-6.1,2.5h-128.9c-2.5,0-4.5-0.8-6.2-2.5c-1.7-1.7-2.5-3.7-2.5-6.1V1062v-0.2
	l0-0.2l0-0.2l0-0.2l0-0.2l0-0.2l0-0.2l0-0.2l0-0.2l0-0.2l0-0.2l0.1-0.2l0.1-0.2l0.1-0.2l0.1-0.2l0.1-0.2l0.1-0.2l0.1-0.2l0.1-0.2
	l0.1-0.2l0.1-0.2l0.1-0.2l0.1-0.2l0.1-0.2l0.1-0.2l0.1-0.2l0.1-0.2l0.1-0.2l0.1-0.2l0.2-0.2l0.1-0.2l0.2-0.2
	c1.7-1.7,3.7-2.5,6.2-2.5h128.9c2.4,0,4.5,0.8,6.1,2.5c1.7,1.7,2.6,3.8,2.6,6.2V1091.3z"/>
<polygon points="-848.1,1069.7 -849,1080.2 -846.5,1080.2 -847.6,1069.7 "/>
<rect x="-831.7" y="1069.1" width="2.5" height="5.7"/>
<path d="M-777,1058.7c-0.9-0.9-2-1.3-3.3-1.3h-128.9h-0.1h-0.1l-0.1,0l-0.1,0l-0.1,0l-0.1,0l-0.1,0l-0.1,0l-0.1,0l-0.1,0l-0.1,0
	l-0.1,0l-0.1,0l-0.1,0l-0.1,0l-0.1,0l-0.1,0l-0.1,0.1l-0.1,0l-0.1,0.1l-0.1,0.1l-0.1,0l-0.1,0.1l-0.1,0.1l-0.1,0.1l-0.1,0.1
	l-0.1,0.1l-0.1,0.1l-0.1,0.1l-0.1,0.1l-0.1,0.1l-0.1,0.1c-0.9,0.9-1.4,2-1.4,3.3v29.3c0,1.3,0.5,2.3,1.4,3.2c0.9,0.9,2,1.4,3.3,1.4
	h128.9c1.3,0,2.3-0.5,3.3-1.4c0.9-0.9,1.3-1.9,1.3-3.2V1062C-775.7,1060.7-776.1,1059.6-777,1058.7z M-890.2,1086l-3.8,3.7h-6.6
	l-3.9-3.7v-21.6h5.8v20.5h2.5v-20.5h5.9V1086z M-882.4,1089.7h-5.9v-4.9h5.9V1089.7z M-865.9,1072.5h-5.8v-3.4h-2.4v5.2l4.3,0.4
	l4,3.7v7.7l-3.8,3.7h-6.4l-3.8-3.7v-4.4h5.8v3.3h2.4v-5.3l-4.2-0.3l-4-3.7v-7.6l3.8-3.6h6.2l4.1,3.6V1072.5z M-858.1,1089.7h-5.8
	v-4.9h5.8V1089.7z M-845.6,1089.7l-0.5-4.7h-3.3l-0.5,4.7h-5.7l3.5-25.3h8.4l3.7,25.3H-845.6z M-823.6,1074.6l-3,2.4l3,2.5v10.1
	h-5.7v-10.1h-2.5v10.1h-5.8v-25.3h10l3.9,3.6V1074.6z M-802.5,1089.7h-5.3v-16.1h-0.3l-2.4,16.1h-2.1l-2.5-16.1h-0.2v16.1h-5.3
	v-25.3h6.8l2.1,12.2h0.5l1.9-12.2h6.9V1089.7z M-789.2,1079v10.7h-5.9V1079l-5-14.7h5.8l2.1,9.1h0.1l2.1-9.1h5.8L-789.2,1079z"/>
</svg>
