<svg xmlns="http://www.w3.org/2000/svg" viewBox="0 0 175.75 25.8">
  <defs>
    <style>
      .skanska-1 {
        fill: #fff;
      }
    </style>
  </defs>
  <title>Skanska</title>
  <g id="Layer_2" data-name="Layer 2">
    <g id="Layer_1-2" data-name="Layer 1"><path class="skanska-1" d="M81,22.47c0,2.41-.74,3.15-3,3.15a19,19,0,0,1-3.33-.18V.08h6.11L91.76,16.36a9.25,9.25,0,0,1-.18-2V.08h6.29V25.43a26.12,26.12,0,0,1-4.07.18c-2.4,0-3.14-.56-4.25-2.22C88.61,21.73,81,10.26,81,10.26V22.47Z"/><path
      class="skanska-1"
      d="M8,.08C2,.45,0,4,0,7.67c0,3.89,2.4,7.59,8.32,7.77h5.36a2.4,2.4,0,1,1,0,4.81H4.25c-3.14,0-4.07.92-4.07,3.89v1.48c3,.19,8.14.19,14.24.19,6.1-.19,8.51-4.07,8.51-8.14s-2.59-8-8.51-8c-1.85-.19-4.81,0-5.74,0a2.27,2.27,0,0,1-2-2.41,2.22,2.22,0,0,1,2-2.22H17.2c3.15,0,4.07-.74,4.07-3.7V.08C19.42.08,12.58-.1,8,.08Z"/><path
      class="skanska-1"
      d="M109.33.08c-5.92.37-8,3.89-8,7.58,0,3.89,2.4,7.59,8.32,7.77h5.36a2.4,2.4,0,0,1,0,4.81h-9.44c-3.14,0-4.07.92-4.07,3.89v1.48c3,.19,8.14.19,14.24.19,6.11-.19,8.51-4.07,8.51-8.14s-2.59-8-8.51-8c-1.85-.19-4.81,0-5.73,0a2.27,2.27,0,0,1-2-2.4,2.22,2.22,0,0,1,2-2.22h8.51c3.14,0,4.07-.74,4.07-3.7V.08c-1.85,0-8.69-.19-13.32,0Z"/><path
      class="skanska-1"
      d="M74,25.43a26.12,26.12,0,0,1-4.07.18c-2,0-3.51-.18-4.07-2.22l-.93-2.77H55.5l-.92,2.77c-.56,2-2,2.22-4.07,2.22a29.54,29.54,0,0,1-5.74,0c-2,0-3-.37-3.88-1.48L32.56,14.7a1.43,1.43,0,0,1-.19-.56v8.32c0,2.41-.74,3.15-3,3.15a27.35,27.35,0,0,1-4.07-.18V.08h7V11.74c0-.37,0-.56.19-.74L41.07.08h8.14L38.67,12.48l8.69,9.44a2.66,2.66,0,0,1,.37.56v-.56C47.92,21.73,56.42.08,56.42.08h7.4L74,25.43ZM63.27,15.62l-3.15-10L57,15.62a.65.65,0,0,1,.37-.19h5.74a.18.18,0,0,1,.19.19Z"/><path
      class="skanska-1"
      d="M175.75,25.43a24.91,24.91,0,0,1-4.07.18c-2,0-3.52-.18-4.07-2.22l-.93-2.77h-9.44l-.93,2.77c-.55,2-1.85,2.22-4.07,2.22a27.66,27.66,0,0,1-5.55,0c-2.22,0-3.15-.37-4.07-1.48l-8.14-9.44c-.37-.37-.37-.56-.37-.56v8.32c0,2.41-.74,3.15-3,3.15a24.83,24.83,0,0,1-3.89-.18V.08h6.84V11.74a1,1,0,0,1,.37-.74L142.82.08H151l-10.54,12.4s8.7,9.44,8.88,9.44a.91.91,0,0,1,.18.56v-.56c.18-.19,8.88-21.83,8.88-21.83h7.21l10.17,25.34ZM165,15.62l-3.15-10-3.15,10a.65.65,0,0,1,.37-.19h5.73a.18.18,0,0,1,.19.19Z"/></g>
  </g>
</svg>
