<svg xmlns="http://www.w3.org/2000/svg" viewBox="0 0 531.5 481.13">
  <defs>
    <style>
      .cls-1 {
        fill: #fff;
      }
    </style>
  </defs>
  <title>customers-skanska</title>
  <g id="Layer_2" data-name="Layer 2">
    <g id="svg3098">
      <g id="text3027"><path id="path3050" class="cls-1" d="M501.19,479.81V462h-6.67v-2.39h16V462h-6.69v17.85Z"/><path id="path3052" class="cls-1" d="M512.19,479.81V459.58h4L521,473.9q.66,2,1,3,.35-1.1,1.08-3.24l4.84-14.08h3.6v20.23h-2.58V462.88L523,479.81h-2.42l-5.85-17.23v17.23Z"/></g>
      <g id="g3033"><path
        id="path3035"
        class="cls-1"
        d="M331,.17,0,0V481.13H481.14V150.19A150.1,150.1,0,0,0,331,.17M183.18,428.72H128.84S109.34,378.4,74.7,378.4L56.94,428.72H26.61L78.3,292.53H109l47.05,125.86V292.53h27.12V428.72ZM288.71,386H217.55c.77,17.17,9.16,25,24.23,25,10.89,0,19.65-6.7,21.36-12.8H287c-7.64,23.28-23.86,33.22-46.17,33.22-31.1,0-50.37-21.38-50.37-51.89,0-29.59,20.41-52.08,50.37-52.08,33.56,0,49.77,28.24,47.88,58.55m160.07,0H377.63c.76,17.17,9.15,25,24.22,25,10.89,0,19.66-6.7,21.38-12.8h23.84c-7.64,23.28-23.84,33.22-46.16,33.22-31.1,0-50.38-21.38-50.38-51.89a56.18,56.18,0,0,1,6.3-26.43,56,56,0,0,0-7-.48c-19.82,0-26.69,14.32-26.69,31.67v44.43H296.05V330.12h25.73v18.31h.4c5-12.4,18.31-21,31.47-21a19.89,19.89,0,0,1,5.91,1v20.14c8.75-12.94,23.32-21.09,41.34-21.09,33.56,0,49.79,28.24,47.87,58.55"/>
        <g id="g3037"><path id="path3039" class="cls-1" d="M240.06,347.85c-17.16,0-22.12,13.35-22.52,21h44.08c-2.48-13.74-8.42-21-21.57-21"/></g>
        <g id="g3041"><path id="path3043" class="cls-1" d="M400.13,347.85c-17.16,0-22.12,13.35-22.5,21H421.7c-2.47-13.74-8.39-21-21.56-21"/></g>
      </g>
      <g id="g3045"><path id="path3047" class="cls-1" d="M93.18,326.11,76.51,373.3H109.8L93.57,326.11Z"/></g>
    </g>
  </g>
</svg>
