<svg xmlns="http://www.w3.org/2000/svg" viewBox="0 0 177.37 23.46">
  <defs>
    <style>
      .bridgestone-1 {
        fill: red;
      }
    </style>
  </defs>
  <title>Bridgestone</title>
  <g id="Layer_2" data-name="Layer 2">
    <g id="svg3626">
      <g id="layer1"><path id="path3079" d="M53.2,4.64,47.81,23.22H41.56L46.95,4.64H53.2"/><path id="path3081" d="M50.29,23.22,55.68,4.64H64c2.41,0,3.78.39,4.57,1.62.69,1.07.79,2.55.11,4.95l-1.89,6.58a7.77,7.77,0,0,1-2.39,4c-1,.81-2.5,1.46-5.9,1.46H50.29Zm8.14-3.39a1.56,1.56,0,0,0,1.71-1.25l4-13.9c-1.5,1.17-3,2-3.37,3.41l-3.4,11.74h1.06"/><path
        id="path3083"
        d="M135.7,18.54l4-14.09c-1.89,1.5-3.15,2.32-3.44,3.38l-3.08,10.78c-.25.86-.06,1.37.92,1.37s1.2-.34,1.55-1.45ZM132.44,5.18c.89-.49,1.82-.79,6.11-.79,3.62,0,5,.43,5.71,1.7s.59,2.76-.08,5.08l-1.93,6.58a9.8,9.8,0,0,1-2.32,4.34c-1.19,1.22-3.17,1.35-6.75,1.35s-4.62-.31-5.55-1.32c-1.1-1.19-1.14-2.27.23-6.91l1.24-4.47c1-3.79,2.09-4.85,3.34-5.55"/><path id="path3085" d="M160.91,11.14c.82-2.53,1-4.16.26-5.09s-1.44-1.4-3.75-1.4H148l-5.39,18.57h6.1L153.11,8.1c.34-1.17,1.23-1.72,3.38-3.41l-5.38,18.53h6.28l3.52-12.08"/><path id="path3087" d="M129.07,8.46l1.11-3.82H117.83l-1.1,3.82h5.18c-1.38,1.13-2.73,2-3.14,3.49l-3.28,11.26h6.18L126,8.46h3.11"/><path
        id="path3089"
        d="M85.39,10.52c.7-2.07.89-3.54.3-4.45-.85-1.32-1.59-1.7-5.8-1.7s-5.28.3-6.17.8c-1.16.64-2.2,1.86-3.28,5.6L69.2,15.24c-1.37,4.65-.83,5.81.38,6.9,1,.93,2.34,1.08,5.94,1.08h6.27l3-10.29H78.59l-2,6.89H75.53a1.07,1.07,0,0,1-.9-1.54l3-10.45c.36-1.26,1.5-2,3.31-3.41l-1.7,6.1h6.13"/><path
        id="path3091"
        d="M100.52,8.35H95.39c-1.47,0-1.65.64-1.87,1.39l-1.13,4c1.76-1.59,2.3-1.91,4.35-1.91h2.55l-1.07,3.7H91.86l-.67,2.3c-.45,1.54.4,1.64,1.72,1.64h4.62l-1.1,3.78H89.27a5.08,5.08,0,0,1-3.51-1.12c-1-1-1-2.41-.36-4.73s2.1-7.53,2.58-9a4.66,4.66,0,0,1,2.62-3.23c1.16-.53,2-.44,4.52-.44h6.47l-1.08,3.71"/><path
        id="path3093"
        d="M176.29,8.35h-5.14c-1.46,0-1.64.64-1.87,1.39l-1.13,4c1.76-1.59,2.3-1.91,4.35-1.91h2.55L174,15.5h-6.36l-.67,2.3c-.46,1.54.41,1.64,1.72,1.64h4.62l-1.1,3.78H165a5.07,5.07,0,0,1-3.51-1.12c-1-1-1-2.41-.35-4.73s2.09-7.53,2.58-9a4.65,4.65,0,0,1,2.62-3.23c1.16-.53,2-.44,4.52-.44h6.48l-1.08,3.71"/><path id="path3095" class="bridgestone-1" d="M8.71,0h12L4.35,15.09,8.71,0"/><path id="path3097" d="M15.46,23.22c5.67,0,8.33-2,9.41-5.8s-.82-6.1-4-6.24l.12-.41c3.93-.08,5.71-1.9,6.44-4.57C28,4.05,28.09,0,22.52,0h-1.6l-5,17.36c-.33,1.12-.66,1.69-1.83,1.69H12.54l3-10.29L0,23.22H15.46"/><path
        id="path3099"
        d="M115.69,10.29a6.49,6.49,0,0,0,.25-4.2c-.5-1.1-1.59-1.69-5.15-1.69-4.12,0-5.26.24-6.15.73-1.65.9-2.22,1.62-3.09,5.35-.58,2.49.3,3.59,1.29,4.14s4.57.86,4.95,1.62c.3.6.11,1.16-.27,2.37S106.94,20,106,20s-1.14-.48-.86-1.41l.55-1.92h-6c-1,2.95-1,4.32,0,5.55.84,1,2.1,1.23,5.68,1.23s5.53-.29,6.59-1.59c1.43-1.74,3.06-5.95,2-8.39-.7-1.64-4.27-2.07-4.89-2.16-.77-.12-1.62-.6-1.51-1.4a12,12,0,0,1,.64-2.39c.36-.95,1.55-1.72,3.26-3.08l-1.69,5.83h5.85"/><path id="path3101" d="M39.17,4.64c1.95,0,3.25.22,4,1.49.42.68.74,1.77,0,4-.64,2-1.93,3.21-4.86,3.21l-.12.41c2.79.19,3.36,1.93,2.71,4.37-.4,1.59-1,3.85-1.31,5.11h-6.5L38.53,4.68c-1.77,1.4-2.87,2.13-3.23,3.22L30.84,23.22H24.75L30.14,4.64h9"/></g>
    </g>
  </g>
</svg>
