<svg xmlns="http://www.w3.org/2000/svg" xmlns:xlink="http://www.w3.org/1999/xlink" viewBox="0 0 51.09 29.42">
  <defs>
    <style>
      .suntrust-1 {
        fill: #00447c;
      }
      .suntrust-2 {
        fill: url("#linear-gradient");
      }
      .suntrust-3 {
        fill: url("#linear-gradient-2");
      }
      .suntrust-4 {
        fill: url("#linear-gradient-3");
      }
      .suntrust-5 {
        fill: url("#linear-gradient-4");
      }
      .suntrust-6 {
        fill: url("#linear-gradient-5");
      }
      .suntrust-7 {
        fill: url("#linear-gradient-6");
      }
      .suntrust-8 {
        fill: url("#linear-gradient-7");
      }
      .suntrust-9 {
        fill: url("#linear-gradient-8");
      }
      .suntrust-10 {
        fill: url("#linear-gradient-9");
      }
      .suntrust-11 {
        fill: url("#linear-gradient-10");
      }
      .suntrust-12 {
        fill: url("#linear-gradient-11");
      }
      .suntrust-13 {
        fill: url("#linear-gradient-12");
      }
      .suntrust-14 {
        fill: url("#linear-gradient-13");
      }
      .suntrust-15 {
        fill: url("#linear-gradient-14");
      }
      .suntrust-16 {
        fill: url("#linear-gradient-15");
      }
      .suntrust-17 {
        fill: url("#linear-gradient-16");
      }
    </style>
    <linearGradient id="linear-gradient" x1="5.9" y1="16.2" x2="18.92" y2="31.72" gradientTransform="matrix(1, 0, 0, -1, 0, 31.42)" gradientUnits="userSpaceOnUse"><stop offset="0.34" stop-color="#fdb913"/><stop offset="0.37" stop-color="#fbb415"/><stop offset="0.55" stop-color="#ef941b"/><stop offset="0.72" stop-color="#e8801d"/><stop offset="0.88" stop-color="#e4741e"/><stop offset="0.99" stop-color="#e36f1e"/></linearGradient><linearGradient id="linear-gradient-2" x1="6.34" y1="15.8" x2="19.31" y2="31.25" xlink:href="#linear-gradient"/><linearGradient id="linear-gradient-3" x1="5.5" y1="16.47" x2="18.43" y2="31.87" xlink:href="#linear-gradient"/><linearGradient id="linear-gradient-4" x1="6.29" y1="15.78" x2="19.18" y2="31.14" xlink:href="#linear-gradient"/><linearGradient id="linear-gradient-5" x1="5.78" y1="16.19" x2="18.64" y2="31.52" xlink:href="#linear-gradient"/><linearGradient id="linear-gradient-6" x1="6.66" y1="15.42" x2="19.5" y2="30.71" xlink:href="#linear-gradient"/><linearGradient id="linear-gradient-7" x1="7.51" y1="14.71" x2="20.25" y2="29.89" xlink:href="#linear-gradient"/><linearGradient id="linear-gradient-8" x1="7.99" y1="14.3" x2="20.68" y2="29.44" xlink:href="#linear-gradient"/><linearGradient id="linear-gradient-9" x1="9.24" y1="13.24" x2="21.9" y2="28.33" xlink:href="#linear-gradient"/><linearGradient id="linear-gradient-10" x1="10.83" y1="11.91" x2="23.45" y2="26.95" xlink:href="#linear-gradient"/><linearGradient id="linear-gradient-11" x1="12.12" y1="10.82" x2="24.69" y2="25.81" xlink:href="#linear-gradient"/><linearGradient id="linear-gradient-12" x1="13.92" y1="9.3" x2="26.46" y2="24.24" xlink:href="#linear-gradient"/><linearGradient id="linear-gradient-13" x1="14.6" y1="8.75" x2="27.07" y2="23.61" xlink:href="#linear-gradient"/><linearGradient id="linear-gradient-14" x1="16.4" y1="7.24" x2="28.79" y2="22.01" xlink:href="#linear-gradient"/><linearGradient id="linear-gradient-15" x1="16.52" y1="7.16" x2="28.81" y2="21.81" xlink:href="#linear-gradient"/><linearGradient id="linear-gradient-16" x1="6.41" y1="15.63" x2="19.2" y2="30.86" xlink:href="#linear-gradient"/></defs>
  <title>customers-suntrust</title>
  <g id="Layer_2" data-name="Layer 2">
    <g id="Layer_1-2" data-name="Layer 1"><path
      class="suntrust-1"
      d="M39.22,26.79c0,1-.12,2.63-2.44,2.63a3,3,0,0,1-2.15-.63,2.73,2.73,0,0,1-.58-2V23.32c0-.32-.2-.41-.7-.41v-.44h3.06v.44c-.5,0-.7.09-.7.41V27c0,.84.06,1.78,1.32,1.81,1.41,0,1.52-1.12,1.52-1.92V23.34c0-.32-.06-.44-.55-.44h-.17v-.44h2.11v.44h-.17c-.49,0-.55.11-.55.44v3.45Z"/><path class="suntrust-1" d="M50,29.23H46.57V28.8h.22c.52,0,.65-.21.65-.53V23h-.66c-.35,0-.49.08-.6.25a2.35,2.35,0,0,0-.13,1h-.59V22.46h5.64v1.81H50.5a2.32,2.32,0,0,0-.14-1c-.11-.17-.25-.25-.6-.25h-.67v5.22c0,.32.13.53.65.53H50v.43Z"/><path
      class="suntrust-1"
      d="M45.33,27.34c-.1,1.11-1,2.08-2.73,2.08a4.88,4.88,0,0,1-2.39-.59V27.15h.61a4.37,4.37,0,0,0,0,.59,1,1,0,0,0,.21.49,1.93,1.93,0,0,0,1.53.61c1.07,0,1.56-.57,1.55-1.11,0-.77-.42-.9-1.9-1.24s-2.07-.9-2.06-2.1.84-2.15,2.62-2.13a4.6,4.6,0,0,1,2.11.42v1.59h-.6c0-.16,0-.36,0-.56a.67.67,0,0,0-.23-.5,2.11,2.11,0,0,0-1.46-.38c-.55,0-1.28.32-1.28.95s.24.82,1.51,1.08a3.54,3.54,0,0,1,2,.78,2.09,2.09,0,0,1,.49,1.71"/><path
      class="suntrust-1"
      d="M6.68,26.86c-.14,1.34-1.18,2.55-3.5,2.55a6.1,6.1,0,0,1-3.1-.78V26.38H.78a6.26,6.26,0,0,0,.06.72,1.54,1.54,0,0,0,.26.67,2.48,2.48,0,0,0,2.06.9c1.55,0,2.07-.88,2.06-1.64,0-.95-.67-1.21-2.43-1.65S0,24.35,0,22.7s1.12-2.8,3.4-2.8a5.67,5.67,0,0,1,2.72.57v2H5.46a4.72,4.72,0,0,0-.07-.72A1.07,1.07,0,0,0,5,21.09a2.69,2.69,0,0,0-1.79-.46c-1,0-1.74.52-1.75,1.32s.3,1.18,2,1.55a5.34,5.34,0,0,1,2.62,1,2.62,2.62,0,0,1,.61,2.31"/><path
      class="suntrust-1"
      d="M13.81,22.9c.5,0,.54.09.54.41v5c0,.32-.06.44-.56.44h-.18v.43h2.12V28.8h-.17c-.5,0-.56-.12-.56-.44V24.11l2.86,5.12h1.6V23.36c0-.32.06-.46.56-.46h.48v-.75c0-.64.05-1.4,1-1.4h1.06V28c0,.61-.14.79-.84.79h-.24v.43h4.05V28.8h-.23c-.7,0-.86-.18-.86-.79V20.75h1.06c.93,0,1,.75,1,1.4v.75h.66c.51,0,.55.11.55.44v5c0,.32-.22.43-.73.43v.43H30.1V28.8c-.51,0-.73-.11-.73-.43V23h.83c.65,0,1.13.24,1.13,1.23,0,.63-.25,1.34-1.16,1.34h-.5l1.47,3c.29.58.66.7,1.37.7h1.23V28.8a.79.79,0,0,1-.7-.33l-1.47-2.55A1.7,1.7,0,0,0,33,24.21c0-1.66-1.66-1.75-2.75-1.75H27.16V20.07H19.83v2.39H18.07v.44h.18c.5,0,.55.13.55.46v4.19L16,22.46H11.51v.44h.18c.5,0,.56.09.56.41V26.9c0,.8-.11,2-1.52,1.92-1.26,0-1.33-1-1.33-1.81V23.31c0-.32.2-.41.7-.41v-.44H7v.44c.5,0,.7.09.7.41v3.47a2.82,2.82,0,0,0,.57,2,3.09,3.09,0,0,0,2.16.63c2.3,0,2.42-1.64,2.42-3V22.89c0,.1,0,0,.53,0h.39Z"/><path class="suntrust-2" d="M6.36,11.19l-.15.4a2.51,2.51,0,0,0,0,1.27l.75,3.87c.06.34.16.48.28.46s.11-.29,0-.87l-.57-5.13c0-.32-.18-.33-.3,0"/><path class="suntrust-3" d="M8,15.26c0,.33.05.73-.06.76s-.17-.11-.23-.54L7.42,13.2a3.14,3.14,0,0,1,.14-1.27c.12-.24.24-.18.25.15Z"/><path class="suntrust-4" d="M9,7.56l-.29,6.66c0,.3,0,.69-.14.66s-.14-.19-.15-.49L8.27,8.93a2.35,2.35,0,0,1,.24-1l.2-.38c.15-.27.28-.26.26,0"/><path class="suntrust-5" d="M10,8.93,9.52,14c0,.36-.1.73-.2.72s-.14-.23-.1-.56L9.4,9.81a3.32,3.32,0,0,1,.38-1c.14-.24.24-.13.19.15"/><path class="suntrust-6" d="M10.14,13.65c-.09,0-.09-.37-.07-.62l.71-7a2.21,2.21,0,0,1,.42-.89L11.27,5c.19-.24.34-.21.28,0l-1.2,8c-.06.34-.11.61-.21.61"/><path class="suntrust-7" d="M12.26,6.23c.16-.18.42-.08.36.18l-1.56,7.1c-.06.25-.17.65-.28.63s-.09-.38,0-.68L11.88,7a2,2,0,0,1,.38-.81"/><path class="suntrust-8" d="M12.42,13.42c-.11.24-.25.6-.41.53s.11-.6.11-.6L16,3.94c.12-.27.4-.62.7-.48s0,.66-.13.9c-2.34,5.26-3,6.62-4.14,9.07"/><path class="suntrust-9" d="M13.29,13c.09.07.31-.19.48-.48L20.84.71C21,.49,21,.15,20.78,0s-.54.09-.7.38L13.51,12.27c-.19.36-.31.62-.22.69"/><path class="suntrust-10" d="M13.45,14.23c-.09-.09.06-.38.25-.68l7.55-11c.2-.31.65-.65.93-.49s.25.46,0,.75L14,13.76c-.2.29-.44.56-.54.47"/><path class="suntrust-11" d="M15.69,13s-.5.52-.6.4.1-.33.31-.61l.25-.3L26.19.36A.42.42,0,0,1,26.82.3l.32.39a.56.56,0,0,1,0,.73Z"/><path class="suntrust-12" d="M14.83,14.9c-.08-.08.1-.33.44-.62L26.47,4a.46.46,0,0,1,.66,0,1.11,1.11,0,0,1,.35.63c.06.32-.12.47-.35.68L15.47,14.55c-.29.25-.54.43-.64.35"/><path class="suntrust-13" d="M17.15,14l13-9.31c.25-.2.48-.15.54.09l.3,1a.83.83,0,0,1-.38.79L17.38,14.28c-.33.21-.67.39-.75.28s.22-.34.52-.58"/><path class="suntrust-14" d="M15.77,15.93c0-.15.31-.29.67-.48L28.09,9.57c.32-.17.57-.09.56.19l.05,1.3a1,1,0,0,1-.67.78l-11.49,4c-.4.16-.75.25-.79.1"/><path class="suntrust-15" d="M29.43,14.82,18.17,16.43c-.44.07-.76.14-.8,0s.34-.25.75-.39L29.8,12.5c.38-.12.67,0,.64.3l-.17,1.34a1,1,0,0,1-.84.68"/><path class="suntrust-16" d="M16.62,17.52c0-.17.53-.26,1-.31l10-1.17c.44,0,.81.19.67.58l-.2.52a.9.9,0,0,1-.95.54H17.51c-.42,0-.86,0-.89-.17"/><path class="suntrust-17" d="M15.24,2.76s-2.88,8.86-3.05,9.34-.35,1-.5.93,0-.35.09-.75l2.73-9.61c.13-.39.54-.72.69-.69s.12.54,0,.79"/></g>
  </g>
</svg>
