<svg xmlns="http://www.w3.org/2000/svg" viewBox="0 0 499.76 91.64">
  <defs>
    <style>
      .philips-1 {
        fill: #0b5ed7;
      }
    </style>
  </defs>
  <title>Philips</title>
  <g id="Layer_2" data-name="Layer 2">
    <g id="svg2759">
      <g id="layer1">
        <g id="g2851">
          <g id="g2853"><path
            id="path2859"
            class="philips-1"
            d="M169.54,1.84H142.69v35H114.74v-35H87.89v88h26.85V55.2h27.95V89.8h26.85Zm93.4,70.29V1.84H236.09v88h48.55l4-17.68H262.94ZM216.24,1.84H189.39v88h26.85Zm108.85,0H298.25v88h26.84ZM457.46,24.29c0-4.79,4.79-7,12.5-7a67.26,67.26,0,0,1,23.91,4.44l-2.2-19.15A105,105,0,0,0,467,0c-21.7,0-36.41,8.56-36.41,26.5,0,30.91,41.94,24.66,41.94,39,0,5.51-4.06,8.45-14,8.45-8.81,0-22.44-2.94-30.52-7L431,87.23c8.09,2.95,19.11,4.41,27.95,4.41,22.43,0,40.81-7.36,40.81-29.45,0-29.43-42.3-23.91-42.3-37.9M381.73,68.83c25,0,40.81-12.89,40.81-35.34C422.54,8.84,405.63,0,378,0a303.13,303.13,0,0,0-32.72,1.84v88h26.85v-21h9.56Zm14.34-35c0,11.4-5.51,19.14-19.5,19.14h-4.4V16.65c1.56-.09,3-.09,4.4-.09,13.24,0,19.5,6.25,19.5,17.3m-359.65,35c25,0,40.81-12.89,40.81-35.34C77.22,8.84,60.31,0,32.74,0A303.37,303.37,0,0,0,0,1.84v88H26.85v-21h9.56Zm14.35-35c0,11.4-5.53,19.14-19.5,19.14H26.85V16.65c1.56-.09,3-.09,4.41-.09,13.24,0,19.5,6.25,19.5,17.3"/></g>
        </g>
      </g>
    </g>
  </g>
</svg>
