<svg xmlns="http://www.w3.org/2000/svg" viewBox="0 0 634.98 86.11">
  <defs>
    <style>
      .cvs-1 {
        fill: #c00;
      }
    </style>
  </defs>
  <title>customers-cvs-pharmacy</title>
  <g id="Layer_2" data-name="Layer 2">
    <g id="Layer_1-2" data-name="Layer 1"><path
      class="cvs-1"
      d="M52.73,52.56c-.74,8.2-5.41,12.68-12.94,12.68C29.92,65.24,24.72,58,24.72,44c0-14.17,4.77-21.2,14.44-21.2,7.85,0,12.2,4.06,12.95,11.83H75.54c-1.48-19.82-14.54-31-36.71-31C15,3.65,0,19,0,44S14.85,84.42,39.36,84.42c22,0,35.23-11.72,36.61-31.86H52.73"/><polygon class="cvs-1" points="69.75 5.68 95.43 82.29 119.84 82.29 145.51 5.68 121.44 5.68 107.63 55.11 94.81 5.68 69.75 5.68"/><path
      class="cvs-1"
      d="M140,58.43c1.49,16.3,13.58,26,34.07,26,22.28,0,34.17-9.69,34.17-26.31,0-7.89-3.08-13.43-9.76-17.9C193.56,36.9,186,35.41,176.58,33c-7.43-1.92-11.36-2.66-11.36-6.72,0-3.51,2.55-5.21,7.74-5.21,5.94,0,9.13,2.13,9.87,6.71h23.24c-1.38-15.45-12.94-24.08-32.68-24.08-20.37,0-32,9.6-32,24.4,0,7.56,2.86,13.42,8.8,17.69,3.18,2.24,10.08,4.58,20.7,7.35,9,2.35,13.48,2.78,13.48,7.58,0,3.3-3.29,5.54-9.23,5.54-6.69,0-10-2.14-11.25-7.78H140"/><path
      class="cvs-1"
      d="M238.12,81.93h16.53V60.64c3,3.81,6.86,5.51,12.09,5.51,11.45,0,19-8.82,19-22.83,0-13.84-7.74-22.75-18.63-22.75-6.12,0-10.47,2-13.86,6.64V21.71H238.12V81.93m30.56-38.61c0,6.48-2.43,9.71-7,9.71s-7-3.24-7-9.71c0-6.8,2.1-10,7.17-10,4.68,0,6.86,3.23,6.86,10"/><path class="cvs-1" d="M287.6,64.69h17V42.51c0-5.83,2.09-8.66,6.37-8.66,4.68,0,5.8,2.67,5.8,8.58V64.69h17V42.34c0-7.45-.32-12.7-3.54-16.6-2.9-3.48-7-5.17-12.49-5.17a17,17,0,0,0-13.14,5.75V6.48h-17v58.2"/><path
      class="cvs-1"
      d="M367,64.69h17.08V63.48a4.26,4.26,0,0,1-1.86-3.65v-24c0-5.75-1-9-5.47-12.06-2.9-1.94-8.87-3.64-16.69-3.64-15,0-22.74,5-22.9,14.65h16.6c.34-2.91,2.18-4.28,5.73-4.28,4.11,0,6.13,1.05,6.13,3.56,0,4-3.54,3.56-11.77,4.61-12.66,1.62-18.62,4.29-18.62,13.85,0,8.66,5.4,13.68,15.14,13.68,6.3,0,11.21-1.78,15.57-5.67L367,64.69M365.45,45.5a19.39,19.39,0,0,1,.08,2.18c0,5.67-2.42,8.27-8.15,8.27-3.14,0-4.85-1.46-4.85-3.89,0-4.12,5-3.56,12.91-6.55"/><path class="cvs-1" d="M386,64.69H403V47c0-6.64,3.16-9.63,10-9.63a28.34,28.34,0,0,1,3.47.24V20.57H415c-6.93,0-11,2.67-13.3,9V21.7H386v43"/><path
      class="cvs-1"
      d="M419.83,64.69H436.6V41.62c0-5,2-7.61,5.8-7.61,4.35,0,6,2.51,6,8.26V64.69h16.69V41.86c0-5.34,1.84-7.85,6-7.85s5.72,2.44,5.72,7.69v23H493.6V35.38c0-9.38-5.8-14.89-15.89-14.89-6.29,0-11,2.42-15.16,7.53-3.23-5.19-7.1-7.45-12.73-7.45-6.06,0-10.73,2.34-14.52,7.45V21.7H419.83v43"/><path
      class="cvs-1"
      d="M526.72,64.69h17.1V63.48A4.23,4.23,0,0,1,542,59.83v-24c0-5.75-1-9-5.47-12.06-2.91-1.94-8.87-3.64-16.69-3.64-15,0-22.74,5-22.9,14.65h16.6c.32-2.91,2.19-4.28,5.74-4.28,4.1,0,6.12,1.05,6.12,3.56,0,4-3.53,3.56-11.77,4.61C500.93,40.32,495,43,495,52.55c0,8.66,5.41,13.68,15.16,13.68,6.29,0,11.22-1.78,15.56-5.67l1,4.13M525.2,45.5a20.64,20.64,0,0,1,.08,2.18c0,5.67-2.42,8.27-8.14,8.27-3.15,0-4.84-1.46-4.84-3.89,0-4.12,5-3.56,12.9-6.55"/><path
      class="cvs-1"
      d="M574.17,47.93c-.4,4.21-2.66,6.4-6.6,6.4-4.93,0-7-3.56-7-11.17s2.18-11.09,7.18-11.09c3.95,0,6,1.94,6.29,6h17c-.4-10.77-9.27-17.89-23.22-17.89-15.15,0-24.42,8.74-24.42,23,0,14.09,9.28,23.07,24.58,23.07,13.8,0,22.51-7,23.23-18.3h-17"/><path class="cvs-1" d="M592.67,81.61c3.71.23,6.61.32,8.63.32,6,0,10.15-.24,13.46-3.56,2.58-2.51,4.2-7.28,6.38-13.92L635,21.7H619l-7.26,26.06L604.2,21.7H586.94L601.29,61a13.17,13.17,0,0,1,.88,4.21c0,2.67-1.53,3.65-4.67,3.65h-4.84V81.61"/><polygon class="cvs-1" points="233.72 0 242.32 2.97 213.82 86.11 205.22 83.13 233.72 0"/></g>
  </g>
</svg>
