<svg xmlns="http://www.w3.org/2000/svg" viewBox="0 0 2019 407">
  <defs>
    <style>
      .providence-1 {
        fill: #234b88;
      }
      .providence-2 {
        fill: #254c88;
      }
      .providence-3 {
        fill: #e89a42;
      }
    </style>
  </defs>
  <title>Providence Health &amp; Services</title>
  <g id="Layer_2" data-name="Layer 2">
    <g id="Layer_1-2" data-name="Layer 1"><path
      class="providence-1"
      d="M101.14,227.08c0-7.92,0-15.85,0-24.08H0V101q49.87,0,99.75,0c.28,0,.56-.25,1.25-.59V0H203c.08,1.82.21,3.65.22,5.47q0,44.72,0,89.44c0,1.81,0,3.62,0,6.14l50.46,0H303a2,2,0,0,1,1.18,2.09q0,20.74,0,41.47a15,15,0,0,1-.26,2c-1.44.36-2.9.68-4.33,1.1-25.26,7.39-50.14,15.91-74.8,25.09q-51,19-100,42.81Z"/><path
      class="providence-2"
      d="M2019,243c-1.83-.08-3.65-.22-5.48-.22H1904.31V69H2019v36c-1.82.08-3.65.22-5.47.22q-28.22,0-56.43,0c-1.78,0-3.64-.43-5.54.55v31a4.36,4.36,0,0,0,.81.24l55.92.17a7,7,0,0,1,1.46.24c.14,0,.26.18.39.29s.24.23.33.31v33.83h-59v33.74c1.81.95,3.49.55,5.12.55q23.72.05,47.44,0c5,0,10-.14,15-.22Z"/><path
      class="providence-2"
      d="M890,407c-3.38-1.33-7-1.72-10.34-3.43-20.82-10.77-22.45-40-2.52-52.54,2.93-1.84,6-3.44,9.45-5.37-2-2.59-4-5-5.79-7.44a30.28,30.28,0,0,1-5.91-13c-2-12.2,3.63-22.1,15.27-26.24a32.89,32.89,0,0,1,19.12-.95c20.11,4.82,22.67,27.24,11.64,39.35a48.63,48.63,0,0,1-11.27,9l-3.79,2.24c1.88,4.48,19,22.8,27,28.88,7.1-7.07,12.06-15.61,16.49-24.63,3.76.34,6.63,2.3,10.1,3.41-3.94,11.35-10.79,20.28-18.31,29.26,6.67,5.69,12.08,13.61,22.89,10.94,1.52,2.33,1.78,5,2.64,7.91-14.26,5.65-24-2.37-33.76-10.94-3.41,2.23-6.67,4.42-10,6.53-5.5,3.49-11.81,4.94-17.87,7Zm3.78-53a30.65,30.65,0,0,0-13.1,9.7c-8.76,11.24-3.72,28,10,31.66A30.2,30.2,0,0,0,902,396a39.18,39.18,0,0,0,21.82-10.11C913.2,375.5,903.29,365,893.78,354Zm4.53-12.86A39.3,39.3,0,0,0,908.84,334c2.35-2.35,4.46-4.83,5.5-8.13,1.74-5.49.25-11.6-3.86-14.91-4.37-3.52-12.25-4.13-17.41-1.35-4.86,2.62-7,7.36-6.19,13.46a15.83,15.83,0,0,0,2.2,6A71.55,71.55,0,0,0,898.31,341.14Z"/><path
      class="providence-2"
      d="M604,407c-.51-1.67-2.2-1.18-3.29-1.62-9-3.61-15-10.58-15.06-22,0-10.95,4.77-17.95,14.67-22.26a38.23,38.23,0,0,1,15.55-3.09c5.15,0,10.31,0,15.68,0A21.4,21.4,0,0,0,629.76,344c-2.69-5.84-11.21-7.65-16.48-6.83-3.1.48-6.27.8-9.19,2.13a46.27,46.27,0,0,0-8.31,4.89,37.57,37.57,0,0,1-5-8.82,37.06,37.06,0,0,1,15.53-7.68,43.23,43.23,0,0,1,20.73-.36,21.27,21.27,0,0,1,16.79,18.27,69.45,69.45,0,0,1,.67,9.43c.16,13.32-.17,26.65.41,40,.14,3.3,1.45,6.52.69,10a35.56,35.56,0,0,1-10.78.2c-1.38-1.92-1.3-4.18-2.34-6.58C628.3,402.85,623,404.73,618,407Zm27.81-38h-12c-1,0-2-.05-3,0-4.15.28-8.23.93-11.95,2.95a12.83,12.83,0,0,0-6.83,13.26c.94,5.52,4.89,9.87,10.38,10.69,9.31,1.39,17.29-1.22,23.34-8.2Z"/><path
      class="providence-2"
      d="M1023,407c-.31-1.05-1.23-.89-2-1a47.19,47.19,0,0,1-18-7.48l5.39-9.32c1.92-.39,2.75.9,3.89,1.49,8.64,4.45,17.58,6.87,27.35,4.44,15.86-3.95,16.59-18.2,8.72-27.18-4.12-4.71-9.57-7.69-14.87-10.79-5.89-3.44-11.83-6.79-16.92-11.4-7.92-7.17-10.91-16.21-9.21-26.6,1.77-10.76,10.45-18.67,22-21,10.62-2.11,24.17.12,32.25,4.52.57,4,.28,8.07.15,12.2-2,.5-3.19-1-4.63-1.6-8.53-3.85-17.27-5.65-26.61-3.48-12,2.79-14.75,14.57-7.66,23.67,3,3.86,7,6.59,11.11,9.15,7.47,4.66,15.35,8.67,22.07,14.49,9.08,7.87,12.64,19.75,8.89,30.59-3.14,9.07-10,14.12-18.68,17.33-1.75.65-3.94.19-5.26,2Z"/><path
      class="providence-2"
      d="M539,407c-1.73-1.2-3.84-.86-5.74-1.46A31.61,31.61,0,0,1,512.93,387c-6.25-14.79-6.47-29.72.9-44.24,5-9.92,13.37-15.73,24.52-16.35,10.67-.6,19.63,3.4,25.54,12.63,5.75,9,7.25,19,6.79,30H522.22c-1.51,17.55,13.32,30.42,30.08,26.67a50.37,50.37,0,0,0,12.56-4.86c1.9,2.65,2.57,5.55,4,8.23-4.42,3.87-9.58,5.57-14.89,6.92-.75.19-1.72-.07-2,1.05Zm17.92-48.47c.55-12.63-7.47-22.08-17.89-21.55-10,.51-18,10.63-16.64,21.55Z"/><path
      class="providence-2"
      d="M1110,407c0-.91-.66-.89-1.3-1.06-12-3.09-19.51-11.1-23.45-22.43-4.29-12.31-4.4-24.78.59-37,4.79-11.76,13.28-19.17,26.15-20.09,10.72-.77,20.83,3.56,26.94,14.6,4.73,8.54,5.72,17.86,5.54,27.92H1096c-1,11.23,4.55,21.22,13.83,25.14,10,4.23,19.48,1.76,28.7-3.19,1.93,2.59,2.76,5.42,3.83,8.15-4,4-9.09,5.25-14,6.83-.86.28-2.08-.2-2.44,1.15Zm-13.81-48.53h34.59c.69-12-7.23-21.67-17.38-21.53C1103.06,337.09,1095.08,347,1096.19,358.47Z"/><path
      class="providence-2"
      d="M1422,407a.93.93,0,0,0-.8-1c-14.58-3.59-22.27-13.75-25.68-27.59a50.73,50.73,0,0,1,1.61-30.87c4.11-10.68,11.15-18.21,23-20.63a28.49,28.49,0,0,1,32.05,17c2.73,6.64,4.45,13.56,3.72,24.94h-48.52c-.33,20.15,16.76,35.78,43,22.24a4.61,4.61,0,0,1,1.62,2.42c.77,2,1.94,3.83,2.28,6.19-4.28,3.36-9.24,5.07-14.42,6.28-1.28.3-2.68.17-3.81,1Zm20.8-48.37a22.32,22.32,0,0,0-2.19-10.95c-3.64-8.5-11.66-12.48-19.79-10-8.42,2.55-14.49,12.35-12.87,21Z"/><path
      class="providence-2"
      d="M1485,407c-3.36-1.42-7.17-1.17-10.49-2.9a34,34,0,0,1-5.92-3.22l4.64-9.14c4.54,2.22,8.85,4.26,13.62,5,5.4.8,10.62.37,15.47-2.3,6.35-3.49,7.56-10.47,2.89-16a22.53,22.53,0,0,0-7.66-5.45c-4-2-8.11-3.83-12.07-5.91-6.36-3.35-10.62-8.33-12.06-15.59-2-10.27,2.95-19.55,12.86-23,10.88-3.8,21.49-2.42,31.91,2.06a45.8,45.8,0,0,1,.09,10.52c-4.51-1.08-8.52-3.14-12.93-3.72s-8.94-.91-13.3.67c-6.95,2.52-8.82,10.16-3.85,15.68a19.45,19.45,0,0,0,6.09,4.28c4.32,2.12,8.75,4,13,6.29,5.85,3.11,10.83,7.1,12.69,13.94,2.56,9.42-.15,21.88-13.81,26.79-1.72.62-3.94.16-5.17,2Z"/><path
      class="providence-2"
      d="M721,407c-.19-.25-.34-.65-.58-.72-8.1-2.41-11.19-8.43-11.29-16.24-.16-13.15,0-26.3,0-39.45V339.42c-4-1.12-8,0-12-.73-1.14-3.27-.4-6.52-.55-10.32h12.39V311.93a75.45,75.45,0,0,1,12.46-4.27v20.43h23.28c-.69,4.23-2.64,7.38-4.19,11h-18.3a4.62,4.62,0,0,0-.65,3.22q0,21.47,0,42.95c0,.83,0,1.66.08,2.49.55,6.91,4.34,9.64,11.14,8a36.76,36.76,0,0,0,9.25-3.95,29.29,29.29,0,0,1,4.1,8.58,34.88,34.88,0,0,1-8.85,4.72c-1.43.59-3.33.24-4.23,2Z"/><path
      class="providence-2"
      d="M1355,407c-3.56-1.3-7.4-1.69-10.83-3.5a32.53,32.53,0,0,1-15.93-17.84c-5.4-14.65-4.78-29.09,3.32-42.68,7.84-13.15,22.53-17.86,35.57-16.39,5.43.61,10.76,1.85,15.41,4.9v11.37c-5.25-2.58-10.21-4.77-15.8-5.23-16.53-1.36-27.52,7.84-28.93,24.37a44.38,44.38,0,0,0,.93,15.34c3.85,14.55,15.26,21.19,30.59,18.28,4.28-.81,8.09-2.84,12-4.74a48.72,48.72,0,0,1,3.85,8.5c-4.32,3.29-9.25,5.08-14.35,6.51-.71.2-1.75-.15-1.82,1.1Z"/><path
      class="providence-2"
      d="M676,407c.09-.91-.69-.91-1.23-1.2-4.7-2.53-6.82-6.51-6.79-11.83.06-11,0-22,0-33q0-32.7,0-65.41c0-1.63-.36-3.3.46-5.13H679.4c1.19,1.48.57,3.38.57,5.12q.07,45.19,0,90.37c0,2.85.14,5.63,1.43,8.07,2.52,2.67,5.64,1.82,8.79,1.8,1.06,2.63,1.14,5.42,1.69,7.85-1,2.33-3.85,1.44-4.89,3.31Z"/><path
      class="providence-3"
      d="M101.14,227.08l23.69-11.46q49-23.72,100-42.81c24.66-9.18,49.54-17.7,74.8-25.09,1.43-.42,2.88-.73,4.33-1.1q.07,26.24.13,52.49a8.09,8.09,0,0,1-.46,1.72H203.32V404.77H101.54c-.8-.68-.54-1.74-.54-2.71q0-86.75,0-173.5C101,228.08,101.09,227.58,101.14,227.08Z"/><path class="providence-2" d="M1699.63,242.55h-44.07l-79.85-105.61-.82.31v104.5c-3.68,1.22-40.83,1.52-47.32.47V69.36h47l76.91,102.32.79-.3v-102h47.16C1700.43,72.85,1700.63,237.11,1699.63,242.55Z"/><path
      class="providence-2"
      d="M1192.33,242.06V69.53a6.11,6.11,0,0,1,1.49-.42c21.83,0,43.66-.35,65.47.23,19.22.51,37.92,4.09,55.12,13.41,22.24,12,35.38,30.56,39.65,55.45,2.92,17,2,33.76-3.88,50.05-7.5,20.73-22.06,34.83-41.92,43.75-14.75,6.62-30.35,9.44-46.4,10.23-22.47,1.12-44.95.27-67.42.53A2.39,2.39,0,0,1,1192.33,242.06Zm47.77-35.8c9.79-.36,19.09.76,28.32-1.18,17.3-3.64,29.44-13.09,34.79-30.39a65.87,65.87,0,0,0,2-29c-2.82-20.17-16.18-34.63-36.06-38.82-8.55-1.8-17.16-1.62-25.79-1.61-1.1,0-2.36-.44-3.27.75Z"/><path class="providence-2" d="M1382.27,242.43V69.37h115.2v35.8H1430v31.75h58.66v34H1430v35.09h67.44c.6,12.3.24,24.16.22,36.37Z"/><path
      class="providence-3"
      d="M685.88,100.84c2.8,3.46,3.86,7.76,4.69,11.86,2.86,14.16,1.72,28-4.49,41.25a42.31,42.31,0,0,1-14.77,17.17c-.79.54-1.88.76-2.52,2.42l39.78,68.93H654.87L624.58,185.4H608.44c-.64,4.79-.23,9.57-.3,14.32s0,9.33,0,14q0,7.24,0,14.49c0,4.65,0,9.3,0,14.28H560.62c-.9-.74-.6-1.81-.61-2.76q0-68,0-135.9c0-.66.1-1.32.16-2,9.69-1.31,19.47-.88,29.2-1.56,10.08-.71,20.24-.44,30.37-.44C641.79,99.81,663.85,99.57,685.88,100.84ZM608,151c6,0,11.53.49,16.93-.11,9.09-1,15.78-5.58,18.62-14.8a26.84,26.84,0,0,0-.76-18.45c-3.24-7.94-9.41-12.24-18-12.7-4.15-.22-8.32-.12-12.48-.05-1.42,0-3-.56-4.45,1,0,13.75,0,27.72,0,41.69C607.83,148.49,607.91,149.47,608,151Z"/><path
      class="providence-2"
      d="M1872.69,76.41v39.75c-5.7-2.74-11-5.52-16.56-7.57a83.27,83.27,0,0,0-29.2-5.54c-30.84.18-48.06,21-50.15,46.88-1,12.2.57,23.86,6.34,34.72,8.1,15.23,21.25,22.91,38.12,24.37a72.52,72.52,0,0,0,36.49-6,56.65,56.65,0,0,0,10.92-6.43l13.53,31.73c-2.73,3.25-6.57,4.68-10.08,6.35-20,9.54-41.16,12.78-63.07,11.06-15.75-1.23-30.66-5.57-44.13-14.16a76.8,76.8,0,0,1-32.21-40.66c-8-23.08-8.21-46.36.06-69.37,9.31-25.91,27.85-42.44,54-50.48a112.59,112.59,0,0,1,42.34-4.36,153.33,153.33,0,0,1,39.85,8.21C1870.15,75.35,1871.35,75.87,1872.69,76.41Z"/><path
      class="providence-3"
      d="M892.11,128.89c2.49,5.32,3.16,11.14,3.62,16.81,1.93,24.21-2.56,47-17.24,66.9-11.78,16-27.88,25.64-47,30.41a113.43,113.43,0,0,1-36.07,2.82c-18.49-1.39-35.74-6.54-50.6-18.31C731,216.64,722.22,202.6,717,186c-4.31-13.55-4.93-27.45-3.75-41.37A89.67,89.67,0,0,1,726.7,105a8.11,8.11,0,0,1,1.4-1.38c18,1.27,36,3.28,53.9,5.63-6.78,5.06-12.07,11.27-15.09,19.3-6.6,17.6-6.49,35.35-.79,53.05a39,39,0,0,0,13.34,19.4c5.25,4,11.17,6.16,17.69,7.28,19.84,3.39,38.06-6.12,44.94-25.13a80,80,0,0,0,4.21-35.14c-1-11-4.14-21-10.23-30.16a28,28,0,0,1,4,.26Q866.08,123.48,892.11,128.89Z"/><path
      class="providence-3"
      d="M532,103.84c3.2,5.39,4.22,11.49,4.77,17.5a62.46,62.46,0,0,1-4.35,30.2c-5.63,13.49-15.51,22.56-28.61,28.31a78.08,78.08,0,0,1-32.94,6.3c-5.63-.08-11.26,0-17.29,0-.83,5-.33,9.6-.42,14.18s0,9.32,0,14,0,9.32,0,14,0,9.28,0,14.23H405.6c-.81-.57-.72-1.44-.72-2.25q0-59.43.08-118.86l28.17-5,19.41-3.4c.62,10.94.09,21.89.3,32.84,0,1.59-.44,3.28.64,5.08,5.56,0,11.22.44,16.79-.09,11.63-1.11,20.43-11.89,19.56-23.51-.52-6.95-2.79-13.21-7.92-18.19,4.26-.41,8.52-.95,12.76-1.48C507.08,106.14,519.51,104.83,532,103.84Z"/><path class="providence-2" d="M1106.53,200.88c-.1-1.49-.29-3-.29-4.46q0-61.23,0-122.47c0-1.46,0-2.93,0-4.62h48c1,1,.65,2.06.65,3q0,74.23,0,148.46c0,.83-.09,1.66-.14,2.49a13.4,13.4,0,0,1-4.62-1.77C1135.78,214.31,1121.19,207.51,1106.53,200.88Z"/><path
      class="providence-3"
      d="M1041,174c-3.18,7.27-6.3,14.57-9.55,21.8q-9.58,21.31-19.28,42.56c-.61,1.35-1.31,2.66-2.07,4.2h-41c-1.15-.58-1.61-1.81-2.12-3.05-10-24.33-20.18-48.61-30.12-73-4-9.79-8.52-19.37-11.9-29.4,18.44,4.65,36.69,10,54.83,15.67,3.24,5.79,4.78,12.24,7.21,18.34,1.82,4.56,3.52,9.16,5.52,14.4,4.8-8.26,6.66-17.13,11.15-24.79C1016.34,164.68,1028.73,169.21,1041,174Z"/><path
      class="providence-2"
      d="M782,109.3c-17.92-2.35-35.87-4.36-53.9-5.63,4.28-8.13,10.83-14.22,18-19.62,13.94-10.46,29.81-15.56,47.09-17.14,14.75-1.36,29.19-.34,43.33,4,27.89,8.51,45.73,27.26,55,54.6a22.59,22.59,0,0,1,.61,3.41q-26-5.37-52.09-10.72a28,28,0,0,0-4-.26,15.13,15.13,0,0,1-1.47-1.31c-7-8-15.79-12.13-26.38-12.85A46.3,46.3,0,0,0,782,109.3Z"/><path
      class="providence-2"
      d="M532,103.84c-12.47,1-24.89,2.3-37.31,3.85-4.24.53-8.5,1.06-12.76,1.48-8.85-6.44-18.92-3.93-28.89-4.36l-.48,8.23-19.41,3.4-28.17,5q-.06-25.47-.1-50.94a2.72,2.72,0,0,1,.38-.9c1-.81,2.22-.45,3.34-.45,20.65,0,41.3-.12,62,0A85,85,0,0,1,502.16,75c13,5.26,23,13.75,29.17,26.52A4.65,4.65,0,0,1,532,103.84Z"/><path class="providence-2" d="M1041,174c-12.31-4.76-24.69-9.29-37.28-13.25.15-2.92,1.76-5.34,2.82-7.94q16.47-40.3,33-80.56c.37-.91.81-1.79,1.31-2.88h46.84c.88,1.48-.22,2.56-.73,3.69q-18.22,40.38-36.53,80.73C1047.41,160.53,1044.69,167.47,1041,174Z"/><path
      class="providence-2"
      d="M979.88,152.76c-18.15-5.68-36.39-11-54.83-15.67-4.62-9.37-8.15-19.2-12.21-28.81-5.09-12.07-10-24.19-15.06-36.29a3.2,3.2,0,0,1-.42-2.64h51.47c2.51,4.36,3.91,9.49,5.76,14.38,8.33,22,16.46,44.1,24.7,66.14A6.08,6.08,0,0,1,979.88,152.76Z"/><path class="providence-2" d="M417,357.11v48c-4.12.76-8,.5-12.22.19V298.7c2-.84,4-.38,6-.46s3.64,0,6.07,0c.37,5.22.11,10.32.16,15.4s0,10.33,0,15.5v15.77h57.9V298.48h11.76c1.07,3.52,1.55,95.37.54,106.49-3.81,1.11-7.73.3-12,.56V357.11Z"/><path
      class="providence-2"
      d="M685.88,100.84c-22-1.27-44.09-1-66.15-1-10.13,0-20.28-.27-30.37.44-9.73.69-19.51.25-29.2,1.56V69.67c1.36-.87,2.55-.57,3.67-.57,20.5,0,41-.11,61.49,0,11.2.07,22.21,1.74,32.62,6.07C669.67,80.07,679,87.77,685.24,99A11.38,11.38,0,0,1,685.88,100.84Z"/><path
      class="providence-2"
      d="M819.58,405.09H808.64c-1.08-1.48-.61-3-.62-4.47q-.06-21.5,0-43A26.81,26.81,0,0,0,805.72,346c-2.93-6.22-9.48-9.06-16.23-7.43-7.27,1.76-12.58,6.51-18.28,11.51V405H759.27V290.48h11.84v45.45c2.35.09,3.41-1.38,4.73-2.25,5.31-3.54,10.85-6.31,17.36-7,12-1.29,19.9,4.49,23.63,12a27,27,0,0,1,3.13,12q0,26.5,0,53A8.11,8.11,0,0,1,819.58,405.09Z"/><path class="providence-2" d="M1209.68,328.6c4.51-.71,8.45-.2,12.72-.41l21.9,61.32,24.37-61a53.32,53.32,0,0,1,11.87-.05c-10.57,26.1-21.2,51.72-31.78,77.3h-9.88Z"/><path class="providence-3" d="M1106.53,200.88c14.66,6.63,29.24,13.43,43.62,20.65a13.4,13.4,0,0,0,4.62,1.77v19.19h-47.56a2.69,2.69,0,0,1-1-2.3q0-18.93,0-37.87A6.9,6.9,0,0,1,1106.53,200.88Z"/><path class="providence-2" d="M1164,328.47h9.55c1.72,2.39,1,5.21,1.64,8.1,4.16-2.79,7.67-6.32,12.23-8.2s9.16-2.93,14.4-.87c.69,4,.44,8.18.08,13.05-10.49-3.11-18.71.51-26.07,8.23V405H1164Z"/><path class="providence-1" d="M1305.78,405h-11.55V328.49h11.55Z"/><path class="providence-2" d="M1299.27,296c5-.06,9.26,3.84,9.15,8.44a8.74,8.74,0,0,1-8.67,8.48,8.83,8.83,0,0,1-8.52-8.62A8.07,8.07,0,0,1,1299.27,296Z"/></g>
  </g>
</svg>
