<svg xmlns="http://www.w3.org/2000/svg" viewBox="0 0 179.68 45.4">
  <defs>
    <style>
      .ascension-1 {
        fill: #a72287;
      }
      .ascension-2 {
        fill: #00ab91;
      }
      .ascension-3 {
        fill: #1d4499;
      }
    </style>
  </defs>
  <title>Ascension Health</title>
  <g id="Layer_2" data-name="Layer 2">
    <g id="Layer_1-2" data-name="Layer 1"><path class="ascension-1" d="M17.7,23c-.1-1-.2-2-.2-3A23.38,23.38,0,0,1,25,2.8V.1A25.26,25.26,0,0,0,15.5,20a24.33,24.33,0,0,0,.3,3.8,10.84,10.84,0,0,1,1.9-.8"/><path class="ascension-2" d="M23.4,38.5A22.77,22.77,0,0,1,9.2,43.3a27.4,27.4,0,0,1-6.9-1L0,43.7H.1a26.18,26.18,0,0,0,9.1,1.7A25.3,25.3,0,0,0,25,39.9c-.5-.5-1.1-.9-1.6-1.4"/><path class="ascension-1" d="M40.9,43.3A23.48,23.48,0,0,1,18.8,27.5q-.6,1.5-1.2,2.7A25.35,25.35,0,0,0,40.9,45.3a25,25,0,0,0,9.4-1.8h.1L48,42.2a24.47,24.47,0,0,1-7.1,1.1"/><path class="ascension-2" d="M32.6,20a23.16,23.16,0,0,1-7.5,17.1c.5.5,1.1.9,1.6,1.4A25.41,25.41,0,0,0,25.1.1L25,0V2.8A22.79,22.79,0,0,1,32.6,20"/><path
      class="ascension-3"
      d="M47.2,15.6c2.8,2.1,3.7,3.7,3.7,5.9a4.85,4.85,0,0,1-2.2,4.1,7,7,0,0,1-3.7,1,7.79,7.79,0,0,1-3.3-.6c-.5-.2-.6-.4-.6-1,0-1,.1-2,.1-2.4v-.2c0-.7.3-.8.5-.8s.5.4.5.5a2.92,2.92,0,0,0,.2.9,3,3,0,0,0,3,2.2,2.61,2.61,0,0,0,2.8-2.4c0-.9-.3-1.9-2.1-3.3l-1-.8c-2.4-1.8-3.4-3.5-3.4-5.4,0-2.6,2.2-4.4,5.4-4.4a10.27,10.27,0,0,1,3,.4c.4.1.5.3.5.5s0,.5-.1,2.3c0,.3,0,.9-.5.9-.3,0-.4-.3-.4-.5v-.1a1.75,1.75,0,0,0-.5-1,2.71,2.71,0,0,0-2.3-1.1,2.19,2.19,0,0,0-2.4,2.1c0,.9.5,1.6,2.3,3l.5.2m73.3,0-.6-.5c-1.8-1.3-2.3-2-2.3-3A2.19,2.19,0,0,1,120,10a3,3,0,0,1,2.3,1.1,1.75,1.75,0,0,1,.5,1c0,.2.1.5.4.5s.5-.6.5-.9c.1-1.8.1-2,.1-2.3s-.1-.4-.5-.5a10.27,10.27,0,0,0-3-.4c-3.2,0-5.4,1.8-5.4,4.4,0,2,1,3.6,3.4,5.4l1,.8c1.9,1.4,2.1,2.4,2.1,3.3a2.68,2.68,0,0,1-2.8,2.4,3.11,3.11,0,0,1-3-2.2c-.1-.4-.1-.5-.2-.9a.54.54,0,0,0-.5-.5c-.2,0-.4.1-.5.8v.2c0,.4-.1,1.4-.1,2.4,0,.6.1.8.6,1a7.79,7.79,0,0,0,3.3.6,6.2,6.2,0,0,0,3.7-1,4.74,4.74,0,0,0,2.2-4.1c.1-1.9-.9-3.4-3.6-5.5m-50,6.2c-.4,0-.4.3-.5.5v.1a3,3,0,0,1-.6,1.1c-.8.9-1.9,1.3-3.8,1.3-2.8,0-6.7-2.7-6.7-7.7,0-2.5.6-4.3,1.9-5.5a5.45,5.45,0,0,1,4-1.4,6.62,6.62,0,0,1,4.3,1.4,2.78,2.78,0,0,1,.8,1.5c0,.2.1.6.5.6s.5-.4.5-.7V9.7c0-.2-.1-.4-.5-.5L70,9.1c-.5-.1-1-.2-1.7-.3a27.26,27.26,0,0,0-3.2-.2A10.27,10.27,0,0,0,57.9,11a8.61,8.61,0,0,0-2.7,6.2A8.66,8.66,0,0,0,58,23.9c1.9,1.7,4.4,2.5,7.8,2.5a13.18,13.18,0,0,0,4.1-.5c.5-.2.6-.3.7-.7a21.06,21.06,0,0,0,.5-2.8c-.1-.6-.4-.6-.6-.6m16.4,1.1c-.2,0-.4.1-.5.5a1.23,1.23,0,0,1-.8,1.1,5.29,5.29,0,0,1-2,.2c-2.3,0-2.9-.3-2.9-1.6V17.9c.8,0,3.2,0,3.5.1.8.1,1.3.3,1.4.5s.3.5.5.5.4-.1.4-.7V16.1a.46.46,0,0,0-.4-.5c-.2,0-.3.1-.4.3s-.1.1-.1.2-.6.2-1,.2H80.7V10.7h4c1.1.1,1.2.4,1.3.6a1.09,1.09,0,0,1,.1.5c0,.2.2.5.4.5s.4,0,.4-.4V9.6c0-.4-.2-.5-.4-.5H76.2c-.5,0-.8.2-.8.4s.2.5.6.5a4.33,4.33,0,0,1,.5.1c.6.2.7.3.7,1v8.6c0,2,0,3.8-.1,4.7-.1.6-.2.9-.4,1a.75.75,0,0,1-.5.1c-.2,0-.6.1-.6.4,0,.1.1.5.7.5h9.2c.9,0,1.2,0,1.5-.8a13.8,13.8,0,0,0,.3-2c.1-.4-.1-.7-.4-.7M109.2,9.1h-3.7c-.3,0-.8,0-.8.5s.4.5.6.5a.9.9,0,0,1,.5.1c.4.2.6.5.6,1.7l.2,9.3c-.6-.7-2.3-2.3-4.2-4.2-3.3-3.3-7.3-7.4-7.5-7.5l-.2-.2c-.3-.3-.5-.5-.8-.5-.6,0-.6.8-.6,1l-.1,13.1c0,1.8-.1,2.4-.5,2.5a1.34,1.34,0,0,1-.5.1c-.5,0-.6.3-.6.4,0,.5.5.5.8.5h3.8c.5,0,.8-.2.8-.5s-.1-.4-.7-.4a1.75,1.75,0,0,1-.5-.1c-.3-.2-.5-.9-.6-2.2L95,14.6c.9,1,10.7,10.7,11.5,11.5.3.3.6.6.9.6s.7-.3.7-1l.1-13.9c0-1.3.1-1.5.5-1.6.2,0,.2,0,.3-.1s.6-.1.6-.5c.3-.5-.2-.5-.4-.5m69.9,0h-3.7c-.3,0-.8,0-.8.5s.4.5.6.5a.9.9,0,0,1,.5.1c.4.2.6.5.6,1.7l.2,9.3c-.6-.6-2.2-2.2-3.9-4-3.4-3.4-7.6-7.6-7.7-7.8l-.2-.2c-.3-.3-.5-.5-.8-.5-.6,0-.6.8-.6,1l-.1,13.1c0,1.8-.1,2.4-.5,2.5a1.34,1.34,0,0,1-.5.1c-.5,0-.6.3-.6.4,0,.5.5.5.8.5h3.8c.5,0,.8-.2.8-.5s-.1-.4-.7-.4a1.75,1.75,0,0,1-.5-.1c-.3-.2-.5-.9-.6-2.2l-.2-8.6c.9,1,10.7,10.7,11.5,11.5.3.3.6.6.9.6s.7-.3.7-1l.1-13.9c0-1.3.1-1.5.5-1.6.2,0,.2,0,.3-.1s.6-.1.6-.5c.3-.4-.3-.4-.5-.4M135.4,25.4h-.5c-.5-.1-.6-.3-.6-.8-.1-.9-.1-2.6-.1-4.8V11.2c0-.8.2-.9.6-1h.4c.5,0,.6-.3.6-.5s-.2-.5-.7-.5h-5.3c-.2,0-.8,0-.8.5,0,.2.1.5.6.5a2,2,0,0,1,.7.1c.3.1.5.3.5,1v8.6c0,2.2,0,3.9-.1,4.8-.1.6-.2.8-.5.9a1.27,1.27,0,0,1-.6.1c-.5,0-.6.3-.6.5s.1.5.7.5h5.6c.7,0,.7-.4.7-.5,0-.5-.1-.8-.6-.8M149.1,8.6c-6.4,0-9.4,4.6-9.4,8.9s2.9,8.9,9.2,8.9c5.5,0,9.4-3.8,9.4-9.3,0-5.2-3.6-8.5-9.2-8.5m.7,16.4c-3.8,0-6.5-3.4-6.5-8.2,0-5.9,3.2-6.8,5.2-6.8,3.6,0,6.2,3.3,6.2,7.9-.1,6.4-3.5,7.1-4.9,7.1M20.1,24.5a22.2,22.2,0,0,1,5.1-.6c1.1,0,2.2.1,3.2.2.7,1.8,1.5,3.5,2.2,5.2a23.44,23.44,0,0,0,1.8-6.4c-.1,0-.2-.1-.4-.1-2.3-5-4.8-10.7-6.1-13.5q-.45-.9-.9-.9t-.9.9c-1,2.2-3.6,8.1-5.9,13.5A25.83,25.83,0,0,0,0,43.6v.1l2.4-1.4A23.18,23.18,0,0,1,17.1,25.5c-1.8,4.2-3.3,7.6-3.3,7.7-.8,1.9-1.5,3.2-3.3,3.4H9.9a.56.56,0,0,0-.5.6c0,.2.1.5.8.5H17q.9,0,.9-.6c0-.2-.1-.6-.9-.6-1.2,0-1.2-.6-1.2-1.1a6.74,6.74,0,0,1,.5-2.3c.1.1,1.9-4.1,3.8-8.6m3.8-9.1c.2-.5.4-.6.4-.6s.2.1.4.5c.6,1.3,1.6,3.8,2.8,6.6a17.7,17.7,0,0,0-2.3-.1,18.4,18.4,0,0,0-4.1.4c1.2-2.8,2.3-5.4,2.8-6.8M50.4,43.5A25.88,25.88,0,0,0,34.5,23.6a15.52,15.52,0,0,1-.4,2.1,23.4,23.4,0,0,1,14,16.5Zm-9.7-6.9a4.53,4.53,0,0,1-.8-.1c-.8-.2-2.1-.8-3.6-4.2-.3-.7-1.3-2.9-2.5-5.6A26.58,26.58,0,0,1,31.7,32c1,2.4,1.7,4,1.7,4.1v.2a.92.92,0,0,1-.6.4c-.2,0-.9.1-.9.6s.5.6,1.1.6h7.6c.6,0,.7-.4.7-.6.1-.4-.2-.6-.6-.7"/></g>
  </g>
</svg>
