<?xml version="1.0" encoding="utf-8"?>
<!-- Generator: Adobe Illustrator 19.1.0, SVG Export Plug-In . SVG Version: 6.00 Build 0)  -->
<!DOCTYPE svg PUBLIC "-//W3C//DTD SVG 1.1//EN" "http://www.w3.org/Graphics/SVG/1.1/DTD/svg11.dtd">
<svg version="1.1" id="Layer_1" xmlns="http://www.w3.org/2000/svg" xmlns:xlink="http://www.w3.org/1999/xlink" x="0px" y="0px"
	 viewBox="-968 969.2 62.8 62.8" style="enable-background:new -968 969.2 62.8 62.8;" xml:space="preserve">
<style type="text/css">
	.st0{fill:#005DA9;}
</style>
<g id="Layer_1_1_">
	<path class="st0" d="M-924.2,970.3h-25.4L-967,988v24.9l17.6,18.1h25.5l17.5-18.3v-24.8L-924.2,970.3z M-907.5,1012.2
		L-907.5,1012.2l-16.8,17.6h-24.5l-17-17.5v-23.7l16.5-17h24.7l17,16.8L-907.5,1012.2L-907.5,1012.2z"/>
	<path class="st0" d="M-924.8,972.2h-24.1l-16.1,16.6v23.2l16.6,17.1h23.9l16.4-17.2v-23.3L-924.8,972.2z M-916.4,1015.8h-40.4
		v-30.4h40.4V1015.8z"/>
	<path class="st0" d="M-933.8,995.4c-1.4-0.6-3.2-0.6-3.2-0.6v10.9c0,0,1.9,0.2,3.5-0.6c1.4-0.7,2.7-2.3,2.7-4.8
		C-930.8,997.7-932.3,996-933.8,995.4z"/>
	<polygon class="st0" points="-948.9,1003.6 -945.5,1003.6 -947.2,1000 	"/>
	<g>
		<path class="st0" d="M-918.9,997c0-0.2-0.2-0.2-0.4-0.2h-0.3v0.5h0.3C-919.1,997.2-918.9,997.2-918.9,997z"/>
		<path class="st0" d="M-919.3,998.5c0.6,0,1.1-0.5,1.1-1.2s-0.5-1.2-1.1-1.2s-1.2,0.5-1.2,1.2S-920,998.5-919.3,998.5z
			 M-919.9,996.5h0.6c0.4,0,0.6,0.1,0.6,0.5c0,0.3-0.2,0.4-0.4,0.4l0.5,0.7h-0.3l-0.4-0.7h-0.3v0.7h-0.2L-919.9,996.5L-919.9,996.5z
			"/>
		<path class="st0" d="M-917.1,990.9V986h-39.1v23.3l9.3-18.4l9.2,18.7h-4.8l-1.1-2.4h-7.1l-1.2,2.4h-4.3v5.4h39.1v-20h-4.4v14.8
			h-4.1V995h-5.5v-4.1H-917.1z M-919.3,995.9c0.8,0,1.4,0.6,1.4,1.4c0,0.8-0.7,1.4-1.4,1.4c-0.8,0-1.4-0.6-1.4-1.4
			C-920.8,996.5-920.1,995.9-919.3,995.9z M-927.8,995.7c0,0,1.1,1.5,1.1,4.7c0,8-7.4,9.3-7.4,9.3h-2.7l-4.2-8.6v-10.3h5.4
			c0.8,0,1.5,0.1,1.9,0.2c1.5,0.4,2,0.8,2,0.8v3.9L-927.8,995.7z"/>
	</g>
</g>
</svg>
