<svg xmlns="http://www.w3.org/2000/svg" viewBox="0 0 1747.17 406.74"{% if include.width %} width="{{include.width}}"{% endif %}{% if include.height %} height="{{include.height}}"{% endif %}>
  <title>Adaptiva</title>
  <g id="Layer_2" data-name="Layer 2">
    <g id="Layer_1-2" data-name="Layer 1"><path
      class="logo-1"
      d="M551.39,312.5a185,185,0,0,1-2.48-31h-.83c-14.06,24.39-34.72,36-67,36-32.66,0-67.38-16.12-67.38-56.63,0-58.29,68.2-64.07,105.82-64.07H548.5V185.18c0-33.07-23.15-46.29-53.74-46.29-22.32,0-41.33,7-58.28,21.49l-14.47-17c18.19-17.36,47.95-26.87,72.75-26.87,46.3,0,76.06,20.67,76.06,69V232.3c0,37.21.83,58.28,3.72,80.19Zm-2.89-95.9H521.22c-41.34,0-82.67,10.33-82.67,43,0,23.56,22.74,35.55,43.4,35.55,52.91,0,66.55-33.9,66.55-65.72V216.6Zm224.45,95.9V279h-.83c-15.29,26.46-47.95,38.44-76.47,38.44C637,317.45,595.2,275.29,595.2,217S637,116.57,695.65,116.57c28.52,0,61.18,12,76.47,38.44h.83V0h24.8V312.5Zm-77.3-173.61C648.94,138.89,620,174,620,217s28.93,78.12,75.64,78.12c45.06,0,79.78-35.14,79.78-78.12s-34.72-78.12-79.78-78.12ZM956.47,312.5a184.86,184.86,0,0,1-2.48-31h-.83c-14.05,24.39-34.72,36-67,36-32.65,0-67.38-16.12-67.38-56.63,0-58.29,68.2-64.07,105.82-64.07h28.93V185.18c0-33.07-23.15-46.29-53.74-46.29-22.32,0-41.34,7-58.28,21.49l-14.47-17c18.19-17.36,47.95-26.87,72.75-26.87,46.3,0,76.06,20.67,76.06,69V232.3c0,37.21.83,58.28,3.72,80.19Zm-2.89-95.9H926.3c-41.34,0-82.67,10.33-82.67,43,0,23.56,22.73,35.55,43.4,35.55,52.91,0,66.55-33.9,66.55-65.72V216.6Zm154.18,100.86c-28.52,0-61.18-12-76.48-38.44h-.82V406.74h-24.8V121.53h24.8V155h.82c15.3-26.45,48-38.44,76.48-38.44,58.69,0,100.44,42.16,100.44,100.45s-41.75,100.44-100.44,100.44Zm0-178.57C1062.7,138.89,1028,174,1028,217s34.72,78.12,79.78,78.12c46.7,0,75.64-35.14,75.64-78.12s-28.94-78.12-75.64-78.12Zm190.14,156.25c9.51,0,19.43-2.89,28.11-6.61l2.07,22.32c-9.09,3.31-22.74,6.61-32.24,6.61-35.55,0-49.19-21.91-49.19-49.19V143.85H1205.3V121.53h41.34v-55h24.8v55H1326v22.32h-54.56V268.27c0,16.95,9.92,26.87,26.46,26.87Zm57.87-230.65a18.6,18.6,0,1,1,18.6-18.6,18.52,18.52,0,0,1-18.6,18.6Zm12.4,248h-24.8v-191h24.8v191Zm116.15,0h-25.63l-78.12-191h28.11l63.66,164.1,62-164.1h25.22l-75.23,191Zm212.46,0a184.87,184.87,0,0,1-2.48-31h-.83c-14.05,24.39-34.72,36-67,36-32.66,0-67.38-16.12-67.38-56.63,0-58.29,68.21-64.07,105.82-64.07h28.93V185.18c0-33.07-23.15-46.29-53.74-46.29-22.32,0-41.33,7-58.28,21.49l-14.47-17c18.19-17.36,47.95-26.87,72.75-26.87,46.3,0,76.06,20.67,76.06,69V232.3c0,37.21.82,58.28,3.72,80.19Zm-2.89-95.9h-27.28c-41.34,0-82.67,10.33-82.67,43,0,23.56,22.73,35.55,43.4,35.55,52.91,0,66.55-33.9,66.55-65.72V216.6Z"/><path class="logo-1" d="M1726.44,121.93v13.73H1725V121.93h-5.13v-1.27h11.65v1.27Zm19.33,13.73V122.44h0L1740,135.67h-.62l-5.8-13.22h0v13.22h-1.4v-15h2.1l5.47,12.59,5.47-12.59h2v15Z"/><polygon class="logo-2" points="312.82 10.09 312.82 101.83 219.27 101.83 312.82 10.09"/><polygon class="logo-2" points="121.87 198.77 312.82 198.77 312.82 127.45 194.21 127.45 121.87 198.77"/><polygon class="logo-2" points="0 319.14 312.82 319.14 312.82 224.39 95.59 224.39 0 319.14"/>
    </g>
  </g>
</svg>
