<svg xmlns="http://www.w3.org/2000/svg" viewBox="0 0 383.24 470.5" width="{{include.width}}">
  <defs>
    <style>
      .benefits-1 {
        fill: #9cbfe3;
      }
      .benefits-2 {
        fill: #3980c6;
      }
      .benefits-3 {
        fill: #41cdfc;
      }
      .benefits-4 {
        fill: #6ba0d4;
      }
    </style>
  </defs>
  <title>benefits</title>
  <g id="Layer_2" data-name="Layer 2">
    <g id="Medical"><path
      class="benefits-1"
      d="M117,470.5A77.16,77.16,0,0,1,40,393.42V254c0-83.62,68-151.65,151.65-151.65S343.27,170.4,343.27,254V430.71h-5V254c0-80.86-65.79-146.65-146.65-146.65S45,173.16,45,254v139.4a72.08,72.08,0,0,0,144.15,0V328.6h5v64.83A77.16,77.16,0,0,1,117,470.5Z"/><path
      class="benefits-2"
      d="M191.62,331.45h-27.3a71.18,71.18,0,0,1-71.09-71.1A60.34,60.34,0,0,0,75.43,217.4L20.82,162.8A70.63,70.63,0,0,1,0,112.53V83.39A71.18,71.18,0,0,1,71.09,12.3H98.4V22.66H71.09A60.81,60.81,0,0,0,10.36,83.39v29.13a60.34,60.34,0,0,0,17.79,42.95l54.61,54.61a70.63,70.63,0,0,1,20.82,50.27,60.81,60.81,0,0,0,60.74,60.74h27.3Z"/><path
      class="benefits-2"
      d="M218.92,331.45h-27.3V321.09h27.3a60.81,60.81,0,0,0,60.74-60.74,70.63,70.63,0,0,1,20.82-50.27l54.61-54.61a60.34,60.34,0,0,0,17.79-42.95V83.39a60.81,60.81,0,0,0-60.74-60.74h-27.3V12.3h27.3a71.18,71.18,0,0,1,71.1,71.09v29.13a70.63,70.63,0,0,1-20.82,50.27L307.81,217.4A60.34,60.34,0,0,0,290,260.35,71.18,71.18,0,0,1,218.92,331.45Z"/><path
      class="benefits-3"
      d="M351.43,151.81l-54.61,54.61a75.77,75.77,0,0,0-22.34,53.93,55.62,55.62,0,0,1-55.56,55.56H164.31a55.62,55.62,0,0,1-55.56-55.56,75.77,75.77,0,0,0-22.34-53.93L31.81,151.81,17.16,166.46l54.61,54.61A55.19,55.19,0,0,1,88,260.35a76.36,76.36,0,0,0,76.27,76.27h54.61a76.36,76.36,0,0,0,76.27-76.27,55.19,55.19,0,0,1,16.27-39.29l54.61-54.61Z"/><circle class="benefits-3" cx="98.4" cy="17.48" r="17.48"/><circle class="benefits-3" cx="279.01" cy="17.48" r="17.48"/><circle class="benefits-3" cx="340.77" cy="430.71" r="37.29"/><circle class="benefits-4" cx="340.77" cy="430.71" r="25.64"/><circle class="benefits-3" cx="340.77" cy="430.71" r="13.98"/></g>
  </g>
</svg>
