<svg xmlns="http://www.w3.org/2000/svg" xmlns:xlink="http://www.w3.org/1999/xlink" viewBox="0 0 253.03 271.36"{% if include.width %} width="{{include.width}}"{% endif %}{% if include.height %} height="{{include.height}}"{% endif %}>
  <defs>
    <style>
      .{% if include.random %}{{include.random}}{% endif %}_ch-1 {
        fill: url("#{% if include.random %}{{include.random}}{% endif %}_ch-gradient");
      }
      .{% if include.random %}{{include.random}}{% endif %}_ch-2 {
        fill: url("#{% if include.random %}{{include.random}}{% endif %}_ch-gradient-2");
      }
      .{% if include.random %}{{include.random}}{% endif %}_ch-3 {
        fill: url("#{% if include.random %}{{include.random}}{% endif %}_ch-gradient-3");
      }
      .{% if include.random %}{{include.random}}{% endif %}_ch-4 {
        fill: url("#{% if include.random %}{{include.random}}{% endif %}_ch-gradient-4");
      }
      .{% if include.random %}{{include.random}}{% endif %}_ch-5 {
        fill: url("#{% if include.random %}{{include.random}}{% endif %}_ch-gradient-5");
      }
      .{% if include.random %}{{include.random}}{% endif %}_ch-6 {
        fill: url("#{% if include.random %}{{include.random}}{% endif %}_ch-gradient-6");
      }
      .{% if include.random %}{{include.random}}{% endif %}_ch-7 {
        fill: url("#{% if include.random %}{{include.random}}{% endif %}_ch-gradient-7");
      }
      .{% if include.random %}{{include.random}}{% endif %}_ch-8 {
        fill: url("#{% if include.random %}{{include.random}}{% endif %}_ch-gradient-8");
      }
      .{% if include.random %}{{include.random}}{% endif %}_ch-9 {
        fill: url("#{% if include.random %}{{include.random}}{% endif %}_ch-gradient-11");
      }
      .{% if include.random %}{{include.random}}{% endif %}_ch-10 {
        fill: url("#{% if include.random %}{{include.random}}{% endif %}_ch-gradient-12");
      }
      .{% if include.random %}{{include.random}}{% endif %}_ch-11 {
        fill: url("#{% if include.random %}{{include.random}}{% endif %}_ch-gradient-13");
      }
      .{% if include.random %}{{include.random}}{% endif %}_ch-12 {
        fill: url("#{% if include.random %}{{include.random}}{% endif %}_ch-gradient-14");
      }
      .{% if include.random %}{{include.random}}{% endif %}_ch-13 {
        fill: url("#{% if include.random %}{{include.random}}{% endif %}_ch-gradient-15");
      }
      .{% if include.random %}{{include.random}}{% endif %}_ch-14 {
        fill: url("#{% if include.random %}{{include.random}}{% endif %}_ch-gradient-16");
      }
      .{% if include.random %}{{include.random}}{% endif %}_ch-15 {
        fill: url("#{% if include.random %}{{include.random}}{% endif %}_ch-gradient-22");
      }
      .{% if include.random %}{{include.random}}{% endif %}_ch-16 {
        fill: url("#{% if include.random %}{{include.random}}{% endif %}_ch-gradient-23");
      }
    </style>
    <linearGradient id="{% if include.random %}{{include.random}}{% endif %}_ch-gradient" x1="126.81" y1="68.9" x2="126.81" y2="202.46" gradientUnits="userSpaceOnUse"><stop offset="0" stop-color="#ed4e39"/><stop offset="1" stop-color="#ff902c"/></linearGradient><linearGradient id="{% if include.random %}{{include.random}}{% endif %}_ch-gradient-2" x1="212.28" y1="0.21" x2="-1.14" y2="213.63" xlink:href="#{% if include.random %}{{include.random}}{% endif %}_ch-gradient"/><linearGradient id="{% if include.random %}{{include.random}}{% endif %}_ch-gradient-3" x1="187.4" y1="-24.67" x2="-26.02" y2="188.75" xlink:href="#{% if include.random %}{{include.random}}{% endif %}_ch-gradient"/><linearGradient id="{% if include.random %}{{include.random}}{% endif %}_ch-gradient-4" x1="828.68" y1="-919.31" x2="615.26" y2="-705.89" gradientTransform="matrix(1, 0, 0, -1, 0, -31.76)" xlink:href="#{% if include.random %}{{include.random}}{% endif %}_ch-gradient"/><linearGradient id="{% if include.random %}{{include.random}}{% endif %}_ch-gradient-5" x1="803.8" y1="-944.19" x2="590.38" y2="-730.77" gradientTransform="matrix(1, 0, 0, -1, 0, -31.76)" xlink:href="#{% if include.random %}{{include.random}}{% endif %}_ch-gradient"/><linearGradient id="{% if include.random %}{{include.random}}{% endif %}_ch-gradient-6" x1="68.15" y1="-148.52" x2="68.15" y2="546.55" xlink:href="#{% if include.random %}{{include.random}}{% endif %}_ch-gradient"/><linearGradient id="{% if include.random %}{{include.random}}{% endif %}_ch-gradient-7" x1="90.66" y1="-148.52" x2="90.66" y2="546.55" xlink:href="#{% if include.random %}{{include.random}}{% endif %}_ch-gradient"/><linearGradient id="{% if include.random %}{{include.random}}{% endif %}_ch-gradient-8" x1="180.7" y1="-148.52" x2="180.7" y2="546.55" xlink:href="#{% if include.random %}{{include.random}}{% endif %}_ch-gradient"/><linearGradient id="{% if include.random %}{{include.random}}{% endif %}_ch-gradient-11" x1="135.68" y1="-148.52" x2="135.68" y2="546.55" xlink:href="#{% if include.random %}{{include.random}}{% endif %}_ch-gradient"/><linearGradient id="{% if include.random %}{{include.random}}{% endif %}_ch-gradient-12" x1="160.43" y1="-148.52" x2="160.43" y2="546.55" xlink:href="#{% if include.random %}{{include.random}}{% endif %}_ch-gradient"/><linearGradient id="{% if include.random %}{{include.random}}{% endif %}_ch-gradient-13" x1="111.54" y1="-148.52" x2="111.54" y2="546.55" xlink:href="#{% if include.random %}{{include.random}}{% endif %}_ch-gradient"/><linearGradient id="{% if include.random %}{{include.random}}{% endif %}_ch-gradient-14" x1="65.46" y1="-148.52" x2="65.46" y2="546.55" xlink:href="#{% if include.random %}{{include.random}}{% endif %}_ch-gradient"/><linearGradient id="{% if include.random %}{{include.random}}{% endif %}_ch-gradient-15" x1="29.59" y1="-148.52" x2="29.59" y2="546.55" xlink:href="#{% if include.random %}{{include.random}}{% endif %}_ch-gradient"/><linearGradient id="{% if include.random %}{{include.random}}{% endif %}_ch-gradient-16" x1="11.26" y1="-148.52" x2="11.26" y2="546.55" xlink:href="#{% if include.random %}{{include.random}}{% endif %}_ch-gradient"/><linearGradient id="{% if include.random %}{{include.random}}{% endif %}_ch-gradient-22" x1="205.8" y1="-148.52" x2="205.8" y2="546.55" xlink:href="#{% if include.random %}{{include.random}}{% endif %}_ch-gradient"/><linearGradient id="{% if include.random %}{{include.random}}{% endif %}_ch-gradient-23" x1="241.77" y1="-148.52" x2="241.77" y2="546.55" xlink:href="#{% if include.random %}{{include.random}}{% endif %}_ch-gradient"/></defs>
  <title>client-health</title>
  <g id="Layer_2" data-name="Layer 2">
    <g id="Layer_1-2" data-name="Layer 1"><path class="{% if include.random %}{{include.random}}{% endif %}_ch-1" d="M135.68,202.46A66.78,66.78,0,1,1,183.74,89.3l-2.8,2.7a62.9,62.9,0,1,0-45.26,106.57,63.11,63.11,0,0,0,46.2-20.21l2.85,2.64A67,67,0,0,1,135.68,202.46Z"/><polygon class="{% if include.random %}{{include.random}}{% endif %}_ch-2" points="67.37 137.46 5.29 110.3 89.07 89.06 110.04 9.31 161.94 9.31 182.03 88 241.02 63.28 242.53 66.86 179.38 93.32 158.92 13.2 113.04 13.2 92.25 92.26 17.23 111.28 68.93 133.9 67.37 137.46"/><polygon class="{% if include.random %}{{include.random}}{% endif %}_ch-3" points="67.37 137.46 8.75 111.82 28.52 62.51 87.05 87.04 61.56 25.56 135.68 65.93 204.87 28.19 206.73 31.6 135.68 70.36 69.37 34.24 94.26 94.28 30.66 67.63 13.76 109.77 68.93 133.9 67.37 137.46"/><polygon class="{% if include.random %}{{include.random}}{% endif %}_ch-4" points="161.94 262.05 110.04 262.05 89.07 182.3 5.29 161.06 67.37 133.9 68.93 137.46 17.23 160.07 92.25 179.1 113.04 258.16 158.92 258.16 179.38 178.04 242.53 204.5 241.02 208.08 182.03 183.36 161.94 262.05"/><polygon class="{% if include.random %}{{include.random}}{% endif %}_ch-5" points="61.56 245.8 87.05 184.32 28.52 208.84 8.75 159.54 67.37 133.9 68.93 137.46 13.76 161.59 30.66 203.73 94.26 177.08 69.37 237.12 135.68 201 206.73 239.76 204.87 243.17 135.68 205.43 61.56 245.8"/><circle class="{% if include.random %}{{include.random}}{% endif %}_ch-6" cx="68.15" cy="135.68" r="11.26"/><circle class="{% if include.random %}{{include.random}}{% endif %}_ch-7" cx="90.66" cy="90.66" r="11.26"/><circle class="{% if include.random %}{{include.random}}{% endif %}_ch-8" cx="180.7" cy="180.7" r="11.26"/><circle class="{% if include.random %}{{include.random}}{% endif %}_ch-7" cx="90.66" cy="180.7" r="11.26"/><circle class="{% if include.random %}{{include.random}}{% endif %}_ch-8" cx="180.7" cy="90.66" r="11.26"/><circle class="{% if include.random %}{{include.random}}{% endif %}_ch-9" cx="135.68" cy="68.15" r="11.26"/><circle class="{% if include.random %}{{include.random}}{% endif %}_ch-10" cx="160.43" cy="11.26" r="11.26"/><circle class="{% if include.random %}{{include.random}}{% endif %}_ch-11" cx="111.54" cy="11.26" r="11.26"/><circle class="{% if include.random %}{{include.random}}{% endif %}_ch-12" cx="65.46" cy="29.9" r="11.26"/><circle class="{% if include.random %}{{include.random}}{% endif %}_ch-13" cx="29.59" cy="65.07" r="11.26"/><circle class="{% if include.random %}{{include.random}}{% endif %}_ch-14" cx="11.26" cy="110.79" r="11.26"/><circle class="{% if include.random %}{{include.random}}{% endif %}_ch-14" cx="11.26" cy="160.39" r="11.26"/><circle class="{% if include.random %}{{include.random}}{% endif %}_ch-13" cx="29.59" cy="205.76" r="11.26"/><circle class="{% if include.random %}{{include.random}}{% endif %}_ch-12" cx="65.46" cy="241.46" r="11.26"/><circle class="{% if include.random %}{{include.random}}{% endif %}_ch-11" cx="111.54" cy="260.1" r="11.26"/><circle class="{% if include.random %}{{include.random}}{% endif %}_ch-10" cx="160.43" cy="260.1" r="11.26"/><circle class="{% if include.random %}{{include.random}}{% endif %}_ch-15" cx="205.8" cy="241.46" r="11.26"/><circle class="{% if include.random %}{{include.random}}{% endif %}_ch-16" cx="241.77" cy="205.76" r="11.26"/><circle class="{% if include.random %}{{include.random}}{% endif %}_ch-16" cx="241.77" cy="65.07" r="11.26"/><circle class="{% if include.random %}{{include.random}}{% endif %}_ch-15" cx="205.8" cy="29.9" r="11.26"/><circle class="{% if include.random %}{{include.random}}{% endif %}_ch-9" cx="135.68" cy="203.21" r="11.26"/></g>
  </g>
</svg>
