<svg xmlns="http://www.w3.org/2000/svg" viewBox="0 0 432 432.12" width="{{include.width}}">
  <defs>
    <style>
      .company-events-1 {
        fill: #cedff1;
      }
      .company-events-2 {
        fill: #41cdfc;
      }
      .company-events-3 {
        fill: #6ba0d4;
      }
      .company-events-4 {
        fill: #9cbfe3;
      }
    </style>
  </defs>
  <title>company-events</title>
  <g id="Layer_2" data-name="Layer 2">
    <g id="Events"><polygon class="company-events-1" points="351 432.12 9 432.12 9 90.12 423 90.12 423 360.12 351 432.12"/><rect class="company-events-2" y="27.12" width="432" height="63"/><path class="company-events-3" d="M64.57,52.77A26.84,26.84,0,1,1,98.86,27H86.92A14.91,14.91,0,1,0,67.8,41.28,6,6,0,0,1,72,47.09h0A5.87,5.87,0,0,1,64.57,52.77Z"/><path class="company-events-3" d="M352.54,52.77A26.84,26.84,0,1,1,386.83,27H374.89a14.91,14.91,0,1,0-19.12,14.3A6,6,0,0,1,360,47.09h0A5.87,5.87,0,0,1,352.54,52.77Z"/><path class="company-events-3" d="M208.5,52.91A27,27,0,1,1,243,27H231a15,15,0,1,0-19.22,14.37A6,6,0,0,1,216,47.2h0A5.9,5.9,0,0,1,208.5,52.91Z"/><polygon class="company-events-4" points="351 360.12 423 360.12 351 432.12 351 360.12"/><path
      class="company-events-2"
      d="M88,342.12c0-62.89,96.53-70.13,96.53-125,0-21.74-16-38.82-42.18-38.82-29,0-44,25.88-44,25.88l-8.28-5.69s16.3-31.05,52.53-31.05c35.71,0,53.57,23.81,53.57,49.69,0,61.85-96.27,69.61-96.27,124.22H199V351.7H88.8A62.21,62.21,0,0,1,88,342.12Z"/><path
      class="company-events-2"
      d="M240.2,321.68s12.42,22.26,41.92,22.26c28.21,0,50.21-20.19,50.21-47.36,0-27.43-22-47.88-50.21-47.88a63.61,63.61,0,0,0-35.2,10.87l-8.28-2.85L249,170.54H333.1V180.9H258.83L252.36,235a93.15,93.15,0,0,1-1.81,11.13h.52a61.5,61.5,0,0,1,31.05-8.28C316.8,237.83,344,264,344,296.57s-27.69,58.23-61.85,58.23c-35.2,0-51-26.14-51-26.14Z"/></g>
  </g>
</svg>
