<svg xmlns="http://www.w3.org/2000/svg" viewBox="0 0 432 504" width="{{include.width}}">
  <defs>
    <style>
      .compensation-1 {
        fill: #41cdfc;
      }
      .compensation-2 {
        fill: #3980c6;
      }
      .compensation-3 {
        fill: #cedff1;
      }
      .compensation-4 {
        fill: #6ba0d4;
      }
    </style>
  </defs>
  <title>compensation</title>
  <g id="Layer_2" data-name="Layer 2">
    <g id="Compensation"><rect class="compensation-1" y="216" width="432" height="288"/><polygon class="compensation-2" points="0 216 225 0 432 216 0 216"/><polygon class="compensation-2" points="432 216 0 504 432 504 432 216"/><path
      class="compensation-3"
      d="M235.17,138.39v31.23c9,.62,27.83,3.71,47,19.79l-20.71,33.08c-9.28-8.35-20.71-14.53-33.7-14.53-8.66,0-15.46,2.16-19.48,5.87a18,18,0,0,0-6.18,13c0,5.26,2.16,9,5.87,12.06,4.95,4.33,12.37,6.49,20.71,10.2L246,256.49c10.51,4.64,21,9.58,29.06,17.62,10.2,10.51,14.53,23.19,14.53,38,0,19.48-7.11,35.55-17,46.07-9,9.58-22,16.7-37.41,19.17v35.25H207.34v-34a86,86,0,0,1-37.1-10.2,103.17,103.17,0,0,1-27.83-21l22.88-34a107.93,107.93,0,0,0,20.1,16.08,52.59,52.59,0,0,0,28.75,8.35c6.8,0,14.53-1.24,20.71-6.49a19.81,19.81,0,0,0,7.42-15.77c0-7.42-3.4-12.68-9.28-16.7-4.95-3.4-10.2-4.95-21.33-9.28l-10.82-4.33c-10.82-4.33-22-9.58-31.23-18.86-9.58-9.89-13.91-20.1-13.91-34,0-18.24,6.8-34.94,17.62-45.76,8.35-8.35,20.71-14.84,34-17V138.39Z"/><polygon class="compensation-4" points="0 216 432 504 0 504 0 216"/></g>
  </g>
</svg>
