<svg xmlns="http://www.w3.org/2000/svg" xmlns:xlink="http://www.w3.org/1999/xlink" viewBox="0 0 1191.28 601">
  <defs>
    <style>
      .map-1 {
        fill: url("#linear-gradient");
      }
    </style>
    <linearGradient id="linear-gradient" x1="335.58" y1="724.07" x2="974.04" y2="85.61" gradientTransform="translate(0 -118.2)" gradientUnits="userSpaceOnUse"><stop offset="0" stop-color="#073971"/><stop offset="1" stop-color="#41cdfc"/></linearGradient>
  </defs>
  <title>map</title>
  <g id="Layer_2" data-name="Layer 2">
    <g id="Layer_1-2" data-name="Layer 1">
      <g id="Layer_2-2" data-name="Layer 2">
        <g id="Layer_1-2-2" data-name="Layer 1-2">
          <g id="_Group_" data-name=" Group "><path
            class="map-1"
            d="M1184.57,191.36a37.91,37.91,0,0,0-8.33-.87s-9.44-7.33-10.93-8.08-7.83-4.85-9.44-6.09a27.2,27.2,0,0,0-7.33-3.73,42.15,42.15,0,0,0-8.95-1.62h-10.44l-1.62,1.62s2.11,4.85,0,5.72-5.22-.75-5.22-.75l-5.22-4.47a13.27,13.27,0,0,0-3.11-.37c-1.62,0-7.83.37-7.83.37l-6.83.37-2.61,2.49s-5.72-2-5.72-4.47,1-4.85,0-6.09-4.72-2.86-4.72-2.86h-7.7a38,38,0,0,1-8.33,1.62l-4.72.37s1.62-3.23-.5-4.1l-4.1-1.62-3.11-4.1-4.72-2-6.21,1.24-6.21-3.23s-5.22-1.62-5.72-1.62-5.72.37-5.72.37l-7.33,3.23s2.11.37,1,2.86-1.74,4.1-1.74,4.1l-3.6-.37-6.83-.37-6.83.37a3.44,3.44,0,0,0-1.62-2.86l-1.62-.75s-2.11,8.95-4.22,8.95-4.72-2.86-5.22-4.1a25.62,25.62,0,0,1-1-8.2c0-3.6-4.22-10.56-8.33-10.56s-7.83-2.49-8.95-1.24-1.62,4.47-3.6,5.72-5.22,4.85-10.93.87a39.37,39.37,0,0,0-9.44-5.34l-5.22-.37-5.22-1.62-4.1-1.62-4.22.87-2.11.37L925.49,141c-2.61,1.62-4.1,3.6-7.33,3.6h-3.11s15.66-12.55,19.26-14.66,6.21-6.09,6.21-7.7.5-6.46-1.62-8.2a19.52,19.52,0,0,0-7.33-3.73c-3.11-.75-6.83-1.62-8.82-.75l-6.21,2.49s1.49-4.1.5-5.34a8.31,8.31,0,0,0-3.11-2l-1-2.49s.5-.37-1-2-5.22-2.49-5.22-2.49-4.72,3.73-7.33,6.09-3.73,4.47-3.11,5.72a8.35,8.35,0,0,1,.5,3s-3.11.37-4.72.37-2.61,2.49-2.61,2.49l-3.6.75a11.56,11.56,0,0,1-2.61-2.86,21.25,21.25,0,0,0-1.62-2.86v-4.1a10.81,10.81,0,0,1-3.73,2,20.91,20.91,0,0,0-4.22,2.49,3.94,3.94,0,0,1,.5,2,5.75,5.75,0,0,1-1.49,2.86L868,118.17c-2.86,1.62-5.84,3.11-8.82,4.47s-7.83,3.23-9.44,6.46-.5,9.82-.5,9.82-15.16.87-17.27,3.23l-2.11,2.49s.5,3.23,1,5.34,4.72,4.1,5.72,5.34a16,16,0,0,1,2.11,4.1V168l-2.61.37-1-4.85s1-3.73-.5-5.34a21.13,21.13,0,0,0-4.22-3.23,28.39,28.39,0,0,0-5.72-4.47L822,149.24l-4.22,2-2.61,2.49-3-6-2.11-.37s1,3.23,0,4.85-3.6,3.23-3.6,4.47a18.64,18.64,0,0,0,.5,7c1,4.1,0,9.32,0,10.56s1.49,1.62,3.11,1.62,2.11-.37,4.22.87a16.54,16.54,0,0,1,3.73,2.86s-5.22-2-7.33-.87a4.62,4.62,0,0,0-2.11,3.73s0,4.85-1.49,7.33-3.11,5.72-6.83,5.72a21.41,21.41,0,0,1-7.83-2s4.72-.87,6.21-1.24,5.22-4.47,5.72-6.46,1-3.23,0-5.72-1.62-13-1-15,0-2-1-4.85,4.72-7.7,3.11-10.19-5.72-4.47-5.72-4.47,1.12-2.86-.5-3.23a5.93,5.93,0,0,0-3.6.75L794,146.25a5.09,5.09,0,0,0-2.61,2.49,16.69,16.69,0,0,0-1.49,6.09c0,2.86-2.61,4.85-4.22,6.09a4.22,4.22,0,0,0-1.62,3.73c0,1.24-1,4.85.5,7a26.36,26.36,0,0,1,2.61,4.47,16.44,16.44,0,0,1,1,4.1c0,1.24-4.22.37-4.22.37s-4.22-2.49-6.83-4.1a22,22,0,0,0-7.33-2.86c-2.11-.37-6.83-3.23-6.83-3.23l-5.22-2.49-1.62.75s0,2.49,1.62,2.86,3.11,1.24,2.61,2.86a15.84,15.84,0,0,0,0,4.85s-4.22-3.23-5.22-2-4.72,1.24-4.72,1.24l-4.1-1.24-1.62,2-3.11,3.23-3.11-3.73s-8.33,2-9.94,4.1-7.83,2-8.33,4.47-4.22,4.1-4.22,4.1l-2.61-4.1L717,184s-3.11-3.73-4.72-3.73h-3.73a6.21,6.21,0,0,0-1,3.23c0,1.62,1.62,7.7,1,9.32s-4.22,1.62-4.22,1.62l-3.73.75a39.13,39.13,0,0,0-3.73,6.46c-.62,2-1,3.73-1,3.73L689,205l-4.22-1.62s-3.11,0-2.11,1.24a4,4,0,0,1,1,2.49l-1.62,1.62s-3.6,0-4.1-2.86,1.62-4.85-.5-7.33-5.72-7-5.72-7S687.41,197.32,690,197s9.44-4.1,9.94-5.34-4.22-7-5.72-7.7-7.83-4.85-12.05-7-4.1-3.73-7.83-3.73A37.44,37.44,0,0,1,666,172s-1-3.23-1.49-4.47-5.22-3.73-5.22-3.73a96.92,96.92,0,0,0-12.05-1.62c-3.6,0-5.22.75-8.33,2.86s-5.22,2.49-9.44,2.86a19.71,19.71,0,0,0-9.94,4.85c-1.12,1.24-7.33,2-8.33,4.47s-5.72,6.46-5.72,6.46l4.22,1.62,1.49,1.24s-3.11,9.82-5.72,11.43-3.6,6.09-5.22,7-1.62,2.86-3.6,3.23a23.88,23.88,0,0,0-5.22,2l-5.22,4.47s-4.72,2.86-5.22,4.85-1,14.29,0,17.15,2.11,4.47,4.72,4.85,2.61,0,6.21-1.62,6.21-2.86,6.21-2.86l2.11.37,2.61,4.47s1.12,3.73,1.62,6.46,4.22,7.33,6.21,6.09,2.11-2.49,2.11-2.49l4.72-2.86s2.11-2,2.11-3.73-1.12-4.47,0-5.72,1-.37,2.61-2,3.11-1.24,3.6-3.6.5-4.1-2.11-5.34-2.61-6.09-2.61-6.09,4.72-7.7,7.83-10.19a48,48,0,0,0,6.21-6.09v-3.73l3.6-3.73s3.73.37,5.22,1.62-2.11,6.46-2.11,6.46-3.11,3.23-4.22,4.47-3.11,4.1-3.11,4.1l-1,4.1s.5.37.5,3.23,0,5.72,1.49,6.46,3.73,2,3.73,2l4.72.37,5.22-2.49,6.83.87,3.11,1.24L654,232.86l-6.83.75a15,15,0,0,0-4.72.75,26.45,26.45,0,0,0-3.11,2s-2.11,0-.5,2a52.82,52.82,0,0,1,3.11,4.85l-4.22,1.24-3.11,2.49-1,4.85-3.73,3.73-1,2.86a2.82,2.82,0,0,1-3.6-.37,5.7,5.7,0,0,0-4.22-1.24,37,37,0,0,1-7.33,3.73,9,9,0,0,1-5.72-.37s-5.22-1.62-6.21-4.47-.5-7-1.12-8.57-1.12-2.86-2.61-2.86-4.72,2.86-4.72,2.86l-3.6,3.73,2.11,4.47.5,2.49-1,1.62a8.35,8.35,0,0,1-3.73,1.62c-1.62,0-6.83.87-6.83.87l-1.37,4.85-4.22,3.23-4.72,2a16.6,16.6,0,0,0-2.61,2.49c-1,1.24-.5,2.86-3.11,3.6a13.13,13.13,0,0,1-6.21,0l-3.11,1.62-6.83,2.86s2.61,4.1,4.22,4.85a31.67,31.67,0,0,1,3.6,1.62,5.24,5.24,0,0,1,3.11,4.47c.5,2.49,1.12,6.46-1.49,7.33a31.5,31.5,0,0,1-8.33.75s-9.44-1.24-11.43-.37a8.24,8.24,0,0,0-3.6,2.86,18.12,18.12,0,0,1,1.49,4.85c0,1.24,1,2.49-.5,4.47s-2.61,7.33-2.61,7.33a47,47,0,0,0,8.33,1.62c2.61,0,2.61,1.62,2.61,1.62l3.11,2,2.61-1.62s5.72-.87,6.83-.87,6.83-4.85,6.83-4.85l1-3.73a77.14,77.14,0,0,1,7.83-6.46,23.19,23.19,0,0,0,4.22-3.6l1-4.85,5.22,2.86,8.33-2.86,4.72-.37a122.69,122.69,0,0,0,9.94,8.08,21.78,21.78,0,0,0,6.21,2.86s4.22.75,4.72,4.1-4.22,4.85-4.22,4.85l-6.21.37,3.11,3.23,4.72.75,1.62-3.6,4.22-2.86a9.77,9.77,0,0,0,1-3.23c0-1.24,2.61-.37,2.61-.37h2.11v-2.49l-4.72-2s-4.22-2.49-5.72-3.23-1.62-1.24-3.73-3.23a12,12,0,0,0-5.22-2.86v-2l2.61-1.24s6.83,5.22,8.82,6.09a59.88,59.88,0,0,0,6.21,2l2.61.37,2.11,5.72,2.61,6.46,2.61,5.34,5.22,2.49,2.61,2.49a16.35,16.35,0,0,0,4.72,1.62c1.37,0,2.73-.25,4.22-.37l1.62-1.62,3.11-1.24,5.22-.37,3.11,1.24,2.61-2,6.21.37-.5,3.23,5.22,1.62,1.62-2.49,4.72-.37s2.11,4.1,1,5.34-8.33,7.33-8.33,7.33-13.54-.75-15.66.37-7.83,0-10.93-1.24-6.83-3.73-9.44-3.73-6.21,2.49-8.33,3.73-11.43,1.62-14.17,0-5.22-2.49-6.21-3.73a55.67,55.67,0,0,0-4.22-4.1l-3.6-.37-4.1-4.85a16,16,0,0,1-2.11-4.1l-2.11-.37s-16.15,1.24-17.77,1.24S567,324.32,567,324.32s-5.72,3.73-8.82,4.1-5.72,1.24-7.83,0a13.17,13.17,0,0,0-5.72-1.24s-3.11,5.34-6.83,7.33-2.61,4.85-4.22,7-3.11,7.33-5.72,7.7-6.83,4.47-9.44,7.33a44.55,44.55,0,0,0-7.83,14.29A46.7,46.7,0,0,0,509,387.07c.5,2.86,10.44,13.79,12.55,15.91s10.44,8.57,13.54,9.82S542.39,414,546,414h13.17s12.55-2.86,15.66-3.6a8.24,8.24,0,0,1,5.72.75l4.72,4.47a65.87,65.87,0,0,1,6.83,1.24c3.11.75,3.6,2,3.6,3.73a46.91,46.91,0,0,1-1.62,7,13.3,13.3,0,0,0,4.22,4.85c3.11,2.49,6.83,6.09,7.33,7.7s2.11,5.22,2.11,5.22l-.5,3.23,1.62,4.1a48.15,48.15,0,0,1-1.62,7.33c-.5,1.24-3.11,6.46-2.61,9.32s3.6,8.08,4.72,10.19a37.06,37.06,0,0,1,3.11,7.7c.5,2.49-.5,11.8,3.11,14.29s4.72,5.72,6.21,8.57.5,5.72,3.73,8.57,7.83,3.6,9.44,2.86,7.33-1.24,9.94-1.24,12.55-4.6,17.27-7.33a19.4,19.4,0,0,0,6.83-7.33s4.72-4.47,5.72-7.7,5.72-5.34,5.72-5.34,2.61-4.47,2.61-5.72V477s12.05-5.72,13.54-8.08,4.22-9.82,3.6-11.43-5.22-13.42-3.11-19.14,9.44-11.06,9.44-11.06l16.15-12.67c3.11-2.49,6.83-5.72,7.33-7.7s4.22-7,4.72-8.57-2.61-2.49-2.61-2.49a31.13,31.13,0,0,0-6.83-.37c-2.11.37-13-2.49-13-2.49s13.54-4.1,16.78-4.85,19.26-6.46,20.88-7.7,5.22-3.23,6.21-5.34a58,58,0,0,1,3.11-5.34l3.6-4.1s-4.1-4.47-6.83-5.34a30.71,30.71,0,0,1-5.72-2.86l1.49-1.24s12.55,3.23,15.16,3.23,5.72-1.24,8.33-1.24h6.83l7.33,4.47s5.22,4.47,5.72,6.46c.25,1.12,2,1.62,3.11,1.86a20.59,20.59,0,0,1,4.72-1.37s1.62,8.95,2.61,10.56,3.11,7.46,4.72,9.44S815.52,397,816,399s.5,3.23,2.61,4.47,3.11,1.24,4.72,0a43.67,43.67,0,0,0,4.22-4.1l2.11-1.62,1-7,1.12-6.09,10.44-6.09c2.11-1.24,7.83-4.47,9.94-5.72s7.83-1.24,7.83-1.24h7.33c1.62,0,4.22,2,4.22,2s4.1,1.24,3.6,3.23-1,4.47-1,4.47l4.22,2.49,3.73-2,2.61,1.24s3.73,4.85,3.73,8.95a27.69,27.69,0,0,1-2.11,8.95,35,35,0,0,1,4.1,4.47c1,1.62,5.22,7,5.22,7l1.62,4.85s2.11,4.1,1,2-6.21-4.1-6.21-4.1l-4.72-4.47-8.95-1.24,3.73,4.85-.5,3.73,3.6,1.62,1,3.6,3.11,2.86,3.6,4.47,4.22.75,10.93,8.57a33.25,33.25,0,0,0,10.44,5.34A99.58,99.58,0,0,0,929,446.47L941.52,449s9.94.37,12.05.37a58.41,58.41,0,0,1,7.83,1.62l4.72.87-1-2.49,6.21-1.24v3.73a74,74,0,0,0,8.82-.87,36.86,36.86,0,0,1,5.22-.37l1.49-.87,3.11-2.49,2.61,3.23,3.11-2.86,2.61-.75-.5-3.23H982.52a16.54,16.54,0,0,0-4.22,1.24c-1.62.87-3.73.87-6.83.37a44.14,44.14,0,0,0-9.94-.37c-2.61.37-7.83.87-7.83.87s-7.83-1.62-9.32-1.62a18.24,18.24,0,0,1-5.22-1.62s-12.55.37-14-.37-4.72.37-6.21-2-5.72-4.47-3.11-5.34a9.29,9.29,0,0,0,3.6-2s-3.6-2.49-5.72-3.73-4.22-5.34-6.21-8.95,0-6.09-1.62-8.2-7.83-5.22-9.94-8.57-3.11-5.72-2.61-7,1.49-3.23,3.11-3.23,4.22-1.24,7.33,2,5.22,4.1,5.72,6.09,4.72-.37,7.33-1.62,8.33-4.1,9.44-6.46a7.6,7.6,0,0,0-1-8.08c-2.11-2.49-9.44-7-9.94-9.32s3.11-6.46,4.72-6.46h4.72c-2.61,0,1.62,2,0,3.23s-3.6,1.24-2.11,2.86,3.11,2.49,4.72,2,4.1-.87,3.73-3.23c-.25-1.24-.62-2.49-1-3.73,0,0,14-4.35,16.65-5.09s9.44-2.86,12.05-7.7a73.42,73.42,0,0,1,7.7-9.94c-4.1,4,1.12-7.58,0-9.57l-4.1-7.33s-3.6-2-1.62-3.73,6.21-3.23,6.21-4.47-1-2-3.11-2-4.1,1.24-5.22-.37,2.61-4.1,3.6-5.34,7.33.87,4.72,0,4.22-1.62,6.83,0A59.15,59.15,0,0,1,979,318.6s2.11,2.49,2.11,4.1c.12,1.37.25,2.73.5,4.1,0,0,1.62,3.23,3.11,3.23a14.91,14.91,0,0,0,4.1-.37,5.09,5.09,0,0,0,2.61-2.49l1-4.85s-4.72-3.6-5.72-5.34a3,3,0,0,1-.5-2.86s7.33-3.23,7.83-6.46,5.22-4.47,5.22-4.47a9,9,0,0,0,5.72.37c2.61-.75,10.93-7.7,15.16-13.42s6.21-6.46,7.83-10.56,1.62-12.55,1.62-8.57,1-5.34-.5-8.57a9.26,9.26,0,0,0-5.22-4.47l-5.22-.75s-4.72-2.86-1.62-6.46,12.55-8.57,14.66-11.43,9.94-4.85,9.94-4.85,5.22,0,7.33,1.24,5.72-2,7.33-2,5.72.37,5.72.37l5.22,2.49,7.33-.37s1.62-2.86,2.11-4.1,1.62-5.34,4.72-7.33a28.75,28.75,0,0,1,8.33-2.86l3.11,4.85a2.83,2.83,0,0,0,3.6.37c2.11-1.24,5.22-4.85,6.83-6.46a16.85,16.85,0,0,1,4.22-2.86l-3.11,6.83s-9.94,7-12.05,9.82-.5,2.86-5.22,5.72a36.36,36.36,0,0,0-7.33,5.72s-2.11,7.7-2.11,10.56a70,70,0,0,0,.5,10.19c.25,1.62.62,3.23,1,4.85a13.67,13.67,0,0,0,5.72-2c2.11-1.62,6.83-5.34,6.21-6.46s1-4.47,1-4.47a5,5,0,0,0,4.72-.37c2.11-1.62,2.11-2.49,2.11-4.85s2.61-3.73,2.61-3.73c.25-1.49.62-3,1-4.47l1-3.23-4.22-1.24a8.19,8.19,0,0,0,3.11-4.47l1-3.23,7.83-.87s6.83-5.34,9.44-3.23,4.72,3.73,6.83,2.49,7.33-7,9.44-8.08,7.83-5.34,10.44-5.34,7.33.37,7.33.37a8.47,8.47,0,0,0,1.49-5.72,42.83,42.83,0,0,0-1.49-5.72s2.11-5.22,4.72-5.72,12.05,2.86,12.05,2.86,3.6,4.1,6.21,4.1,7.33-1.62,7.33-2.86a5.36,5.36,0,0,1,3.11-4.85c2.61-1.24,3.11-2.49,3.11-3.73S1187.18,192.23,1184.57,191.36ZM683.43,308.16a21,21,0,0,0-6.21-2.49L672,304.06l-2.11,1.62-8.82.75-3.73-4s1.62-2.86,2.11-4.1,3.6-5.72,5.72-6.46,3.6-1.24,4.72.37.5,2.86,1.62,4.1-.5,1.62,2.61,2a14.69,14.69,0,0,0,5.72-.37l4.72-1.24s0-1.24,3.6,1.24,12.55,6.09,12.55,6.09l1.62,2.86a2.85,2.85,0,0,1-2.61,2.86c-2.61.37-3.6,2.49-7.83.37s-4.85.12-8.45-2Zm24,83.13a44.79,44.79,0,0,0-5.22-2c-1.62-.37-4.22-2.86-6.83-6.46s-4.22-4.1-6.21-7-.5-3.23-1-4.47a17,17,0,0,0-3.6-5.22c-1.62-1.24-2.11-3.73-2.61-5.72a30.34,30.34,0,0,0-2.61-5.34l1-2.49,1.62.87a11,11,0,0,1,3.11,3.23l1.62,3.73s3.11.75,6.83,6.09,2.11,5.72,2.11,5.72a62,62,0,0,0,5.72,5.72c3.73,3.23,3.11,4.85,3.73,8.2a5.29,5.29,0,0,0,3.6,4.1l.5,3.23Zm13-93.69c-1-1.62,1.49-2.49,3.11-4.1s3.11-1.62,4.72-2l6.83-1.62,4.22,1.62a9.39,9.39,0,0,1-3.73,2.86c-2.61,1.24-2.11.75-3.11,2a7,7,0,0,0-1.62,4.1c0,1.24,2.61,3.73,5.72,7l3.11,3.23s-1,4.47-3.11,4.85-2.11,0-5.22,0,0,0-1.62-1.24-2.11-1.24-2.11-1.24c-.25-1.24-.62-2.49-1-3.73a1.9,1.9,0,0,1,0-2l-1-2.86-2-3.11A18.33,18.33,0,0,1,720.46,297.6Zm22.37,62.25a14.65,14.65,0,0,1-7.33,0c-3.11-.87-1.62-2.49-4.22-5.34s-4.22-2.49-5.22-3.73a6.21,6.21,0,0,1-1-3.23l3.73-1.24,3.11,1.62c1.62.87,1.62,1.24,7.83,5.72s4.1,1.62,5.22,2a24.42,24.42,0,0,1,3.11,1.62A14.73,14.73,0,0,1,742.83,359.86Zm22-61-2.11,2.49s-4.72-1.62-5.22-3.6a2.49,2.49,0,0,1,1-2.86l2.61-1.62,6.83,3.23Zm201.43,49.83.62-.62C969.23,345.57,968.23,346.44,966.25,348.67Zm-167.5,23.86c1.24,0,.62,0-.5-.25C798.12,372.53,798.12,372.53,798.74,372.53ZM731.39,458l-3.11-2.49S723.57,460,722,462s-2.61,5.34-5.22,6.09-5.22,1.24-5.72,2.49,1,6.46,0,8.95-4.72,5.34-3.6,7.7.5,4.1,1.62,5.72a5,5,0,0,0,5.22,2.49,13.37,13.37,0,0,0,7.83-4.1c1.62-2.11,4.22-5.72,4.22-8.08a19.35,19.35,0,0,1,2.61-9.82c2.11-3.23,3.6-6.46,3.11-8.57a30.42,30.42,0,0,1-.62-6.83ZM721,450.69l-2.61-2.49s-3.11,1.62-1.62,3.23,4.22-.75,4.22-.75Zm24.6-13.42,2.11,2,2.11-2.49-3.11-1.24Zm5.72,16.65,3.11,1.62,1.62-2-3.11-1.24Zm78.28-53.31-2.61,2a25.92,25.92,0,0,1,1.62,6.09c0,2,2.11,4.1,3.6,3.73s4.72-2,4.22-4.1-3.11-4.85-3.11-4.85Zm-23-.37,2.61-1.24-2.61-2.86-4.72-2.86a2.32,2.32,0,0,0,0,3.23,9.49,9.49,0,0,1,2.11,2.86Zm1.62,8.57-3.6-1.24-.5,3.73,3.11.75Zm-3.11,10.56,3.11,2,.5-2.86,1-3.23-4.72.37Zm0,8.95h2.61v-4.1h-3.11Zm159.18-69.59L962.15,362c-1.62,2.49-3.6,1.62-1.62,4.1s4.22,3.23,4.72,1.24,3.6-2.49,3.11-4.47a3.35,3.35,0,0,1,1-3.23Zm25.6-8.95-5.22,5.34v1.62l3.11-.87a33.86,33.86,0,0,0,3.11-2.86C992.46,351.41,989.86,349.79,989.86,349.79Zm-22,75.3c1.62.37,7.83,1.24,8.33,0a34.22,34.22,0,0,1,2.11-3.6s3.11-5.72,2.11-8.95.5-3.23.5-3.23l3.11-1.24-.5-2,1-2.49-1.62-1.24-.5-1.62-1.62-2.86L978.67,395l.5-2-2.11-2.49-4.22-1.62-5.72-1.62,2.61-2.86v-5.22s-5.72-2.49-6.83,0a15.43,15.43,0,0,1-3.6,4.85,13.51,13.51,0,0,0,.5,3.23c.5,1.62,1.62,4.1,1.62,4.1l-2.73,4.22a63.66,63.66,0,0,1-6.83,7.33c-3.6,3.23-3.6,5.22-3.6,5.22s-.5,2-3.73,4.1-5.72,5.72-9.94,6.46a23.06,23.06,0,0,0-5.72,1.62,14.15,14.15,0,0,0-4.72-2.86,5.94,5.94,0,0,0-3.6.37s.5,2,1,3.73a30.85,30.85,0,0,0,3.6,7c1.62,2,4.22,3.23,4.22,4.47s1,1.62,2.61,1.62,2.11-1.24,4.72,0a27.9,27.9,0,0,0,7.83,2,12.05,12.05,0,0,0,4.22,0l3.11,2.49,2.11-2.86s-4.22-.87-4.22-2.49,0-6.46,3.11-8.08a6.77,6.77,0,0,0,3.73-4.1s-2.61-3.23-2.11-5.34,4.72-1.62,4.72-1.62,3.11-1.62,5.22-2.86,4.72-2.86,4.72-2.86,1.62-1.24,2.61,0,5.22,2.49,5.22,4.1,3.11,2,0,5.72-9.94,4.47-11.43,4.1a5.93,5.93,0,0,0-3.6.75l-5.22,5.34v2.49l1.49,2.86,1,3.23v1.86l2.11,2.49h2.11l-1-2.86.5-2.49,3.11.87V439l3.11,2,3.6.75,1.62-2-1.62-1.62-2.11-.75s2.11-2,.5-2.86-1-1.24-2.61-2.49-1.62-2.86-3.11-3.23a2.12,2.12,0,0,1-1.49-2c.37-.25,2.49-2.11,4-1.74Zm91.46,58.28c-2.11-1.62-3.6-6.09-6.83-7a10.24,10.24,0,0,1-4.72-2.49l1-2.49-6.21-5.34-.5-2.86-3.11-2.86-2.61-3.73-2.11-2.86v-2.86a29.73,29.73,0,0,1,2.61-1.62c2.11-1.24,4.72-2.86,4.72-2.86a6.4,6.4,0,0,1,4.22.87c1.62,1.12,3.23,2.36,4.72,3.6,0,0,7.33,3.73,9.44,3.23l2.11-.37s-8.82-9.32-10.44-10.93-5.72-6.46-7.83-7-3.11-1.24-4.72-1.24a47.22,47.22,0,0,1-10.93-2.86c-3.11-1.24-4.22-2-7.33-2s.5-.87-3.11,0-7.33,2.86-7.83,1.24-4.1-3.73-4.1-3.73l-7.33.75a56.11,56.11,0,0,0,3.11,6.09,21.25,21.25,0,0,1,2.11,4.1l2.61-.37s7.33,1.24,8.82,1.62,5.72.87,5.72,2.86-2.61,5.34-2.61,5.34-2.11,3.6,0,4.1,3.6-2.86,6.21-3.23,4.72-.37,6.83,2.49,2.11,4.47,1,6.09a7,7,0,0,0-1.62,6.09c.5,3.23,3.11,6.09-1,6.46s-5.22-.37-9.94-2.86S1014,465.6,1015,462s1.62-5.34,0-5.72a12.31,12.31,0,0,0-5.22,0c-2.11.37-5.72-.75-9.44-1.24s-5.22.37-6.83,2.49a17.71,17.71,0,0,0-3.11,5.34c-1,2.49-2.61,3.23-3.11,2A5,5,0,0,0,983,462c-2.11,0-3.11.87-4.72,2s-.5,1.24-5.22,3.73-6.21,1.62-6.21,2.86,1,2.86-2.11,4.47-4.22,4.1-10.44,4.47-11.43,1.62-13,5.34-4.1,8.2-1.62,13,5.22,8.08,5.22,11.8-1,5.34,0,8.95,3.11,4.1,5.22,4.1,4.72-1.24,7.33-2,5.72.37,10.44-.87,6.83-3.23,8.95-4.47,6.21-1.62,8.33-1.62a34.39,34.39,0,0,0,6.21-1.24s1-2,6.21.37,9.44,2.49,10.93,4.85a35.82,35.82,0,0,0,3.73,4.85,3.73,3.73,0,0,1,2.61-1.62,18.24,18.24,0,0,1,5.22,1.62l4.85,3.23,2.61,4.1s3.6,3.73,5.72,4.1a40.08,40.08,0,0,1,4.72,1.24s-.5,1.62,1,1.62a4.75,4.75,0,0,0,3.11-1.62h3.11a54.76,54.76,0,0,1,7.33-3.23c1.62-.37,5.72,1.24,6.83-1.24s2.61-13.42,6.21-15.91,5.22-7.33,5.72-9.32-2.61-14.17-4.1-15.91a96.79,96.79,0,0,0-7.83-6.34ZM981,438.64c2.11,0,.5,3.23,2.11,0l1.62-3.23h2.61l3.11-.75-1.62-3v-5.34l1.12-1.24v-1.62l-.5-1.62-2.11-3.23a52.81,52.81,0,0,0-3.11,4.85,18.29,18.29,0,0,0-.5,4.47l-2.11,2.49-3.11,4.47.5,1.62a2,2,0,0,0,1.86,2.11H981Zm15.16-11.43,2.11-1.62-3.6-.87-.5,1.24-1.49,2.49,1,5.72-1,1.62V437l2.11.37,2.11-4.47-1-1.24v-2.49Zm57.91,110.72a4.14,4.14,0,0,1-3.6,2.86,26.77,26.77,0,0,1-8.33-.87l-1,2a7,7,0,0,1,2.11,3.23c.5,2-2.61,2.49.5,4.47s4.1,2,5.72,1.62,2.61.37,4.22-2.49,2.11-4.1,1.49-5.34A20.38,20.38,0,0,1,1054.1,537.92Zm92.45-8.08a21.25,21.25,0,0,0-1.62-2.86l-5.72-3-1-2.86-4.72-1.24a25.46,25.46,0,0,0,4.22,6.09c2.11,2,4.22,0,2.61,4.1a14.46,14.46,0,0,1-3.6,5.72,16,16,0,0,1,2.11,2c1,1.24,2.61-.37,2.61,1.62a3.44,3.44,0,0,1-1.62,2.86l-5.72-.87s-.5-.87-2.11,1.24,2.61.87-4.22,4.47a52.46,52.46,0,0,0-9.94,6.46,39.22,39.22,0,0,0-4.72,5.34l3.11,2.49a22.91,22.91,0,0,1,3.11,2.86l3.73-1.24s5.22-1.62,6.83-5.34a18.29,18.29,0,0,1,2.61-4.85l2.11-.37,4.72-6.09c1.49-2,5.22-2,5.22-2l2.11-4.85a14.91,14.91,0,0,1,3.6-3.23c2.11-1.24,3.73-5.22,3.73-5.22l-4.22-.87c-.25-.12-2.86.75-3.23-.37ZM1088,476l-2.11.75,2.61,1.24Zm0,30.57,3.11.37L1089,504.5Zm-1,6.83,4.22.37-3.11-2.86Zm-5.22,7.83,3.11.37-2.61-2ZM560.16,233a11.18,11.18,0,0,0,1.62-4.85c0-2.49-1.62-2.86-1.62-2.86l-2.11,3.23-2.61,2.11,1.12,1.62Zm-29.7,33.3v3.6s0,.87,2.61,1.62S541.4,269,541.4,269s3.11-6.46,3.6-7.7.5-2,2.11-2.49a18.64,18.64,0,0,1,3.6-.37s2.11,0,2.11,1.24a10,10,0,0,1-1.62,3.73l-2.11,2,.5,2.49-.5,2-1.49,4-1,2.49s4.22-.37,5.72-.37,6.83-.75,6.83-.75l4.22-.87,3.11-1.62c1.62-.75,3.11-4.85,3.11-4.85a3.8,3.8,0,0,0-1.62-3.73,11.34,11.34,0,0,1-3.11-3.73,4.85,4.85,0,0,0-2.11-3.23c-1.49-.87-4.72-5.34-4.72-5.34l-2.11-.37a8.35,8.35,0,0,0,1.62-3.73c0-1.62,1-3.6-.5-4.47a25.33,25.33,0,0,0-3.6-1.62l2.11-2.49,1.62-3.73h-2.61l-1.62,2-6.83,2-1,1.62h-4.72a5.57,5.57,0,0,0-.5,2.49,6.21,6.21,0,0,0,1.62,3.23,9.41,9.41,0,0,1,0,3.73,15.38,15.38,0,0,1-3.11,3.23,7.65,7.65,0,0,0-4.72,2.49c-1.62,2-5.22,2.86-4.22,4.85a16.75,16.75,0,0,1,1,5.22Zm10.44-43.12,1,2.86s1.62-4.1,2.11-5.72-1.49-2-1.49-2l-3.73,1.62S539.79,220.31,540.9,223.17ZM512.7,208.88c1.62,0,2.11-.87,4.22-2a6.93,6.93,0,0,0,2.61-4.1s-1.62-2.49-2.61-4.47-.5-2.49-.5-2.49l-3.6-2.49-3.11.87-2.61.37-2.61.75h-7.83l-3.11-.75a8.91,8.91,0,0,0-3.11-.87,4,4,0,0,0-2.11.37l-1,1.62-2.11,2.86v2l1.62.37,2.61,1.24-.5,1.24-1.62.37-1.12,1.62,1.62.87,1.62,1.24V212h6.21c2.61,0,3.11.87,3.11.87l4.22,1.62,3.11-2.49a23.34,23.34,0,0,1,2.11-1.62,5.49,5.49,0,0,1,4.47-1.49ZM623.91,68.09l1.62,1.62L627.64,71l3.11.87-.5,2c0,2,2.61,2.86,2.61,2.86s.5-.37,3.11,0a44.15,44.15,0,0,0,5.72.37l3.11.87,2.11-.37L650,75.05l3.11-3.23,1-1.62v-2l1.62-2.86a18.92,18.92,0,0,0-5.22-.75c-2.11,0-7.83-2.49-7.83-2.49l-2.11-1.24-2.11-1.24-2.11,1.62-2.11.37-2.11-1.49-2.61-.75-2.61.37-2.61.75-.5,2,.5,1.24-.5,1.24s-1,0-.5,1.62-1-.12.62,1.49Zm-26.09,15,4.72,4.1V89L604,90.59l2.11,1.62s1,0,1,1.62v4.47l1.62,1.62s.5-.37.5,1.24,0,1.62,2.11,4.1l2.11,2.49,5.72,3.73,2.11-6.09,3.11-3.23s1,.37,1-1.24a13.51,13.51,0,0,0-.5-3.23L626,95.18l1.49-2V92l1.62-1.62V89.09l3.11,2.49,1,1.62,1.12,2.86-.5,1.62a3.23,3.23,0,0,1-1.12,2l-1,1.24,3.6.37s1.62-.37,2.11.75-1.12-.75.5,1.24l1.62,2,1.62-1.62s-1.62.75,0-1.24a24.68,24.68,0,0,1,3.6-3.6s2.11,0,1-1.24l-2.11-2.49-2.11-.75.5-2.49-3.73-1.62V88.6l-1-1.62-1.62-.75V84.62a2.93,2.93,0,0,0-2.11-2.49l-2.11-.87-.5-2-1.62-.87-1.49-1.24-1-1.62-2.61-2.49-3.6-2.49V69.34l-2.61-2.49-1.62.75-2.11,3.23-2.61-.37-3.11-.37h-3.48l-3.6-.37-2.11.75s.5.37,0,1.62S601,73.31,601,74.56s-.5,4.85-.5,4.85,3.73-1.24.5,1.24ZM773.64,113.7c-5.72.87-7.83,1.24-7.83,1.24L757,117.8s1-1.62-1,1.24,0,5.72-3.73,6.09a44.36,44.36,0,0,0-5.72.87l-.5,2.49v4.85a24.26,24.26,0,0,0-2.11,2.86,36.33,36.33,0,0,0-2.11,4.47,3.36,3.36,0,0,1-.5,2.86c-1,1.62-1,0-2.61,2l-3.11,4.1a18.08,18.08,0,0,0-1.49,5.22,5.83,5.83,0,0,0,2.61,4.47,7.88,7.88,0,0,1,2.61,3.73l.5,1.24a18.74,18.74,0,0,0,5.72,1.62h5.22a2.41,2.41,0,0,0,2.11-1.24s1-.87-.5-2l-1.62-1.24-2.61-3.23-1.49-4.47,2.11-3.73s-.5.37,1-2a16.89,16.89,0,0,0,2.11-4.85l1-1.24,1-1.24,2.11-2.49.5-3.6.5-1.24,2.61-.37a2.9,2.9,0,0,0,2.11-1.24c1-1.24,2.61-2.86,2.61-2.86a34.63,34.63,0,0,1,4.72-3.73l1.62-.87s2.11-2.86,4.22-2.86a19,19,0,0,0,3.73-.37l6.21-4.47,6.21-2.49,1-1.62,1-2.86-5.72-3.73s0,1.24-2.61,2.86a24.55,24.55,0,0,1-4.72,2.49c-2.61,1.24-.5,1.62-6.34,2.49ZM1018.44,130l1.62,2,1.62.75,3.11-2.86,8.82-.87,3.6.87,2.61-1.24,1-2,1.62-2.86.5-1.24-1-1.24-3.73-2-1.62-.37-4.22-1.24-1.62-1.24s0-1.62-1.49.87l-1.62,2.49-3.6-2-4.22-2-2.11,2.49-1.62,3.23a21.4,21.4,0,0,0,.5,4.85Zm36.66,2.49c2.11,1.24,2.61.37,4.72.37s2.61-1.62,4.22-2.86-1.49-2.86-1.49-2.86l-4.22-1.24a31.38,31.38,0,0,0-5.72-1.24c-1.62,0-5.22-2.49-5.22-2.49l-.5,2.86,2.61,3.23a24.48,24.48,0,0,0,5.59,4.22Zm-27.21,11.8,2.61.37,5.72.37s.5-.37,3.11-.37,0-2.86,0-2.86l-4.22-2.86-2.11-1.24-2.11-1.24-1-1.62-2.61.87-1.62,2,2.11,2.49-2.11,2.49ZM890.7,93.69l2.11,1.62,3.73-2.49h9.32A5.7,5.7,0,0,0,909,91.58a6.85,6.85,0,0,0,2.11-2.49l1.62-1.24V86.36l-2.11-2.49s2.61.87-1-1.62-6.83-4.85-6.83-4.85l-2.61-1.62-1.62,2.49a5.42,5.42,0,0,0-2.11,2c-1,1.62-2.11,3.23-2.11,4.47a7.13,7.13,0,0,1-1,3.6C892.19,90.46,890.7,93.69,890.7,93.69Zm-23-30.94s.5,2.86-1,3.23a9.26,9.26,0,0,0-3.11,1.62l.5,2.49s.5,2,3.6,3.23,1.62.37,1.62.37l3.11,1.62,2.11,2s1.62,2,3.11,3.6,0,0,2.11.87a5.78,5.78,0,0,1,2.61,1.62L887.59,85a6.21,6.21,0,0,0,4.1-2c2.11-2,1.62-5.34,2.11-7s0-5.34,0-6.46a1.11,1.11,0,0,0-1-1.24h-.16l-3.11-1.24S886.47,64.24,886,61s1-4.1,1-4.1a34.63,34.63,0,0,0-4.72-3.73c-2.11-1.24-3.11-5.72-3.11-5.72l-2.61,2-2.61,1.62h-3.11v2l-.5,3.73-1.49,1.62-2,2.86Zm52.81,31.31-2.61-2.49h-3.6l2.61,2.86Zm0,9.44-2.61-2.86-4.72,1.62,5.22,2.49Zm92.33,22.37,1.49-1.24-1-5.34h-2.61s.5.37.5,2.86a5,5,0,0,0,1.62,3.73Zm2.11,12.55-4.72-3.73,1.62,4.1Zm39.64-30.07L1053,112l5.22-1.62Zm-188-58.15-3.11-2.49-2.11,1.62L864,51.82Zm-38,5.59-4.22-2-2,1.62,3.11,2ZM712.63,60.27l3.6.37s2.11.37,2.61,1.62A18,18,0,0,0,721,65.49l4.72,2.11,2.61,1.24,5.72.87V67.6l-3.73-4.1,3.11-.37,1.49.37,1.62.37,2.61.37h1.62l4.1-.37h3.11v1.24l2.61,1.24,3.73-.37.5,1.24.5,1.24,1.49.37,2.61-.37,1-1.24,1-1.62-1-1.24-2.11-2-1.62-.75-1-1.24.5-1.24.5-1.24,1.62.37,2.11,1.24,2.61.75h1.62L766.68,59l2.11-1.62,2.11-.37,2.61-.37,1.62-.87,1.49-1.24,1.62-.87.5-1.24.5-3.23v-2l-.5-1.62-1.62-.75h-2.61L772.4,47l-2.11,1.62s-2.11.87-1.62,2l.5,1.24v1.62h-1.24l-1-1.62-3.11-.37-1.62.87-3.6,1.62s-1,1.62-1.62,0l-.5-1.62-1.62-2.86,1-1.24,1.62-.75L758,45l-1.62-2-.5-1.24L758,38.52l-1-1.62-3.11,1.24v1.62l-1,1.62-1,1.24-3.11.87-2.61,2,1,2.49v2h-1.62l-1.62-1.24-.5-1.24h-2.11l1,1.24c-1,3.23-1,1.62-1,3.23v1.62l.5,1.62,3.73,2,1.62.37,2.11.37,1.62,1.62-2.61,1.24L745.19,60l-3.11-1.62-2.11.87-1.62,1.24-1.49.37s0,.87-1.62,0l-1.49-.75a16.8,16.8,0,0,0-.5-3.6l-.5-2V52.06l-1-1.62-1.62.75c-2.61,1.62-.5,1.24-2.61,1.62s.5.37-2.11.37h-2.61l-5.72.75-3.73.37-2.11,1.62-2.11,2,1,1.62Zm43.86-8.08.37.75A2,2,0,0,1,756.49,52.19Zm.37.75C757.36,53.8,757.12,53.43,756.87,52.93Zm18.89-11.31V39.14l-1.49-1.24h-1.62l-3.11.37-.5,1.24,1,1.24ZM672.37,67.72l3.73-2.49L674,63.62l-6.83,2-2.11.75,3.11.87Zm-15,16.65,5.72-1.24-3.11-1.62h-4.22Zm66.23,92.82c0,1.24,2.61,2,2.61,2l2.11-1.62-.5-2-3.73-.87A8,8,0,0,0,723.57,177.19Zm-234.35-7.33-6.21-2L481.38,165s-1.12-2,.5-1.62a11.18,11.18,0,0,1,3.6,2l3.11.75,2.61.37a44.36,44.36,0,0,0,.5-5.72,20,20,0,0,0-1.62-6.09l-1-2s5.22-.37,5.22-1.62a7.84,7.84,0,0,0-1-2.86l-6.21-5.34s4.72,1.62,7.33,0a5.17,5.17,0,0,0,2.61-4.1l.5-4.1,4.22-2s-3.11-2.49-2.61-3.73l.5-1.24,6.21,1.24v-4.85l-3.73-.75s-1.62-.37-2.61-3.23l-1-2.86,3.11-2.86s4.22-9.32,2.11-10.93a10.21,10.21,0,0,0-4.22-2l-1-3.73,3.6-4.1v-4.1a8,8,0,0,1,.5-2.49l1.62-2.86s-1-3.23-1.62-1.62-3.11-3.6-3.11-3.6V73.69l1-1.62,3.11-1.62s2.11-2.49.5-4.47S507,63.87,507,63.87L510.09,61,508,57.28s6.83-.75,6.83-2.86a27.34,27.34,0,0,1,.5-4.47s5.22-4.1,6.83-6.46-5.22-5.72-5.22-5.72-3.11-2-5.72-1.24-1.62-.37-5.22,3.23l-3.73,3.73-4.72.37-2.61-3.6-1.49.75-.5,2s-2.61,1.24-3.11,2.49a6.54,6.54,0,0,1-1.49,1.74c.75-3.23,2-8.57,2-9.44A3.73,3.73,0,0,0,487.72,34c-2.11-.75-4.72-1.62-4.72-.37s-2.61,2.86-3.11,4.1,1,1.62-2.11,2.49,0-4.85,0-4.85H465.23a11.71,11.71,0,0,0-6.21.37c-2.61,1.24-6.21,2.49-6.21,2.49a4.47,4.47,0,0,1,1.62-2.86c1.62-1.62,6.21-2.86,8.33-2.86h8.82l5.72.37A20.54,20.54,0,0,1,483,30.07a13.67,13.67,0,0,0,6.83-4.1c1.12-1.62,2.61-2.49-.5-4.85s-3.6-2-6.83-4.1a19.16,19.16,0,0,1-5.22-5.72s-2.61-2-3.11-.87a4.66,4.66,0,0,1-2.11,2l-6.21-.87s.12-.62-.87-1c3.73-.75,7.08-1.49,7.08-1.49l3.6-1.24a2.15,2.15,0,0,0-2.11-2c-2.11-.37-1.62,1.24-4.72-.87a21.39,21.39,0,0,0-4.72-2.49L457.28.87,451.06,0l-6.21.87a6.54,6.54,0,0,0-5.22.87,35.07,35.07,0,0,1-5.72,2.86,3.11,3.11,0,0,1-2.11,1.62l-1.62.37a28.84,28.84,0,0,1-4.72.87,26.52,26.52,0,0,0-5.22,1.24,1.58,1.58,0,0,0-2.11.37h0l-1,1.24s3.11.87-2.61,1.62l-5.72.87-2.11.75-.5,2,1.12,1.24c.75.62,1.49,1.37,2.11,2l1.62,1.62,1.62,2A9.94,9.94,0,0,1,414.28,24l1.12,1.24v1.62l-1.12,1.62-1.62,1.62a3.94,3.94,0,0,1,.5,2V33.3l-1.62.87-4.22-2a24.26,24.26,0,0,0-2.11-2.86,43.06,43.06,0,0,0-3.11-3.23l-.5-1.24-2.11-.37h-4.22l-1,1.24s-1.49.37-1.49,1.62v1.24c-.25-.25-.5-.37-.75-.62-.12,0,0,.37,1.24,2.24l2.61,3.6-4.22-4.1-2.61-1.62h-2.61l-2.61-.37h-1.62L377,30.2a9.32,9.32,0,0,0-5.22,0,29.28,29.28,0,0,1-4.72,1.24l-1,1.62-.5,1.24L363,35.54l-2.11,1.62-.5,1.62a2.49,2.49,0,0,1,.5,2.49l-.5,1.24-.5,1.62v1.62l-1.62.75-1.62,1.24-3.11,2.49a14.91,14.91,0,0,0-3.6,3.23c-2.61,2.86-3.11,4.1-6.21,6.09s-2.11,2-1.62,3.73.5,2.49,2.11,3.23a12.43,12.43,0,0,0,3.6,1.24,2.12,2.12,0,0,1,2.12,2.13s0,.07,0,.1v.25c0,2.49,1,4.85-.5,6.09s0,1.62-4.22,2.49a31.91,31.91,0,0,0-7.33,2.49,11.88,11.88,0,0,1-6.21,4.47,23.71,23.71,0,0,0-7.33,3.6s.5,1.24,1.62,4.1,0,.37,2.61,3.23,8.82,3.6,8.33,4.85a12.8,12.8,0,0,1-3.11,3.23s-3.6-1.62-3.6,0a23.1,23.1,0,0,0,.5,4.1,9.94,9.94,0,0,1,1.62,1.62,53,53,0,0,0,5.22,5.34c2.11,1.62,3.11,2.49,4.72,2a26.24,26.24,0,0,1,6.21-1.24c2.11,0,5.72-.37,5.72-.37a6.56,6.56,0,0,1,3.11,0c2.11.37,1.62,1.62,4.72,2.49s9.44,3.23,10.44,6.46,2.61,4.85,3.11,9.82,2.11,5.72,2.61,7.7,4.22,6.46,3.11,10.19-2.11,4.85-.5,5.72a13.53,13.53,0,0,0,3.11,1.24s6.21,0,7.33,2l1,2-6.83.75a11.18,11.18,0,0,1-1,4.47c-1,1.62-1,4.47,1,5.34s3.11,2,4.72.87,3.11-3.73,4.22-1.62-3.11,5.72-3.11,5.72-3.11,2.49-3.11,5.22,0,8.08,1.12,11.43,0,1.24,2.61,6.09a51.77,51.77,0,0,1,3.6,8.08s0,4.47,2.61,7a40.47,40.47,0,0,1,6.83,7.7L407,228a5.07,5.07,0,0,1,4.22.37c2.61,1.24,4.72,2.86,6.83,3.73s2.61,1.62,3.73-.75,2.61-1.24,3.11-6.09,1-7.7,1-7.7,3.11-1.62,3.6-3.6,2.11-5.72,2.61-7.33,0-3.23,2.61-4.47a19.55,19.55,0,0,1,5.22-1.62l4.22-.37,9.44-7.33c2.11-1.62,5.72-9.32,5.72-9.32s15.66-1.24,18.27-3.23L488,172.22ZM245.91,68.47l5.22,5.72,2.61,4.1-1.12,1.24.5,3.6,3.11,4.47v2l5.22,3.23a18.64,18.64,0,0,0,3.6.37A16.54,16.54,0,0,0,269.27,92l4.22-.37,5.22,2.86.5,2L275,96.8l-2.61,2.49,2.61,4.47-1.62,1.62s-3.11,1.62-5.22,2.49-2.61.75-5.72.75-3.6-.37-3.6-.37-6.83-2-9.44-2.86-3.6-.37-3.6-.37l-2.61,2.49s3.11,3.73,4.22,5.34a58.79,58.79,0,0,1,3.11,8.2l-3.6-1.62a7.18,7.18,0,0,1-2.61-2.49c-.5-1.24-2.11-2.86-2.11-4.1s-2.11-2.49-2.11-2.49l-3.6-1.24h-3.23a18,18,0,0,1-4.22,2.49c-2.11.75-2.11,2-2.11,2l-3.11-2a3.08,3.08,0,0,0-2-1.74c-1.62-.37-3.11,1.62-3.11,1.62s2.11,4.47,3.6,7,7.33,4.85,7.33,4.85a46,46,0,0,0,3.11,5.34c1,1.24,6.83-.87,6.83-.87l3.11-3.23,2.11.75a10.59,10.59,0,0,0,.5,2.86c.5,1.62,1,1.24,2.61,2.86s3.11,1.24,5.22,1.62,2.61,0,4.22-2.86-3.11-8.2-3.11-9.32a26.52,26.52,0,0,0-1.62-5.34,25.11,25.11,0,0,1,4.22.75c2.61.75,2.61,4.85,2.61,7s-.5,3.23-.5,4.85,4.72,4.1,6.21,4.47,4.22.75,6.83,1.24,3.6,1.24,6.21,1.24a36.86,36.86,0,0,1,5.22.37l5.22-2.49s3.6.75,5.22,1.24,4.72-1.62,6.21-2,1.62-2.86,1.62-2.86.5-1.24-1-3.23,0,0-1-2-.5-1.24-2.11-2.49-2.11-.87-3.6-1.24a8.93,8.93,0,0,0-3.6-.37,28.84,28.84,0,0,0-5.72.87c-2.11.37-2.61,1.24-4.72,2a9,9,0,0,1-5.72,0c-1.62-.37-5.72-3.6-5.72-5.72s1-2,1-2,4.72-.37,6.83-.37,5.22.37,6.83.37a9.46,9.46,0,0,1,2.61.37l6.21-.87a11.77,11.77,0,0,1,3.6-.87,2.41,2.41,0,0,1,2.11,1.24,7.93,7.93,0,0,1,3.11,4.1c1,2.86,0,0,2.61-1.24s.5-4.1.5-4.1a3.23,3.23,0,0,0,3.11-1.62c1.49-2-1-3.6-2.11-4.85s-3.11-3.23-3.11-3.23a16.8,16.8,0,0,0,5.22-2.49c3.11-2-1-4.85-1-4.85a61.61,61.61,0,0,0,8.33-1.62c2.61-.75.5-2.86.5-2.86l2.61-4.47V85.74l1-3.23-1-1.24-1-1.62V76l2.61-2.86,3.11-.75,2.11.37c2.11.37,2.11-.37,2.11-.37L329,69.59l.5-2.86a38.31,38.31,0,0,0,6-4c2.11-2,4.22-6.09,5.72-8.57s5.72-5.72,6.21-7a28.33,28.33,0,0,1,2.11-3.73h-1.62c-1.62,0-5.22.37-5.22.37l-1.49-1.62s9.44-2,10.93-2.49,3.11-2.86,6.21-5.22,3.11-2.86,3.6-4.1,0-2.49,0-3.6a1.67,1.67,0,0,0-1-1.62l-3.11-.37-1.62-4.1-1-2.49-5.22-2-5.72.37A8.83,8.83,0,0,1,340.1,15c-2.61-1.62-3.73-1.24-5.22-1.62s-5.22-.87-5.22-.87l-5.72-.37h-7.08l-4.22,1.24-4.22,1.24-4.72.75-2.11.75H298l-4.22.37-3.11,2.86L288,23.11l-.5,2.49-4.22.37-2.61-.37c-2.61-.37-1.62.75-1.62.75L276,30.82l-3.11.87-3.6,1.62c-3.6,1.62-3.11,1.24-3.11,1.24L263.06,37l-2.61,3.23.5,2.86h2.61l.5,2,2.11,1.62-.5,2.86,3.11,6.09A33.67,33.67,0,0,0,274,58.15a4.66,4.66,0,0,0,2.61,0l4.72.87,2.11.75s5.22,0,6.83-.75a17.4,17.4,0,0,1,4.22-1.62c1.62-.37,5.72-4.1,5.72-4.1l1-1.62,2-3.23-.5,4.35.5,2.86-3.11,1.62-4.72,1.49-1,1.24a9.58,9.58,0,0,1-3.6,1.24,1.3,1.3,0,0,0-1.49,1.24l-2.11,1.62-3.6-.37h-5.72a30.68,30.68,0,0,1-3.6-1.24A14.09,14.09,0,0,1,270,59.64a46,46,0,0,1-3.6-3.23s-.5-1.62-.87-3.11c-.25-.87-.5-1.62-.62-2.24-.5-1.62-6.83-4.47-6.83-4.47l-6.21.75.5,3.23-2.61,1.62-.5,5.72-2.61,1.62,2.11,4.85-1,3.23Zm-9.44,3.23,3.11,1.62s1.62-1.62,1.62-2v-4.1L236,66h-4.22l2.61,3.23ZM248,96.92a5.57,5.57,0,0,0,4.72-7,11.56,11.56,0,0,0-2.61-2.86l-4.22-2.49h-3.6v7c0,2-.5,2.49,1,3.6S243.8,97.79,248,96.92Zm8.33,3.73-.5-2.49-5.72-.75-2.61,1.24-.5,2.86,6.83.75Zm12.55.75-3.11-2.49-2.11,2-1,1.62,2.11,2,3.6-1.24ZM218.7,85.12l.5,1.24-1.12,2.86v1.24l4.72,2.49,2.61-.37,2.11.87.5,1.62-2.61,1.62,1.49,2h2.61l7.83-3.23-1-4.47-2.61-2.86-1-2.86-2.11-2.49-4.72-1.62-3.11-3.23-2.61-1.24-3.11-1.62L215,77.91l-1,2.49,2.61,3.23Zm2.61,18.39a11.18,11.18,0,0,0-5.72-7s-.5,4.1-.5,6.09a9.74,9.74,0,0,0,1.62,4.47h5.72Zm-29.7-1.74s3.11,1.62,5.22.87a12.43,12.43,0,0,0,3.6-2.49s-.5.37.5-1.24a7.84,7.84,0,0,0,.5-4.47,21.12,21.12,0,0,0-7.33,1.24,9.83,9.83,0,0,1-4.22,1.24s0-1.24-2.61-1.62a3.38,3.38,0,0,0-3.6,1.24L186.76,99Zm3.6-9.69s3.6-1.24,5.72-.37S203,89.22,203,89.22l-4.22-2.49a11.68,11.68,0,0,0-4.1,1A30.7,30.7,0,0,0,189,90.59,11,11,0,0,0,195.21,92.08Zm3.73,21.5,2.11,2,1.62,3.23.5,2.86-4.72.37s-1.62-4.47-4.72-6.46a17.16,17.16,0,0,0-7.33-2.49l-4.22,1.24-.5,4.47-1,2-2.11,2.86v2.49l3.11,2.49h2.61l3.6-.37h2.61L188.38,131l1.62,2s0,.75,2.61.75,5.72.87,6.21-.37a10.66,10.66,0,0,1,1.62-2.49s3.6-.37,5.22-.37,3.11-.37,4.72-.37,5.72-3.6,5.72-3.6l2.11-3.6v-3.23l-6.21-3.6-3.11-1.24-1-2L205.28,108l-2.11,3.36Zm17.77,14.29,2.11,1.24s3.11-1.24,4.72-2,0-2.49,0-2.49h-4.22Zm-55.92-8.08,2.61-.37,3.11.37s4.72-2.86,5.72-4.85,1.62-2,1.62-2v5.59c0,2.49-2.61,4.1-2.61,4.1H175s1.62-5.72,3.11-7.7,2.61-2.86,3.6-4.1.5-4.47.5-4.47v-7.7s-4.22,3.6-7.83,3.6h-3.6l-3.6,3.23L165.51,108l-2.61,2.86a43.56,43.56,0,0,1-3.6,4.47c-2.61,2.86-1,1.24-1,1.24Zm73.06,47.59c0,.37-.12.62-.12,1C236.59,168.75,233.86,167.38,233.86,167.38Zm-78.28-6.09,1,2,3.11-.75,4.72-.87,1-2.86,1-2.86,2.61-2.49,1.62-.87,2.11-.75v1.62l-.5,2.49,2.11,2,1.62,2-1.12,1.62s-1.49,0-1,1.24l.5,1.24s1.62,2.49,3.11,2.86,4.22.87,4.22.87a16,16,0,0,1,4.22-.87c2.11,0,1.12-.87,4.22.37l3.11,1.24a11.68,11.68,0,0,1-5.72,1.62H176.45s-5.72.37,1,2.86,1.62,2,1.62,2l7.83.87,1.49,1.24,5.22,3.73h6.83s-.5.87,2.11-1.24,1.62-2.86,5.22-2.49a22,22,0,0,0,5.72,0,49.36,49.36,0,0,1,10.44.87c3.6.75,2.61,2.49,3.6.75a33.92,33.92,0,0,1,2.61-3.73,16.23,16.23,0,0,0,2.61-4.47,16.59,16.59,0,0,0,.87-2.24c-.62-.12-1.62-.25-3-.5-7.33-1.62-7.83-2.86-7.83-2.86l-1.62-4.47s-2.61-6.46-2.61-7.7v-4.85l1.62-4.1s-1-2.86-2.61-3.23a23.24,23.24,0,0,0-4.22-.37l-3.11,2s3.11,2,1.62,2a31.06,31.06,0,0,0-4.72.75l.5,6.46s-2.61-1.62-4.22-2.86l-1.62-1.24-4.72,3.23s.5-1.62-2.61-2.49a30.31,30.31,0,0,0-5.72-.87l-.5-2.86a2.49,2.49,0,0,0-2.61-.75,3.73,3.73,0,0,1-3.11-1.24l-5.72-6.09s-2.11-2-3.6-2-5.22.37-5.22.37l-5.22-2s.5,1.24-2.61,1.24-7.33.37-7.33.37v2.49a7.08,7.08,0,0,1,0,3.23,30.85,30.85,0,0,0-.5,6.09,11.39,11.39,0,0,1-1.62,4.47,11.59,11.59,0,0,0-1.49,4.1l3.11,2.86ZM228.64,147l-1.62.37-.5,3.23a77.84,77.84,0,0,1,7.33,5.72,34.69,34.69,0,0,1,5.22,6.09l3.6-4.85,3.6-1.62s1-5.34,0-7.33-.5-5.72-.5-7,0-2-2.11-3.23a10.7,10.7,0,0,0-4.72-1.24l-7.33,3.23-1.12,2.49s4.22,2.86,2.11,4.1A3.8,3.8,0,0,1,228.64,147ZM424.47,432.8c-2.61-.37-4.22-2.49-8.33-3.73s-7.83-2-7.83-2l-7.83-3.23s0-2.49-3.11-5.34-3.6-5.34-5.72-5.72a69.12,69.12,0,0,1-6.83-2l-9.94-2.49-7.33-5.22-3.11-4.47-4.72-.87-8.82.37-3.73-1.24-9.44-5.34-2.11.75-3.11.87s-8.33-.37-5.22,0-3.11,1.24-3.11,1.24l-3.11,1.24-4.72,2.86s-2.36,2.24-3.48,3.36c-.37-.37-4.85.75-4.85.75a25.45,25.45,0,0,0-5.22-.87,50.21,50.21,0,0,1-7.33-1.24l-3.6-2.49s-1.12,1.24-1.12-2.49,1.12-1.24-.5-6.46,4.72-7-5.22-6.46-10.93-.87-10.93-.87L269.4,379l-1-2.49,3.6-.37c-3.6.37,6.83-2.86,6.83-2.86l-.5-3.73H269.4s-3.11,4.1-2.61,2.86-4.72,6.09-4.22,4.85-7.33,2.49-7.33,2.49l-6.21-2s-5.72-11.43-5.22-13a33.55,33.55,0,0,0,.5-6.09l.5-6.09,7.33-4.47s7.83-3.23,10.44-1.62,7.33.75,7.33.75,5.72-2.86,7.33-2.49,5.22,1.62,5.22,1.62l4.1.75c-4-.75,5.72,3.73,5.72,4.85s-.5,5.34,2.11,6.46a14.61,14.61,0,0,0,5.22,1.24s3.6-6.46,2.61-7.7-7.83-9.32-7.83-9.32,9.94-7,10.93-8.08,5.22-1.24,8.33-5.34,3.6-10.56,3.6-10.56,12.55-7.7,7.33-6.09,9.44-4.85,9.44-4.85l-1-3.23s8.82-5.72,10.93-5.72a2.8,2.8,0,0,1,2.61,2s3.11-.37,6.83-.87,10.44-4.1,10.93-5.72,2.11.37-4.72-3.23-6.21-6.09-6.21-6.09-1.24-2.24-1.74-3.48a29.36,29.36,0,0,1-5.59-1l-2.61-1.24s6.21-2.49,7.83-2.49a5.06,5.06,0,0,1,3.11,1.62s2.11,2.86,3.6,3.23a8.7,8.7,0,0,0,3.6-.37l.5-2a4.66,4.66,0,0,1,2.61-2,15,15,0,0,0,5.22-1.62c2.11-1.24,5.72-2.86,5.72-2.86s-7.33,10.56-6.83,11.8a5.7,5.7,0,0,0,4.72,2.86,42.86,42.86,0,0,1,6.83.87l-1,3.11c.12-.5,1-2.24,4.1-1.49a61.83,61.83,0,0,1,6.83,2s.25-2.73.37-3.6c-.25-1-1-5.72-1-5.72l-1.62-2.86-4.85-1.49-3.11-1.24-1-2.86.5-5.34s-2.11-6.46-3.11-7.7l-2.11-2.49a72.9,72.9,0,0,1-8.33-5.34c-2.61-2-5.22-7-5.22-7l-2.11-5.34s-7.83-10.19-5.22-7.33-2.11-5.72-2.11-5.72-5.22,3.73-4.72,4.85-1,2.86-2.61,4.1a6.64,6.64,0,0,1-3.6,1.24s-3.11,0-4.22-4.85a28.21,28.21,0,0,0-2.61-7.7l-6.21-3.73-4.72-3.23-5.22.37-7.33-.87-2.11,2s-1.12,7.33-.5,4.85,0,4.1,0,4.1l-1.62,6.46,1,4.85s8.33,4.85,2.11,10.19l-6.21,5.22v6.09c0,2,3.6,7.7.5,8.57s-4.72,2-7.33-1.24-2.61-7.33-3.11-10.19-4.22-5.22-4.22-5.22l-6.21-.87A24.65,24.65,0,0,0,272,247c-5.72-1.24-12.05-2.86-12.05-2.86l-3.6-6.46c3.6,6.46-4.22-3.23-4.22-3.23s3.11-11.43,4.72-13c2.11-1.86,4.47-3.6,6.83-5.34l2.11-3.23s5.72-2,7.33-3.73,3.11-7,3.11-7l4.72-.87a24.73,24.73,0,0,0-3.6,4.47c-1,2-5.22,1.24-1,4.47s5.72,3.23,5.72,3.23l4.22-2,3.11-1.24,7.33,2.86,2.61-2a19,19,0,0,0-4.72-5.22c-3.11-2.49-5.72-4.85-5.72-4.85l-.5-4.85s1.62-1.24,4.22-2.86,2.61-6.46,2.61-6.46l-1-4.47,1.62-2.49s-1-4.47-2.11-5.34-3.11-2.86-6.21-2.86a11.68,11.68,0,0,0-5.72,1.62v4.47l-1,2.49-2.11,1.62-1,2v3.73l-2.11-.37L273.37,184l1.12-3.23-1.12-2.49s.5-1.24-2.11-2.49a12.69,12.69,0,0,0-4.72-1.24l-5.22-2.49.5-4.1-4.72-8.08s-1.62-4.1-2.11-5.72,2.61-4.85,2.61-4.85l4.22-1.24s.5-5.72,2.61-7.7a6.9,6.9,0,0,0,2.11-4.47l-6.83.37-3.11-.87-4.72-.37-1.12,1.24-2.11,5.34s-.5,4.1-.5,6.09,1.12,8.57,0,10.56a37.58,37.58,0,0,1-2.61,4.1l-1.62,3.23,1.62,4.47,2.61,2,5.22,2,.5,2.86-2.61.37-2.61-2a50.29,50.29,0,0,0-4.22-2.86l-4.22-.87-1,1.62-3.6,2.49-1,1.24,5.72,4.1-3.6,2.49-.5,2c-1.86.37-3.85.62-5.72.87a16.15,16.15,0,0,1-7.83-2.86L217,179.06l-4.22-.87s-3.6,1.24-5.22,1.62a7,7,0,0,0-4.22,2.86c-.62,1.24-6.21,3.23-9.44,3.73s-8.33-1.62-8.33-1.62l2.11-3.73-3.6-2.86-4.22-.75-4.72-.37-11.43-3.73s1-1.24-2.61-.87a15.27,15.27,0,0,0-5.22,1.24,4.13,4.13,0,0,0-1.62-3.23c-1.62-1.24-3.6-2-3.6,0a7,7,0,0,1-1.49,3.73c-.75-.62-1.49-1.37-2.11-2-1.62-1.62-4.72-4.47-4.72-4.47l-2.61-2.86a3.94,3.94,0,0,0-.5,2v1.24l-2.11.75h-4.6l-1.62,1.24-1.62.37-1.62.37L125,173.34l-2.11.37-2.61-.37s-2.11-.87-3.11.37a44.53,44.53,0,0,1-3.6,3.23l-2.61.75L104.75,174l-5.22-.37S91.7,170,88.1,170.73a17.32,17.32,0,0,1-6.21.37l-3.11-1.24-7.33-2.49s0-.37-2.11-.37,1-.37-2.11,0-7-1.62-7-1.62l-1.62-1.24H57c-1.62,0-1.62-1.24-3.6-1.62l-2.11-.37-5.22-.75L43,163a52.1,52.1,0,0,0-6.21.37c-1.62.37-2.61,4.85-4.22,4.85s-4.72,2.49-4.72,2.49l-6.21,4.85-5.72,2.49-1.62,2s-1.12,3.23.5,4.1l1.62.87L19,186.64l2.61,2.49,2.61,2.73,2.11,1.24,1.62,2-.5,1.24-3.11-1.24-3.6-1.24-1.62.75s-2.61,1.24-4.22,2l-1.62.87-3.11,2.49,1,2,1.12,2.49,1,1.24,2.11,1.24,2.61.87h8.08l1.49-.5s-.5-.75,1.49,0,4.22-.37,2.61,2.49-2.11,3.23-6.21,4.85-4.72-1.24-7.33,4.1-2.61,5.72-1,8.08,2.11,4.47,5.22,5.34,3.11-.37,5.22.87,2.11,3.23,2.61,4.47,5.72,2.86,7.33,2.86a37.7,37.7,0,0,0,5.22-.75c1.62-.37,0,1.62-.5,3.73s-4.72,5.72-7.33,7.33-7.83,1.24-10.93,3.73a86.84,86.84,0,0,1-9.44,6.09c-3.23,2-14.54,8.08-14.54,8.08s15.16-2.86,19.26-5.72,6.21-4.1,6.21-4.1L27,260s0,.37,3.11-1.24l3.11-1.62,1.62.37s3.6,2,3.6,0v-2.24s3.11-3.73,5.22-4.1,7.83-4.85,9.94-7.33,3.11-4.1,3.11-5.72a6.61,6.61,0,0,1,3.11-5.72c2.61-1.62,4.22-2.86,4.22-2.86L60.89,236s-3.73,7.7-5.22,10.19a24.38,24.38,0,0,0-2.11,4s2.11,1.62,3.6,0l4.72-4.85c1.62-1.62,2.61-2,2.11-3.6s-1-2,.5-3.73,6.83-6.34,10.93-6.34,12.05,1.24,14.66,1.24,11.43.87,15.16,3.73,6.21,4.85,8.33,8.57a29.82,29.82,0,0,0,15.16,13s5.22,4.1,6.21,5.72,3.11,1.62,4.72,5.72.5,4.47,1.62,5.72,1.49,1.24,7.83,6.46S155.33,292,155.33,292s-1,12.18-1.49,15.41-1,6.46,0,8.95,2.61,3.23,5.22,5.72a28.58,28.58,0,0,1,5.22,5.72,23.46,23.46,0,0,0,7.83,7l3.6,2a51,51,0,0,0,2.61,4.47c1.62,2.49,0,2.86,2.61,4.85s5.22,1.24,5.22,3.23-.5,3.6,1,4.85,2.11.37,4.22,2a4.85,4.85,0,0,1,2.11,3.23l3.6,2s2.11,2,3.6,3.73,3.11,1.24,3.11,0-2.11-6.46-4.22-8.08-2.11-2.49-3.73-3.73-4.22-3.73-4.22-3.73-5.72-4.1-5.72-6.09A3.39,3.39,0,0,1,188,340.6l2.61,2.49a56.74,56.74,0,0,0,7.83,8.57c4.72,4.1,7.33,7,9.94,8.95s4.22,1.62,5.72,4.1a8.7,8.7,0,0,1,1.62,5.22c0,1.24,1.62,4.1,5.22,7s16.15,7,25.1,8.95a66.26,66.26,0,0,0,13,2l1.62,2,2.61,1.62a6.56,6.56,0,0,0,3.11,0A18.64,18.64,0,0,1,270,391s0-.87,2.11.75l5.72,4.47A11.18,11.18,0,0,1,280,399.5c.5,1.62,5.22,2,7.33,3.6s1.62,2.86,3.6,4.1-3.6,1.24,4.72,1.62A70,70,0,0,1,307,410.06s2.11,1.24,1.12,4.85a26.74,26.74,0,0,1-6.83,10.56c-2.61,2.49-3.11,2-3.6,6.09s-1.62,3.6-1,6.46,4.22,6.09,7.83,10.56,5.22,8.57,8.82,14.29,5.72,6.09,13,9.32,6.83,6.46,6.83,6.46-2.61,21.12-3.6,23.24-1,16.28-4.72,21.12-4.22,16.28-4.72,17.89,0,4.47-2.11,7.7-1.62,7.33-1.62,9.82c-.25,2.86-.5,5.72-1,8.57a16.71,16.71,0,0,0-.5,8.57c1,4.1,0,3.73,1,7.33a18.07,18.07,0,0,0,5.22,8.57,45.59,45.59,0,0,0,10.44,6.46c4.22,1.62,7.83,3.73,9.94,2.86a40.4,40.4,0,0,0,6.83-4.47l7.83-.87s-8.82-2.49-12.05-4.85-2.11-3.6-3.6-6.09a16.58,16.58,0,0,1-2.11-5.34v-2.86l1.62-.87,2.11-3.6,2.11-2.49,4.22-3.73-.5-2.86-4.22-3.23,1-2.49,3.11-2,1.62-.37s1-4.1,2.61-4.85a14.71,14.71,0,0,0,3.6-3.73s-3.11-1.24-3.6-2.49,3.11-2,4.72-2.49,3.73-1.24,4.22-3.23,3.23-3.36,3.23-3.36,10.93.37,12.55-2.49.5-6.09,0-8.2a3.73,3.73,0,0,1,.5-3.23l9.44.87,4.72-2,4.22,1.24a7.08,7.08,0,0,0,0-3.23c-.5-1.24,0-4.85,0-4.85s3.6-4.1,5.72-6.09,4.72-2,4.22-5.72a11.18,11.18,0,0,1,5.22-10.56c3.6-2,15.66-3.23,15.66-3.23s3.11-2,3.6-4.1,3.6-4.47,3.6-4.47,2.61-6.09,3.6-9.32a39.76,39.76,0,0,0,1.12-9.32s10.44-7,10.93-9.32a72,72,0,0,0,.5-8.95,28.64,28.64,0,0,1-6.83-3.23c-2.49-1.86-16-5.22-18.64-5.59ZM272.25,376.14ZM391,288.28h0C390.8,288.66,391,288.66,391,288.28ZM351.9,281c-.62-.62-.5-.12-.12.62C352.15,281.45,352.28,281.32,351.9,281ZM300.21,172.72l3.6-.37v-1.24l2.11-1.24,2.11,2.49-3.6,2.49v4.1l2.11-2.86c3.11.87,9.94,2.49,9.94,2.49h-5.22l.5,1.24a9.46,9.46,0,0,1,2.61.37c1.62.37,3.6.37,4.72,1.62l1.12,1.24h-2.61l-2.61.37s-4.22-1.24-4.72.87a18.37,18.37,0,0,0,0,5.22H315l1-1.24,2.11-1.62h4.22s1-.87,1.62.75,2.61,2.86,0,4.85a20.73,20.73,0,0,0-4.22,4.47l-.5,3.23s3.11.75-3.6,1.62-7.83.75-7.83,2.49.5,5.34.5,5.34l-1.62,3.23,5.22,1.62-.5-3.73a18.74,18.74,0,0,1,5.72-1.62c2.11,0,4.72,2,4.72,2s5.72,6.09,10.93,8.08a48,48,0,0,0,9.44,2.49c1.62.37,5.72,1.62,5.72,1.62v-3.73l-1.24-2-.87-1.24,4.22,2.49,3.6-6.46s-1.62-6.09-4.72-7.7-5.72-5.72-5.72-7v-1.24l3.6,2.49a14.33,14.33,0,0,0,4.72,3.85l2.61,1.24,2.61-2a16.69,16.69,0,0,1,4.22-3.6c2.61-1.62,0-7.33-2.61-8.57a66.93,66.93,0,0,1-7.83-5.34l-3.11-2-5.22-3.23,1.12-1.62.5-2.49s-3.6-1.62-2.11-2.49,0-4.85,0-4.85l-5.22-4.47-3.11-.75a15.17,15.17,0,0,1-3.11-2.49,21.12,21.12,0,0,0-4.22-3.23,25.33,25.33,0,0,1-3.6-1.62l-1.62-.87-2.61-2.86-2.61-1.49c-3.11-1.62-3.11-3.6-3.11-3.6l-3.11-4.85-6.21-2s-.5-.37-2.61,0-5.72.87-5.72.87l-4.72-.87-2.11.37a5.7,5.7,0,0,0-3.11-1.24h-6.21s-4.72,4.1-6.21,5.34-3.11,2.49-3.11,4.47a52.19,52.19,0,0,1-1.62,9.82c-.5,1.24,1.62,2.86,1.62,2.86l1,2.86s0,.87,3.11,3.73a10.66,10.66,0,0,0,6.21,2.86s7.83-.37,10.44.75a11.18,11.18,0,0,1,4.22,4.1l3.11-2Zm67.85,407.45s-1,0-2.61,1.62,0,2.49,0,2.49l3.11.37,5.22-.37,2.61-2.86-4.22-1.74ZM312.14,368.06a15,15,0,0,0-5.22-1.62l-2.61-.37-4.22-1.62-3.6-1.62-3.11-.75-2.61,2.49-1,2,2.61.37,5.72,1.24s5.72.37,7.83,2a11.71,11.71,0,0,0,5.22,2l4.22,2,6.83.87.5-2-2.61-1.24s-2.11-.75-3.73-1.24-.5-.87-4.22-2.49Zm12.55,10.56,4.72,1.24s2.11-.37,3.6-.75a29.47,29.47,0,0,1,5.72-.37l-.5-1.24-1.62-.75-2.11-1.24-8.82-1.62s1.62.37-.5,2.49S324.69,378.62,324.69,378.62Zm41.25,13s0-7.33-2.61-10.19a12.61,12.61,0,0,0-4.72-3.73l-3.11-1.62H344.57l.5,1.24-1.49,2h10.93a24.55,24.55,0,0,1,4.72,2.49c1.62,1.24,3.6,2.49,4.22,4.85s-1.62,7.33-1.62,7.33ZM265.67,424.22s-2.11,1.24-2.11,2.49,3.11,2.49,3.11,2.49l1.62.37,2.11-1.24v-2.49l-2.11-1.24ZM1065,469.83l-2.61,1.24,3.6.87Zm-1.62,11.8c1.62.37,4.72,4.47,4.72,4.47l4.1-.75-5.72-5.34s-4.6,1.24-3.11,1.62Zm12.05-209.25-3.11,5.72-1,2.49-.5,1.62-1.62,1.62a55.92,55.92,0,0,1-8.33,4.85c-5.72,2.86-7.83,5.72-7.83,5.72s-9.44,4.85-14.66,2.86a6.31,6.31,0,0,1-4.22-7l3.6-1.24-1-5.34.5-3.73,3.6-2a8.9,8.9,0,0,0-1.62-6.09c-2.11-3.23-1-3.73-2.11-7.7a27.64,27.64,0,0,0-1.49-4.85l-2.11,2-2.11,2,.5,7.7a14.51,14.51,0,0,1,.5,6.09c-.5,2.49-1.62,10.56-1.62,10.56l-1,2,.5,6.09-2.61,5.72-2.61,2.49-3.6,1.62,2.11,3.6,1,4.47-3.11,6.46-3.6,3.73-8.33,1.62-5.22.37s-4.1,2.49-5.72,2.49-3.6,2-4.72,3.23a21,21,0,0,0-2.11,3.6s-.5,4.1,2.11,6.09,2.61,0,2.61,0l8.33-5.72,3.6-.75s3.11,1.24,4.22,0,6.83-3.73,6.83-3.73l4.72.75.5-2.49,4.72-2s1.49-7.33,1.49-8.95.5-1.24,4.22-5.72-2.11-1.24-4.22-1.62,1.62-6.09,1.62-6.09a2.3,2.3,0,0,0,3.11-.37c1.49-1.62,4.72-1.24,12.05-2.49s5.22-4.85,6.83-6.46,7.83-4.85,10.44-7,3.11-2,8.33-6.46,5.22-7.7,5.22-7.7l-1-1.62Zm86.11-108.6a10.36,10.36,0,0,0,4.22-1.24l1-2-1.62-2a44.15,44.15,0,0,1-5.72.37c-2.61,0-2.11-.75-4.72,1.24s-2.61,3.23-2.61,3.23l4.22.37ZM739.22,441.37l1,1.62,3.6-.37-1-2Z"/></g>
        </g>
      </g>
    </g>
  </g>
</svg>
