<svg xmlns="http://www.w3.org/2000/svg" viewBox="0 0 19.69 16">
  <defs>
    <style>
      .social-icon {
        fill: #fff;
      }
    </style>
  </defs>
  <title>twitter</title>
  <g id="Layer_2" data-name="Layer 2">
    <g id="Layer_1-2" data-name="Layer 1">
      <g id="twitter-icon"><path
        class="social-icon"
        d="M19.69,1.89a8.06,8.06,0,0,1-2.32.64A4.05,4.05,0,0,0,19.14.3a8.05,8.05,0,0,1-2.56,1A4,4,0,0,0,9.7,5,11.47,11.47,0,0,1,1.37.74,4,4,0,0,0,2.62,6.13a4,4,0,0,1-1.83-.5A4,4,0,0,0,4,9.64a4.1,4.1,0,0,1-1.82.07A4,4,0,0,0,6,12.52a8.15,8.15,0,0,1-6,1.67A11.43,11.43,0,0,0,6.19,16,11.42,11.42,0,0,0,17.67,4,8.22,8.22,0,0,0,19.69,1.89Z"/></g>
    </g>
  </g>
</svg>
