<svg xmlns="http://www.w3.org/2000/svg" viewBox="0 0 485.48 485.48" width="{{include.width}}">
  <defs>
    <style>
      .vacation-1 {
        fill: #3980c6;
      }
      .vacation-2 {
        fill: #6ba0d4;
      }
      .vacation-3 {
        fill: #41cdfc;
      }
      .vacation-4 {
        fill: #9cbfe3;
      }
    </style>
  </defs>
  <title>vacation</title>
  <g id="Layer_2" data-name="Layer 2">
    <g id="Vacation"><rect class="vacation-1" x="394.34" y="322.74" width="45" height="90" transform="translate(451.56 922.53) rotate(-135)"/><rect class="vacation-2" x="418.7" y="329.11" width="9" height="90" transform="translate(457.92 937.89) rotate(-135)"/><rect class="vacation-3" x="423.51" y="334.82" width="45" height="7.5" transform="translate(521.97 893.36) rotate(-135)"/><rect class="vacation-1" x="95.23" y="23.64" width="45" height="90" transform="translate(152.45 200.42) rotate(-135)"/><rect class="vacation-2" x="119.6" y="30" width="9" height="90" transform="translate(158.81 215.78) rotate(-135)"/><rect class="vacation-3" x="124.4" y="35.72" width="45" height="7.5" transform="translate(222.87 171.25) rotate(-135)"/><rect class="vacation-1" x="375.25" y="214.56" width="45" height="90" transform="translate(495.46 724.34) rotate(-135)"/><rect class="vacation-2" x="399.61" y="220.92" width="9" height="90" transform="translate(501.83 739.7) rotate(-135)"/><rect class="vacation-3" x="404.42" y="226.64" width="45" height="7.5" transform="translate(565.88 695.17) rotate(-135)"/><rect class="vacation-1" x="203.42" y="42.73" width="45" height="90" transform="translate(323.64 309.51) rotate(-135)"/><rect class="vacation-2" x="227.78" y="49.09" width="9" height="90" transform="translate(330 324.88) rotate(-135)"/><rect class="vacation-3" x="232.59" y="54.81" width="45" height="7.5" transform="translate(394.06 280.34) rotate(-135)"/><path class="vacation-4" d="M420,460h0a34.68,34.68,0,0,0,9.64-30.46l-47.83-275L280,256.37Z"/><path class="vacation-4" d="M25.46,65.45h0a34.68,34.68,0,0,1,30.46-9.64l275,47.83L229.1,205.46Z"/><path class="vacation-2" d="M236.17,198.39l-7.07,7.07L25.46,65.45h0a34.65,34.65,0,0,1,8.38-6.17Z"/><path class="vacation-2" d="M420,460h0L280,256.37l7.07-7.07L426.19,451.64A34.65,34.65,0,0,1,420,460Z"/><path class="vacation-4" d="M0,294.56H0a14.13,14.13,0,0,1,12.41-3.93l112,19.49L83,351.6Z"/><path class="vacation-2" d="M190.92,485.48h0a14.13,14.13,0,0,0,3.93-12.41L175.36,361l-41.48,41.48Z"/><polygon class="vacation-2" points="300.76 286.54 280.01 256.37 381.84 154.55 389.38 197.92 300.76 286.54"/><path class="vacation-4" d="M133.88,402.51l-26.48-3.62a24.33,24.33,0,0,1-20.8-20.8L83,351.6Z"/><path class="vacation-4" d="M478.81,6.67h0a22.76,22.76,0,0,1,5.31,23.83h0a258,258,0,0,1-60.19,94.69L140,409.11,76.37,345.47,360.29,61.55A258,258,0,0,1,455,1.36h0A22.76,22.76,0,0,1,478.81,6.67Z"/><path class="vacation-2" d="M471.39,17.77h0a22.74,22.74,0,0,0-.26-16.15,22.72,22.72,0,0,1,13,28.88h0a258,258,0,0,1-60.19,94.69L140,409.11l-12.73-12.73L411.2,112.46A258,258,0,0,0,471.39,17.77Z"/><path class="vacation-2" d="M108.42,377.05l25.46,25.46-26.48-3.62a24.29,24.29,0,0,1-13.9-6.9Z"/><polygon class="vacation-2" points="178.19 307.29 178.19 345.47 127.28 396.38 108.42 377.05 178.19 307.29"/><rect class="vacation-3" x="118.28" y="286.2" width="18" height="144" rx="9" ry="9" transform="translate(-36 701.48) rotate(-135)"/><path class="vacation-2" d="M440.21,18.27h36a0,0,0,0,1,0,0v4.12a13.88,13.88,0,0,1-13.88,13.88H440.21a0,0,0,0,1,0,0v-18A0,0,0,0,1,440.21,18.27Z" transform="translate(762.92 370.55) rotate(-135)"/><path class="vacation-2" d="M369.11,65.45l6.36-6.36L369.34,53q-3.33,3-6.56,6.17Z"/><path class="vacation-2" d="M381.84,52.73l6.36-6.36-5.07-5.07c-2.37,1.87-4.72,3.76-7,5.71Z"/><rect class="vacation-2" x="351.88" y="67.32" width="9" height="9" transform="translate(557.6 374.6) rotate(-135)"/><rect class="vacation-2" x="339.15" y="80.05" width="9" height="9" transform="translate(526.87 387.33) rotate(-135)"/><rect class="vacation-2" x="326.43" y="92.77" width="9" height="9" transform="translate(496.14 400.06) rotate(-135)"/><rect class="vacation-2" x="313.7" y="105.5" width="9" height="9" transform="translate(465.41 412.79) rotate(-135)"/><rect class="vacation-2" x="300.97" y="118.23" width="9" height="9" transform="translate(434.69 425.51) rotate(-135)"/><rect class="vacation-2" x="288.24" y="130.96" width="9" height="9" transform="translate(403.96 438.24) rotate(-135)"/><rect class="vacation-2" x="275.51" y="143.69" width="9" height="9" transform="translate(373.23 450.97) rotate(-135)"/><rect class="vacation-2" x="262.79" y="156.41" width="9" height="9" transform="translate(342.5 463.7) rotate(-135)"/><rect class="vacation-2" x="250.06" y="169.14" width="9" height="9" transform="translate(311.77 476.43) rotate(-135)"/><rect class="vacation-2" x="237.33" y="181.87" width="9" height="9" transform="translate(281.05 489.15) rotate(-135)"/><rect class="vacation-2" x="224.6" y="194.6" width="9" height="9" transform="translate(250.32 501.88) rotate(-135)"/><rect class="vacation-2" x="211.87" y="207.33" width="9" height="9" transform="translate(219.59 514.61) rotate(-135)"/><rect class="vacation-2" x="199.15" y="220.05" width="9" height="9" transform="translate(188.86 527.34) rotate(-135)"/><rect class="vacation-2" x="186.42" y="232.78" width="9" height="9" transform="translate(158.14 540.07) rotate(-135)"/><rect class="vacation-2" x="173.69" y="245.51" width="9" height="9" transform="translate(127.41 552.79) rotate(-135)"/><rect class="vacation-2" x="160.96" y="258.24" width="9" height="9" transform="translate(96.68 565.52) rotate(-135)"/><rect class="vacation-2" x="148.24" y="270.97" width="9" height="9" transform="translate(65.95 578.25) rotate(-135)"/><rect class="vacation-2" x="135.51" y="283.69" width="9" height="9" transform="translate(35.22 590.98) rotate(-135)"/><rect class="vacation-2" x="122.78" y="296.42" width="9" height="9" transform="translate(4.5 603.71) rotate(-135)"/></g>
  </g>
</svg>
