<svg xmlns="http://www.w3.org/2000/svg" viewBox="0 0 18.46 16">
  <defs>
    <style>
      .social-icon {
        fill: #fff;
      }
    </style>
  </defs>
  <title>vimeo</title>
  <g id="Layer_2" data-name="Layer 2">
    <g id="Layer_1-2" data-name="Layer 1"><path
      class="social-icon"
      d="M18.45,3.7q-.12,2.7-3.77,7.4Q10.92,16,8.32,16,6.7,16,5.59,13L4.1,7.54q-.83-3-1.78-3a5.71,5.71,0,0,0-1.45.87L0,4.3Q1.37,3.1,2.69,1.9A6.1,6.1,0,0,1,5.43.23q2.16-.21,2.65,3,.54,3.41.75,4.24.62,2.83,1.37,2.83.58,0,1.74-1.83a7.24,7.24,0,0,0,1.24-2.79Q13.35,4,11.94,4a3.45,3.45,0,0,0-1.37.3Q11.93-.12,15.77,0,18.62.09,18.45,3.7Z"/></g>
  </g>
</svg>
