<svg xmlns="http://www.w3.org/2000/svg" viewBox="0 0 2279.42 652.3">
  <defs>
    <style>
      .accenture-1 {
        fill: #0c0e0f;
      }
    </style>
  </defs>
  <title>accenture-logo</title>
  <g id="Layer_2" data-name="Layer 2">
    <g id="Layer_1-2" data-name="Layer 1"><path
      class="accenture-1"
      d="M165.83,513.82c0,38.25-14.58,89.27-62,89.27-21.87,0-36.45-10.92-36.45-34.6,0-45.58,65.59-54.67,98.4-54.67ZM231.42,645V433.66c0-69.23-43.73-92.93-107.51-92.93-61.94,0-113,27.31-113,94.76H78.36c0-29.16,16.39-45.55,45.55-45.55,34.62,0,41.91,25.51,41.91,54.64v29.16C98.4,475.56,0,484.68,0,574c0,51,40.09,78.35,87.47,78.35,32.79,0,61.94-10.92,76.52-41.89h1.83V645h65.6v0Zm205.9-195c0-31-9.12-60.11-45.55-60.11-43.73,0-56.48,45.55-56.48,82,0,74.71,43.73,131.19,122.08,131.19,18.22,0,34.62-1.83,51-7.29v41.92c-29.16,9.09-58.31,14.57-87.47,14.57-105.68,0-158.52-65.59-158.52-169.44,0-85.65,47.38-142.12,134.83-142.12,72.88,0,113,36.45,113,109.32H437.31Zm266,0c0-31-9.12-60.11-45.56-60.11-43.73,0-56.48,45.55-56.48,82,0,74.71,43.73,131.19,122.08,131.19,16.41,0,34.62-1.83,51-7.29v41.92c-29.16,9.09-58.31,14.57-87.46,14.57-105.68,0-158.52-65.59-158.52-169.44,0-85.65,45.55-142.12,134.83-142.12,72.88,0,113,36.45,113,109.32ZM974.82,437.3H865.5c3.64-31,27.33-51,56.48-51C954.78,386.28,974.82,404.5,974.82,437.3Zm65.6,41.89V461c0-71.06-38.26-120.26-113-120.26-89.28,0-127.54,56.47-127.54,140.29,0,98.39,43.73,171.27,149.41,171.27,29.16,0,56.48-3.64,83.82-12.74V592.19c-18.22,5.45-38.26,10.92-58.31,10.92-65.6,0-111.15-61.93-111.15-123.9h176.74ZM1244.47,645V475.55c0-14.57,1.83-52.84-10.92-63.76-3.64-5.47-12.76-5.47-18.21-5.47-51,0-71.07,71.06-71.07,111.15V645H1075V348h69.23v56.48h1.83c14.59-38.27,45.56-63.77,87.47-63.77,56.48,0,80.18,47.38,80.18,98.4V645h-69.27Zm213.2-247.81V537.51c0,34.6,3.64,65.59,47.37,65.59,10.95,0,21.87-1.83,31-5.47v49.19a282.72,282.72,0,0,1-56.48,5.47c-60.11,0-91.09-20-91.09-82V397.2H1332V348h56.48V276.94l69.23-27.33V348H1547V397.2h-89.31ZM1745.56,645V590.34c-16.39,36.43-47.37,61.93-87.47,61.93-58.29,0-82-47.37-82-98.39V348h69.23V517.47c0,14.57,0,52.84,10.92,63.76,5.47,5.47,12.76,5.47,20.06,5.47,51,0,69.23-69.23,69.23-109.34V348h69.23V645h-69.25Zm182.21-129.36V645h-69.23V348h69.23v54.67h1.83c23.68-40.08,45.55-61.94,96.56-61.94v72.89c-71.06,0-98.39,30.93-98.39,102Zm286.06-78.35H2106.33c1.83-31,25.51-51,56.48-51S2213.84,404.5,2213.84,437.3Zm65.59,41.89V461c0-71.06-36.43-120.26-113-120.26C2079,340.73,2038.9,397.2,2038.9,481c0,98.39,45.58,171.27,151.25,171.27,27.3,0,54.64-3.64,82-12.74V592.19c-16.39,5.45-38.25,10.92-56.47,10.92-67.43,0-111.15-61.93-111.15-123.9h174.92ZM1330.13,0V49.19s138.49,52.84,158.53,60.13c-20,9.1-158.53,61.94-158.53,61.94v49.19L1547,133V87.44Z"/></g>
  </g>
</svg>
