<svg xmlns="http://www.w3.org/2000/svg" viewBox="0 0 885.83 440.31"><defs><style>.cdw-logo-1{fill:#e31836;}</style></defs><title>CDW</title><g id="Layer_2" data-name="Layer 2"><g id="Layer_1-2" data-name="Layer 1"><path class="cdw-logo-1" d="M122,264.33c-18.1,32.79-25,65-12.27,89.88,39.55,77.64,223.31,76.53,399.91,2.56,44.42-18.59,84.69-40.29,119.47-63.6C732.55,223.84,772.65,145.64,743,87.52,703.47,9.88,542.91,1.64,366.32,75.6Q338,87.48,312,100.75l-14.84.1a871.81,871.81,0,0,1,81.75-39.93c200.76-84.09,400-80.71,445,7.56,33.77,66.27-17.66,158.85-136,237.8-39.29,26.21-88.53,53-138.55,74-200.78,84.08-401.93,78.89-446.9-9.38C86.45,339.62,89.2,303,110.29,264.19l11.66.13Zm41.15-56.24c11.48-12.75,23.42-22.91,38.29-35.28l.38-9.48a486,486,0,0,0-49.64,45.11l11-.35"/><path d="M271.5,136.2h6.93c11.41,0,17.21,4.22,20.15,11.41,3.12,7.46,1.92,20.12-1.77,37.5s-7.86,30-14.17,37.49c-6,7.21-13.58,11.43-25,11.43H250.7l20.8-97.83ZM172.61,274.7H260.9c55.15,0,97.58-33.48,109.08-87.61,11.29-53.13-3.42-91.56-75.21-91.56H210.69L172.61,274.7M867.05,107.93V104h3.72c1.64,0,3.43,0,3.43,1.77s-.68,2.19-2.59,2.15h-4.56Zm0,3.18h2.49l3.81,7.06h4.36l-4.19-7.06c3.05-.39,4.7-1.66,4.7-4.83,0-1.79-.46-3.69-2-4.67a9.73,9.73,0,0,0-4.67-.8h-8.28v17.36h3.81Zm2.86,14.77A15.92,15.92,0,1,0,854,110a16,16,0,0,0,15.9,15.92m0-27.6A11.69,11.69,0,1,1,858.24,110a11.65,11.65,0,0,1,11.67-11.69M178.21,202.92C163.7,257.71,119.54,279.31,75,279.31c-62.88,0-83.84-38.23-71.79-94.94,10.1-55.73,51.44-93.45,112.07-93.45,45.25,0,79.67,18.36,67.94,79.89h-65.2c4.13-29.26-2.49-33.23-11.19-33.11-18.37,0-24.1,18.77-30.19,47.42-5.77,27.17-8.59,47.42,9.29,47.42,9.19,0,16.54-5.44,25.54-29.61H178.2M385.7,95.53h63.55L440.48,208h.5L481.52,95.53H555L547.73,208h.5l39-112.45h63.55L574,274.66h-77l8.07-116.22h-.5L463.3,274.66h-77L385.7,95.53Z"/></g></g></svg>
