<?xml version="1.0" encoding="UTF-8" standalone="no"?>
<svg xmlns:svg="http://www.w3.org/2000/svg" xmlns="http://www.w3.org/2000/svg" version="1.1" id="svg8189" viewBox="0 0 938.02363 213.72266" height="213.72266" width="938.02362">
  <defs id="defs8191"/>
  <g transform="translate(129.0118,-285.50088)" id="cellent-logo">
    <path
      id="path36"
      d="m -124.0118,328.57315 0,77.58007 77.482425,0 0,-77.58007 -77.482425,0 z m 922.86519,51.3164 -25.2128,4.44336 4.4433,25.21094 25.2051,-4.44141 -4.4356,-25.21289 z m -364.91792,67.16211 c -2.01388,0 -4.13672,1.61156 -4.13672,4.12891 0,2.37076 1.8679,4.1875 4.13672,4.1875 2.2688,0 4.17968,-1.81674 4.17968,-4.1875 0,-2.46636 -2.11483,-4.12891 -4.17968,-4.12891 z m -48.37696,1.51368 c -0.14659,0 -0.40174,0.0449 -0.55469,0.0449 l -4.42968,0.91211 c -0.45887,0.10197 -0.75782,0.24857 -0.75782,0.60547 l -0.5039,33.01172 c 0,0.65005 0.1015,0.85351 0.85351,0.85351 l 4.03516,0 c 0.65642,0 0.65575,-0.0512 0.9043,-0.55469 l 8.26562,-18.24609 c 1.10891,-2.46636 2.21858,-5.74097 2.875,-8.00977 l 0.10156,0.10157 c -0.20392,1.91191 -0.65603,6.29603 -0.70703,7.85742 l -0.29883,17.99805 c -0.051,0.59907 0.0441,0.85351 0.85352,0.85351 l 4.0332,0 c 0.60544,0 0.65133,-2.4e-4 0.90625,-0.55469 l 14.71485,-32.66211 c 0.10194,-0.19756 0.20312,-0.45087 0.20312,-0.64843 0,-0.15297 -0.15257,-0.4081 -0.70703,-0.55469 l -4.02734,-0.91211 c -0.25493,-0.051 -0.60486,-0.0957 -0.75781,-0.0957 -0.15297,0 -0.50526,0.0963 -0.65821,0.54882 l -7.10547,18.2461 c -1.15988,2.92522 -1.9185,5.59562 -2.51758,8.06836 l -0.10156,-0.10352 c 0.24855,-2.51735 0.55469,-5.39014 0.55469,-7.96484 l 0,-17.48828 c 0,-0.70742 -0.10119,-0.85352 -0.80859,-0.85352 l -3.83008,0 c -0.60544,0 -0.70869,0.0512 -0.90625,0.55469 l -8.01758,18.19336 c -1.05792,2.36439 -2.26154,5.74383 -2.91797,7.66211 l -0.10156,-0.10352 c 0.29954,-1.96926 0.65581,-5.69592 0.75781,-7.50586 l 1.20508,-18.34961 c 0,-0.75838 -0.29978,-0.90429 -0.55469,-0.90429 z m -56.58594,9.22265 c -6.40488,0 -11.94921,8.31723 -11.94921,18.29102 0,5.29599 1.91846,8.3164 5.5957,8.3164 4.38464,0 7.01023,-3.27524 8.11914,-4.53711 0,2.52372 0.40258,4.53711 0.95703,4.53711 0.24855,0 0.45252,-0.10186 0.60547,-0.14648 l 4.0332,-1.56641 c 0.24855,-0.0956 0.59961,-0.1978 0.59961,-0.55468 0,-0.59907 -0.35134,-1.81061 -0.40234,-3.02149 0,-0.75839 0.1538,-2.47312 0.40234,-3.58203 l 3.32617,-15.77344 c 0.051,-0.20393 0.10157,-0.40154 0.10157,-0.60547 0,-0.24855 -0.15319,-0.50195 -0.55469,-0.50195 l -3.98242,0 c -0.35053,0 -0.55408,0.10044 -0.70703,0.50195 l -0.54883,1.36524 c -0.80938,-0.86036 -2.31997,-2.72266 -5.59571,-2.72266 z m 126.63282,0 c -0.25492,0 -0.45888,0.10186 -0.60547,0.14649 l -4.03321,1.5664 c -0.25491,0.10198 -0.60546,0.19779 -0.60546,0.55469 0,0.60544 0.34939,1.8106 0.40039,3.02149 0,0.60543 0.0513,1.51022 -0.19727,2.61914 l -5.74805,27.01562 c -0.051,0.30591 -0.20507,0.75712 -0.20507,1.05664 0,0.25493 9.3e-4,0.45313 0.25586,0.45313 0.15295,0 0.55387,-0.0955 0.75781,-0.14649 l 4.43555,-0.9043 c 0.75201,-0.15295 0.80425,-0.35785 0.90624,-0.86132 l 1.9629,-9.16992 c 0.80937,0.45248 1.9184,1.26171 4.38476,1.26171 8.7183,0 12.80274,-10.99281 12.80274,-19.05468 0,-5.04108 -1.91888,-7.5586 -5.49414,-7.5586 -4.48663,0 -6.80702,3.07183 -8.0625,4.53125 -1e-5,-2.51735 -0.40062,-4.53125 -0.95508,-4.53125 z m 34.71679,0 c -0.24855,0 -0.35095,0.10186 -0.5039,0.14649 l -4.03516,1.5625 c -0.24855,0.10197 -0.59766,0.20366 -0.59765,0.56054 0,0.90498 0.44531,1.60628 0.44531,3.12305 0,1.61238 -0.35107,2.87342 -0.59961,4.12891 l -3.42774,15.17382 c -0.051,0.19757 -0.10178,0.40225 -0.0508,0.54883 0,0.40784 0.25475,0.50977 0.65625,0.50977 l 4.6836,0 c 0.50346,0 0.55408,-0.051 0.70703,-0.60547 l 2.16797,-9.98047 c 0.70741,-3.3777 2.97624,-9.11914 6.85742,-9.11914 0.803,0 1.356,0.34961 1.71289,0.34961 0.10197,0 0.24978,-0.15191 0.30078,-0.25391 l 2.11523,-5.08593 c 0.051,-0.15295 0.10157,-0.25524 0.10157,-0.40821 0,-0.45247 -0.95645,-0.65039 -1.71484,-0.65039 -3.88117,0 -6.44867,3.57502 -7.8125,5.0918 0,-2.82325 -0.45141,-5.0918 -1.00586,-5.0918 z m 31.49414,0 c -8.36778,0 -14.3125,8.11377 -14.3125,17.4375 0,6.44952 3.28071,9.16992 8.57033,9.16992 8.16385,0 14.0078,-8.11181 14.0078,-17.43554 0,-6.44952 -3.17358,-9.17188 -8.26563,-9.17188 z m 87.07422,0 c -8.36778,0 -14.31445,8.11377 -14.31445,17.4375 0,6.44952 3.27629,9.16992 8.57227,9.16992 8.16386,0 14.00781,-8.11181 14.00781,-17.43554 0,-6.44952 -3.17358,-9.17188 -8.26563,-9.17188 z m 28.22072,0 c -0.24855,0 -0.35096,0.10186 -0.50392,0.14649 l -4.03319,1.5625 c -0.24855,0.10197 -0.60547,0.20366 -0.60547,0.56054 0,0.90498 0.45117,1.60628 0.45117,3.12305 0,1.61238 -0.29812,2.87342 -0.59766,4.12891 l -3.42968,15.17382 c 0,0.19757 -0.0508,0.40225 -0.0508,0.54883 0,0.40784 0.25475,0.50977 0.65626,0.50977 l 4.68359,0 c 0.50347,0 0.60698,-0.051 0.70898,-0.60547 l 2.16602,-9.98047 c 0.803,-3.62625 2.82276,-9.87695 6.5,-9.87695 1.15989,0 1.76562,0.80885 1.76562,1.96875 0,1.05792 -0.25535,2.06533 -0.5039,3.07226 l -3.27539,14.36328 c 0,0.19757 -0.0508,0.40225 -0.0508,0.54883 0,0.40784 0.25526,0.50977 0.65039,0.50977 l 4.6914,0 c 0.50348,0 0.60503,-0.051 0.70703,-0.60547 l 2.16602,-9.98047 c 0.803,-3.62625 2.82411,-9.87695 6.6543,-9.87695 1.05792,0 1.50976,0.80885 1.50976,1.96875 0,1.05792 -0.20457,2.06533 -0.45312,3.07226 l -3.32618,14.36328 c 10e-6,0.19757 -0.0508,0.40225 -0.0508,0.54883 0,0.40784 0.25475,0.50977 0.65625,0.50977 l 4.6836,0 c 0.50346,0 0.61336,-0.051 0.70898,-0.60547 l 3.67578,-15.92578 c 0.3059,-1.26186 0.50977,-2.62518 0.50977,-3.93164 0,-3.47968 -1.4655,-5.29102 -4.48633,-5.29102 -4.48661,0 -7.30907,3.47336 -8.41797,5.13672 l -0.10156,0 c 0,-3.3777 -1.45995,-5.13672 -4.2832,-5.13672 -4.12972,0 -7.00335,3.47305 -8.36719,5.0918 0,-2.82325 -0.45335,-5.0918 -1.00781,-5.0918 z m 47.26562,0 c -0.25491,0 -0.4525,0.10186 -0.60547,0.14649 l -4.03321,1.5664 c -0.25493,0.10198 -0.60547,0.19779 -0.60547,0.55469 0,0.60544 0.34939,1.8106 0.40039,3.02149 0,0.60543 0.0513,1.51022 -0.19726,2.61914 l -5.74805,27.01562 c -0.051,0.30591 -0.20313,0.75712 -0.20313,1.05664 0,0.25493 -10e-4,0.45313 0.25391,0.45313 0.15295,0 0.55388,-0.0955 0.75781,-0.14649 l 4.43555,-0.9043 c 0.75201,-0.15295 0.80425,-0.35785 0.90625,-0.86132 l 1.96289,-9.16992 c 0.80938,0.45248 1.91789,1.26171 4.39062,1.26171 8.7183,0 12.79688,-10.99281 12.79688,-19.05468 0,-5.04108 -1.91887,-7.5586 -5.49414,-7.5586 -4.48661,0 -6.80506,3.07183 -8.06055,4.53125 0,-2.51735 -0.40257,-4.53125 -0.95703,-4.53125 z m 38.80078,0 c -6.39851,0 -11.94922,8.31723 -11.94922,18.29102 0,5.29599 1.91847,8.3164 5.59571,8.3164 4.38463,0 7.01022,-3.27524 8.11915,-4.53711 0,2.52372 0.4026,4.53711 0.957,4.53711 0.2549,0 0.4525,-0.10186 0.6055,-0.14648 l 4.0273,-1.56641 c 0.255,-0.0956 0.6114,-0.1978 0.6114,-0.55468 0,-0.59907 -0.3572,-1.81061 -0.4082,-3.02149 0,-0.75839 0.1532,-2.47312 0.4082,-3.58203 l 3.3203,-15.77344 c 0.051,-0.20393 0.1015,-0.40154 0.1015,-0.60547 0,-0.24855 -0.1468,-0.50195 -0.5547,-0.50195 l -3.9824,0 c -0.3505,0 -0.5546,0.10044 -0.7011,0.50195 l -0.5547,1.36524 c -0.8094,-0.86036 -2.32001,-2.72266 -5.59574,-2.72266 z m 30.99024,0 c -0.2549,0 -0.351,0.10186 -0.50391,0.14649 l -4.03319,1.5625 c -0.2549,0.10197 -0.6055,0.20366 -0.6055,0.56054 0,0.90498 0.45119,1.60628 0.45119,3.12305 0,1.61238 -0.29809,2.87342 -0.5977,4.12891 l -3.4297,15.17382 c 0,0.19757 -0.051,0.40225 -0.051,0.54883 0,0.40784 0.2483,0.50977 0.6562,0.50977 l 4.6836,0 c 0.5035,0 0.607,-0.051 0.709,-0.60547 l 2.166,-9.98047 c 0.803,-3.62625 2.4723,-9.87695 7.1055,-9.87695 1.0579,0 1.5117,0.80885 1.5117,1.96875 0,1.05792 -0.1982,2.06533 -0.4531,3.07226 l -3.3262,14.36328 c 0,0.19757 -0.051,0.40225 -0.051,0.54883 0,0.40784 0.2548,0.50977 0.6563,0.50977 l 4.6836,0 c 0.5098,0 0.6114,-0.051 0.707,-0.60547 l 3.6777,-15.92578 c 0.3059,-1.26186 0.5098,-2.62518 0.5098,-3.93164 0,-2.77228 -1.8161,-5.29102 -5.0918,-5.29102 -4.1361,0 -7.0097,3.47305 -8.3672,5.0918 0,-2.82325 -0.4533,-5.0918 -1.0078,-5.0918 z m -174.80274,0.002 c -7.66037,0 -14.01367,6.39763 -14.01367,16.77929 0,6.55148 3.83046,9.82813 9.375,9.82813 2.87423,0 6.85742,-1.40898 6.85742,-2.32031 0,-0.19758 -0.10329,-0.35096 -0.15429,-0.50391 l -1.26172,-3.37695 c -0.051,-0.10198 -0.24744,-0.24805 -0.40039,-0.24805 -0.60544,0 -1.91244,1.15234 -4.28321,1.15234 -2.47273,0 -3.72851,-1.25508 -3.72851,-4.02734 0,-6.4495 2.71435,-12.24805 7.25195,-12.24805 3.18014,0 3.98306,1.26172 4.43555,1.26172 0.15295,0 0.30603,-0.0517 0.45898,-0.30664 l 1.91211,-3.12305 c 0.10198,-0.15296 0.30664,-0.45108 0.30664,-0.59765 0,-0.50985 -2.8237,-2.26953 -6.75586,-2.26953 z m 207.70704,0.40234 c -0.1976,0 -0.6571,0.0491 -1.0586,0.0937 l -3.7285,0.51172 c -0.5545,0.0446 -0.7578,0.29803 -0.7578,0.50195 0,0.14659 -2e-4,0.40134 0.051,0.65625 l 2.6699,22.93164 c 0.051,0.65641 0.3565,0.65625 0.707,0.65625 l 2.0664,0 -1.6641,3.12305 c -0.9558,1.76532 -2.1163,2.51562 -4.2832,2.51562 -1.9182,0 -3.1739,-1.05664 -3.7792,-1.05664 -0.2041,0 -0.2537,0.10231 -0.4512,0.40821 l -1.8164,3.17382 c -0.051,0.15297 -0.1543,0.29823 -0.1543,0.45118 0,0.60543 3.1299,2.06445 5.9531,2.06445 7.3035,0 10.2283,-8.21389 12.8477,-13.60547 l 9.9804,-20.61719 c 0.153,-0.29952 0.3574,-0.64957 0.3574,-0.85351 0,-0.20394 -0.2033,-0.30499 -0.7578,-0.34961 l -3.7363,-0.51172 c -0.4461,-0.0446 -0.7004,-0.0937 -0.9043,-0.0937 -0.2485,0 -0.4019,0.19645 -0.5039,0.40039 l -5.8437,12.85547 c -1.4085,3.0718 -2.6192,6.54481 -3.2247,8.41211 l -0.1015,0 c 0,-0.55446 -0.2046,-5.84556 -0.4531,-9.07031 l -0.9102,-11.5918 c -0.096,-0.80938 -0.096,-1.00586 -0.5039,-1.00586 z m -361.55665,0.45117 c -0.50346,0 -0.65581,0.051 -0.75781,0.60547 l -0.54883,2.82422 c -0.051,0.19756 -0.10156,0.4001 -0.10156,0.59765 0,0.35689 0.20428,0.50977 0.65039,0.50977 l 3.83594,0 -4.08399,19.29883 c -0.051,0.20394 -0.0527,0.40811 -0.0527,0.55469 0,0.40785 0.2567,0.50976 0.6582,0.50976 l 4.6836,0 c 0.50985,0 0.6114,-0.051 0.70703,-0.60547 l 4.93945,-23.18554 c 0.051,-0.15295 0.0508,-0.45232 0.0508,-0.65625 0,-0.29954 -0.19759,-0.45313 -0.60547,-0.45313 l -9.375,0 z m -95.9375,3.67578 c 1.80994,0 2.97013,1.21097 3.72852,1.81641 l -1.76563,8.21484 c -0.70741,3.17377 -2.61943,7.01172 -6.34765,7.01172 -1.36383,0 -2.11524,-1.06444 -2.11524,-3.02734 0,-5.245 2.21095,-14.01563 6.5,-14.01563 z m 394.20508,0 c 1.80997,0 2.97017,1.21097 3.72847,1.81641 l -1.7656,8.21484 c -0.701,3.17377 -2.61889,7.01172 -6.35349,7.01172 -1.35745,0 -2.11524,-1.06444 -2.11524,-3.02734 0,-5.245 2.21681,-14.01563 6.50586,-14.01563 z m -262.12891,0.50977 c 1.56139,0 2.41407,1.30583 2.41407,3.47265 0,5.245 -1.86725,13.40821 -7.00391,13.40821 -1.71434,0 -2.82311,-0.8083 -3.22461,-1.00586 l 1.76563,-8.31641 c 0.803,-3.62625 2.97065,-7.55859 6.04882,-7.55859 z m 58.95118,0 c 2.1732,0 3.07812,1.30697 3.07812,3.67773 0,4.88811 -2.01895,12.85547 -6.70312,12.85547 -2.16683,0 -3.07227,-1.31283 -3.07227,-3.68359 0,-4.88811 2.01309,-12.84961 6.69727,-12.84961 z m 87.07422,0 c 2.16683,0 3.07812,1.30697 3.07812,3.67773 0,4.88811 -2.01895,12.85547 -6.70312,12.85547 -2.16683,0 -3.07227,-1.31283 -3.07227,-3.68359 0,-4.88811 2.01309,-12.84961 6.69727,-12.84961 z m 82.74609,0 c 1.56139,0 2.41601,1.30583 2.41601,3.47265 0,5.245 -1.86282,13.40821 -7.00585,13.40821 -1.71434,0 -2.82311,-0.8083 -3.22461,-1.00586 l 1.76562,-8.31641 c 0.803,-3.62625 2.97065,-7.55859 6.04883,-7.55859 z"
      style="fill:#b9b8b8;fill-opacity:1;fill-rule:nonzero;stroke:none"/>
    <path d="m -46.522943,328.58009 77.572498,0 0,77.5725 -77.572498,0 0,-77.5725 z" style="fill:#f1f1f1;fill-opacity:1;fill-rule:evenodd;stroke:none" id="cellent38"/>
    <path
      id="path40"
      d="m 450.05851,290.50088 -25.39648,3.60156 0,2.79102 c 4.59496,0.32502 12.78515,0.64948 12.78515,10.81445 l 0,97.48828 12.61133,0 0,-114.69531 z m 49.29102,0 -25.39649,3.60156 0,2.79102 c 4.59497,0.32502 12.78321,0.64948 12.78321,10.81445 l 0,97.48828 12.61328,0 0,-114.69531 z m 233.50776,13.59961 -12.44136,10.97461 0,13.93164 -12.625,0 0,5.57031 12.625,0 0,49.32031 c 0,15.39724 1.47224,23.09571 23.40816,23.09571 3.1356,0 6.2347,-0.326 9.3575,-0.98242 l 0,-6.06055 c -1.9693,0.32502 -4.0921,0.65039 -6.2207,0.65039 -8.03,0 -13.9375,-2.12838 -13.9375,-11.94922 l 0,-54.07422 20.1582,0 0,-5.57031 -20.3243,0 0,-24.90625 z m -439.16206,23.09766 c -23.60569,0 -32.27148,16.88068 -32.27148,37.52929 0,24.89941 10.64857,42.26758 39.31445,42.26758 8.03639,0 14.08487,-1.47199 17.53906,-2.61914 l 0,-4.74805 c -2.95071,0.48435 -6.06738,0.97461 -9.01172,0.97461 -23.59932,0 -33.92383,-21.78401 -33.92383,-41.45117 0,-16.38506 6.71086,-25.55469 17.03516,-25.55469 10.9871,0 13.93164,7.69884 13.93164,14.41602 l 15.23828,0 c 0,-10.48364 -10.32572,-20.81445 -27.85156,-20.81445 z m 87.2793,0.002 c -23.92435,0 -32.92969,13.93244 -32.92969,37.52539 0,27.35941 14.09067,42.26562 38.16797,42.26562 10.16497,0 18.36183,-2.1232 20.31836,-2.94531 l 0,-5.4043 c -3.58801,0.98783 -7.68699,1.95703 -11.61914,1.95703 -22.77721,0 -34.24805,-23.09641 -34.24805,-38.98437 l 0,-3.44727 47.83594,0 0,-2.45898 c 0,-19.49509 -12.12179,-28.50781 -27.52539,-28.50781 z m 181.26562,0 c -23.91161,0 -32.94726,13.93244 -32.94726,37.52539 0,27.35941 14.10968,42.26562 38.19336,42.26562 10.16497,0 18.34766,-2.1232 20.31054,-2.94531 l 0,-5.4043 c -3.58801,0.98783 -7.70507,1.95703 -11.63086,1.95703 -22.7772,0 -34.24804,-23.09641 -34.24804,-38.98437 l 0,-3.44727 47.86132,0 0,-2.45898 c 0,-19.49509 -12.12908,-28.50781 -27.53906,-28.50781 z m 71.05469,0.004 -25.08984,3.92578 0,2.79101 c 4.77976,0.49073 12.46484,0.98726 12.46484,10.81446 l 0,60.46093 12.625,0 0,-39.00195 c 0,-10.80865 11.12767,-30.95508 23.08984,-30.95508 11.4842,0 11.48438,8.18302 11.48438,17.03516 l 0,52.92187 12.625,0 0,-58.32617 c 0,-11.63077 -3.62674,-19.66601 -19.50195,-19.66601 -16.38505,0 -24.91892,15.40328 -27.37891,21.78906 l -0.31836,0 0,-21.78906 z m -602.246085,1.37695 0,77.57227 77.554675,0 0,-77.57227 -77.554675,0 z m 347.796865,5.01168 c 9.83359,0 15.4043,8.36241 15.4043,17.5332 l 0,1.4707 -33.42578,0 c 0.49072,-5.56365 3.12134,-19.0039 18.02148,-19.0039 z m 181.2793,0 c 9.82084,0 15.39062,8.36241 15.39062,17.5332 l 0,1.4707 -33.41405,0 c 0.47798,-5.56365 3.0978,-19.0039 18.02344,-19.0039 z"
      style="fill:#014380;fill-opacity:1;fill-rule:evenodd;stroke:none"/>
    <path d="m 108.59656,328.58009 77.57887,0 0,77.5725 -77.57887,0 0,-77.5725 z" style="fill:#e0e0e0;fill-opacity:1;fill-rule:evenodd;stroke:none" id="cellent42"/>
  </g>
</svg>
