<?xml version="1.0" encoding="utf-8"?>
<!-- Generator: Adobe Illustrator 16.0.0, SVG Export Plug-In . SVG Version: 6.00 Build 0)  -->
<!DOCTYPE svg PUBLIC "-//W3C//DTD SVG 1.1//EN" "http://www.w3.org/Graphics/SVG/1.1/DTD/svg11.dtd">
<svg version="1.1" id="Layer_1" xmlns="http://www.w3.org/2000/svg" xmlns:xlink="http://www.w3.org/1999/xlink" x="0px" y="0px"
	 width="270.75px" height="88.917px" viewBox="0 0 270.75 88.917" enable-background="new 0 0 270.75 88.917" xml:space="preserve">
<path fill="#D52628" d="M262.17,33.32h0.389c0.479,0,0.848-0.155,0.848-0.559c0-0.323-0.23-0.57-0.787-0.57
	c-0.197,0-0.342,0-0.447,0.013L262.17,33.32L262.17,33.32z M262.17,35.541h-0.816v-3.859c0.309-0.049,0.648-0.108,1.233-0.108
	c0.663,0,1.065,0.108,1.328,0.307c0.218,0.171,0.34,0.434,0.34,0.836c0,0.462-0.323,0.789-0.739,0.894v0.035
	c0.34,0.06,0.559,0.369,0.617,0.937c0.077,0.605,0.157,0.84,0.219,0.959h-0.854c-0.094-0.138-0.156-0.478-0.23-1.001
	c-0.062-0.415-0.31-0.589-0.727-0.589h-0.371V35.541L262.17,35.541z M262.757,30.735c-1.446,0-2.625,1.255-2.625,2.799
	c0,1.564,1.179,2.785,2.642,2.785c1.469,0.01,2.656-1.221,2.656-2.785c0-1.543-1.188-2.799-2.656-2.799H262.757z M262.789,30.042
	c1.914,0,3.445,1.562,3.445,3.479c0,1.946-1.531,3.489-3.463,3.489c-1.914,0-3.476-1.543-3.476-3.489
	c0-1.917,1.562-3.479,3.476-3.479H262.789z"/>
<path fill="#D52628" d="M22.016,37.175c-4.441,0-8.082-1.522-10.824-4.526c-2.588-2.85-3.898-6.552-3.898-11.014
	c0-3.681,0.738-6.728,2.258-9.312c2.584-4.479,7.296-7.154,12.603-7.154c3.299,0,6.482,0.921,8.521,2.462l0.718,0.544l-3.51,4.583
	l-0.7-0.459c-1.548-1.021-3.129-1.499-4.98-1.499c-2.401,0-4.408,1.097-5.645,3.081c-1.045,1.667-1.53,3.957-1.53,7.204
	c0,3.259,0.333,5.243,1.148,6.847c1.174,2.354,3.428,3.646,6.355,3.646c2.09,0,3.557-0.476,5.225-1.692l0.688-0.5l3.647,4.505
	l-0.795,0.548C28.62,36.282,25.583,37.175,22.016,37.175"/>
<path fill="#D52628" d="M48.271,31.689c-2.12,0-4.387-0.612-4.387-7.956c0-6.425,2.036-7.311,4.239-7.311
	c2.301,0,4.435,0.942,4.435,7.773C52.558,30.915,50.112,31.689,48.271,31.689 M48.067,10.761c-7.426,0-12.229,5.22-12.229,13.291
	c0,8.048,4.842,13.252,12.333,13.252c7.524,0,12.385-5.18,12.385-13.197C60.557,15.874,55.772,10.761,48.067,10.761"/>
<path fill="#D52628" d="M99.734,36.697h-7.328v-17.21c0-2.65-0.588-2.65-1.771-2.65c-1.315,0-2.743,0.691-4.598,2.231v17.629h-7.169
	V19.628c0-2.627-0.592-2.739-1.93-2.739c-1.35,0-2.881,0.643-4.434,1.862v17.946h-7.277V18.881c0-2.676-0.254-4.398-0.83-5.562
	l-0.491-0.994l6.797-1.734l0.355,0.509c0.367,0.525,0.644,1.138,0.828,1.856c1.948-1.426,4.119-2.194,6.234-2.194
	c2.698,0,4.642,0.914,6.344,3.027c2.459-2.062,4.897-3.027,7.606-3.027c5.017,0,7.665,2.691,7.665,7.796L99.734,36.697
	L99.734,36.697z"/>
<path fill="#D52628" d="M117.147,31.319c-1.255,0-2.7-0.6-3.929-1.613v-10.96c1.316-1.248,2.897-1.905,4.588-1.905
	c2.427,0,3.934,1.202,3.934,7.211C121.74,30.454,119.419,31.319,117.147,31.319 M118.897,10.808c-2.332,0-4.495,0.653-6.178,1.842
	c-0.069-0.478-0.164-0.875-0.305-1.312l-0.236-0.735l-6.871,1.115l0.192,0.916c0.348,1.664,0.495,2.822,0.495,5.69v28.641
	l7.224-1.678v-8.599c0-0.246-0.005-0.481-0.01-0.702c1.585,0.782,3.345,1.188,5.171,1.188c7.018,0,11.206-5.113,11.206-13.677
	C129.586,14.141,124.062,10.808,118.897,10.808"/>
<path fill="#D52628" d="M153.234,37.616l-0.479-0.318c-0.929-0.614-1.588-1.303-2.077-2.192c-1.898,1.525-4.275,2.296-7.069,2.296
	c-3.004,0-5.599-0.961-7.119-2.632c-1.203-1.306-1.674-3.042-1.674-6.199V11.824l7.331-1.223v16.856
	c0,3.255,0.649,4.194,2.902,4.194c1.493,0,3.387-1.113,4.174-2.422V11.828l7.234-1.229v18.814c0,2.973,1.188,3.953,1.234,3.995
	l0.988,0.792l-1.057,0.681L153.234,37.616z"/>
<path fill="#D52628" d="M177.846,37.175c-4.43,0-8.072-1.522-10.828-4.523c-2.588-2.853-3.895-6.556-3.895-11.017
	c0-3.684,0.736-6.729,2.26-9.312c2.581-4.479,7.295-7.154,12.602-7.154c3.304,0,6.481,0.921,8.512,2.463l0.722,0.543l-3.512,4.588
	l-0.695-0.465c-1.538-1.022-3.12-1.499-4.981-1.499c-2.4,0-4.402,1.097-5.637,3.078c-1.035,1.65-1.541,4.006-1.541,7.207
	c0,3.256,0.336,5.239,1.156,6.844c1.176,2.356,3.428,3.649,6.35,3.649c2.086,0,3.552-0.476,5.227-1.692l0.688-0.5l3.655,4.505
	l-0.8,0.548C184.441,36.282,181.406,37.175,177.846,37.175"/>
<path fill="#D52628" d="M204.098,31.689c-2.119,0-4.386-0.612-4.386-7.956c0-6.425,2.034-7.311,4.233-7.311
	c2.308,0,4.441,0.942,4.441,7.773C208.387,30.915,205.939,31.689,204.098,31.689 M203.893,10.761
	c-7.429,0-12.226,5.22-12.226,13.291c0,8.048,4.842,13.252,12.341,13.252c7.516,0,12.372-5.18,12.372-13.197
	C216.38,15.874,211.596,10.761,203.893,10.761"/>
<path fill="#D52628" d="M256.594,36.697h-7.333v-17.21c0-2.65-0.59-2.65-1.772-2.65c-1.317,0-2.743,0.691-4.59,2.231v17.629h-7.178
	V19.628c0-2.627-0.589-2.739-1.927-2.739c-1.358,0-2.885,0.643-4.435,1.862v17.946h-7.282V18.881c0-2.676-0.253-4.391-0.828-5.564
	l-0.483-0.991l6.795-1.734l0.354,0.509c0.362,0.522,0.64,1.138,0.821,1.851c1.951-1.421,4.121-2.189,6.24-2.189
	c2.688,0,4.635,0.914,6.342,3.027c2.455-2.062,4.891-3.027,7.603-3.027c5.021,0,7.673,2.691,7.673,7.796V36.697z"/>
<g>
	<g>
		<path fill="#828282" d="M261.953,67.634v3.338h0.824v-2.5l0.964,2.5h0.376l0.938-2.5v2.5h0.824v-3.338h-1.199l-0.75,2.025
			l-0.776-2.025H261.953z M258.313,67.634v0.688h1.025v2.65h0.91v-2.65h1.027v-0.688H258.313z M244.886,82.824h3.631v-7.385
			c0.623-1.074,1.475-1.826,2.602-1.826c1.151,0,1.625,0.774,1.625,2.377v6.834h3.655V75.49c0-2.928-1.425-4.478-3.929-4.478
			c-1.576,0-2.778,0.476-3.952,1.677v-1.451h-3.632V82.824L244.886,82.824z M234.604,77.044c0-2.004,1.073-3.277,2.603-3.277
			c1.527,0,2.604,1.273,2.604,3.277c0,2.002-1.054,3.252-2.604,3.252C235.653,80.296,234.604,79.046,234.604,77.044 M230.851,77.044
			c0,3.525,2.551,6.004,6.354,6.004c3.829,0,6.383-2.5,6.383-6.004c0-3.506-2.554-6.031-6.383-6.031
			C233.401,71.012,230.851,73.512,230.851,77.044 M225.871,82.824h3.652V71.238h-3.652V82.824z M225.746,67.486
			c0,1.076,0.853,1.948,1.951,1.948c1.103,0,1.951-0.853,1.951-1.948c0-1.104-0.851-1.955-1.951-1.955
			S225.746,66.408,225.746,67.486 M217.065,73.764v4.254c0,3.478,0.975,5.054,4.102,5.054c1.178,0,2.354-0.226,3.504-0.65
			l-0.023-2.727c-0.805,0.373-1.525,0.574-2.204,0.574c-1.476,0-1.748-0.625-1.748-2.226v-4.279h3.952v-2.526h-3.952v-3.379h-0.553
			l-4.729,5.131v0.774H217.065z M210.909,81.371v1.453h3.653V71.238h-3.653v7.383c-0.701,1.225-1.604,1.824-2.604,1.824
			c-1.148,0-1.629-0.775-1.629-2.377v-6.83h-3.651v7.33c0,2.928,1.452,4.479,3.955,4.479
			C208.556,83.048,209.733,82.572,210.909,81.371 M197.396,82.824h3.651v-17.09h-3.651V82.824z M187.11,77.044
			c0-2.004,1.079-3.277,2.605-3.277c1.522,0,2.602,1.273,2.602,3.277c0,2.002-1.053,3.252-2.602,3.252
			C188.165,80.296,187.11,79.046,187.11,77.044 M183.357,77.044c0,3.525,2.556,6.004,6.358,6.004c3.83,0,6.379-2.5,6.379-6.004
			c0-3.506-2.549-6.031-6.379-6.031C185.913,71.012,183.357,73.512,183.357,77.044 M169.821,81.471
			c1.827,1.101,3.805,1.649,5.932,1.649c4.305,0,6.756-1.977,6.756-5.077c0-1.902-0.752-3.354-2.252-4.279
			c-1.273-0.774-2.727-1.254-4.254-1.827c-1.551-0.574-2.302-1.203-2.302-1.9c0-0.877,0.854-1.377,2.502-1.377
			c1.575,0,3.404,0.604,5.581,1.701v-3.502c-1.953-0.949-3.93-1.4-5.805-1.4c-3.93,0-6.458,2.076-6.458,4.928
			c0,3.104,2.101,4.529,6.407,6.031c1.5,0.525,2.273,0.852,2.273,1.873c0,1.004-0.875,1.527-2.551,1.527
			c-1.926,0-3.682-0.824-5.832-2.148L169.821,81.471L169.821,81.471z M158.587,82.824h4.356l-4.531-6.008l4.479-5.578h-4.381
			l-4.451,5.578L158.587,82.824z M150.382,82.824h3.629v-17.09h-3.629V82.824z M140.222,82.197c1.175,0.576,2.527,0.875,4.078,0.875
			c3.08,0,4.756-1.377,4.756-3.728c0-1.556-0.754-2.502-2.428-3.229c-2.054-0.898-3.254-1.174-3.254-1.9
			c0-0.574,0.477-0.898,1.377-0.898c1.073,0,2.275,0.424,3.7,1.174v-2.551c-1.225-0.625-2.5-0.926-3.952-0.926
			c-2.729,0-4.479,1.477-4.479,3.654c0,2.301,1.45,2.75,3.729,3.699c1.198,0.5,1.826,0.803,1.826,1.43
			c0,0.572-0.574,0.875-1.752,0.875c-0.777,0-2.025-0.326-3.604-1.051v2.576H140.222z M139.068,81.548v-2.402
			c-1.498,1.051-2.974,1.549-4.399,1.549c-2.18,0-3.527-1.125-3.527-2.978v-0.049h8.203v-0.125c0-4.104-2.272-6.531-5.879-6.531
			c-3.68,0-6.08,2.328-6.08,5.881c0,3.802,2.326,6.181,6.384,6.181C135.769,83.072,137.494,82.572,139.068,81.548 M131.165,75.889
			c0.199-1.551,1.102-2.399,2.325-2.399c1.202,0,2.052,0.875,2.179,2.399H131.165z M113.949,69.184h3.177
			c2.927,0,4.93,2.104,4.93,5.08c0,2.978-2.003,5.104-4.93,5.104h-3.177V69.184z M109.67,82.824h6.405
			c2.454,0,4.455-0.076,6.382-1.303c2.603-1.652,4.004-4.203,4.004-7.257c0-2.776-1.152-5.104-3.33-6.758
			c-2.127-1.599-4.33-1.774-7.058-1.774h-6.405L109.67,82.824L109.67,82.824z M100.511,73.764v4.254
			c0,3.478,0.976,5.054,4.104,5.054c1.178,0,2.354-0.226,3.503-0.65l-0.023-2.727c-0.8,0.373-1.529,0.574-2.203,0.574
			c-1.476,0-1.751-0.625-1.751-2.226v-4.279h3.954v-2.526h-3.954v-3.379h-0.55L98.86,72.99v0.774H100.511z M89.928,82.824h3.653
			v-4.979c0.5-2.179,1.701-3.431,3.052-3.431c0.651,0,1.251,0.3,1.927,0.828l0.977-3.33c-0.852-0.551-1.576-0.852-2.301-0.852
			c-1.427,0-2.479,1.076-3.654,3.277v-3.102h-3.653L89.928,82.824L89.928,82.824z M83.723,80.046
			c-0.678,0.477-1.303,0.725-1.853,0.725c-0.801,0-1.277-0.475-1.277-1.227c0-1.053,1.001-1.576,3.129-2.326L83.723,80.046
			L83.723,80.046z M83.898,81.746c0.125,0.854,0.774,1.277,1.951,1.277c1,0,2.027-0.326,3.202-0.902v-2.025
			c-0.425,0.176-0.774,0.301-1.149,0.301s-0.478-0.25-0.478-0.727v-4.604c0-2.804-1.375-4.054-4.752-4.054
			c-2.052,0-3.73,0.425-5.156,1.397l-0.051,2.879c1.352-1.25,2.753-1.852,4.005-1.852c1.526,0,2.277,0.5,2.277,1.627
			c0,0.1,0,0.199-0.025,0.324c-4.581,1.324-6.807,2.178-6.807,4.428c0,2.127,1.152,3.229,3.378,3.229
			C81.647,83.048,82.821,82.623,83.898,81.746 M56.373,82.824H60v-7.385c0.725-1.226,1.602-1.826,2.602-1.826
			c1.203,0,1.628,0.774,1.628,2.377v6.834h3.552v-7.385c0.726-1.226,1.601-1.826,2.602-1.826c1.226,0,1.628,0.774,1.628,2.377v6.834
			h3.651V75.49c0-2.928-1.424-4.478-3.927-4.478c-1.803,0-2.978,0.625-4.403,2.125c-0.601-1.45-1.703-2.125-3.43-2.125
			c-1.548,0-2.776,0.522-3.903,1.677v-1.451h-3.628C56.372,71.238,56.372,82.824,56.373,82.824z M42.136,81.471
			c1.826,1.101,3.804,1.649,5.931,1.649c4.304,0,6.755-1.977,6.755-5.077c0-1.902-0.75-3.354-2.251-4.279
			c-1.276-0.774-2.726-1.254-4.254-1.827c-1.551-0.574-2.301-1.203-2.301-1.9c0-0.877,0.849-1.377,2.5-1.377
			c1.578,0,3.404,0.604,5.582,1.701v-3.502c-1.953-0.949-3.928-1.4-5.807-1.4c-3.928,0-6.454,2.076-6.454,4.928
			c0,3.104,2.101,4.529,6.404,6.031c1.503,0.525,2.278,0.852,2.278,1.873c0,1.004-0.876,1.527-2.553,1.527
			c-1.927,0-3.678-0.824-5.83-2.148V81.471z"/>
	</g>
</g>
</svg>
