<svg xmlns="http://www.w3.org/2000/svg" viewBox="0 0 761.07501 215.9375">
  <path
    d="M592.325 93.16c0 2.178-.436 7.118-1.308 12.64l-6.248 43.153h-18.89l5.958-40.392c.58-4.212 1.016-8.137 1.016-10.606 0-6.538-2.907-9.155-10.46-9.155-4.36 0-10.318 1.015-15.403 2.47l-8.28 57.683h-18.89l10.462-74.103h12.642l2.613 6.685c8.284-4.796 18.6-8.137 25.43-8.137 14.24 0 21.358 6.685 21.358 19.76M658.678 76.014l-2.034 14.094c-7.41-.726-16.274-1.31-21.36-1.31-13.075 0-16.855 5.232-19.324 24.122-.726 4.65-1.016 8.136-1.016 10.897 0 7.846 3.92 11.188 13.51 11.188 5.667 0 14.387-.58 21.65-1.307l-.143 14.238c-7.993 1.455-18.308 2.47-24.846 2.47-20.488 0-30.077-7.99-30.077-24.847 0-4.65.435-9.59 1.162-14.674 3.777-27.608 13.51-37.488 37.486-37.488 6.54 0 17.146 1.163 24.99 2.616M683.45 148.953h-9.59L661.365 74.85h19.615l8.283 60.882-5.814 13.22M77.88 48.843l-1.597 14.53c-9.59-.436-17.582-.728-23.54-.728-20.923 0-27.316 7.847-31.384 37.197-.872 6.393-1.454 11.915-1.454 16.418 0 13.513 6.103 18.745 21.214 18.745 6.54 0 14.82-.29 24.264-.728l-.726 14.82c-8.572.872-19.18 1.31-25.863 1.31C13.077 150.407 0 139.51 0 118.005c0-5.667.582-12.352 1.744-20.195C6.83 59.45 18.454 47.244 51.29 47.244c7.847 0 18.164.728 26.59 1.6"
    fill="#000"></path>
  <path
    d="M88.822 121.056c0 9.88 3.923 14.966 13.222 14.966 13.37 0 19.47-17 19.47-33.564 0-9.88-3.777-14.676-13.076-14.676-13.367 0-19.616 16.71-19.616 33.274zm52.308-21.36c0 31.967-13.804 50.71-39.957 50.71-21.36 0-31.82-9.588-31.82-27.607 0-31.82 13.804-49.402 39.957-49.402 21.36 0 31.82 9.01 31.82 26.3M212.73 93.16c0 2.178-.435 7.118-1.306 12.64l-6.248 43.153h-18.89l5.96-40.392c.58-4.212 1.015-8.137 1.015-10.606 0-6.538-2.904-9.155-10.46-9.155-4.36 0-10.316 1.015-15.4 2.47l-8.284 57.683h-18.89L150.69 74.85h12.64l2.616 6.685c8.282-4.796 18.598-8.137 25.427-8.137 14.238 0 21.358 6.685 21.358 19.76M279.26 76.014l-2.036 14.094c-7.41-.726-16.274-1.31-21.36-1.31-13.075 0-16.855 5.232-19.324 24.122-.726 4.65-1.016 8.136-1.016 10.897 0 7.846 3.922 11.188 13.51 11.188 5.667 0 14.387-.58 21.652-1.307l-.145 14.238c-7.993 1.455-18.308 2.47-24.846 2.47-20.488 0-30.076-7.99-30.076-24.847 0-4.65.435-9.59 1.16-14.674 3.78-27.608 13.513-37.488 37.49-37.488 6.537 0 17.145 1.163 24.99 2.616M339.836 148.953h-12.35l-2.615-6.247c-9.01 4.94-18.017 7.7-25.136 7.7-14.095 0-21.505-6.83-21.36-19.325 0-2.76.435-6.392 1.016-11.04l6.394-45.19h18.89l-6.104 44.026c-.58 3.633-.726 5.812-.87 7.847-.146 6.1 2.76 8.282 10.314 8.282 4.504 0 10.464-1.017 15.55-2.326l7.845-57.83h18.886l-10.46 74.103M404 74.706l-2.18 16.418c-2.47-.29-4.505-.435-6.247-.435-8.574 0-15.838 1.453-21.07 4.21l-7.41 54.053h-18.888l10.46-74.103h12.35l3.053 9.447c6.972-7.12 14.966-10.9 22.086-10.9 3.195 0 6.1.726 7.846 1.308M500.24 105.55l1.3-9.05c0-5.81-4.07-9.153-10.46-9.153-9.592 0-14.822 5.375-17.73 17.58l-.675 3.535 27.566-2.91zm-28.78 10.276c-.144 1.887-.288 3.777-.288 5.52 0 9.88 4.94 14.094 15.982 14.094 7.846 0 17.29-.726 25.28-2.035l-.144 13.514c-8.717 2.178-19.76 3.487-27.46 3.487-22.375 0-33.42-9.445-33.42-27.898 0-3.052.145-6.25.727-11.19 3.198-24.265 16.563-37.922 39.668-37.922 18.16 0 30.023 10.07 28.33 22.085-1.69 12.013-3.316 22.068-3.316 22.068l-47.9 5.724M455.8 74.706l-2.184 16.418c-2.47-.29-4.502-.435-6.245-.435-8.573 0-15.836 1.453-21.07 4.21l-7.41 54.053h-18.886l10.46-74.103h12.35l3.052 9.447c6.973-7.12 14.966-10.9 22.086-10.9 3.195 0 6.102.726 7.847 1.308"
    fill="#000"></path>
  <path
    d="M760.25 45.7c-.245-.948-.494-1.903-.746-2.872l-.465-1.7-.624-1.703-1.312-3.453c-.455-1.16-1.085-2.287-1.646-3.443-1.088-2.34-2.555-4.558-4.048-6.82-1.262-1.773-2.66-3.513-4.14-5.21C725.76-1.046 680.34-6.737 619.74 8.866c-35.335 9.096-71.324 24.277-104.745 43.178l13.238-.942c20.775-10.176 42.273-18.568 63.587-24.52 17.58-5.95 34.936-10.376 51.65-12.943 5.216-.843 10.375-1.516 15.452-1.986 11.168-1.036 21.962-1 32.06.168 5.062.53 9.904 1.538 14.544 2.7 2.272.723 4.58 1.262 6.71 2.148 1.078.413 2.16.795 3.212 1.222l3.053 1.417c1.03.437 1.986.98 2.93 1.525.94.55 1.908 1.043 2.803 1.623 1.74 1.226 3.54 2.326 5.055 3.704 3.22 2.545 5.783 5.545 7.955 8.577 4.215 6.19 6.305 12.872 7.006 19 .714 6.153.154 11.738-.6 16.514-.45 2.385-.84 4.6-1.432 6.584l-.757 2.857c-.247.904-.57 1.742-.826 2.543-.55 1.595-.975 3.02-1.453 4.22-.48 1.196-.887 2.204-1.215 3.014l-.99 2.458-.48 1.026-.646 1.382c-.744 1.588-1.804 3.963-3.45 6.946-3.174 6.01-8.32 14.634-16.116 24.808-3.84 5.122-8.455 10.542-13.628 16.31-5.22 5.733-11.14 11.702-17.685 17.87-13.19 12.225-29.014 25.125-47.49 37.586-7.74 5.24-15.957 10.42-24.58 15.473 11.488-1.734-3.654 1.418 5.438-.85 35.782-16.85 98.157-52.433 131.032-114.294 1.184-2.226 2.184-4.504 3.164-6.745 7.617-17.433 9.97-32.806 7.717-45.74"
    fill="#459adb"></path>
  <path
    d="M744.25 53.74c-.703-6.128-2.793-12.81-7.008-19-2.17-3.033-4.735-6.033-7.955-8.578-1.513-1.378-3.315-2.478-5.055-3.704-.895-.58-1.863-1.073-2.803-1.623-.944-.546-1.9-1.088-2.93-1.526l-3.053-1.418c-1.05-.427-2.133-.81-3.21-1.222-2.132-.886-4.44-1.425-6.71-2.148-4.64-1.162-9.483-2.17-14.545-2.7-10.098-1.168-20.892-1.204-32.06-.168-5.077.47-10.236 1.143-15.453 1.986-14.77 2.39-31.98 5.692-46.916 11.377 42.263-11.21 78.987-9.998 100.53.972 2 1.017 3.88 2.123 5.652 3.305 19.995 13.343 25.516 37.1 11.87 68.373-1.79 4.098-7.95 15.785-9.285 17.573-22.174 35.984-63.698 72.655-111.8 100.698 6.63-.795 13.08-1.658 19.27-2.59.036-.006.074-.01.11-.017 8.623-5.052 16.84-10.233 24.58-15.472 18.476-12.462 34.3-25.36 47.49-37.586 6.545-6.168 12.465-12.137 17.686-17.87 5.173-5.768 9.787-11.188 13.628-16.31 7.795-10.174 12.942-18.8 16.115-24.808 1.646-2.983 2.706-5.358 3.45-6.946.26-.56.474-1.016.645-1.382l.48-1.026.99-2.458c.328-.81.734-1.818 1.216-3.014.48-1.2.903-2.625 1.454-4.22.257-.8.58-1.64.827-2.542l.758-2.858c.593-1.985.98-4.2 1.433-6.584.754-4.776 1.314-10.36.6-16.515"
    fill="#000"></path>
</svg>
