<svg id="Layer_1" data-name="Layer 1" xmlns="http://www.w3.org/2000/svg" viewBox="0 0 240 56"><defs><style>.cls-1{fill:#69be28;}.cls-2{fill:#707173;}</style></defs><title>dimension-data</title><path class="cls-1" d="M211.77,1.57a3.16,3.16,0,0,0-5.46,0L192.75,25A32.38,32.38,0,0,0,209,29.41,32.4,32.4,0,0,0,225.32,25Z"/><path class="cls-1" d="M239.59,49.93,226,26.46a32.56,32.56,0,0,0-16.31,28.2h27.11a3.17,3.17,0,0,0,2.74-4.73Z"/><path class="cls-1" d="M191.9,26.41,178.29,49.85a3.17,3.17,0,0,0,0,3.14A3.25,3.25,0,0,0,181,54.65h27.1A32.54,32.54,0,0,0,191.9,26.41Z"/><path class="cls-2" d="M13.46,9.56H13.4a5.34,5.34,0,0,0-2.3-2A7.11,7.11,0,0,0,8,6.85a7.46,7.46,0,0,0-3.51.79A7.54,7.54,0,0,0,2,9.73a9.16,9.16,0,0,0-1.51,3A12.22,12.22,0,0,0,0,16.25,13,13,0,0,0,.51,19.9,9.7,9.7,0,0,0,2,23a7.17,7.17,0,0,0,2.54,2.14,7.75,7.75,0,0,0,3.58.79,7.64,7.64,0,0,0,3.21-.65,5.13,5.13,0,0,0,2.3-2.12h.07v2.31h4.73V.43h-5Zm0,9a5.91,5.91,0,0,1-.7,1.87,3.74,3.74,0,0,1-1.31,1.31,4,4,0,0,1-2.05.49,3.7,3.7,0,0,1-2-.51A4.37,4.37,0,0,1,6,20.37a5.74,5.74,0,0,1-.79-1.87A9.23,9.23,0,0,1,5,16.39a10,10,0,0,1,.23-2.16,5.75,5.75,0,0,1,.74-1.84,3.88,3.88,0,0,1,1.35-1.3,4.05,4.05,0,0,1,2.07-.49,3.86,3.86,0,0,1,2,.49,4.06,4.06,0,0,1,1.32,1.28,5.26,5.26,0,0,1,.72,1.82,10.79,10.79,0,0,1,.21,2.15A11.05,11.05,0,0,1,13.43,18.53Z"/><rect class="cls-2" x="22.34" y="0.43" width="4.98" height="4.1"/><rect class="cls-2" x="22.34" y="7.35" width="4.98" height="18.12"/><path class="cls-2" d="M57.22,8.32a5.36,5.36,0,0,0-2.1-1.12,9.66,9.66,0,0,0-2.66-.35,5.83,5.83,0,0,0-3.28.91A7.71,7.71,0,0,0,47,9.86a4.41,4.41,0,0,0-2.16-2.34,7.3,7.3,0,0,0-3.14-.67,6.42,6.42,0,0,0-3.17.77,7.09,7.09,0,0,0-2.37,2.17h-.07V7.34h-4.7V25.47h5V14.94a5.13,5.13,0,0,1,.39-2.16,3.48,3.48,0,0,1,.93-1.26,3.09,3.09,0,0,1,1.12-.6,3.76,3.76,0,0,1,.93-.16,3.31,3.31,0,0,1,1.81.4,2.25,2.25,0,0,1,.88,1.07,4.48,4.48,0,0,1,.3,1.46q0,.79,0,1.6V25.47h5V15.37a11.42,11.42,0,0,1,.12-1.67,4.23,4.23,0,0,1,.49-1.47,2.93,2.93,0,0,1,1-1.05,3.18,3.18,0,0,1,1.7-.4,3.36,3.36,0,0,1,1.66.35,2.35,2.35,0,0,1,.93.95,3.66,3.66,0,0,1,.38,1.4q.07.81.07,1.72V25.47h5V13.34a8.19,8.19,0,0,0-.49-3A5.15,5.15,0,0,0,57.22,8.32Z"/><path class="cls-2" d="M78.23,10.14a8,8,0,0,0-2.82-2.4,8.62,8.62,0,0,0-4-.89,9.38,9.38,0,0,0-3.77.74,8.76,8.76,0,0,0-4.82,5.05,10.57,10.57,0,0,0-.67,3.79,11,11,0,0,0,.65,3.86,8.75,8.75,0,0,0,1.84,3,8,8,0,0,0,2.91,1.95,10.37,10.37,0,0,0,3.86.68,9.5,9.5,0,0,0,5.26-1.4,8.31,8.31,0,0,0,3.23-4.66H75.48a3.13,3.13,0,0,1-1.33,1.59,5.11,5.11,0,0,1-5.82-.34,5,5,0,0,1-1.23-3.51H80.17a12.78,12.78,0,0,0-.35-4A9.85,9.85,0,0,0,78.23,10.14ZM67.1,14.45a5.7,5.7,0,0,1,.23-1.19A3.64,3.64,0,0,1,68,12a3.77,3.77,0,0,1,1.26-1,4.34,4.34,0,0,1,2-.4,3.51,3.51,0,0,1,2.72,1,5.73,5.73,0,0,1,1.24,2.86Z"/><path class="cls-2" d="M100.12,25.47V14.32a14.59,14.59,0,0,0-.3-3.07,5.83,5.83,0,0,0-1-2.35,4.87,4.87,0,0,0-2-1.51,8.47,8.47,0,0,0-3.28-.54,7.12,7.12,0,0,0-3.09.72,5.71,5.71,0,0,0-2.45,2.29h-.11V7.34H83.1V25.47h5V16A6.72,6.72,0,0,1,89,12a3.45,3.45,0,0,1,2.95-1.21,2.72,2.72,0,0,1,2.49,1.11,6.35,6.35,0,0,1,.7,3.35V25.47Z"/><path class="cls-2" d="M119.8,19.65a4.23,4.23,0,0,0-.49-2.12A4.5,4.5,0,0,0,118,16.1a7,7,0,0,0-1.84-.93,21.17,21.17,0,0,0-2.12-.6L112,14.12a16,16,0,0,1-1.8-.47,3.76,3.76,0,0,1-1.28-.68,1.36,1.36,0,0,1-.49-1.09,1.34,1.34,0,0,1,.28-.89,1.82,1.82,0,0,1,.68-.51,3,3,0,0,1,.89-.23,8.61,8.61,0,0,1,.91-.05,5,5,0,0,1,2.31.51,2.16,2.16,0,0,1,1.08,1.93h4.74a5.94,5.94,0,0,0-.86-2.79,5.67,5.67,0,0,0-1.8-1.77,7.56,7.56,0,0,0-2.47-.95,14.34,14.34,0,0,0-2.86-.28,15.54,15.54,0,0,0-2.87.26,7.89,7.89,0,0,0-2.52.91,5,5,0,0,0-1.8,1.77,5.45,5.45,0,0,0-.68,2.87,3.88,3.88,0,0,0,.49,2,4.26,4.26,0,0,0,1.3,1.37,7.17,7.17,0,0,0,1.84.88q1,.33,2.12.58a29.69,29.69,0,0,1,4.15,1.12q1.49.56,1.49,1.68a1.85,1.85,0,0,1-.31,1.1,2.37,2.37,0,0,1-.79.7,3.73,3.73,0,0,1-1,.39,5.32,5.32,0,0,1-1.1.12,5.71,5.71,0,0,1-1.42-.17,3.68,3.68,0,0,1-1.21-.54,2.9,2.9,0,0,1-.86-.94,2.72,2.72,0,0,1-.33-1.38H103a6.09,6.09,0,0,0,.82,3,6,6,0,0,0,1.93,1.94,8.13,8.13,0,0,0,2.68,1,15,15,0,0,0,3.08.32,15.45,15.45,0,0,0,3-.3,7.67,7.67,0,0,0,2.64-1,5.5,5.5,0,0,0,2.59-4.94Z"/><rect class="cls-2" x="122.87" y="0.43" width="4.98" height="4.1"/><rect class="cls-2" x="122.87" y="7.35" width="4.98" height="18.12"/><path class="cls-2" d="M133.07,23.35A8.29,8.29,0,0,0,136,25.26a10.59,10.59,0,0,0,3.85.67,10.72,10.72,0,0,0,3.87-.67,8.25,8.25,0,0,0,3-1.91,8.51,8.51,0,0,0,1.89-3,11,11,0,0,0,.67-3.93,11.15,11.15,0,0,0-.67-3.95,8.25,8.25,0,0,0-4.85-4.94,10.45,10.45,0,0,0-3.87-.68,10.32,10.32,0,0,0-3.85.68,8.29,8.29,0,0,0-4.83,4.94,11.16,11.16,0,0,0-.66,3.95,11,11,0,0,0,.66,3.93A8.51,8.51,0,0,0,133.07,23.35Zm2.63-9.06a5.47,5.47,0,0,1,.72-1.86,4,4,0,0,1,1.35-1.31,4,4,0,0,1,2.1-.51,4.09,4.09,0,0,1,2.12.51,4,4,0,0,1,1.36,1.31,5.47,5.47,0,0,1,.72,1.86,10.87,10.87,0,0,1,.21,2.14,10.61,10.61,0,0,1-.21,2.12,5.66,5.66,0,0,1-.72,1.86A3.78,3.78,0,0,1,142,21.72a4.21,4.21,0,0,1-2.12.49,4.1,4.1,0,0,1-2.1-.49,3.82,3.82,0,0,1-1.35-1.31,5.66,5.66,0,0,1-.72-1.86,10.61,10.61,0,0,1-.21-2.12A10.87,10.87,0,0,1,135.7,14.29Z"/><path class="cls-2" d="M156.75,16a6.72,6.72,0,0,1,.91-4,3.45,3.45,0,0,1,2.95-1.21,2.72,2.72,0,0,1,2.49,1.11,6.35,6.35,0,0,1,.7,3.35V25.47h5V14.32a14.62,14.62,0,0,0-.3-3.07,5.83,5.83,0,0,0-1-2.35,4.86,4.86,0,0,0-2-1.51,8.47,8.47,0,0,0-3.28-.54,7.12,7.12,0,0,0-3.09.72,5.7,5.7,0,0,0-2.46,2.29h-.11V7.34h-4.74V25.47h5Z"/><path class="cls-2" d="M110.64,38.73h-.06a5.36,5.36,0,0,0-2.3-2,7.12,7.12,0,0,0-3.07-.69,7.32,7.32,0,0,0-6,2.88,9.14,9.14,0,0,0-1.51,3,12.23,12.23,0,0,0-.51,3.52,13,13,0,0,0,.51,3.65,9.7,9.7,0,0,0,1.51,3.1,7.18,7.18,0,0,0,2.54,2.14,7.74,7.74,0,0,0,3.58.79,7.65,7.65,0,0,0,3.21-.65,5.13,5.13,0,0,0,2.3-2.12h.07v2.31h4.73v-25h-5Zm0,9a5.88,5.88,0,0,1-.7,1.87,3.72,3.72,0,0,1-1.31,1.31,3.94,3.94,0,0,1-2.05.49,3.7,3.7,0,0,1-2-.51,4.38,4.38,0,0,1-1.37-1.33,5.75,5.75,0,0,1-.79-1.88,9.25,9.25,0,0,1-.24-2.1,10,10,0,0,1,.23-2.16,5.77,5.77,0,0,1,.74-1.84,3.88,3.88,0,0,1,1.35-1.3,4,4,0,0,1,2.07-.49,3.85,3.85,0,0,1,2,.49,4.05,4.05,0,0,1,1.31,1.28,5.27,5.27,0,0,1,.72,1.82,10.8,10.8,0,0,1,.21,2.16A11,11,0,0,1,110.61,47.7Z"/><path class="cls-2" d="M135.64,50.61V41.18a4.36,4.36,0,0,0-.74-2.65A5,5,0,0,0,133,37a8.47,8.47,0,0,0-2.56-.75,20.21,20.21,0,0,0-2.77-.19,15.29,15.29,0,0,0-3,.3,8.58,8.58,0,0,0-2.68,1,6,6,0,0,0-2,1.86,5.78,5.78,0,0,0-.88,2.91h5a2.79,2.79,0,0,1,1-2.09,3.8,3.8,0,0,1,2.31-.63,8.44,8.44,0,0,1,1.24.09,2.77,2.77,0,0,1,1,.35,1.94,1.94,0,0,1,.7.74,2.64,2.64,0,0,1,.26,1.28A1.35,1.35,0,0,1,130.2,43a3.36,3.36,0,0,1-1.33.61,13.25,13.25,0,0,1-1.93.32q-1.09.1-2.21.28a20.71,20.71,0,0,0-2.23.47,6.3,6.3,0,0,0-2,.89,4.54,4.54,0,0,0-1.4,1.6,5.28,5.28,0,0,0-.54,2.54,5.68,5.68,0,0,0,.47,2.42,4.57,4.57,0,0,0,1.32,1.68,5.52,5.52,0,0,0,2,1,8.94,8.94,0,0,0,2.42.32,11.32,11.32,0,0,0,3.3-.49,6.48,6.48,0,0,0,2.81-1.72,7.31,7.31,0,0,0,.12.89,7,7,0,0,0,.23.86h5a4.27,4.27,0,0,1-.49-1.68A18.89,18.89,0,0,1,135.64,50.61Zm-5-3a9.52,9.52,0,0,1-.09,1.12,3.75,3.75,0,0,1-.47,1.39,3.28,3.28,0,0,1-1.19,1.17,4.39,4.39,0,0,1-2.28.49,6.28,6.28,0,0,1-1.16-.1,2.82,2.82,0,0,1-1-.37,1.88,1.88,0,0,1-.67-.72,2.33,2.33,0,0,1-.25-1.12,2.42,2.42,0,0,1,.25-1.16,2.26,2.26,0,0,1,.65-.75,3.3,3.3,0,0,1,.95-.47,9.2,9.2,0,0,1,1.1-.28q.6-.1,1.19-.17c.4,0,.78-.1,1.14-.17a8.08,8.08,0,0,0,1-.26,2.22,2.22,0,0,0,.79-.44Z"/><path class="cls-2" d="M145.8,31.08h-5V36.5h-3v3.34h3v10.7a4.64,4.64,0,0,0,.46,2.21,3.25,3.25,0,0,0,1.24,1.3,5.15,5.15,0,0,0,1.82.61,14.5,14.5,0,0,0,2.19.16q.74,0,1.51,0a11.68,11.68,0,0,0,1.4-.14V50.78a6.93,6.93,0,0,1-.74.11c-.26,0-.53,0-.81,0a2.43,2.43,0,0,1-1.68-.42,2.43,2.43,0,0,1-.42-1.68v-9h3.65V36.5H145.8Z"/><path class="cls-2" d="M168.94,53a18.8,18.8,0,0,1-.14-2.35V41.18a4.36,4.36,0,0,0-.74-2.65A5,5,0,0,0,166.17,37a8.48,8.48,0,0,0-2.56-.75,20.21,20.21,0,0,0-2.77-.19,15.28,15.28,0,0,0-3,.3,8.57,8.57,0,0,0-2.68,1,6,6,0,0,0-2,1.86,5.77,5.77,0,0,0-.88,2.91h5a2.79,2.79,0,0,1,1-2.09,3.79,3.79,0,0,1,2.31-.63,8.43,8.43,0,0,1,1.24.09,2.76,2.76,0,0,1,1,.35,1.93,1.93,0,0,1,.7.74,2.62,2.62,0,0,1,.26,1.28,1.35,1.35,0,0,1-.46,1.17,3.35,3.35,0,0,1-1.33.61,13.23,13.23,0,0,1-1.93.32q-1.09.1-2.21.28a20.68,20.68,0,0,0-2.23.47,6.3,6.3,0,0,0-2,.89,4.55,4.55,0,0,0-1.4,1.6,5.28,5.28,0,0,0-.54,2.54,5.69,5.69,0,0,0,.47,2.42,4.58,4.58,0,0,0,1.32,1.68,5.53,5.53,0,0,0,2,1,8.94,8.94,0,0,0,2.42.32,11.31,11.31,0,0,0,3.3-.49A6.49,6.49,0,0,0,164,52.89a7.31,7.31,0,0,0,.12.89,7,7,0,0,0,.23.86h5A4.25,4.25,0,0,1,168.94,53Zm-5.12-5.33a9.64,9.64,0,0,1-.09,1.12,3.76,3.76,0,0,1-.47,1.39,3.28,3.28,0,0,1-1.19,1.17,4.39,4.39,0,0,1-2.28.49,6.27,6.27,0,0,1-1.16-.1,2.82,2.82,0,0,1-1-.37,1.87,1.87,0,0,1-.67-.72,2.33,2.33,0,0,1-.25-1.12,2.42,2.42,0,0,1,.25-1.16,2.25,2.25,0,0,1,.65-.75,3.3,3.3,0,0,1,.95-.47,9.19,9.19,0,0,1,1.1-.28q.6-.1,1.19-.17c.4,0,.78-.1,1.14-.17a8.15,8.15,0,0,0,1-.26,2.24,2.24,0,0,0,.79-.44Z"/></svg>