<svg xmlns="http://www.w3.org/2000/svg" viewBox="0 0 708.66 340.84">
  <defs>
    <style>
      .fujitsu-1 {
        fill: #ec1d24;
      }
    </style>
  </defs>
  <title>fujitsu-logo</title>
  <g id="Layer_2" data-name="Layer 2">
    <g id="svg10140">
      <g id="fujitsu-logo">
        <g id="g2642"><path id="path7598" class="fujitsu-1" d="M317.08,135.54c0-7-5.41-14.64-12.39-14.64h51.81c-7,0-12.39,7.65-12.39,14.64V264c0,7.12,5.41,14.64,12.39,14.64H304.69c7,0,12.39-7.52,12.39-14.64V135.54"/><path
          id="path7600"
          class="fujitsu-1"
          d="M39.42,201.6H75.55c7,0,13.58,5.41,13.58,12.39L89,185.65H39.42V136.86H87.54c7.12,0,13.58,5.41,13.58,12.53V120.91H0c7.12,0,12.39,7.65,12.39,14.64V264c0,7.12-5.27,14.64-12.39,14.64H51.95c-7.12,0-12.53-7.52-12.53-14.64V201.6"/><path
          id="path7602"
          class="fujitsu-1"
          d="M143.18,236.28c0,16.35,13.32,30.59,29.66,30.59s29.8-14.5,29.8-30.85V135.54c0-7-5.41-14.64-12.53-14.64h51.95c-7.12,0-12.53,7.65-12.53,14.64v97.7c0,31.25-25.18,49.58-56.56,49.58s-56.82-18.33-56.82-49.58v-97.7c0-7-5.41-14.64-12.39-14.64h51.81c-7.12,0-12.39,7.65-12.39,14.64V236.28"/><path id="path7604" class="fujitsu-1" d="M286.76,135.54c0-7,5.41-14.64,12.53-14.64H247.34c7.12,0,12.53,7.65,12.53,14.64V296s-.53,28.61-22.94,44.83c0,0,50-7.12,50-54.32l-.13-151"/><path
          id="path7606"
          class="fujitsu-1"
          d="M609.78,236.28c0,16.35,13.32,30.59,29.8,30.59s29.66-14.5,29.66-30.85V135.54c0-7-5.41-14.64-12.39-14.64h51.81c-7,0-12.39,7.65-12.39,14.64v97.7c0,31.25-25.31,49.58-56.56,49.58s-57-18.33-57-49.58l.13-97.7c0-7-5.41-14.64-12.53-14.64H622.3c-7.12,0-12.53,7.65-12.53,14.64V236.28"/><path
          id="path7608"
          class="fujitsu-1"
          d="M558.1,146.75c-8.44-14.5-28.35-12.66-28.35-12.66-31.64,0-30.19,24.79-30.19,24.79s-2.11,12.39,13.71,21L545,197.12c30.59,16.88,27,40.74,27,40.74s1.32,44.83-62.63,44.83c0,0-18.59.53-29.14-3.43l-9.23-29.54c9.49,14.9,38.63,17.14,38.63,17.14,35.86-1.71,36.13-26.77,36.13-26.77s1.71-10.81-12.39-18.72L501.8,204.11c-33-18.06-29.14-42.32-29.14-42.32s-.79-44,55.9-44c0,0,25.45.66,29.53,4.75v24.26"/><path id="path7610" class="fujitsu-1" d="M365.74,120.91l-8.57,29C364,137,375,136.86,375,136.86h27.42V264c0,7.12-5.41,14.64-12.39,14.64h51.81c-7,0-12.39-7.52-12.39-14.64V136.86h22.94a12.72,12.72,0,0,1,12.79,12.79l8.44-28.74H365.74"/><path
          id="path7612"
          class="fujitsu-1"
          d="M310.49,66.06a31.2,31.2,0,1,0,22-53.27s-24-2.24-34.81,28.48V18.2C305.75,7.65,318.27,0,332.51,0A44,44,0,1,1,301.4,75.16l-15.16-17a22.18,22.18,0,0,0-16.08-6.72,22.81,22.81,0,0,0,0,45.62S287,99.28,297.7,78.45V96.91a35.64,35.64,0,1,1-27.56-58.28A35.36,35.36,0,0,1,295.33,49l15.16,17"/></g>
      </g>
    </g>
  </g>
</svg>
