<?xml version="1.0" standalone="no"?>
<!DOCTYPE svg PUBLIC "-//W3C//DTD SVG 1.1//EN" "http://www.w3.org/Graphics/SVG/1.1/DTD/svg11.dtd">
<svg viewBox="0 0 285 39" version="1.1" xmlns="http://www.w3.org/2000/svg" xmlns:xlink="http://www.w3.org/1999/xlink" width="285" height="39">
  <style type="text/css">
    .heat-software {
      fill: black;
    }
    .red {
      fill: #DF2426;
    }
  </style>
  <path class="red" d="M37.29 0.61L18.61 0.61 18.61 19.28 37.29 0.61Z"/>
  <path class="heat-software" d="M-0.06 37.96L18.61 37.96 18.61 19.3 -0.06 37.96Z"/>
  <path class="red" d="M37.29 9.35L42.31 9.35 42.31 20.73 55.34 20.73 55.34 9.35 60.35 9.35 60.35 37.96 55.34 37.96 55.34 25.06 42.31 25.06 42.31 37.96 37.29 37.96 37.29 9.35Z"/>
  <path class="red" d="M65.04 9.35L85.65 9.35 85.65 13.67 70.06 13.67 70.06 21.17 84.49 21.17 84.49 25.26 70.06 25.26 70.06 33.63 85.93 33.63 85.93 37.96 65.04 37.96 65.04 9.35Z"/>
  <path class="red" d="M98.68 9.35L104.01 9.35 115.04 37.96 109.67 37.96 106.98 30.39 95.55 30.39 92.87 37.96 87.7 37.96 98.68 9.35ZM96.92 26.58L105.66 26.58 101.37 14.28 101.25 14.28 96.92 26.58Z"/>
  <path class="red" d="M111.52 9.35L134.7 9.35 134.7 13.67 125.6 13.67 125.6 37.96 120.59 37.96 120.59 13.67 111.52 13.67 111.52 9.35Z"/>
  <path class="heat-software"
    d="M159.46 30.14C158.99 29.38 158.27 28.73 157.33 28.2 156.4 27.67 155.03 27.16 153.25 26.67 151.52 26.2 150.24 25.65 149.47 25.04 148.73 24.45 148.35 23.69 148.35 22.76 148.35 21.75 148.77 20.93 149.6 20.3 150.45 19.66 151.62 19.34 153.07 19.34 154.56 19.34 155.76 19.73 156.63 20.51 157.5 21.28 157.94 22.32 157.94 23.59L157.94 23.82 160.07 23.82 160.07 23.59C160.07 22.44 159.77 21.39 159.18 20.46 158.59 19.52 157.75 18.78 156.68 18.26 155.62 17.74 154.41 17.48 153.07 17.48 151.1 17.48 149.45 17.97 148.17 18.94 146.88 19.92 146.22 21.22 146.22 22.8 146.22 24.42 146.93 25.75 148.32 26.74 149.28 27.43 150.81 28.07 152.86 28.65 154.86 29.21 156.25 29.81 156.99 30.42 157.7 31.01 158.06 31.83 158.06 32.84 158.06 33.9 157.64 34.72 156.76 35.36 155.87 36 154.67 36.33 153.19 36.33 151.53 36.33 150.18 35.94 149.18 35.17 148.21 34.41 147.71 33.37 147.71 32.06L147.71 31.83 145.6 31.83 145.6 32.06C145.6 33.25 145.91 34.33 146.54 35.26 147.16 36.18 148.08 36.91 149.28 37.42 150.46 37.93 151.78 38.19 153.19 38.19 155.26 38.19 156.96 37.7 158.24 36.73 159.54 35.75 160.19 34.44 160.19 32.82 160.19 31.79 159.95 30.89 159.46 30.14L159.46 30.14Z"/>
  <path class="heat-software"
    d="M163.07 27.5C163.07 25.61 163.43 23.91 164.17 22.4 164.9 20.89 165.93 19.72 167.27 18.88 168.61 18.04 170.12 17.62 171.81 17.62 174.43 17.62 176.55 18.53 178.17 20.36 179.79 22.19 180.6 24.62 180.6 27.64L180.6 28.1C180.6 29.99 180.23 31.7 179.5 33.22 178.77 34.74 177.74 35.91 176.41 36.73 175.07 37.55 173.56 37.96 171.85 37.96 169.25 37.96 167.14 37.05 165.51 35.21 163.88 33.38 163.07 30.95 163.07 27.93L163.07 27.5ZM165.25 28.1C165.25 30.44 165.85 32.37 167.07 33.87 168.29 35.38 169.88 36.13 171.85 36.13 173.81 36.13 175.4 35.38 176.62 33.87 177.83 32.37 178.44 30.38 178.44 27.91L178.44 27.5C178.44 26 178.16 24.63 177.6 23.38 177.05 22.14 176.27 21.17 175.26 20.49 174.26 19.81 173.11 19.46 171.81 19.46 169.88 19.46 168.3 20.22 167.08 21.74 165.86 23.26 165.25 25.24 165.25 27.7L165.25 28.1Z"/>
  <path class="heat-software"
    d="M186.64 37.6L186.64 19.76 183.39 19.76 183.39 17.98 186.64 17.98 186.64 15.6C186.64 13.6 187.15 12.05 188.17 10.98 189.19 9.9 190.62 9.37 192.45 9.37 193.27 9.37 194.04 9.47 194.75 9.67L194.59 11.47C193.98 11.32 193.32 11.25 192.61 11.25 191.41 11.25 190.48 11.62 189.82 12.37 189.15 13.11 188.82 14.17 188.82 15.54L188.82 17.98 193.5 17.98 193.5 19.76 188.82 19.76 188.82 37.6 186.64 37.6Z"/>
  <path class="heat-software"
    d="M200.76 12.96L200.76 17.98 204.82 17.98 204.82 19.76 200.76 19.76 200.76 32.84C200.76 33.93 200.95 34.74 201.35 35.28 201.74 35.81 202.4 36.07 203.32 36.07 203.68 36.07 204.26 36.02 205.07 35.89L205.16 37.65C204.6 37.86 203.82 37.96 202.84 37.96 201.36 37.96 200.27 37.53 199.6 36.66 198.92 35.8 198.58 34.53 198.58 32.85L198.58 19.76 194.97 19.76 194.97 17.98 198.58 17.98 198.58 12.96 200.76 12.96Z"/>
  <path class="heat-software"
    d="M214.02 33.08L214.35 34.77 214.78 32.99 219.5 17.98 221.35 17.98 226.01 32.87 226.52 34.93 226.94 33.03 230.97 17.98 233.22 17.98 227.5 37.6 225.65 37.6 220.61 22.04 220.37 20.97 220.13 22.06 215.18 37.6 213.33 37.6 207.63 17.98 209.86 17.98 214.02 33.08Z"/>
  <path class="heat-software"
    d="M249.73 37.6C249.51 36.98 249.37 36.07 249.31 34.86 248.55 35.85 247.58 36.62 246.4 37.15 245.22 37.69 243.97 37.96 242.65 37.96 240.76 37.96 239.24 37.44 238.07 36.38 236.9 35.33 236.32 34 236.32 32.4 236.32 30.48 237.12 28.97 238.71 27.86 240.3 26.75 242.51 26.19 245.36 26.19L249.29 26.19 249.29 23.96C249.29 22.56 248.86 21.46 248 20.65 247.13 19.85 245.87 19.45 244.21 19.45 242.7 19.45 241.45 19.83 240.46 20.61 239.47 21.38 238.97 22.31 238.97 23.4L236.79 23.38C236.79 21.82 237.52 20.47 238.97 19.33 240.42 18.19 242.21 17.62 244.32 17.62 246.51 17.62 248.24 18.16 249.5 19.26 250.76 20.35 251.42 21.88 251.45 23.84L251.45 33.12C251.45 35.02 251.65 36.44 252.05 37.38L252.05 37.6 249.73 37.6ZM242.91 36.04C244.36 36.04 245.65 35.69 246.8 34.99 247.94 34.29 248.77 33.35 249.29 32.18L249.29 27.86 245.41 27.86C243.25 27.88 241.55 28.28 240.33 29.05 239.11 29.82 238.5 30.87 238.5 32.21 238.5 33.31 238.91 34.23 239.72 34.95 240.54 35.68 241.6 36.04 242.91 36.04L242.91 36.04Z"/>
  <path class="heat-software"
    d="M266.31 19.83C265.85 19.74 265.36 19.7 264.84 19.7 263.49 19.7 262.34 20.08 261.4 20.83 260.47 21.59 259.8 22.69 259.4 24.12L259.4 37.6 257.24 37.6 257.24 17.98 259.36 17.98 259.4 21.1C260.55 18.78 262.39 17.62 264.93 17.62 265.54 17.62 266.02 17.69 266.37 17.85L266.31 19.83Z"/>
  <path class="heat-software"
    d="M277 37.96C275.33 37.96 273.82 37.55 272.47 36.73 271.12 35.91 270.07 34.76 269.32 33.29 268.57 31.82 268.2 30.18 268.2 28.35L268.2 27.57C268.2 25.69 268.57 23.99 269.3 22.48 270.03 20.96 271.05 19.78 272.35 18.91 273.66 18.05 275.08 17.62 276.6 17.62 278.98 17.62 280.87 18.43 282.27 20.05 283.67 21.68 284.37 23.9 284.37 26.72L284.37 27.93 270.36 27.93 270.36 28.35C270.36 30.58 271 32.43 272.27 33.91 273.55 35.39 275.16 36.13 277.09 36.13 278.25 36.13 279.28 35.92 280.16 35.5 281.06 35.07 281.86 34.39 282.59 33.47L283.95 34.5C282.35 36.81 280.04 37.96 277 37.96L277 37.96ZM276.6 19.46C274.97 19.46 273.59 20.06 272.47 21.26 271.35 22.46 270.67 24.07 270.43 26.08L282.21 26.08 282.21 25.85C282.15 23.96 281.61 22.43 280.59 21.24 279.58 20.06 278.25 19.46 276.6 19.46L276.6 19.46Z"/>
</svg>
