<svg xmlns="http://www.w3.org/2000/svg" viewBox="0 0 99.8 99.8"><defs><style>.hp-logo-1{fill:#0096d6;}</style></defs><title>hp-logo</title><g id="Layer_2" data-name="Layer 2"><g id="svg3009"><g id="g3017"><g id="g3061"><g id="g3021"><path id="path3023" class="hp-logo-1" d="M99.8,49.9A49.9,49.9,0,0,0,49.9,0q-1.13,0-2.24.05L37.45,28.11h8.89c5.29,0,8.14,4.07,6.33,9L40.08,71.75H29.51L43,34.66H35.07L21.56,71.75H11L26.87,28.11h0L36.43,1.84a49.91,49.91,0,0,0,1.89,96.6L47.58,73h0L63.92,28.11H83.39c5.29,0,8.14,4.07,6.33,9L78.66,67.54a6.88,6.88,0,0,1-6,4.21h-14l-10.2,28,1.48,0A49.9,49.9,0,0,0,99.8,49.9"/></g><g id="g3025"><path id="path3027" class="hp-logo-1" d="M80.09,34.64H72.15L61,65.17H69L80.09,34.64"/></g></g></g></g></g></svg>
