<svg xmlns="http://www.w3.org/2000/svg" viewBox="0 0 1000 400">
  <defs>
    <style>
      .ibm-logo-1 {
        fill: #1f70c1;
      }
    </style>
  </defs>
  <title>ibm-logo</title>
  <g id="Layer_2" data-name="Layer 2">
    <g id="Layer_1-2" data-name="Layer 1"><path
      class="ibm-logo-1"
      d="M0,0V27.37H194.65V0ZM222.23,0V27.37H499.61S471.28,0,433.75,0ZM554,0V27.37H721.84L711.88,0ZM842.15,0l-10,27.37H998.48V0ZM0,53.22V80.59H194.65V53.22Zm222.23,0V80.59H531.8s-3.62-21.06-9.92-27.33Zm331.8,0V80.59H740.23L731,53.26Zm268.2,0L813,80.59H998.48V53.26ZM55.94,106.44v27.41h84.3V106.44Zm222.23,0v27.41h84.3V106.44Zm166.29,0v27.41h84.3s5.35-14.47,5.35-27.41Zm165.51,0v27.41H759.41l-10-27.41Zm193.91,0-10,27.41h150.2V106.44ZM55.94,159.71v27.37h84.3V159.71Zm222.23,0v27.37H493.48s18-14,23.75-27.37Zm331.8,0v27.37h84.3V171.84l5.35,15.23H854l5.74-15.23v15.23h84.3V159.71H785.82l-8.4,23.18L769,159.71Zm-554,53.22v27.37h84.3V212.93Zm222.23,0v27.37H517.23c-5.74-13.28-23.75-27.37-23.75-27.37Zm331.8,0v27.37h84.3V212.93Zm99.61,0,10.2,27.37H835.55l9.69-27.37Zm150.2,0v27.37h84.3V212.93ZM55.94,266.15v27.37h84.3V266.15Zm222.23,0v27.37h84.3V266.15Zm166.29,0v27.37H534.1c0-12.92-5.35-27.37-5.35-27.37Zm165.51,0v27.37h84.3V266.15Zm118.75,0,9.88,27.37h77.62l10-27.37Zm131.05,0v27.37h84.3V266.15ZM1.52,319.37v27.41H196.17V319.37Zm220.7,0v27.41H521.88c6.31-6.28,9.92-27.41,9.92-27.41Zm333.32,0v27.41H694.26V319.37Zm192.34,0L758,346.78h39.49l9.53-27.41Zm111.88,0v27.41H1000V319.37ZM1.52,372.63V400H196.17V372.63Zm220.7,0V400H433.75c37.53,0,65.86-27.33,65.86-27.33Zm333.32,0V400H694.26V372.63Zm211.6,0,9.77,27.29,1.68,0,9.92-27.33Zm92.62,0V400H1000V372.63Z"/></g>
  </g>
</svg>
