<svg id="Layer_1" data-name="Layer 1" xmlns="http://www.w3.org/2000/svg" viewBox="0 0 179.99 33.92">
  <defs>
    <style>
      .infront-consulting-1 {
        fill: #3b3b3b;
      }
      .infront-consulting-2 {
        fill: #f05a28;
      }
    </style>
  </defs>
  <title>infront-consulting</title><path class="infront-consulting-1" d="M26.14,8.29A15.31,15.31,0,0,0,5.5,7.38l5,4.35a8.83,8.83,0,1,1,0,14.83l-5,4.31A15.31,15.31,0,0,0,26.14,8.29Z" transform="translate(0 -0.54)"/><path class="infront-consulting-2" d="M4.49,8.29a15.31,15.31,0,0,0,0,21.65h0L16.87,19.12Z" transform="translate(0 -0.54)"/><path
    class="infront-consulting-1"
    d="M45.8,5.17V1.39h3.94V5.17H45.8ZM46,33V10.17h3.4V33H46Zm13.39,0H56V10.17h3.4v4a8.66,8.66,0,0,1,7.83-4.47c5.54,0,8.76,3.71,8.76,9.16V33h-3.4V19.68c0-4.25-2.3-6.91-6.32-6.91s-6.86,2.88-6.86,7.17V33h0ZM94.19,10.25v2.92H87V33H83.57V13.17H80.43v-3h3.14v-2c0-5,2.52-7.65,6.91-7.65a10.34,10.34,0,0,1,3.76.59v3a11.4,11.4,0,0,0-3.32-.57c-2.66,0-4,1.59-4,4.87v1.85h7.31ZM101,33h-3.4V10.17H101v6c1.68-3.81,5-6.55,9.33-6.37v3.7H110c-5,0-9.06,3.58-9.06,10.49V33Zm24,0.56A11.73,11.73,0,0,1,113.08,22q0-.15,0-0.3a11.93,11.93,0,1,1,12,11.9h-0.1Zm0-20.89c-5,0-8.37,3.94-8.37,8.89s3.62,8.94,8.46,8.94,8.41-3.94,8.41-8.85a8.72,8.72,0,0,0-8.5-9v0ZM145.37,33H142V10.17h3.4v4a8.66,8.66,0,0,1,7.83-4.47c5.54,0,8.76,3.71,8.76,9.16V33h-3.4V19.68c0-4.25-2.3-6.91-6.32-6.91s-6.87,2.88-6.87,7.17V33h0Zm27.37-6.48c0,2.79,1.55,3.81,3.85,3.81a7.17,7.17,0,0,0,3.32-.8v2.92a8.58,8.58,0,0,1-4.12,1c-3.67,0-6.46-1.81-6.46-6.46V13.17h-3.18v-3h3.18V3.27h3.4v6.91H180v3h-7.26V26.56h0Z"
    transform="translate(0 -0.54)"/></svg>
