<svg id="Layer_1" data-name="Layer 1" xmlns="http://www.w3.org/2000/svg" viewBox="0 0 2214.21 700.18"><defs><style>.cls-1{fill:#f5871f;}.cls-2{fill:#c83360;}.cls-3{fill:#6d6f71;}.cls-4{fill:#f8f8f8;}.cls-5{fill:#929495;}.cls-6{fill:#bebfc0;}.cls-7{fill:#b2d235;}.cls-8{fill:#d58b1e;}.cls-9{fill:#fedc00;}.cls-10{fill:#0094d9;}.cls-11{fill:#f05a31;}.cls-12{fill:#eb7e5f;}.cls-13{fill:#59b9e6;}</style></defs><title>juriba</title><path class="cls-1" d="M1133,239c-15.76,2.62-31.51,5.14-47.48,6.28a344.08,344.08,0,0,1-116.23-11.59c-58.44-16-108.89-45.88-152.2-88.13-3-2.93-2.78-4.48-.21-7.49C851.05,98,875.69,52.65,890,1.91c1.31-4.62,3.53-3.63,6.44-2.71Q1073,55.08,1130.91,230.94c0.67,2,1.4,4,2.09,6.06v2Z" transform="translate(1081.21 324)"/><path class="cls-2" d="M800-324c12.52,15.76,24.76,31.72,35,49.1a341.85,341.85,0,0,1,46.19,138.51A352.9,352.9,0,0,1,877-32.5c-0.67,3.53-1.61,4.88-5.77,4.05a364.87,364.87,0,0,0-143.82.09c-3.65.73-4.85,0-5.52-3.79-19.29-108.83,6-205.89,76.59-291A9.28,9.28,0,0,0,799-324h1Z" transform="translate(1081.21 324)"/><path class="cls-3" d="M-1081,343c2-2.06,4.43-2.39,7.27-2.25,10.61,0.52,21.22,2.26,31.84-.22,23.86-5.57,43.34-27.19,46.95-52.17a93.6,93.6,0,0,0,.91-13.43q0-154.67,0-309.34c0-8.47.35-8.84,8.63-8.84,6.33,0,12.66.13,19,0,4.72-.13,6.51,1.9,6.49,6.58C-960.06-12-960,12.6-960,37.26q0,120.94,0,241.87c0,42.41-28.73,81.73-67.77,93.38-4.37,1.31-9,1.43-13.21,3.49h-4c-5.44-1.18-10.94-.2-16.4-0.52-2.19.24-4.47-.53-6.6,0.52h-2c-1.64-1-3.45-.41-5.17-0.49-2.63-.12-4.69-1-5.83-3.51V343Z" transform="translate(1081.21 324)"/><path class="cls-4" d="M-1081,372c2.73,3.91,7.67,1.74,11,4a48.22,48.22,0,0,0-7,.06C-1080.45,376.58-1081.76,375.42-1081,372Z" transform="translate(1081.21 324)"/><path class="cls-5" d="M-1062.11,375.13c5.7,0.33,11.5-1.28,17.11.87h-17a0.48,0.48,0,0,1-.34-0.55A0.37,0.37,0,0,1-1062.11,375.13Z" transform="translate(1081.21 324)"/><path class="cls-6" d="M-1062.11,375.13a5.48,5.48,0,0,1,.11.87h-6C-1066.29,374-1064.08,375.39-1062.11,375.13Z" transform="translate(1081.21 324)"/><path class="cls-7" d="M537.53,246.07c-22.57.31-44.85-2.38-67-6.23-3.59-.62-4.85-1.61-3.62-5.74Q495.2,139.36,568.71,73.3A340.94,340.94,0,0,1,700.65-.3c6.59-2,6.62-2,8.66,4.86A363.76,363.76,0,0,0,782.68,139c1.92,2.23,2.14,3.37-.11,5.59-51.4,50.66-112.47,82.85-183.44,96A310.57,310.57,0,0,1,537.53,246.07Z" transform="translate(1081.21 324)"/><path class="cls-3" d="M291.11,140.08q0,48.74,0,97.48c0,6.91-.36,7.45-7.19,8s-14,.73-21,1c-4.72.2-5.85-2.62-5.84-6.74,0-19.66,0-39.33,0-59,0-43-.8-86,0.2-129,0.79-33.9-23.87-67.35-65.55-67.4-15.32,0-30.77-1.48-45.92,1C114.26-9.27,92.69,16.26,92.4,48.4q-0.47,52.74,0,105.48c0.24,30.89,21.18,56.87,50.21,62.66,11.9,2.37,23.92.37,35.87-.07,20.64-.77,41.27-1.83,61.9-2.82,4.27-.21,6.1,1.69,6,5.91-0.1,7,0,14,0,21,0,5.82-1.08,6.94-7,7.23-15.64.77-31.27,1.66-46.92,2.13-15.31.45-30.6,2.67-45.91,1.41-39.75-3.27-65.81-25.22-81.23-61-5.13-11.9-7.07-24.61-7.09-37.54q-0.09-51.74,0-103.48c0-50.14,35.28-92.21,85-97.63,26.08-2.84,53-4.52,78.92,3.14,40.67,12,68.77,49.81,68.95,92.25C291.21,78.09,291.11,109.08,291.11,140.08Z" transform="translate(1081.21 324)"/><path class="cls-3" d="M-655.86,100.93q0,68.24,0,136.47c0,7.12-.35,7.74-7.55,8.15-16.29.94-32.6,1.61-48.91,2.4-26.12,1.26-52.25,2.28-78.35,3.84-39.28,2.34-76.17-22.49-91.21-61.8a103.39,103.39,0,0,1-6.88-37.1q-0.11-94,0-188c0-7.26.88-8.15,7.93-8.17,6.5,0,13,0,19.5,0,5.77,0,6.67.93,6.68,6.74q0,37.24,0,74.49c0,38-.11,76,0,114,0.09,22.33,8.69,40.78,26.56,54.49,11.19,8.58,24.08,11.75,38,11.09q36.93-1.75,73.86-3.55c7.65-.37,15.3-0.8,23-1,2.69-.06,3.39-1.13,3.3-3.61-0.15-4.16,0-8.33,0-12.5q0-115.73,0-231.45c0-8.25.46-8.7,8.83-8.71,5.83,0,11.66,0,17.5,0,7.12,0,7.77.65,7.77,7.7q0,56.49,0,113Q-655.86,89.18-655.86,100.93Z" transform="translate(1081.21 324)"/><path class="cls-3" d="M-590.67,100.86q0-67,0-133.95c0-9.58.17-10,9.44-10.6,22.26-1.55,44.53-2.88,66.79-4.37,9.8-.65,19.6-1.29,29.44-1.38,29.64-.25,51.28,13.17,65.86,38.47A108.41,108.41,0,0,1-405,38c0.59,11.13.26,22.32,0.47,33.48,0.08,4.46-2,6.39-6.32,6.36-8-.06-16-0.08-24,0-4.6.06-6.59-1.91-6.58-6.62,0-13.48.61-27-1.52-40.39a70.41,70.41,0,0,0-8.51-24.88c-8.26-14.09-20.44-21.43-37-21.32-20.85.14-41.54,2.48-62.27,4.27-2,.18-3.11.76-3,2.94,0.09,1.33,0,2.66,0,4q0,120.21,0,240.41c0,8.81-.21,9-8.91,9.07q-9.75,0-19.49,0c-8,0-8.59-.65-8.59-8.51q0-38.49,0-77Q-590.67,130.35-590.67,100.86Z" transform="translate(1081.21 324)"/><path class="cls-8" d="M800.6-14.62a380.81,380.81,0,0,1,65.24,6.28c4.88,0.92,4.82,2.47,3.66,6.37a344,344,0,0,1-53,106.71c-4.54,6.16-9.55,12-14.09,18.14-2.27,3.08-3.56,3.15-6.1.08A353.88,353.88,0,0,1,747,45.21,370.16,370.16,0,0,1,728.84-3.3c-1-3.42-.18-4.16,3-4.79A372.47,372.47,0,0,1,800.6-14.62Z" transform="translate(1081.21 324)"/><path class="cls-9" d="M944.1,248.87H654.22l-0.19-.52c4.42-1.63,8.86-3.22,13.27-4.9a363.87,363.87,0,0,0,128.42-82.64c2.6-2.58,4.11-3.26,7.09-.29A362.68,362.68,0,0,0,941.44,247c0.92,0.32,1.81.73,2.71,1.09Z" transform="translate(1081.21 324)"/><path class="cls-3" d="M-342.15,101q0-67.72,0-135.44c0-8.68.17-8.84,9.09-8.84,6.16,0,12.33.14,18.49,0,4.77-.14,6.72,2.08,6.5,6.64,0,0.83,0,1.67,0,2.5q0,135.19,0,270.37c0,8.58-.51,9.09-9,9.1h-16.49c-8.21,0-8.58-.36-8.58-8.35Q-342.15,169-342.15,101Z" transform="translate(1081.21 324)"/><path class="cls-10" d="M703.09-178.91a381.51,381.51,0,0,0-8.7,81.27,351.28,351.28,0,0,0,7.2,70.43c0.74,3.53,0,4.93-3.48,5.93A363.47,363.47,0,0,0,563.3,50.18c-0.81.67-1.41,2-3.43,1.29l142.34-232.3C703.95-180.85,703.52-179.88,703.09-178.91Z" transform="translate(1081.21 324)"/><path class="cls-11" d="M898-175q31.12,50.62,62.23,101.24,36.31,59.16,72.57,118.35a10.14,10.14,0,0,1,1.64,4.37c-1.35-1-2.74-2-4.05-3C991.89,15,949-7.54,901.5-21.07c-3.54-1-5.24-2.19-4.39-6.38a361.09,361.09,0,0,0,0-143.37c-0.19-1-.23-2-0.33-3C896.47-174.93,897-175.17,898-175Z" transform="translate(1081.21 324)"/><path class="cls-3" d="M-302-119.88c0.14,13.32-9.89,23.64-23.05,23.72A22.82,22.82,0,0,1-348.37-119c-0.2-13.27,9.89-23.72,23-23.79A23.11,23.11,0,0,1-302-119.88Z" transform="translate(1081.21 324)"/><path class="cls-3" d="M-953.87-119.76c0.11,12.66-10.31,23.42-22.86,23.6a23.5,23.5,0,0,1-23.42-23,23.61,23.61,0,0,1,22.82-23.67C-965-143.09-954-132.24-953.87-119.76Z" transform="translate(1081.21 324)"/><path class="cls-12" d="M898-175l-1.17,1.2a3.32,3.32,0,0,1-.72-3.2C897.54-177.08,897.72-176,898-175Z" transform="translate(1081.21 324)"/><path class="cls-13" d="M703.09-178.91l-0.87-1.92c0.25-.71.79-2,1.22-1.63C704.69-181.36,703.94-180,703.09-178.91Z" transform="translate(1081.21 324)"/><path class="cls-3" d="M-4,46.87C-4.15-2.82-45-53.66-106-49.38c-30.56,2.15-61.21,2.9-91.82,4.44-3.87.19-5.08-.77-5.05-4.82,0.18-28.32.1-56.65,0.1-85q0-22,0-44c0-6.68-.75-7.37-7.57-7.39q-9,0-18,0c-7.89,0-8.52.63-8.52,8.53q0,103.46,0,206.93,0,104,0,207.93c0,7,.61,7.85,7.49,8.29,10,0.64,20,1,29.94,1.44,25.45,1.24,50.89,2.67,76.35,3.67,15.09,0.6,30.23,2.39,45.27-1.19,41.6-9.9,73.25-48.8,73.71-91.65C-3.69,120.85-3.88,83.86-4,46.87ZM-38.31,157.32c-1,34.17-30.48,63.12-66.73,60.1-23.55-2-47.23-2.32-70.85-3.4-7.32-.33-14.64-0.92-22-0.91-4,0-5-1.28-5-5.17,0.16-27.15.08-54.31,0.08-81.47q0-13,0-26c0-35.15.06-70.3-.08-105.46,0-4.26.75-6,5.58-6.13,31.28-1.15,62.58-2.25,93.82-4.24,35.85-2.29,64.28,27,65.14,60.23C-37.32,82.34-37.24,119.87-38.31,157.32Z" transform="translate(1081.21 324)"/></svg>