<svg xmlns="http://www.w3.org/2000/svg" viewBox="0 0 500 72.88"><defs><style>.ntt-1{fill:#6485c1;}</style></defs><title>ntt-data-logo</title><g id="Layer_2" data-name="Layer 2"><g id="svg2"><g id="g10"><g id="g12"><path id="path14" class="ntt-1" d="M75.82.76v15H98.7V72.08h16.2V15.8h22.87V.76Z"/><path id="path16" class="ntt-1" d="M342.45.76H301.66V15.92h39.69c5.85,0,8.11,2.67,8.11,9.46v2.54H316.54c-12.53,0-18.74,6.25-18.74,20.4v3.37c0,14.54,6.46,20.39,19.45,20.39h48.26V25.21c0-17.94-5.94-24.45-23.06-24.45M318.93,56.84c-2.45,0-5.21-1.22-5.21-7.35s2.69-7.2,5.21-7.2h30.53V56.84Z"/><path id="path18" class="ntt-1" d="M476.94.76H436.16V15.92h39.71c5.82,0,8.08,2.67,8.08,9.46v2.54H451.07c-12.53,0-18.77,6.25-18.77,20.4v3.37c0,14.54,6.46,20.39,19.44,20.39H500V25.21C500,7.26,494.06.76,476.94.76M453.43,56.84c-2.45,0-5.2-1.22-5.2-7.35s2.69-7.2,5.2-7.2H484V56.84Z"/><path id="path20" class="ntt-1" d="M142.91.76v15h22.87V72.08H182V15.8H204.9V.76Z"/><path id="path22" class="ntt-1" d="M368.75.76v15h22.87V72.08h16.2V15.8H430.7V.76Z"/><path id="path24" class="ntt-1" d="M291.53,47.1V25.75c0-18.65-7.23-25-23.58-25H224.56V72.08h44.15c17.33,0,22.82-8.63,22.82-25M275,47.44c0,6.8-2.3,9.46-8.11,9.46H240.78V16h26.09c5.82,0,8.11,2.66,8.11,9.52Z"/><path id="path26" class="ntt-1" d="M52.95,55.09c-.34-.64-22-42.81-24.62-47C25.27,3.34,21.56,0,14.46,0,7.84,0,0,2.91,0,18.8V72.12H16V27.65c0-3.18-.18-7.93-.21-8.88,0-.79,0-1.53.4-1.74s.89.15,1.22.73,20.36,40.3,24.65,47c3,4.81,6.77,8.12,13.87,8.12,6.62,0,14.43-2.94,14.43-18.8V.76h-16V45.23c0,3.21.18,7.93.24,8.88,0,.77,0,1.53-.4,1.75s-.92-.16-1.26-.77"/></g></g></g></g></svg>
