<svg xmlns="http://www.w3.org/2000/svg" viewBox="0 0 95.05 56.82"><defs><style>.shi-logo-1{fill:#ef3f36;}.shi-logo-2{fill:#0569b3;}.shi-logo-3{fill:#51b849;}</style></defs><title>shi-logo</title><g id="Layer_2" data-name="Layer 2"><g id="Layer_1-2" data-name="Layer 1"><path class="shi-logo-1" d="M94.49,13.27C98.49,23.9,80.64,40.36,54.7,50S4.51,58.93.55,48.31,14.4,21.22,40.3,11.54,90.52,2.64,94.49,13.27ZM43.3,11C20,20,3.69,36,8.3,45.64c5.51,11.29,26,10.48,49.28,1.29s38.73-28,35-34.65C87.36,2.93,63.22,3.27,43.3,11Z"/><path class="shi-logo-2" d="M19.65,35.53a6.58,6.58,0,0,0-.06,2.93c.22.72.77,1.16,2,1.16A2.9,2.9,0,0,0,24.3,37.3c.33-1.44.06-1.88-3.48-3.26-6.41-2.43-9.18-4-8-9.51,1.27-6,5.59-10.06,13.88-10.06,11.94,0,10.56,6.52,10,9.29H27.56a4.12,4.12,0,0,0,.06-2.16c-.28-.55-.83-.83-2-.83a2.47,2.47,0,0,0-2.71,2c-.33,1.44,1,2,7,4.26,2.71,1.05,6.08,2.49,4.7,8.85-1.52,7.44-7.72,10.05-14.31,10.05-7.8,0-11.61-2-10-10.4h9.35Z"/><path class="shi-logo-2" d="M52.85,25.35c.5-2.27-.11-2.93-1.49-2.93S49,23.64,48.6,25.35l-4.2,19.8H33.66l9-41.41H53.43L50,18.66h.11a10.19,10.19,0,0,1,8.46-4.2c3.82,0,6.86,2.1,5.7,7.58L59.38,45.15H48.65Z"/><path class="shi-logo-2" d="M68.54,15.23H79.3L72.91,45.15H62.18Z"/><circle class="shi-logo-3" cx="75.71" cy="5.55" r="5.55"/><path class="shi-logo-2" d="M78.25,42H77.1v-.39h2.75V42H78.7v3h-.45V42Z"/><path class="shi-logo-2" d="M80.24,41.63h.63L82,44.52,83,41.63h.63v3.43h-.43V42.21h0l-1.07,2.86h-.39l-1.07-2.86h0v2.86h-.43V41.63Z"/></g></g></svg>
