<svg xmlns="http://www.w3.org/2000/svg" viewBox="0 0 319.23 30.68"><title>vmware-airwatch</title><g id="Layer_2" data-name="Layer 2"><g id="logo"><g id="logo-2" data-name="logo"><g id="vmware"><path d="M63.08,29l-6.43-17.9a2.9,2.9,0,0,1-.21-.86A1.56,1.56,0,0,1,58,8.77a1.66,1.66,0,0,1,1.6,1.31L65,25.5,70.33,10a1.61,1.61,0,0,1,1.55-1.27h.17A1.67,1.67,0,0,1,73.69,10L79,25.5,84.42,10a1.54,1.54,0,0,1,1.51-1.23,1.51,1.51,0,0,1,1.56,1.47,3,3,0,0,1-.2.86L80.82,29a1.87,1.87,0,0,1-1.72,1.43H79A1.77,1.77,0,0,1,77.25,29L72,13.83,66.64,29a1.77,1.77,0,0,1-1.72,1.43h-.09A1.88,1.88,0,0,1,63.08,29"/><path d="M109.95,10.33a1.59,1.59,0,0,1,1.56-1.6,1.58,1.58,0,0,1,1.6,1.6V14a8.63,8.63,0,0,1,7.3-5.19,1.52,1.52,0,0,1,1.56,1.6,1.57,1.57,0,0,1-1.4,1.6c-4.1.49-7.47,3.57-7.47,9.69v7.19a1.58,1.58,0,1,1-3.16,0V10.33"/><path d="M132.11,30.64c-5.71,0-10.37-4.43-10.37-10.92v-.08c0-6,4.22-10.92,10-10.92,6.15,0,9.65,5.07,9.65,10.64a1.45,1.45,0,0,1-1.45,1.46h-15c.44,4.54,3.61,7.1,7.31,7.1a8.45,8.45,0,0,0,6-2.44,1.34,1.34,0,0,1,2.25,1,1.33,1.33,0,0,1-.48,1,10.51,10.51,0,0,1-7.84,3.17m6.15-12.14c-.32-3.82-2.5-7.15-6.63-7.15-3.62,0-6.35,3-6.75,7.15Z"/><path d="M87.55,24.07V24c0-4.46,3.68-6.83,9-6.83a22.43,22.43,0,0,1,6.51.9v-.74c0-3.8-2.34-5.77-6.3-5.77a10.73,10.73,0,0,0-4.92,1,1.58,1.58,0,0,1-.57.12,1.4,1.4,0,0,1-1.39-1.35A1.3,1.3,0,0,1,90.77,10a14,14,0,0,1,6.35-1.2c3,0,5.28.77,6.83,2.33a8.34,8.34,0,0,1,2.17,6.18V28.95a1.5,1.5,0,0,1-1.52,1.55A1.45,1.45,0,0,1,103.1,29V27a9.27,9.27,0,0,1-7.65,3.64c-3.93,0-7.9-2.25-7.9-6.58m15.59-1.64v-2a22.08,22.08,0,0,0-6.22-.9c-4,0-6.18,1.72-6.18,4.38v.08c0,2.66,2.45,4.21,5.32,4.21,3.88,0,7.08-2.37,7.08-5.72"/><path d="M5.78,10.09a3,3,0,0,0-4-1.5,2.93,2.93,0,0,0-1.47,4L7,27.19c1.06,2.29,2.17,3.49,4.26,3.49s3.2-1.31,4.26-3.49l5.91-12.88a.85.85,0,0,1,.84-.54.93.93,0,0,1,.93.94V27.18c0,1.92,1.07,3.5,3.12,3.5s3.16-1.58,3.16-3.5V17a3.14,3.14,0,0,1,3.33-3.24A3.06,3.06,0,0,1,36,17v10.2c0,1.92,1.07,3.5,3.12,3.5s3.16-1.58,3.16-3.5V17a3.13,3.13,0,0,1,3.33-3.24A3.06,3.06,0,0,1,48.83,17v10.2c0,1.92,1.07,3.5,3.12,3.5s3.16-1.58,3.16-3.5V15.57a7.28,7.28,0,0,0-7.56-7.26,9.7,9.7,0,0,0-6.71,2.85c-1.37-1.78-3.27-2.85-6.47-2.85C31,8.32,28,11.17,28,11.17a7.58,7.58,0,0,0-5.65-2.85c-3,0-5.37,1.32-6.82,4.63l-4.29,10.1-5.5-13"/><path d="M141.61,11.36v0a2.62,2.62,0,1,1,5.23,0h0a2.62,2.62,0,1,1-5.23,0m4.73,0h0a2.12,2.12,0,1,0-4.23,0h0a2.12,2.12,0,1,0,4.23,0"/><path d="M143.22,10.31a.28.28,0,0,1,.28-.28h.87a1,1,0,0,1,.74.26.78.78,0,0,1,.22.58h0a.78.78,0,0,1-.51.77l.38.47a.33.33,0,0,1,.09.21.26.26,0,0,1-.26.26.35.35,0,0,1-.27-.14l-.54-.69h-.45v.55a.28.28,0,0,1-.56,0Zm1.12,1c.27,0,.42-.14.42-.36h0c0-.24-.16-.36-.43-.36h-.56v.73Z"/></g><g id="airwatch"><path d="M185.8,2.3a1.88,1.88,0,0,1,3.73,0v.53a1.88,1.88,0,0,1-3.73,0Zm.29,8a1.59,1.59,0,0,1,1.56-1.6,1.58,1.58,0,0,1,1.6,1.6V28.76a1.54,1.54,0,0,1-1.56,1.6,1.58,1.58,0,0,1-1.6-1.6Z"/><path d="M193,10.34a1.59,1.59,0,0,1,1.56-1.6,1.58,1.58,0,0,1,1.6,1.6v4c1.56-3.53,4.64-5.66,7.3-5.66a1.52,1.52,0,0,1,1.56,1.6,1.57,1.57,0,0,1-1.4,1.6c-4.1.49-7.47,3.57-7.47,9.68v7.22a1.58,1.58,0,1,1-3.16,0Z"/><path d="M213.4,29,207,11.12a3,3,0,0,1-.2-.86,1.56,1.56,0,0,1,1.6-1.52,1.66,1.66,0,0,1,1.6,1.31L215.29,26l5.37-16a1.62,1.62,0,0,1,1.56-1.27h.16A1.68,1.68,0,0,1,224,10l5.33,16,5.42-16a1.55,1.55,0,0,1,1.52-1.23,1.52,1.52,0,0,1,1.56,1.48,3,3,0,0,1-.21.86l-6.48,18a1.87,1.87,0,0,1-1.72,1.44h-.12A1.77,1.77,0,0,1,227.6,29l-5.29-15.47L217,29a1.77,1.77,0,0,1-1.72,1.44h-.08A1.88,1.88,0,0,1,213.4,29Z"/><path d="M261.6,24.54V11.73h-1.72a1.44,1.44,0,0,1-1.4-1.4,1.41,1.41,0,0,1,1.4-1.39h1.72v-5a1.57,1.57,0,0,1,1.56-1.6,1.63,1.63,0,0,1,1.6,1.6v5h5.5a1.45,1.45,0,0,1,1.43,1.39,1.42,1.42,0,0,1-1.43,1.4h-5.5V24.13c0,2.58,1.44,3.53,3.57,3.53a9,9,0,0,0,1.93-.29,1.37,1.37,0,0,1,1.35,1.35,1.32,1.32,0,0,1-.9,1.23,8,8,0,0,1-3.12.57C264.18,30.53,261.6,28.84,261.6,24.54Z"/><path d="M272,19.65v-.08a11,11,0,0,1,18.67-8,1.49,1.49,0,0,1,.49,1.11,1.51,1.51,0,0,1-1.52,1.52,1.63,1.63,0,0,1-1-.37,8.18,8.18,0,0,0-5.79-2.54c-4.31,0-7.59,3.65-7.59,8.21v.08A7.92,7.92,0,0,0,283,27.82a8.48,8.48,0,0,0,5.91-2.59,1.25,1.25,0,0,1,.9-.41,1.48,1.48,0,0,1,1.44,1.44,1.43,1.43,0,0,1-.41,1,10.67,10.67,0,0,1-8,3.41A10.89,10.89,0,0,1,272,19.65Z"/><path d="M294,1.6a1.58,1.58,0,1,1,3.16,0v11a8,8,0,0,1,7.26-4.14c5.13,0,8.12,3.45,8.12,8.49V28.76a1.58,1.58,0,1,1-3.16,0v-11c0-3.94-2.13-6.4-5.87-6.4S297.18,14,297.18,18V28.76a1.54,1.54,0,0,1-1.56,1.6,1.58,1.58,0,0,1-1.6-1.6Z"/><path d="M163.75,24.07V24c0-4.46,3.68-6.83,9-6.83a22.43,22.43,0,0,1,6.51.9v-.74c0-3.8-2.34-5.77-6.3-5.77a10.73,10.73,0,0,0-4.92,1,1.58,1.58,0,0,1-.57.12,1.4,1.4,0,0,1-1.39-1.35A1.3,1.3,0,0,1,167,10a14,14,0,0,1,6.35-1.2c3,0,5.28.77,6.83,2.33a8.34,8.34,0,0,1,2.17,6.18V28.95a1.5,1.5,0,0,1-1.52,1.55A1.45,1.45,0,0,1,179.3,29V27a9.27,9.27,0,0,1-7.65,3.64c-3.93,0-7.9-2.25-7.9-6.58m15.59-1.64v-2a22.08,22.08,0,0,0-6.22-.9c-4,0-6.18,1.72-6.18,4.38v.08c0,2.66,2.45,4.21,5.32,4.21,3.88,0,7.08-2.37,7.08-5.72"/><path d="M237.89,24.07V24c0-4.46,3.68-6.83,9-6.83a22.43,22.43,0,0,1,6.51.9v-.74c0-3.8-2.34-5.77-6.3-5.77a10.73,10.73,0,0,0-4.92,1,1.58,1.58,0,0,1-.57.12,1.4,1.4,0,0,1-1.39-1.35,1.3,1.3,0,0,1,.86-1.31,14,14,0,0,1,6.35-1.2c3,0,5.28.77,6.83,2.33a8.34,8.34,0,0,1,2.17,6.18V28.95a1.5,1.5,0,0,1-1.52,1.55,1.45,1.45,0,0,1-1.5-1.47V27a9.27,9.27,0,0,1-7.65,3.64c-3.93,0-7.9-2.25-7.9-6.58m15.59-1.64v-2a22.08,22.08,0,0,0-6.22-.9c-4,0-6.18,1.72-6.18,4.38v.08c0,2.66,2.45,4.21,5.32,4.21,3.88,0,7.08-2.37,7.08-5.72"/><path d="M314,11.36v0a2.62,2.62,0,1,1,5.23,0h0a2.62,2.62,0,1,1-5.23,0m4.73,0h0a2.12,2.12,0,1,0-4.23,0h0a2.12,2.12,0,1,0,4.23,0"/><path d="M315.61,10.31a.28.28,0,0,1,.28-.28h.87a1,1,0,0,1,.74.26.78.78,0,0,1,.22.58h0a.78.78,0,0,1-.51.77l.38.47a.33.33,0,0,1,.09.21.26.26,0,0,1-.26.26.35.35,0,0,1-.27-.14l-.54-.69h-.45v.55a.28.28,0,0,1-.56,0Zm1.12,1c.27,0,.42-.14.42-.36h0c0-.24-.16-.36-.43-.36h-.56v.73Z"/></g></g></g></g></svg>