<svg xmlns="http://www.w3.org/2000/svg" viewBox="0 0 261.78 39.87"><defs><style>.vmware-1{fill:#717073;}</style></defs><title>VMware</title><g id="Layer_2" data-name="Layer 2"><g id="Layer_1-2" data-name="Layer 1"><path class="vmware-1" d="M112.46,37,101,5a5.2,5.2,0,0,1-.37-1.53A2.77,2.77,0,0,1,103.48.8a3,3,0,0,1,2.85,2.33l9.5,27.5,9.56-27.58A2.88,2.88,0,0,1,128.15.8h.3a3,3,0,0,1,2.92,2.26l9.49,27.58L150.51,3A2.75,2.75,0,0,1,153.21.8,2.7,2.7,0,0,1,156,3.43,5.39,5.39,0,0,1,155.62,5L144.08,37A3.34,3.34,0,0,1,141,39.5h-.22A3.15,3.15,0,0,1,137.72,37L128.31,9.83,118.81,37a3.15,3.15,0,0,1-3.06,2.55h-.15A3.34,3.34,0,0,1,112.46,37"/><path class="vmware-1" d="M196,3.59A2.84,2.84,0,0,1,198.79.73a2.81,2.81,0,0,1,2.86,2.86v6.48c2.78-6.29,8.94-9.26,13-9.26a2.71,2.71,0,0,1,2.79,2.85A2.79,2.79,0,0,1,215,6.51c-7.32.88-13.31,6.37-13.31,17.27V36.6a2.82,2.82,0,1,1-5.63,0v-33"/><path class="vmware-1" d="M235.52,39.81c-10.18,0-18.49-7.9-18.49-19.48v-.15C217,9.4,224.55.71,234.8.71c11,0,17.2,9,17.2,19a2.59,2.59,0,0,1-2.58,2.61h-26.8c.78,8.1,6.44,12.67,13,12.67a15.07,15.07,0,0,0,10.68-4.34,2.38,2.38,0,0,1,4,1.75,2.38,2.38,0,0,1-.86,1.8,18.74,18.74,0,0,1-14,5.65m11-21.65c-.57-6.81-4.45-12.74-11.83-12.74-6.45,0-11.33,5.42-12,12.74Z"/><path class="vmware-1" d="M156.09,28.08v-.15c0-7.95,6.56-12.18,16.11-12.18a40,40,0,0,1,11.61,1.61V16c0-6.78-4.17-10.28-11.24-10.28a19.13,19.13,0,0,0-8.78,1.72,2.82,2.82,0,0,1-1,.22,2.5,2.5,0,0,1-2.48-2.41A2.32,2.32,0,0,1,161.83,3,25,25,0,0,1,173.15.81c5.32,0,9.41,1.38,12.17,4.15,2.55,2.55,3.87,6.2,3.87,11V36.79a2.67,2.67,0,0,1-2.71,2.77,2.58,2.58,0,0,1-2.68-2.63v-3.6a16.53,16.53,0,0,1-13.63,6.49c-7,0-14.08-4-14.08-11.74m27.79-2.92V21.52a39.37,39.37,0,0,0-11.09-1.61c-7.07,0-11,3.07-11,7.8v.15c0,4.74,4.37,7.51,9.48,7.51,6.92,0,12.62-4.23,12.62-10.21"/><path class="vmware-1" d="M10.3,3.17A5.31,5.31,0,0,0,3.16.5,5.22,5.22,0,0,0,.54,7.65l12,26c1.88,4.08,3.87,6.22,7.59,6.22,4,0,5.71-2.33,7.59-6.22l10.54-23a1.51,1.51,0,0,1,1.5-1,1.66,1.66,0,0,1,1.65,1.68V33.63c0,3.43,1.9,6.24,5.56,6.24s5.63-2.81,5.63-6.24V15.45a5.59,5.59,0,0,1,5.94-5.78,5.45,5.45,0,0,1,5.71,5.78V33.63c0,3.43,1.91,6.24,5.56,6.24s5.64-2.81,5.64-6.24V15.45a5.58,5.58,0,0,1,5.93-5.78,5.45,5.45,0,0,1,5.71,5.78V33.63c0,3.43,1.9,6.24,5.56,6.24s5.63-2.81,5.63-6.24V12.94C98.24,5.33,92.12,0,84.76,0a17.3,17.3,0,0,0-12,5.09C70.36,1.91,67,0,61.27,0,55.25,0,50,5.09,50,5.09A13.51,13.51,0,0,0,39.91,0c-5.34,0-9.58,2.35-12.17,8.26l-7.64,18L10.3,3.17"/><path class="vmware-1" d="M252.46,5.43v0a4.66,4.66,0,1,1,9.33,0v0a4.66,4.66,0,1,1-9.33,0m8.43,0h0a3.77,3.77,0,1,0-7.55,0v0a3.77,3.77,0,1,0,7.55,0"/><path class="vmware-1" d="M255.33,3.55a.5.5,0,0,1,.5-.5h1.56a1.77,1.77,0,0,1,1.32.46,1.4,1.4,0,0,1,.39,1h0a1.38,1.38,0,0,1-.9,1.37l.69.84a.59.59,0,0,1,.16.38.46.46,0,0,1-.47.46.61.61,0,0,1-.49-.25l-1-1.22h-.79v1a.49.49,0,0,1-.5.5.49.49,0,0,1-.5-.5Zm2,1.7c.48,0,.75-.25.75-.64h0c0-.42-.29-.65-.77-.65h-1v1.3Z"/></g></g></svg>
