<?xml version="1.0" encoding="UTF-8" ?>
<!DOCTYPE svg PUBLIC "-//W3C//DTD SVG 1.1//EN" "http://www.w3.org/Graphics/SVG/1.1/DTD/svg11.dtd">
<svg width="491pt" height="88pt" viewBox="0 0 491 88" version="1.1" xmlns="http://www.w3.org/2000/svg">
  <g id="#00adefff">
    <path fill="#00adef" opacity="1.00" d=" M 40.00 6.91 C 55.75 4.50 71.53 2.23 87.31 0.04 C 87.32 13.87 87.31 27.69 87.32 41.52 C 71.55 41.58 55.78 41.82 40.00 41.87 C 39.99 30.21 39.99 18.56 40.00 6.91 Z"/>
    <path fill="#00adef" opacity="1.00" d=" M 0.00 12.49 C 11.86 10.66 23.77 9.08 35.68 7.59 C 35.69 19.06 35.69 30.52 35.70 41.99 C 23.80 41.98 11.90 42.16 0.00 42.13 L 0.00 12.49 Z"/>
    <path fill="#00adef" opacity="1.00" d=" M 188.42 14.42 C 191.54 12.43 195.53 16.58 193.71 19.70 C 192.83 21.99 189.61 22.86 187.79 21.18 C 185.51 19.63 185.83 15.51 188.42 14.42 Z"/>
    <path
      fill="#00adef"
      opacity="1.00"
      d=" M 270.13 14.01 C 272.13 14.00 274.13 14.00 276.13 14.00 C 276.13 32.67 276.13 51.33 276.13 70.00 C 274.13 70.00 272.14 70.00 270.15 70.00 C 270.16 67.97 270.12 65.94 269.98 63.91 C 265.65 71.69 254.07 73.41 247.45 67.64 C 242.72 63.57 241.28 56.95 241.53 50.96 C 241.58 44.88 243.58 38.42 248.42 34.45 C 254.71 29.27 265.86 29.57 270.17 37.18 C 270.09 29.45 270.16 21.73 270.13 14.01 M 257.21 36.15 C 252.41 36.91 249.16 41.29 248.26 45.82 C 247.08 51.28 247.29 57.60 250.73 62.24 C 254.45 67.18 262.66 67.29 266.64 62.62 C 269.35 59.80 270.12 55.76 270.14 51.98 C 270.17 47.99 270.51 43.49 267.86 40.16 C 265.52 36.83 261.15 35.33 257.21 36.15 Z"/>
    <path
      fill="#00adef"
      opacity="1.00"
      d=" M 447.34 16.15 C 447.87 16.08 448.93 15.93 449.45 15.86 C 449.48 33.90 449.46 51.95 449.46 70.00 C 447.48 70.00 445.51 70.00 443.54 70.00 C 443.58 54.98 443.44 39.95 443.61 24.93 C 439.84 27.54 435.77 29.77 431.34 31.01 C 431.37 29.01 431.39 27.01 431.41 25.01 C 437.21 23.04 442.49 19.86 447.34 16.15 Z"/>
    <path
      fill="#00adef"
      opacity="1.00"
      d=" M 471.33 16.13 C 476.53 15.26 482.30 17.16 485.39 21.58 C 489.78 27.78 490.19 35.73 490.41 43.06 C 490.26 50.80 489.41 59.19 484.47 65.50 C 479.92 71.47 470.60 72.87 464.50 68.48 C 459.55 64.91 457.61 58.68 456.73 52.91 C 455.73 44.34 455.82 35.35 458.80 27.17 C 460.68 21.62 465.32 16.84 471.33 16.13 M 470.41 21.50 C 465.08 23.66 463.55 29.96 462.81 35.08 C 462.03 42.22 461.85 49.58 463.55 56.61 C 464.40 60.07 466.19 63.74 469.62 65.26 C 473.51 67.22 478.71 65.53 480.76 61.69 C 484.03 56.04 484.11 49.26 484.15 42.91 C 484.02 36.72 483.77 30.06 480.35 24.68 C 478.32 21.40 473.95 20.08 470.41 21.50 Z"/>
    <path
      fill="#00adef"
      opacity="1.00"
      d=" M 113.95 16.99 C 116.20 17.00 118.45 17.00 120.71 17.03 C 124.22 29.71 127.68 42.41 131.20 55.10 C 131.95 57.76 132.51 60.48 132.84 63.24 C 136.50 47.67 141.50 32.43 145.70 16.99 C 147.65 17.00 149.60 17.00 151.55 17.01 C 154.64 28.00 157.53 39.04 160.59 50.04 C 161.72 54.42 163.18 58.74 163.64 63.27 C 166.95 47.72 171.67 32.48 175.42 17.03 C 177.64 17.00 179.86 17.00 182.08 17.00 C 177.24 34.69 172.20 52.33 167.30 70.00 C 164.90 70.00 162.49 70.00 160.09 70.00 C 156.54 57.31 153.02 44.61 149.43 31.94 C 148.83 29.89 148.58 27.77 148.39 25.65 C 148.11 27.48 147.85 29.33 147.38 31.12 C 143.75 44.04 140.07 56.94 136.54 69.88 C 134.14 70.01 131.74 70.02 129.34 70.00 C 124.19 52.34 119.08 34.66 113.95 16.99 Z"/>
    <path
      fill="#00adef"
      opacity="1.00"
      d=" M 209.06 38.12 C 212.49 32.01 220.49 29.20 226.94 32.03 C 232.07 34.03 233.98 39.97 234.14 45.03 C 234.42 53.35 234.19 61.68 234.26 70.00 C 232.26 70.00 230.26 70.00 228.26 69.99 C 228.17 62.00 228.47 53.99 228.12 46.00 C 227.96 42.04 226.28 37.28 221.97 36.27 C 215.68 34.37 209.40 40.04 209.20 46.26 C 209.02 54.17 209.19 62.09 209.13 70.00 C 207.13 70.00 205.13 70.00 203.13 70.00 C 203.14 57.33 203.14 44.67 203.13 32.00 C 205.13 32.00 207.14 32.00 209.14 32.00 C 209.13 34.04 209.12 36.08 209.06 38.12 Z"/>
    <path
      fill="#00adef"
      opacity="1.00"
      d=" M 299.47 31.06 C 304.82 30.59 310.75 31.43 314.77 35.30 C 319.31 39.49 320.66 46.00 320.41 51.95 C 320.34 57.30 318.36 62.73 314.44 66.46 C 306.26 73.90 291.07 72.27 285.88 62.04 C 281.80 53.47 282.62 41.61 290.07 35.10 C 292.74 32.84 296.12 31.81 299.47 31.06 M 298.39 36.50 C 289.58 39.21 288.09 50.72 290.84 58.29 C 293.03 65.01 301.57 67.99 307.70 64.85 C 311.85 62.94 313.74 58.26 314.14 53.97 C 314.59 48.96 314.19 43.28 310.65 39.37 C 307.65 35.99 302.57 35.26 298.39 36.50 Z"/>
    <path
      fill="#00adef"
      opacity="1.00"
      d=" M 390.46 31.04 C 394.21 30.78 398.03 31.14 401.56 32.52 C 402.54 34.38 401.78 36.82 402.01 38.91 C 397.80 36.28 392.00 34.60 387.43 37.28 C 384.30 38.98 384.15 44.01 387.20 45.88 C 391.57 48.71 397.12 49.45 401.00 53.09 C 405.28 57.21 404.24 65.13 399.23 68.22 C 393.14 72.10 385.12 71.72 378.74 68.76 C 378.74 66.52 378.73 64.28 378.69 62.04 C 383.23 65.50 389.61 67.42 395.04 64.96 C 398.21 63.37 398.37 58.50 395.58 56.45 C 391.21 53.23 385.22 52.72 381.34 48.70 C 377.51 44.84 378.20 37.74 382.47 34.47 C 384.68 32.44 387.67 31.83 390.46 31.04 Z"/>
    <path fill="#00adef" opacity="1.00" d=" M 187.13 32.01 C 189.13 32.00 191.13 32.00 193.13 32.00 C 193.13 44.67 193.13 57.33 193.13 70.00 C 191.13 70.00 189.13 70.00 187.13 70.00 C 187.13 57.33 187.14 44.67 187.13 32.01 Z"/>
    <path
      fill="#00adef"
      opacity="1.00"
      d=" M 322.91 32.00 C 324.99 32.00 327.08 32.00 329.17 32.00 C 331.65 41.05 334.05 50.12 336.58 59.16 C 337.09 60.86 337.28 62.62 337.46 64.38 C 340.29 53.48 343.87 42.78 347.08 31.99 C 348.90 32.00 350.72 32.01 352.55 32.02 C 355.30 42.82 358.72 53.46 361.00 64.37 C 363.35 53.52 366.69 42.91 369.30 32.12 C 371.31 32.02 373.32 31.99 375.34 31.97 C 371.53 44.64 367.88 57.35 364.05 70.00 C 361.97 70.00 359.90 70.00 357.83 70.00 C 355.13 59.70 351.63 49.60 349.44 39.19 C 346.83 49.59 343.21 59.71 340.23 70.00 C 338.22 70.00 336.22 70.00 334.22 70.00 C 330.46 57.33 326.62 44.69 322.91 32.00 Z"/>
    <path fill="#00adef" opacity="1.00" d=" M 0.00 45.74 C 11.89 45.70 23.78 45.89 35.67 45.87 C 35.67 57.37 35.70 68.87 35.68 80.37 C 23.80 78.61 11.90 77.07 0.00 75.46 L 0.00 45.74 Z"/>
    <path fill="#00adef" opacity="1.00" d=" M 39.93 46.20 C 55.73 46.20 71.52 46.20 87.31 46.20 C 87.33 59.99 87.31 73.78 87.31 87.58 C 71.56 85.22 55.78 83.03 40.00 80.89 C 39.98 69.33 39.95 57.77 39.93 46.20 Z"/>
  </g>
</svg>